<svg width="24" height="24" viewBox="0 0 24 24" fill="none" xmlns="http://www.w3.org/2000/svg"><path d="M12 15.2269C12.9488 15.2283 13.8815 15.002 14.721 14.5702L15.156 15.2663C14.1858 15.7783 13.1028 16.0469 12.0008 16.0452L11.9992 16.0452C10.8972 16.0469 9.81419 15.7783 8.84397 15.2663L9.27904 14.5702C10.1185 15.002 11.0512 15.2283 12 15.2269ZM12 15.2269C11.9997 15.2269 11.9995 15.2269 11.9992 15.2269L12 14.7269L12.0008 15.2269C12.0005 15.2269 12.0003 15.2269 12 15.2269ZM19.2164 15.1361H18.7755L18.7203 15.5735C18.5139 17.2103 17.7173 18.7156 16.48 19.8067C15.3682 20.7872 13.9692 21.3728 12.5 21.4815V20.6607C13.8961 20.5431 15.2123 19.9359 16.2105 18.9376C17.3272 17.8209 17.9545 16.3062 17.9545 14.7269V9.2721C17.9545 7.6928 17.3272 6.17817 16.2105 5.06142C15.0938 3.94468 13.5793 3.31729 12 3.31729C10.4207 3.31729 8.90618 3.94468 7.78949 5.06143C6.6728 6.17817 6.04545 7.6928 6.04545 9.2721V15.1361H3.81818C3.46859 15.1361 3.1333 14.9972 2.8861 14.7499C2.63889 14.5027 2.5 14.1674 2.5 13.8178V10.1812C2.5 9.8316 2.63889 9.49629 2.8861 9.24907C3.1333 9.00185 3.46859 8.86297 3.81818 8.86297H4.78364H5.22449L5.2797 8.42559C5.4863 6.78893 6.28299 5.28392 7.52029 4.19294C8.75759 3.10196 10.3505 2.5 12 2.5C13.6495 2.5 15.2424 3.10196 16.4797 4.19294C17.717 5.28392 18.5137 6.78893 18.7203 8.42559L18.7755 8.86297H19.2164H20.1818C20.5314 8.86297 20.8667 9.00185 21.1139 9.24907C21.3611 9.49629 21.5 9.8316 21.5 10.1812V13.8178C21.5 14.1674 21.3611 14.5027 21.1139 14.7499C20.8667 14.9972 20.5314 15.1361 20.1818 15.1361H19.2164Z" stroke="#2385C8"/></svg>