<svg width="24" height="24" viewBox="0 0 24 24" fill="none" xmlns="http://www.w3.org/2000/svg"><path d="M12 14.5C13.3807 14.5 14.5 13.3807 14.5 12C14.5 10.6193 13.3807 9.5 12 9.5C10.6193 9.5 9.5 10.6193 9.5 12C9.5 13.3807 10.6193 14.5 12 14.5Z" stroke="#2385C8" stroke-width="1.5" stroke-miterlimit="10" stroke-linecap="round" stroke-linejoin="round"/><path d="M6 9.5V14.5" stroke="#2385C8" stroke-width="1.5" stroke-miterlimit="10" stroke-linecap="round" stroke-linejoin="round"/><path d="M19 22C21.2091 22 23 20.2091 23 18C23 15.7909 21.2091 14 19 14C16.7909 14 15 15.7909 15 18C15 20.2091 16.7909 22 19 22Z" stroke="#2385C8" stroke-width="1.5" stroke-miterlimit="10" stroke-linecap="round" stroke-linejoin="round"/><path d="M19.25 16.75V17.68C19.25 18.03 19.07 18.36 18.76 18.54L18 19" stroke="#2385C8" stroke-width="1.5" stroke-miterlimit="10" stroke-linecap="round" stroke-linejoin="round"/><path d="M22 15.2V9C22 5.5 20 4 17 4H7C4 4 2 5.5 2 9V15C2 18.5 4 20 7 20H15.5" stroke="#2385C8" stroke-width="1.5" stroke-miterlimit="10" stroke-linecap="round" stroke-linejoin="round"/></svg>