<svg width="24" height="24" viewBox="0 0 24 24" fill="none" xmlns="http://www.w3.org/2000/svg"><rect x="2" y="2" width="20" height="20" rx="10" fill="#F77E21"/><rect x="5" y="5" width="14" height="14" rx="7" fill="#F77E21" stroke="#FDFEFF" stroke-linecap="round"/><path d="M11.1663 9.91645L9.50018 10.7498L7.83325 9.91645L9.50018 9.0831L11.1663 9.91645Z" fill="#FDFEFF"/><path d="M13.6668 8.66667L11.9996 9.50003L10.3334 8.66667L11.9996 7.83331L13.6668 8.66667Z" fill="#FDFEFF"/><path d="M13.6668 11.1672L11.9996 12.0005L10.3334 11.1672L11.9996 10.3338L13.6668 11.1672Z" fill="#FDFEFF"/><path d="M16.1666 9.91645L14.4999 10.7498L12.833 9.91645L14.4999 9.0831L16.1666 9.91645Z" fill="#FDFEFF"/><path d="M12.0027 12.0031L10.3302 11.1663V15.3307L12.0025 16.1667L12.0027 12.0031Z" fill="#FDFEFF"/><path d="M7.83362 9.91815V14.0813L9.50321 14.9171V10.7535L7.83362 9.91815Z" fill="#FDFEFF"/><path d="M11.9974 12.003L13.6702 11.1667V15.3306L11.9974 16.1666V12.003Z" fill="#FDFEFF"/><path d="M16.1666 9.91815V14.0813L14.4965 14.9171V10.7535L16.1666 9.91815Z" fill="#FDFEFF"/><path opacity="0.3" d="M10.97 2.06489C8.78117 2.3056 6.41172 3.26698 4.70079 5.17312C3.0184 7.04747 2 9.34117 2 11.9919C2 14.6426 3.0598 17.0045 4.74219 18.8789C6.73354 20.9009 8.65514 21.6422 10.9922 21.9492C10.9922 21.9492 16.991 17.6468 12.0334 11.9919C7.0757 6.33705 10.97 2.06489 10.97 2.06489Z" fill="white"/></svg>