<svg width="24" height="24" viewBox="0 0 24 24" fill="none" xmlns="http://www.w3.org/2000/svg"><path d="M6.73 19.7C7.55 18.82 8.8 18.89 9.52 19.85L10.53 21.2C11.34 22.27 12.65 22.27 13.46 21.2L14.47 19.85C15.19 18.89 16.44 18.82 17.26 19.7C19.04 21.6 20.49 20.97 20.49 18.31V7.04C20.5 3.01 19.56 2 15.78 2H8.22C4.44 2 3.5 3.01 3.5 7.04V18.3C3.5 20.97 4.96 21.59 6.73 19.7Z" stroke="#2385C8" stroke-width="1.5" stroke-linecap="round" stroke-linejoin="round"/><path d="M8 7H16" stroke="#2385C8" stroke-width="1.5" stroke-linecap="round" stroke-linejoin="round"/><path d="M9 11H15" stroke="#2385C8" stroke-width="1.5" stroke-linecap="round" stroke-linejoin="round"/><rect x="15" y="15" width="7" height="7" rx="3" fill="#FDFEFF"/><path d="M23 19C23 20.2 22.47 21.27 21.64 22C20.93 22.62 20.01 23 19 23C16.79 23 15 21.21 15 19C15 17.74 15.58 16.61 16.5 15.88C17.19 15.33 18.06 15 19 15C21.21 15 23 16.79 23 19Z" stroke="#2385C8" stroke-width="1.5" stroke-miterlimit="10" stroke-linecap="round" stroke-linejoin="round"/><path d="M19.25 17.75V19.25L18 20" stroke="#2385C8" stroke-width="1.5" stroke-miterlimit="10" stroke-linecap="round" stroke-linejoin="round"/></svg>