<svg width="56" height="56" viewBox="0 0 56 56" fill="none" xmlns="http://www.w3.org/2000/svg"><rect x="-1.52588e-05" width="56" height="56" rx="28" fill="#FDFEFF"/><rect x="22.4333" y="15.6666" width="21.4" height="21.4" rx="4.5" fill="#F48CAD" stroke="#333537"/><rect x="19.6332" y="36.6666" width="27" height="6.00001" rx="1.5" fill="#F48CAD" stroke="#333537"/><rect x="24.7332" y="17.9667" width="16.8" height="16.8" rx="3" fill="#FDF3F6"/><path d="M28.9333 27.7666C28.9333 27.7666 30.1618 25.9208 31.3333 25.2777C32.5929 24.5861 33.6969 26.0131 34.9333 25.2777C36.2347 24.5035 37.3333 22.1666 37.3333 22.1666" stroke="#F48CAD" stroke-linecap="round"/><path d="M31.7332 30.5668C31.7332 30.5668 32.3475 29.6439 32.9332 29.3223C33.563 28.9766 34.1151 29.6901 34.7332 29.3223C35.3839 28.9353 35.9332 27.7668 35.9332 27.7668" stroke="#F48CAD" stroke-linecap="round"/><rect x="7.96661" y="25.9724" width="9.50001" height="16.6945" rx="1.5" fill="#F48CAD" stroke="#333537"/><path d="M9.27908 23.6805C9.27908 22.8521 9.95066 22.1805 10.7791 22.1805H14.6541C15.4825 22.1805 16.1541 22.8521 16.1541 23.6805V26.2361H9.27908V23.6805Z" fill="#FDF3F6" stroke="#333537"/><path d="M10.5916 14.8333C10.5916 14.0049 11.2632 13.3333 12.0916 13.3333H13.3416C14.17 13.3333 14.8416 14.0049 14.8416 14.8333V22.4444H10.5916V14.8333Z" fill="#F48CAD" stroke="#333537"/><path d="M10.5916 13.8333C10.5916 13.5572 10.8154 13.3333 11.0916 13.3333H13.7166C14.3379 13.3333 14.8416 13.837 14.8416 14.4583V16.125H11.7166C11.0953 16.125 10.5916 15.6213 10.5916 15V13.8333Z" fill="#FDF3F6" stroke="#333537"/></svg>