<svg width="57" height="56" viewBox="0 0 57 56" fill="none" xmlns="http://www.w3.org/2000/svg"><rect x="0.333344" width="56" height="56" rx="28" fill="#FDFEFF"/><rect x="30.2839" y="22.386" width="6.72528" height="6.72528" fill="#FBD4C6" stroke="black"/><path d="M26.5451 48.2003C39.3401 49.6488 41.03 36.1296 38.616 26.2316C38.616 26.2316 36.9259 28.1629 32.8219 28.1629C27.9936 28.6457 30.6491 26.7144 28.9592 26.7144C26.549 26.7144 25.0966 31.3013 23.1653 33.7154C21.589 34.8882 20.1328 31.8222 19.3026 33.9568C17.1749 39.428 20.7121 47.54 26.5451 48.2003Z" fill="#8FD1FF" stroke="black"/><path d="M26.4041 47.959V40.2768C26.4041 40.2768 28.0325 42.6678 29.5425 42.8376C32.9972 43.226 34.6122 34.9226 34.6122 34.9226" stroke="black" stroke-linecap="round"/><path d="M38.7162 20.4375C38.7162 23.093 35.3364 25.99 31.2324 25.99C27.8162 25.99 24.4728 22.3688 24.4728 20.4375V12.7122C24.4728 9.22389 27.1283 7.40106 30.7496 7.40106C34.0601 7.40106 38.7162 8.12531 38.7162 12.7122V20.4375Z" fill="#FBD4C6" stroke="black" stroke-linecap="round"/><path d="M40.0169 11.5053C37.5092 5.94478 25.8868 5.34001 24.5663 10.7639C23.5672 14.868 30.8431 17.2822 33.4987 18.2478C39.0807 20.2774 35.1886 33.4571 35.1886 33.4571C40.0059 34.7969 45.5694 23.8173 40.0169 11.5053Z" fill="black" stroke="black" stroke-linecap="round"/><path d="M24.2651 27.6989C24.2651 27.6989 20.5256 23.3111 16.1378 27.6989C12.2752 31.5615 15.8156 35.6233 15.8156 35.6233L21.3681 41.7009C21.3681 41.7009 26.9628 47.2113 31.2661 42.908C35.451 38.7232 31.2661 34.6999 31.2661 34.6999L24.2651 27.6989Z" fill="#F48CAD" stroke="black"/><path d="M26.2475 33.4743C24.9758 35.0034 22.6136 34.9195 21.1556 33.5668C19.8137 32.3218 19.4916 30.4168 20.5446 28.9194C21.3454 27.7808 23.8034 27.4752 23.8034 27.4752L26.9511 30.6229C26.9511 30.6229 26.9809 32.5924 26.2475 33.4743Z" fill="#FBD4C6" stroke="black" stroke-linecap="round"/></svg>