<svg width="57" height="56" viewBox="0 0 57 56" fill="none" xmlns="http://www.w3.org/2000/svg"><rect x="0.333328" width="56" height="56" rx="28" fill="white"/><rect x="25.5" y="15.5" width="20.5" height="27.6666" rx="3.5" fill="#F7A7A9" stroke="#333537"/><rect x="27.8667" y="19.3" width="7.16666" height="4.29999" rx="2.15" fill="#D9353D"/><path d="M27.8667 21.45C27.8667 20.2626 28.8292 19.3 30.0167 19.3H31.4572V23.6H30.0166C28.8292 23.6 27.8667 22.6374 27.8667 21.45Z" fill="#FCE5E6"/><rect x="27.8667" y="27.1833" width="7.16666" height="4.29999" rx="2.15" fill="#D9353D"/><path d="M27.8667 29.3333C27.8667 28.1459 28.8292 27.1833 30.0167 27.1833H31.4572V31.4833H30.0166C28.8292 31.4833 27.8667 30.5208 27.8667 29.3333Z" fill="#FCE5E6"/><rect x="27.8667" y="35.0666" width="7.16666" height="4.29999" rx="2.15" fill="#D9353D"/><path d="M27.8667 37.2166C27.8667 36.0292 28.8292 35.0666 30.0167 35.0666H31.4572V39.3666H30.0166C28.8292 39.3666 27.8667 38.404 27.8667 37.2166Z" fill="#FCE5E6"/><rect x="36.4666" y="19.3" width="7.16666" height="4.29999" rx="2.15" fill="#D9353D"/><path d="M36.4666 21.45C36.4666 20.2626 37.4292 19.3 38.6166 19.3H40.0572V23.6H38.6166C37.4292 23.6 36.4666 22.6374 36.4666 21.45Z" fill="#FCE5E6"/><rect x="36.4668" y="27.1832" width="7.16666" height="4.29999" rx="2.15" fill="#D9353D"/><path d="M36.4595 29.3333C36.4595 28.1459 37.422 27.1833 38.6095 27.1833H40.05V31.4833H38.6095C37.422 31.4833 36.4595 30.5208 36.4595 29.3333Z" fill="#FCE5E6"/><rect x="36.4669" y="35.0667" width="7.16666" height="4.29999" rx="2.15" fill="#D9353D"/><path d="M36.4521 37.2166C36.4521 36.0292 37.4147 35.0666 38.6021 35.0666H40.0427V39.3666H38.6021C37.4147 39.3666 36.4521 38.404 36.4521 37.2166Z" fill="#FCE5E6"/><path d="M13.1666 20.5H33.4999V41C33.4999 42.3807 32.3806 43.5 30.9999 43.5H15.6666C14.2859 43.5 13.1666 42.3807 13.1666 41V20.5Z" fill="#E3F4FF" stroke="#333537"/><rect x="10.5" y="12.5" width="25.6667" height="8.33333" rx="1.5" fill="#8FD1FF" stroke="#333537"/><rect x="22" y="26.6666" width="2.66667" height="10.6667" rx="1.33333" fill="#2385C8"/><rect x="18" y="30.6666" width="10.6667" height="2.66667" rx="1.33333" fill="#2385C8"/></svg>