<svg width="57" height="56" viewBox="0 0 57 56" fill="none" xmlns="http://www.w3.org/2000/svg"><rect x="0.666672" width="56" height="56" rx="28" fill="#FDFEFF"/><rect x="10.5" y="22.6667" width="17.6667" height="25.8333" rx="2.5" fill="#F8A075" stroke="#333537"/><rect x="14" y="19.1667" width="10.6667" height="3.66667" rx="0.5" fill="#FDEAE4" stroke="#333537"/><rect x="-0.5" y="0.5" width="13" height="2.5" rx="0.5" transform="matrix(-1 0 0 1 26.5 8.16669)" fill="#FDEAE4" stroke="#333537"/><mask id="path-5-inside-1_1258_4748" fill="white"><rect width="2.33333" height="2.33333" rx="0.5" transform="matrix(-1 0 0 1 26.3333 10.5)"/></mask><rect width="2.33333" height="2.33333" rx="0.5" transform="matrix(-1 0 0 1 26.3333 10.5)" fill="#D9D9D9" stroke="#333537" stroke-width="2" mask="url(#path-5-inside-1_1258_4748)"/><rect x="16.3333" y="16.8334" width="6" height="2.5" rx="0.5" fill="#FDEAE4" stroke="#333537"/><rect x="16.3333" y="11" width="6" height="2.5" rx="0.5" fill="#FDEAE4" stroke="#333537"/><rect x="17.5" y="13.3334" width="3.66667" height="3.66667" rx="0.5" fill="#F8A075" stroke="#333537"/><path d="M32.6667 42.5001H43.3333V47.0001C43.3333 47.8285 42.6618 48.5001 41.8333 48.5001H34.1667C33.3382 48.5001 32.6667 47.8285 32.6667 47.0001V42.5001Z" fill="#FDEAE4" stroke="#333537"/><path d="M32.6267 42.6667L30.3767 15.6667H45.6233L43.3733 42.6667H32.6267Z" fill="#F8A075" stroke="#333537"/></svg>