<svg width="57" height="56" viewBox="0 0 57 56" fill="none" xmlns="http://www.w3.org/2000/svg"><rect x="0.666656" width="56" height="56" rx="28" fill="#FDFEFF"/><rect x="11.6666" y="21.6168" width="22.3142" height="18.9267" rx="2.5" fill="#73C08B" stroke="#333537"/><rect x="11.6666" y="14.5" width="22.3142" height="7.54" rx="1.5" fill="#E4F0E7" stroke="#333537"/><path d="M18.3123 34L16.3443 28.664H18.2163L19.5843 33.072H19.0723L20.4403 28.664H22.1523L20.0403 34H18.3123ZM22.8091 34V30.008H24.2651L24.2811 34H22.8091ZM22.7931 29.448V28.4H24.2811V29.448H22.7931ZM27.1504 34.2C26.6011 34.2 26.2011 34.08 25.9504 33.84C25.7051 33.6 25.5824 33.2613 25.5824 32.824V31.008H25.0384V29.928H25.5824V28.824H27.1184V29.928H27.9504V31.008H27.1184V32.688C27.1184 32.7893 27.1451 32.864 27.1984 32.912C27.2571 32.96 27.3397 32.984 27.4464 32.984C27.5211 32.984 27.6064 32.9653 27.7024 32.928C27.7984 32.8907 27.8811 32.8427 27.9504 32.784V34.008C27.8171 34.0827 27.6811 34.1333 27.5424 34.16C27.4091 34.1867 27.2784 34.2 27.1504 34.2Z" fill="#E4F0E7"/><rect x="36.0047" y="18.4316" width="10.6667" height="22.3333" rx="5.33333" fill="#E4F0E7" stroke="#333537"/><path d="M36.0047 23.765C36.0047 20.8195 38.3925 18.4316 41.338 18.4316C44.2835 18.4316 46.6713 20.8195 46.6713 23.765V29.0983H36.0047V23.765Z" fill="#73C08B" stroke="#333537"/></svg>