<svg width="364" height="112" viewBox="0 0 364 112" fill="none" xmlns="http://www.w3.org/2000/svg">
<g filter="url(#filter0_d_1412_7231)">
<path d="M16 52C16 29.9086 33.9086 12 56 12H348V92H16V52Z" fill="white"/>
<path d="M54.72 52.56C52.1067 52.56 49.8133 52.0933 47.84 51.16C45.8933 50.2267 44.3733 48.7467 43.28 46.72C42.2133 44.6667 41.68 41.9867 41.68 38.68C41.68 35.4267 42.2133 32.7733 43.28 30.72C44.3733 28.6667 45.8933 27.16 47.84 26.2C49.8133 25.2133 52.1067 24.72 54.72 24.72C56.4 24.72 58.04 24.8933 59.64 25.24C61.24 25.5867 62.7733 26.0667 64.24 26.68V32.56C62.64 31.7333 61.1467 31.0667 59.76 30.56C58.4 30.0533 56.9867 29.8 55.52 29.8C54 29.8 52.6933 30.0667 51.6 30.6C50.5333 31.1333 49.72 32.0533 49.16 33.36C48.6 34.64 48.32 36.4 48.32 38.64C48.32 40.8533 48.6 42.6133 49.16 43.92C49.7467 45.2 50.56 46.12 51.6 46.68C52.64 47.24 53.8533 47.52 55.24 47.52C55.96 47.52 56.6267 47.48 57.24 47.4C57.88 47.2933 58.44 47.12 58.92 46.88V42.16H54.52V37.12H65.4V49.68C63.7467 50.5867 62.0133 51.2933 60.2 51.8C58.4133 52.3067 56.5867 52.56 54.72 52.56ZM71.2822 52V33.88C71.6555 33.56 72.3222 33.2 73.2822 32.8C74.2422 32.3733 75.3355 32 76.5622 31.68C77.8155 31.3333 79.0689 31.16 80.3222 31.16C81.5755 31.16 82.5622 31.2533 83.2822 31.44C84.0022 31.6267 84.5489 31.8667 84.9222 32.16V36.52C84.4689 36.4133 83.8955 36.3333 83.2022 36.28C82.5089 36.2267 81.7889 36.2 81.0422 36.2C80.2955 36.1733 79.5889 36.1733 78.9222 36.2C78.2555 36.2267 77.6955 36.28 77.2422 36.36V52H71.2822ZM96.5916 52.6C95.3649 52.6 94.2049 52.48 93.1116 52.24C92.0449 52.0267 91.0982 51.6667 90.2716 51.16C89.4716 50.6267 88.8449 49.92 88.3916 49.04C87.9382 48.1333 87.7116 47.0133 87.7116 45.68C87.7116 44.4267 87.9649 43.3333 88.4716 42.4C89.0049 41.4667 89.8049 40.7467 90.8716 40.24C91.9382 39.7333 93.2849 39.48 94.9116 39.48C95.8182 39.48 96.6982 39.5733 97.5516 39.76C98.4049 39.9467 99.1649 40.2 99.8316 40.52C100.525 40.84 101.072 41.1867 101.472 41.56L101.712 44.44C101.178 44.12 100.538 43.8667 99.7916 43.68C99.0449 43.4933 98.2449 43.4 97.3916 43.4C96.0849 43.4 95.1249 43.6 94.5116 44C93.9249 44.3733 93.6316 44.9733 93.6316 45.8C93.6316 46.3067 93.7782 46.76 94.0716 47.16C94.3649 47.56 94.7516 47.8667 95.2316 48.08C95.7382 48.2933 96.2582 48.4 96.7916 48.4C98.1516 48.4 99.0982 48.3067 99.6316 48.12C100.192 47.9333 100.472 47.56 100.472 47V39.56C100.472 38.3333 100.072 37.4533 99.2716 36.92C98.4982 36.36 97.3916 36.08 95.9516 36.08C94.7782 36.08 93.5916 36.2933 92.3916 36.72C91.2182 37.12 90.2582 37.6133 89.5116 38.2V32.92C90.2049 32.4933 91.2716 32.0933 92.7116 31.72C94.1782 31.3467 95.8182 31.16 97.6316 31.16C98.2716 31.16 98.9782 31.2133 99.7516 31.32C100.525 31.4267 101.298 31.6267 102.072 31.92C102.845 32.1867 103.552 32.5867 104.192 33.12C104.858 33.6533 105.392 34.3333 105.792 35.16C106.192 35.9867 106.392 37.0133 106.392 38.24L106.352 47.8C106.352 48.9467 105.965 49.88 105.192 50.6C104.418 51.2933 103.298 51.8 101.832 52.12C100.392 52.44 98.6449 52.6 96.5916 52.6ZM120.362 52.8C118.016 52.8 116.269 52.2533 115.122 51.16C113.976 50.04 113.402 48.4667 113.402 46.44V36.32H110.442V31.76H113.402V26.2H119.642V31.76H124.082V36.32H119.642V45.68C119.642 46.3733 119.789 46.8933 120.082 47.24C120.376 47.56 120.869 47.72 121.562 47.72C121.962 47.72 122.402 47.64 122.882 47.48C123.362 47.32 123.762 47.12 124.082 46.88V52C123.522 52.2933 122.909 52.4933 122.242 52.6C121.602 52.7333 120.976 52.8 120.362 52.8ZM129.126 52V32.04H135.086L135.126 52H129.126ZM129.006 29V24.4H135.166V29H129.006ZM146.851 52.6C145.411 52.6 144.171 52.44 143.131 52.12C142.118 51.8267 141.158 51.4933 140.251 51.12V45.88C140.811 46.2533 141.438 46.64 142.131 47.04C142.824 47.4133 143.584 47.72 144.411 47.96C145.264 48.2 146.158 48.32 147.091 48.32C148.051 48.32 148.718 48.16 149.091 47.84C149.491 47.4933 149.691 47.08 149.691 46.6C149.691 46.1467 149.491 45.7867 149.091 45.52C148.691 45.2267 148.171 44.9867 147.531 44.8C146.891 44.6133 146.211 44.44 145.491 44.28C144.851 44.1467 144.211 43.9467 143.571 43.68C142.931 43.3867 142.358 43 141.851 42.52C141.344 42.04 140.931 41.4533 140.611 40.76C140.318 40.04 140.171 39.1733 140.171 38.16C140.171 36.8533 140.424 35.7733 140.931 34.92C141.438 34.04 142.104 33.3333 142.931 32.8C143.758 32.2667 144.651 31.8933 145.611 31.68C146.571 31.44 147.504 31.3333 148.411 31.36C150.064 31.4133 151.371 31.6 152.331 31.92C153.318 32.2133 154.211 32.6 155.011 33.08V37.76C154.104 37.2533 153.198 36.7867 152.291 36.36C151.411 35.9067 150.398 35.68 149.251 35.68C148.211 35.68 147.464 35.84 147.011 36.16C146.558 36.48 146.331 36.9067 146.331 37.44C146.331 37.9467 146.478 38.3467 146.771 38.64C147.091 38.9333 147.504 39.1733 148.011 39.36C148.518 39.52 149.078 39.68 149.691 39.84C150.358 40 151.038 40.2 151.731 40.44C152.451 40.6533 153.118 40.9733 153.731 41.4C154.371 41.8 154.878 42.3733 155.251 43.12C155.651 43.84 155.851 44.8 155.851 46C155.824 47.6267 155.384 48.9333 154.531 49.92C153.678 50.88 152.571 51.5733 151.211 52C149.878 52.4 148.424 52.6 146.851 52.6ZM164.228 44.64L163.548 25.32H169.268L168.548 44.64H164.228ZM163.748 52V47.44H169.028V52H163.748Z" fill="#2385C8"/>
<path d="M45.712 75.288L44.62 72.46L52.544 62.324H57.332L45.712 75.288ZM42.1 81V62.324H45.908V81H42.1ZM49.492 69.744L57.92 81H53.076L46.552 72.18L49.492 69.744ZM66.9124 81.42C64.5977 81.42 62.8617 80.776 61.7044 79.488C60.547 78.2 59.9684 76.3427 59.9684 73.916C59.9684 71.3213 60.5564 69.436 61.7324 68.26C62.927 67.084 64.6444 66.496 66.8844 66.496C68.4524 66.496 69.759 66.776 70.8044 67.336C71.8497 67.8773 72.6244 68.6987 73.1284 69.8C73.651 70.9013 73.9124 72.2733 73.9124 73.916C73.9124 76.3427 73.3057 78.2 72.0924 79.488C70.8977 80.776 69.171 81.42 66.9124 81.42ZM66.9124 78.508C67.7337 78.508 68.3964 78.3213 68.9004 77.948C69.423 77.5747 69.8057 77.052 70.0484 76.38C70.291 75.6893 70.4124 74.868 70.4124 73.916C70.4124 72.852 70.2817 71.984 70.0204 71.312C69.7777 70.64 69.395 70.1453 68.8724 69.828C68.3684 69.5107 67.715 69.352 66.9124 69.352C66.091 69.352 65.4284 69.52 64.9244 69.856C64.4204 70.192 64.047 70.696 63.8044 71.368C63.5804 72.04 63.4684 72.8893 63.4684 73.916C63.4684 75.4093 63.739 76.548 64.2804 77.332C64.8217 78.116 65.699 78.508 66.9124 78.508ZM77.3559 68.064C77.7479 67.8773 78.2146 67.6907 78.7559 67.504C79.2973 67.3173 79.8853 67.1587 80.5199 67.028C81.1546 66.8787 81.7893 66.7667 82.4239 66.692C83.0773 66.5987 83.6933 66.552 84.2719 66.552C85.5786 66.552 86.6613 66.7293 87.5199 67.084C88.3973 67.42 89.0506 67.9613 89.4799 68.708C89.9279 69.436 90.1519 70.3973 90.1519 71.592V81H86.6239V72.208C86.6239 71.8533 86.5773 71.5173 86.4839 71.2C86.3906 70.864 86.2319 70.5747 86.0079 70.332C85.7839 70.0707 85.4759 69.8747 85.0839 69.744C84.6919 69.5947 84.1879 69.52 83.5719 69.52C83.1053 69.52 82.6293 69.5667 82.1439 69.66C81.6586 69.7533 81.2479 69.8747 80.9119 70.024V81H77.3559V68.064ZM98.487 81.42C97.479 81.42 96.6203 81.308 95.911 81.084C95.2016 80.8787 94.5203 80.6267 93.867 80.328V77.136C94.2963 77.416 94.7443 77.6867 95.211 77.948C95.6963 78.1907 96.2096 78.3867 96.751 78.536C97.311 78.6853 97.9083 78.76 98.543 78.76C99.2896 78.76 99.8403 78.62 100.195 78.34C100.568 78.0413 100.755 77.6867 100.755 77.276C100.755 76.884 100.615 76.5853 100.335 76.38C100.055 76.156 99.691 75.9693 99.243 75.82C98.795 75.6707 98.319 75.5213 97.815 75.372C97.3483 75.26 96.8723 75.1107 96.387 74.924C95.9203 74.7373 95.491 74.4853 95.099 74.168C94.707 73.8507 94.3896 73.4493 94.147 72.964C93.923 72.46 93.811 71.8533 93.811 71.144C93.811 70.304 93.979 69.5947 94.315 69.016C94.651 68.4373 95.0896 67.9707 95.631 67.616C96.1723 67.2613 96.7696 67.0093 97.423 66.86C98.0763 66.692 98.711 66.608 99.327 66.608C100.391 66.6453 101.25 66.776 101.903 67C102.556 67.2053 103.172 67.476 103.751 67.812L103.779 70.696C103.126 70.3413 102.491 70.024 101.875 69.744C101.259 69.4453 100.559 69.296 99.775 69.296C99.047 69.296 98.4776 69.4267 98.067 69.688C97.675 69.9307 97.479 70.276 97.479 70.724C97.479 71.116 97.6003 71.4333 97.843 71.676C98.0856 71.9187 98.403 72.1053 98.795 72.236C99.187 72.3667 99.6163 72.4973 100.083 72.628C100.55 72.7587 101.035 72.908 101.539 73.076C102.043 73.2253 102.51 73.4493 102.939 73.748C103.368 74.0467 103.714 74.448 103.975 74.952C104.255 75.4373 104.395 76.0907 104.395 76.912C104.376 77.9947 104.087 78.872 103.527 79.544C102.967 80.1973 102.23 80.6733 101.315 80.972C100.419 81.2707 99.4763 81.42 98.487 81.42ZM114.325 81.42C113.018 81.42 111.879 81.2147 110.909 80.804C109.957 80.3747 109.21 79.74 108.669 78.9C108.146 78.06 107.885 76.9867 107.885 75.68V66.888H111.441V75.316C111.441 76.3613 111.674 77.136 112.141 77.64C112.607 78.144 113.335 78.396 114.325 78.396C115.351 78.396 116.089 78.144 116.537 77.64C117.003 77.136 117.237 76.3613 117.237 75.316V66.888H120.597V75.68C120.597 77.6213 120.037 79.068 118.917 80.02C117.815 80.9533 116.285 81.42 114.325 81.42ZM128.318 81H124.79V61.568H128.318V81ZM137.911 81.448C136.455 81.448 135.345 81.0933 134.579 80.384C133.814 79.656 133.431 78.6107 133.431 77.248V69.688H131.247V66.888H133.431V62.996H137.099V66.888H140.375V69.688H137.099V76.688C137.099 77.2667 137.211 77.696 137.435 77.976C137.659 78.256 138.051 78.396 138.611 78.396C138.91 78.396 139.218 78.3493 139.535 78.256C139.871 78.144 140.151 78.0133 140.375 77.864V80.944C140.002 81.1307 139.591 81.2613 139.143 81.336C138.714 81.4107 138.303 81.448 137.911 81.448ZM149.207 81.42C148.423 81.42 147.677 81.3453 146.967 81.196C146.258 81.0467 145.623 80.804 145.063 80.468C144.503 80.1133 144.055 79.6373 143.719 79.04C143.402 78.424 143.243 77.6587 143.243 76.744C143.243 75.792 143.439 74.9893 143.831 74.336C144.223 73.664 144.793 73.16 145.539 72.824C146.305 72.4693 147.238 72.292 148.339 72.292C149.011 72.292 149.637 72.3573 150.215 72.488C150.794 72.6 151.317 72.7587 151.783 72.964C152.25 73.1693 152.633 73.3933 152.931 73.636L153.183 75.624C152.791 75.3627 152.287 75.1573 151.671 75.008C151.074 74.84 150.421 74.756 149.711 74.756C148.722 74.756 147.985 74.9147 147.499 75.232C147.014 75.5493 146.771 76.044 146.771 76.716C146.771 77.1827 146.902 77.5747 147.163 77.892C147.425 78.1907 147.761 78.424 148.171 78.592C148.582 78.7413 149.011 78.816 149.459 78.816C150.486 78.816 151.223 78.7507 151.671 78.62C152.138 78.4707 152.371 78.1627 152.371 77.696V72.124C152.371 71.2093 152.082 70.5467 151.503 70.136C150.925 69.7067 150.113 69.492 149.067 69.492C148.265 69.492 147.443 69.632 146.603 69.912C145.763 70.1733 145.082 70.5187 144.559 70.948V67.728C145.063 67.4107 145.819 67.1307 146.827 66.888C147.835 66.6453 148.918 66.524 150.075 66.524C150.561 66.524 151.074 66.5707 151.615 66.664C152.157 66.7573 152.67 66.9067 153.155 67.112C153.659 67.3173 154.117 67.6067 154.527 67.98C154.938 68.3347 155.265 68.792 155.507 69.352C155.75 69.8933 155.871 70.556 155.871 71.34V78.032C155.871 78.9093 155.591 79.6 155.031 80.104C154.471 80.5893 153.697 80.9253 152.707 81.112C151.718 81.3173 150.551 81.42 149.207 81.42ZM164.227 81.42C163.219 81.42 162.36 81.308 161.651 81.084C160.941 80.8787 160.26 80.6267 159.607 80.328V77.136C160.036 77.416 160.484 77.6867 160.951 77.948C161.436 78.1907 161.949 78.3867 162.491 78.536C163.051 78.6853 163.648 78.76 164.283 78.76C165.029 78.76 165.58 78.62 165.935 78.34C166.308 78.0413 166.495 77.6867 166.495 77.276C166.495 76.884 166.355 76.5853 166.075 76.38C165.795 76.156 165.431 75.9693 164.983 75.82C164.535 75.6707 164.059 75.5213 163.555 75.372C163.088 75.26 162.612 75.1107 162.127 74.924C161.66 74.7373 161.231 74.4853 160.839 74.168C160.447 73.8507 160.129 73.4493 159.887 72.964C159.663 72.46 159.551 71.8533 159.551 71.144C159.551 70.304 159.719 69.5947 160.055 69.016C160.391 68.4373 160.829 67.9707 161.371 67.616C161.912 67.2613 162.509 67.0093 163.163 66.86C163.816 66.692 164.451 66.608 165.067 66.608C166.131 66.6453 166.989 66.776 167.643 67C168.296 67.2053 168.912 67.476 169.491 67.812L169.519 70.696C168.865 70.3413 168.231 70.024 167.615 69.744C166.999 69.4453 166.299 69.296 165.515 69.296C164.787 69.296 164.217 69.4267 163.807 69.688C163.415 69.9307 163.219 70.276 163.219 70.724C163.219 71.116 163.34 71.4333 163.583 71.676C163.825 71.9187 164.143 72.1053 164.535 72.236C164.927 72.3667 165.356 72.4973 165.823 72.628C166.289 72.7587 166.775 72.908 167.279 73.076C167.783 73.2253 168.249 73.4493 168.679 73.748C169.108 74.0467 169.453 74.448 169.715 74.952C169.995 75.4373 170.135 76.0907 170.135 76.912C170.116 77.9947 169.827 78.872 169.267 79.544C168.707 80.1973 167.969 80.6733 167.055 80.972C166.159 81.2707 165.216 81.42 164.227 81.42ZM173.709 81V67.028H177.265L177.293 81H173.709ZM173.625 64.788V61.876H177.349V64.788H173.625ZM189.828 81V62.324H196.856C199.955 62.324 202.242 63.108 203.716 64.676C205.21 66.244 205.956 68.568 205.956 71.648C205.956 74.728 205.21 77.0613 203.716 78.648C202.242 80.216 199.955 81 196.856 81H189.828ZM193.636 77.948H196.436C198.322 77.948 199.731 77.4533 200.664 76.464C201.598 75.456 202.064 73.8507 202.064 71.648C202.064 69.464 201.598 67.868 200.664 66.86C199.731 65.852 198.322 65.348 196.436 65.348H193.636V77.948ZM215.707 81.42C213.393 81.42 211.657 80.776 210.499 79.488C209.342 78.2 208.763 76.3427 208.763 73.916C208.763 71.3213 209.351 69.436 210.527 68.26C211.722 67.084 213.439 66.496 215.679 66.496C217.247 66.496 218.554 66.776 219.599 67.336C220.645 67.8773 221.419 68.6987 221.923 69.8C222.446 70.9013 222.707 72.2733 222.707 73.916C222.707 76.3427 222.101 78.2 220.887 79.488C219.693 80.776 217.966 81.42 215.707 81.42ZM215.707 78.508C216.529 78.508 217.191 78.3213 217.695 77.948C218.218 77.5747 218.601 77.052 218.843 76.38C219.086 75.6893 219.207 74.868 219.207 73.916C219.207 72.852 219.077 71.984 218.815 71.312C218.573 70.64 218.19 70.1453 217.667 69.828C217.163 69.5107 216.51 69.352 215.707 69.352C214.886 69.352 214.223 69.52 213.719 69.856C213.215 70.192 212.842 70.696 212.599 71.368C212.375 72.04 212.263 72.8893 212.263 73.916C212.263 75.4093 212.534 76.548 213.075 77.332C213.617 78.116 214.494 78.508 215.707 78.508ZM228.923 73.02L234.383 66.888H238.723L230.743 74.896L228.923 73.02ZM229.679 81H226.151V61.568H229.707L229.679 81ZM231.471 71.648L239.255 81H234.747L228.951 74.028L231.471 71.648ZM247.694 81.448C246.238 81.448 245.127 81.0933 244.362 80.384C243.597 79.656 243.214 78.6107 243.214 77.248V69.688H241.03V66.888H243.214V62.996H246.882V66.888H250.158V69.688H246.882V76.688C246.882 77.2667 246.994 77.696 247.218 77.976C247.442 78.256 247.834 78.396 248.394 78.396C248.693 78.396 249.001 78.3493 249.318 78.256C249.654 78.144 249.934 78.0133 250.158 77.864V80.944C249.785 81.1307 249.374 81.2613 248.926 81.336C248.497 81.4107 248.086 81.448 247.694 81.448ZM259.942 81.42C258.542 81.42 257.32 81.14 256.274 80.58C255.229 80.0013 254.417 79.1613 253.838 78.06C253.26 76.9587 252.97 75.6333 252.97 74.084C252.97 71.62 253.558 69.744 254.734 68.456C255.929 67.1493 257.6 66.496 259.746 66.496C261.296 66.496 262.537 66.832 263.47 67.504C264.422 68.176 265.113 69.1373 265.542 70.388C265.99 71.62 266.205 73.0947 266.186 74.812H255.266L254.986 72.404H263.358L262.686 73.412C262.649 71.9373 262.388 70.8827 261.902 70.248C261.436 69.5947 260.68 69.268 259.634 69.268C259 69.268 258.44 69.4173 257.954 69.716C257.488 69.996 257.124 70.472 256.862 71.144C256.62 71.816 256.498 72.74 256.498 73.916C256.498 75.372 256.844 76.492 257.534 77.276C258.225 78.0413 259.28 78.424 260.698 78.424C261.277 78.424 261.828 78.368 262.35 78.256C262.892 78.1253 263.386 77.976 263.834 77.808C264.301 77.64 264.693 77.4813 265.01 77.332V80.468C264.357 80.748 263.61 80.972 262.77 81.14C261.949 81.3267 261.006 81.42 259.942 81.42ZM269.592 81V68.26C269.854 68.092 270.311 67.868 270.964 67.588C271.636 67.308 272.411 67.0653 273.288 66.86C274.166 66.636 275.052 66.524 275.948 66.524C276.62 66.524 277.152 66.58 277.544 66.692C277.955 66.7853 278.272 66.9067 278.496 67.056V69.744C278.123 69.688 277.694 69.6413 277.208 69.604C276.742 69.5667 276.256 69.5573 275.752 69.576C275.267 69.576 274.791 69.5947 274.324 69.632C273.876 69.6693 273.484 69.716 273.148 69.772V81H269.592Z" fill="#F77E21"/>
</g>
<defs>
<filter id="filter0_d_1412_7231" x="0" y="0" width="364" height="112" filterUnits="userSpaceOnUse" color-interpolation-filters="sRGB">
<feFlood flood-opacity="0" result="BackgroundImageFix"/>
<feColorMatrix in="SourceAlpha" type="matrix" values="0 0 0 0 0 0 0 0 0 0 0 0 0 0 0 0 0 0 127 0" result="hardAlpha"/>
<feOffset dy="4"/>
<feGaussianBlur stdDeviation="8"/>
<feColorMatrix type="matrix" values="0 0 0 0 0.200417 0 0 0 0 0.208542 0 0 0 0 0.216667 0 0 0 0.25 0"/>
<feBlend mode="normal" in2="BackgroundImageFix" result="effect1_dropShadow_1412_7231"/>
<feBlend mode="normal" in="SourceGraphic" in2="effect1_dropShadow_1412_7231" result="shape"/>
</filter>
</defs>
</svg>
