<svg width="20" height="20" viewBox="0 0 20 20" fill="none" xmlns="http://www.w3.org/2000/svg"><path d="M7.1416 12.725L12.5916 7.27502" stroke="#2385C8" stroke-width="1.5" stroke-linecap="round" stroke-linejoin="round"/><path d="M7.48351 8.64167C8.0496 8.64167 8.50849 8.18278 8.50849 7.61668C8.50849 7.05059 8.0496 6.59167 7.48351 6.59167C6.91741 6.59167 6.4585 7.05059 6.4585 7.61668C6.4585 8.18278 6.91741 8.64167 7.48351 8.64167Z" stroke="#2385C8" stroke-width="1.5" stroke-linecap="round" stroke-linejoin="round"/><path d="M12.9332 13.4083C13.4993 13.4083 13.9582 12.9494 13.9582 12.3833C13.9582 11.8172 13.4993 11.3583 12.9332 11.3583C12.3671 11.3583 11.9082 11.8172 11.9082 12.3833C11.9082 12.9494 12.3671 13.4083 12.9332 13.4083Z" stroke="#2385C8" stroke-width="1.5" stroke-linecap="round" stroke-linejoin="round"/><path d="M9.99984 18.3333C14.6022 18.3333 18.3332 14.6024 18.3332 9.99999C18.3332 5.39762 14.6022 1.66666 9.99984 1.66666C5.39746 1.66666 1.6665 5.39762 1.6665 9.99999C1.6665 14.6024 5.39746 18.3333 9.99984 18.3333Z" stroke="#2385C8" stroke-width="1.5" stroke-linecap="round" stroke-linejoin="round"/></svg>