<svg width="24" height="24" viewBox="0 0 24 24" fill="none" xmlns="http://www.w3.org/2000/svg"><path d="M6.21429 5.75H19.7143C20.0625 5.75 20.3638 5.87044 20.6183 6.11133C20.8728 6.35221 21 6.64844 21 7V19.5C21 20.138 20.5547 20.7142 19.6641 21.2285C18.7734 21.7428 17.933 22 17.1429 22H5.57143C4.86161 22 4.25558 21.7559 3.75335 21.2676C3.25112 20.7793 3 20.1901 3 19.5V4.5C3 3.8099 3.25112 3.2207 3.75335 2.73242C4.25558 2.24414 4.86161 2 5.57143 2H19.7143C20.0625 2 20.3638 2.1237 20.6183 2.37109C20.8728 2.61849 21 2.91471 21 3.25977C21 3.60482 20.8728 3.89779 20.6183 4.13867C20.3638 4.37956 20.0625 4.5 19.7143 4.5H6.21429C6.04018 4.5 5.88951 4.56185 5.76228 4.68555C5.63504 4.80924 5.57143 4.95573 5.57143 5.125C5.57143 5.29427 5.63504 5.44076 5.76228 5.56445C5.88951 5.68815 6.04018 5.75 6.21429 5.75ZM10.7143 20.125C10.7143 20.2943 10.7779 20.4408 10.9051 20.5645C11.0324 20.6882 11.183 20.75 11.3571 20.75H12.6429C12.817 20.75 12.9676 20.6882 13.0949 20.5645C13.2221 20.4408 13.2857 20.2943 13.2857 20.125V18.875C13.2857 18.7057 13.2221 18.5592 13.0949 18.4355C12.9676 18.3118 12.817 18.25 12.6429 18.25H11.3571C11.183 18.25 11.0324 18.3118 10.9051 18.4355C10.7779 18.5592 10.7143 18.7057 10.7143 18.875V20.125ZM6.85714 12C6.85714 12.1693 6.92076 12.3158 7.04799 12.4395C7.17522 12.5632 7.32589 12.625 7.5 12.625H8.78571C8.95982 12.625 9.11049 12.5632 9.23772 12.4395C9.36496 12.3158 9.42857 12.1693 9.42857 12C9.42857 11.6484 9.67969 11.3522 10.1819 11.1113C10.6842 10.8704 11.2902 10.75 12 10.75C12.7098 10.75 13.3158 10.8737 13.8181 11.1211C14.3203 11.3685 14.5714 11.6615 14.5714 12C14.5714 12.3516 14.3203 12.6478 13.8181 12.8887C13.3158 13.1296 12.7098 13.25 12 13.25C11.6518 13.25 11.3504 13.3737 11.096 13.6211C10.8415 13.8685 10.7143 14.1615 10.7143 14.5V16.375C10.7143 16.5443 10.7779 16.6908 10.9051 16.8145C11.0324 16.9382 11.183 17 11.3571 17H12.6429C12.817 17 12.9676 16.9382 13.0949 16.8145C13.2221 16.6908 13.2857 16.5443 13.2857 16.375V15.6328C14.4107 15.4245 15.3348 14.9818 16.058 14.3047C16.7812 13.6276 17.1429 12.8594 17.1429 12C17.1429 10.9583 16.6406 10.0729 15.6362 9.34375C14.6317 8.61458 13.4196 8.25 12 8.25C11.317 8.25 10.6507 8.33789 10.0011 8.51367C9.35156 8.68945 8.80246 8.90755 8.35379 9.16797C7.90513 9.42839 7.54353 9.70182 7.26897 9.98828C6.99442 10.2747 6.85714 10.5286 6.85714 10.75V12Z" fill="#2385C8"/></svg>