<svg width="24" height="24" viewBox="0 0 24 24" fill="none" xmlns="http://www.w3.org/2000/svg"><path d="M12 3.00005C13.8149 3.00008 15.5874 3.5488 17.0848 4.5742C18.5823 5.5996 19.7347 7.05376 20.391 8.74585C21.0472 10.4379 21.1765 12.2889 20.762 14.0558C20.3474 15.8227 19.4084 17.423 18.0681 18.6466C16.7278 19.8703 15.0488 20.6602 13.2516 20.9126C11.4543 21.165 9.62277 20.8681 7.99725 20.061C6.37173 19.2539 5.02822 17.9741 4.14302 16.3898C3.25782 14.8054 2.87229 12.9904 3.03704 11.183C3.04886 11.0523 3.08633 10.9251 3.1473 10.8087C3.20827 10.6924 3.29156 10.5893 3.39241 10.5051C3.49325 10.421 3.60968 10.3576 3.73504 10.3184C3.8604 10.2793 3.99225 10.2652 4.12304 10.277C4.25384 10.2889 4.38103 10.3263 4.49735 10.3873C4.61366 10.4483 4.71683 10.5316 4.80096 10.6324C4.88509 10.7333 4.94854 10.8497 4.98767 10.975C5.0268 11.1004 5.04086 11.2323 5.02904 11.363C4.93289 12.3857 5.06423 13.417 5.41364 14.383C5.76305 15.3489 6.32188 16.2256 7.05004 16.9501C7.42504 17.3251 7.84204 17.657 8.29204 17.938C9.40655 18.6338 10.6944 19.0019 12.0082 19.0001C13.3221 18.9984 14.6089 18.6269 15.7216 17.9282C16.8343 17.2295 17.7278 16.2317 18.3001 15.049C18.8724 13.8664 19.1002 12.5465 18.9576 11.2404C18.815 9.9343 18.3077 8.69469 17.4937 7.66336C16.6797 6.63203 15.5919 5.8506 14.3547 5.40844C13.1175 4.96628 11.7808 4.88125 10.4975 5.16307C9.21422 5.44489 8.03616 6.08217 7.09804 7.00205L8.49804 7.00305C8.75438 7.0013 9.0016 7.09805 9.18865 7.27334C9.37571 7.44862 9.4883 7.68904 9.50319 7.94495C9.51808 8.20086 9.43412 8.45272 9.26865 8.6485C9.10319 8.84429 8.86886 8.96906 8.61404 8.99705L8.49804 9.00305H4.49604C4.25111 9.00302 4.01471 8.91309 3.83167 8.75033C3.64864 8.58757 3.5317 8.3633 3.50304 8.12005L3.49604 8.00305V4.00305C3.49429 3.74671 3.59105 3.49949 3.76633 3.31244C3.94161 3.12539 4.18203 3.01279 4.43794 2.99791C4.69386 2.98302 4.94571 3.06698 5.1415 3.23244C5.33729 3.3979 5.46206 3.63224 5.49004 3.88705L5.49604 4.00405V5.77805C6.33577 4.899 7.34518 4.19954 8.46315 3.72204C9.58111 3.24453 10.7844 2.99891 12 3.00005ZM11.25 7.00005C11.4313 7.00006 11.6064 7.06569 11.743 7.18482C11.8796 7.30394 11.9684 7.4685 11.993 7.64805L12 7.75005V12H14.25C14.4401 12.0001 14.623 12.0723 14.7618 12.202C14.9007 12.3318 14.9851 12.5093 14.9981 12.6989C15.011 12.8885 14.9515 13.0759 14.8316 13.2233C14.7117 13.3708 14.5403 13.4671 14.352 13.493L14.25 13.5H11.25C11.0688 13.5 10.8937 13.4344 10.7571 13.3153C10.6205 13.1962 10.5317 13.0316 10.507 12.852L10.5 12.75V7.75005C10.5 7.55114 10.5791 7.36037 10.7197 7.21972C10.8604 7.07907 11.0511 7.00005 11.25 7.00005Z" fill="#2385C8"/></svg>