<svg width="24" height="24" viewBox="0 0 24 24" fill="none" xmlns="http://www.w3.org/2000/svg"><path d="M11.9997 0.480042C5.63612 0.480042 0.478516 5.63764 0.478516 12C0.478358 13.5131 0.776255 15.0113 1.35519 16.4092C1.93413 17.8071 2.78277 19.0772 3.85265 20.1471C4.92252 21.217 6.19267 22.0656 7.59056 22.6446C8.98844 23.2235 10.4867 23.5214 11.9997 23.5212C18.3609 23.5212 23.5197 18.3636 23.5197 12C23.5197 5.63764 18.3609 0.480042 11.9997 0.480042ZM13.0749 4.63924C14.1981 4.63924 14.5281 5.29084 14.5281 6.03604C14.5281 6.96604 13.7841 7.82644 12.5133 7.82644C11.4501 7.82644 10.9437 7.29244 10.9749 6.40804C10.9749 5.66284 11.5977 4.63924 13.0749 4.63924ZM10.1973 18.9C9.42932 18.9 8.86892 18.4332 9.40532 16.3872L10.2849 12.7572C10.4373 12.1764 10.4625 11.9436 10.2849 11.9436C10.0557 11.9436 9.05852 12.3444 8.47052 12.7404L8.08772 12.1128C9.95372 10.554 12.0993 9.63964 13.0173 9.63964C13.7853 9.63964 13.9125 10.5468 13.5297 11.9436L12.5217 15.7596C12.3429 16.434 12.4197 16.6668 12.5985 16.6668C12.8289 16.6668 13.5825 16.3884 14.3241 15.804L14.7585 16.3872C12.9429 18.2016 10.9641 18.9 10.1973 18.9Z" fill="#FFDA8F"/></svg>