<svg width="24" height="24" viewBox="0 0 24 24" fill="none" xmlns="http://www.w3.org/2000/svg"><path d="M12.0001 0.480103C5.63648 0.480103 0.478882 5.6377 0.478882 12.0001C0.478724 13.5131 0.776621 15.0114 1.35556 16.4093C1.9345 17.8071 2.78314 19.0773 3.85301 20.1472C4.92289 21.217 6.19304 22.0657 7.59092 22.6446C8.98881 23.2236 10.4871 23.5215 12.0001 23.5213C18.3613 23.5213 23.5201 18.3637 23.5201 12.0001C23.5201 5.6377 18.3613 0.480103 12.0001 0.480103ZM13.0753 4.6393C14.1985 4.6393 14.5285 5.2909 14.5285 6.0361C14.5285 6.9661 13.7845 7.8265 12.5137 7.8265C11.4505 7.8265 10.9441 7.2925 10.9753 6.4081C10.9753 5.6629 11.5981 4.6393 13.0753 4.6393ZM10.1977 18.9001C9.42968 18.9001 8.86928 18.4333 9.40568 16.3873L10.2853 12.7573C10.4377 12.1765 10.4629 11.9437 10.2853 11.9437C10.0561 11.9437 9.05888 12.3445 8.47088 12.7405L8.08808 12.1129C9.95408 10.5541 12.0997 9.6397 13.0177 9.6397C13.7857 9.6397 13.9129 10.5469 13.5301 11.9437L12.5221 15.7597C12.3433 16.4341 12.4201 16.6669 12.5989 16.6669C12.8293 16.6669 13.5829 16.3885 14.3245 15.8041L14.7589 16.3873C12.9433 18.2017 10.9645 18.9001 10.1977 18.9001Z" fill="#FFC044"/></svg>