<svg width="24" height="24" viewBox="0 0 24 24" fill="none" xmlns="http://www.w3.org/2000/svg"><rect width="24" height="24" fill="none"/><path d="M12 20.8532C11.8524 20.6779 11.68 20.4703 11.4886 20.2344C10.842 19.4377 9.98112 18.323 9.12172 17.0493C8.26088 15.7734 7.4108 14.3515 6.7782 12.9395C6.1412 11.5176 5.75 10.1607 5.75 9C5.75 5.54421 8.54421 2.75 12 2.75C15.4558 2.75 18.25 5.54421 18.25 9C18.25 10.1607 17.8588 11.5176 17.2218 12.9395C16.5892 14.3515 15.7391 15.7734 14.8783 17.0493C14.0189 18.323 13.158 19.4377 12.5114 20.2344C12.32 20.4703 12.1476 20.6779 12 20.8532ZM8.75 9C8.75 10.7942 10.2058 12.25 12 12.25C13.7942 12.25 15.25 10.7942 15.25 9C15.25 7.20579 13.7942 5.75 12 5.75C10.2058 5.75 8.75 7.20579 8.75 9Z" stroke="#2385C8" stroke-width="1.5"/></svg>