<svg width="24" height="24" viewBox="0 0 24 24" fill="none" xmlns="http://www.w3.org/2000/svg"><path d="M12 2C9.11625 2 6.75 4.33704 6.75 7.18518V9.31481C6.03801 10.0022 5.47223 10.8232 5.08585 11.7295C4.69948 12.6358 4.5003 13.6092 4.5 14.5926C4.5 18.6741 7.8675 22 12 22C16.1325 22 19.5 18.6741 19.5 14.5926C19.4997 13.6092 19.3005 12.6358 18.9141 11.7295C18.5278 10.8232 17.962 10.0022 17.25 9.31481V7.18518C17.25 4.33704 14.8837 2 12 2ZM12 3.48148C14.0662 3.48148 15.75 5.14444 15.75 7.18518V8.2037C14.6438 7.56667 13.3695 7.18518 12 7.18518C10.6305 7.18518 9.35625 7.56741 8.25 8.2037V7.18518C8.25 5.14444 9.93375 3.48148 12 3.48148ZM12 8.66667C15.3225 8.66667 18 11.3111 18 14.5926C18 17.8741 15.3225 20.5185 12 20.5185C8.6775 20.5185 6 17.8741 6 14.5926C6 11.3111 8.6775 8.66667 12 8.66667ZM12 13.1111C11.6022 13.1111 11.2206 13.2672 10.9393 13.545C10.658 13.8229 10.5 14.1997 10.5 14.5926C10.5 15.1407 10.8022 15.6096 11.25 15.8667V18.2963H12.75V15.8667C13.1978 15.6096 13.5 15.1407 13.5 14.5926C13.5 14.1997 13.342 13.8229 13.0607 13.545C12.7794 13.2672 12.3978 13.1111 12 13.1111Z" fill="#2385C8"/></svg>