<svg width="16" height="16" viewBox="0 0 16 16" fill="none" xmlns="http://www.w3.org/2000/svg"><path d="M2.73305 10.3572L2.0179 13.6564C1.99323 13.777 1.99407 13.902 2.02037 14.0222C2.04667 14.1424 2.09776 14.2549 2.16991 14.3513C2.24206 14.4477 2.33344 14.5256 2.43738 14.5794C2.54133 14.6332 2.6552 14.6616 2.77069 14.6623C2.82451 14.6681 2.87873 14.6681 2.93255 14.6623L6.03784 13.8978L12 7.54874L8.67263 4L2.73305 10.3572Z" fill="#F77E21"/><path d="M13.775 4.72804L11.6092 2.2528C11.4668 2.09089 11.2741 2 11.0733 2C10.8724 2 10.6797 2.09089 10.5373 2.2528L9.33325 3.62887L12.5747 7.33333L13.7787 5.95727C13.8492 5.87633 13.905 5.78031 13.9429 5.6747C13.9809 5.56909 14.0003 5.45596 13.9999 5.34179C13.9996 5.22761 13.9795 5.11464 13.941 5.00932C13.9024 4.90401 13.846 4.80843 13.775 4.72804Z" fill="#F77E21"/></svg>
