<svg width="24" height="24" viewBox="0 0 24 24" fill="none" xmlns="http://www.w3.org/2000/svg"><path d="M10.0179 2.25C7.02413 2.25 4.58036 4.69377 4.58036 7.6875C4.58036 9.55955 5.5358 11.2234 6.98373 12.203C4.21294 13.3914 2.25 16.1389 2.25 19.3393H3.80357C3.80357 15.8981 6.5767 13.125 10.0179 13.125C11.0867 13.125 12.0794 13.4031 12.9541 13.8785C12.0593 14.9841 11.5712 16.3634 11.5714 17.7857C11.5714 21.2082 14.3632 24 17.7857 24C21.2082 24 24 21.2082 24 17.7857C24 14.3632 21.2082 11.5714 17.7857 11.5714C16.4768 11.5732 15.2021 11.9892 14.1441 12.7599C13.8008 12.5447 13.4295 12.3638 13.052 12.2022C13.7913 11.7036 14.397 11.0313 14.816 10.2442C15.235 9.45707 15.4545 8.57919 15.4554 7.6875C15.4554 4.69377 13.0116 2.25 10.0179 2.25ZM10.0179 3.80357C12.1719 3.80357 13.9018 5.53347 13.9018 7.6875C13.9018 9.84153 12.1719 11.5714 10.0179 11.5714C7.86383 11.5714 6.13393 9.84153 6.13393 7.6875C6.13393 5.53347 7.86383 3.80357 10.0179 3.80357ZM17.7857 13.125C20.3693 13.125 22.4464 15.2021 22.4464 17.7857C22.4464 20.3693 20.3693 22.4464 17.7857 22.4464C15.2021 22.4464 13.125 20.3693 13.125 17.7857C13.125 15.2021 15.2021 13.125 17.7857 13.125ZM17.0089 14.6786V17.0089H14.6786V18.5625H17.0089V20.8929H18.5625V18.5625H20.8929V17.0089H18.5625V14.6786H17.0089Z" fill="#2385C8"/></svg>