<svg width="24" height="24" viewBox="0 0 24 24" fill="none" xmlns="http://www.w3.org/2000/svg"><path d="M12 3C8.5305 3 5.7 5.71614 5.7 9.04545C5.7 11.1268 6.807 12.975 8.4846 14.0658C5.2743 15.3871 3 18.4444 3 22H4.8C4.8 18.1741 8.013 15.0909 12 15.0909C15.987 15.0909 19.2 18.1741 19.2 22H21C21 18.4444 18.7257 15.388 15.5154 14.0649C16.3716 13.5103 17.0731 12.7627 17.5586 11.8877C18.044 11.0126 18.2986 10.0368 18.3 9.04545C18.3 5.71614 15.4695 3 12 3ZM12 4.72727C14.4957 4.72727 16.5 6.65059 16.5 9.04545C16.5 11.4403 14.4957 13.3636 12 13.3636C9.5043 13.3636 7.5 11.4403 7.5 9.04545C7.5 6.65059 9.5043 4.72727 12 4.72727Z" fill="#2385C8"/></svg>