<svg width="24" height="24" viewBox="0 0 24 24" fill="none" xmlns="http://www.w3.org/2000/svg"><g clip-path="url(#clip0_4818_13575)"><path d="M4.23511 5.64705C4.23511 4.14936 4.83006 2.71301 5.88909 1.65398C6.94812 0.594956 8.38447 0 9.88216 0C11.3799 0 12.8162 0.594956 13.8752 1.65398C14.9343 2.71301 15.5292 4.14936 15.5292 5.64705C15.5292 7.14474 14.9343 8.58109 13.8752 9.64012C12.8162 10.6992 11.3799 11.2941 9.88216 11.2941C8.38447 11.2941 6.94812 10.6992 5.88909 9.64012C4.83006 8.58109 4.23511 7.14474 4.23511 5.64705Z" fill="#2385C8"/><path d="M0 15.5296C0 13.9583 1.27482 12.7061 2.83623 12.7061H11.6569C10.5072 14.0957 9.87948 15.8436 9.88234 17.6472C9.88234 19.4868 10.5219 21.1766 11.5906 22.5079C11.0329 22.5616 10.4612 22.5884 9.88234 22.5884C7.26352 22.5884 4.82399 22.0435 3.01411 20.89C1.176 19.7183 0 17.9155 0 15.5296Z" fill="#2385C8"/><path d="M24.0001 17.6469C24.0001 19.3318 23.3307 20.9477 22.1393 22.1391C20.9479 23.3305 19.332 23.9998 17.6471 23.9998C15.9622 23.9998 14.3463 23.3305 13.1549 22.1391C11.9635 20.9477 11.2942 19.3318 11.2942 17.6469C11.2942 15.962 11.9635 14.3461 13.1549 13.1547C14.3463 11.9633 15.9622 11.2939 17.6471 11.2939C19.332 11.2939 20.9479 11.9633 22.1393 13.1547C23.3307 14.3461 24.0001 15.962 24.0001 17.6469ZM20.9704 15.0295C20.9048 14.9637 20.8269 14.9116 20.7412 14.876C20.6554 14.8404 20.5635 14.8221 20.4706 14.8221C20.3778 14.8221 20.2859 14.8404 20.2001 14.876C20.1143 14.9116 20.0365 14.9637 19.9709 15.0295L16.2354 18.7664L15.3234 17.853C15.1908 17.7204 15.011 17.646 14.8236 17.646C14.6361 17.646 14.4564 17.7204 14.3238 17.853C14.1913 17.9855 14.1168 18.1653 14.1168 18.3528C14.1168 18.5402 14.1913 18.72 14.3238 18.8525L15.7356 20.2643C15.8012 20.33 15.8791 20.3822 15.9648 20.4178C16.0506 20.4533 16.1425 20.4717 16.2354 20.4717C16.3282 20.4717 16.4201 20.4533 16.5059 20.4178C16.5917 20.3822 16.6696 20.33 16.7351 20.2643L20.9704 16.029C21.0361 15.9634 21.0883 15.8855 21.1239 15.7998C21.1595 15.714 21.1778 15.6221 21.1778 15.5292C21.1778 15.4364 21.1595 15.3445 21.1239 15.2587C21.0883 15.1729 21.0361 15.095 20.9704 15.0295Z" fill="#2385C8"/></g><defs><clipPath id="clip0_4818_13575"><rect width="24" height="24" fill="white"/></clipPath></defs></svg>