<svg width="16" height="16" viewBox="0 0 16 16" fill="none" xmlns="http://www.w3.org/2000/svg"><ellipse cx="8.29265" cy="7.9727" rx="7.70732" ry="7.9727" fill="#DB6810"/><ellipse cx="7.70732" cy="7.9727" rx="7.70732" ry="7.9727" fill="#1F71AA"/><ellipse cx="7.41464" cy="7.9727" rx="7.41464" ry="7.9727" fill="#F77E21"/><ellipse cx="7.41475" cy="7.97267" rx="6.04879" ry="6.50404" fill="#FFC044"/><path d="M10.2483 2.22492C11.368 2.86446 12.2786 3.87122 12.8412 5.09587C12.5938 5.19833 12.4701 5.47908 12.5642 5.73206C12.8215 6.42332 12.9635 7.17926 12.9635 7.97267C12.9635 8.76608 12.8215 9.52202 12.5642 10.2133C12.4701 10.4663 12.5938 10.747 12.8412 10.8495C12.2786 12.0741 11.368 13.0809 10.2483 13.7204C10.1263 13.4836 9.838 13.383 9.59391 13.4959C8.92477 13.8056 8.18853 13.9767 7.41475 13.9767C6.64098 13.9767 5.90473 13.8056 5.23559 13.4959C4.9915 13.383 4.70324 13.4836 4.58125 13.7204C3.46153 13.0809 2.55093 12.0741 1.98832 10.8495C2.23566 10.747 2.3594 10.4663 2.26526 10.2133C2.00803 9.52203 1.86597 8.76608 1.86597 7.97267C1.86597 7.17926 2.00803 6.42332 2.26526 5.73206C2.3594 5.47908 2.23566 5.19833 1.98832 5.09587C2.55093 3.87122 3.46153 2.86446 4.58125 2.22492C4.70324 2.46179 4.9915 2.56239 5.23559 2.44943C5.90473 2.13977 6.64098 1.96863 7.41475 1.96863C8.18853 1.96863 8.92477 2.13977 9.59391 2.44943C9.838 2.56239 10.1263 2.46179 10.2483 2.22492Z" fill="#FFC044" stroke="white" stroke-linecap="round" stroke-linejoin="round" stroke-dasharray="5 5"/><path opacity="0.3" d="M7.43966 0.0546032C5.47318 0.0546033 3.58724 0.894583 2.19672 2.38975C0.806207 3.88492 0.0250241 5.91281 0.0250241 8.0273C0.025024 10.1418 0.806207 12.1697 2.19672 13.6648C3.58724 15.16 5.47318 16 7.43966 16C7.43966 16 12.4153 12.5382 8.31771 8.0273C4.22015 3.51643 7.43966 0.0546032 7.43966 0.0546032Z" fill="white"/><path d="M10.5286 7.08746C10.5097 7.0261 10.4597 6.98135 10.3994 6.97209L8.36853 6.65942L7.46038 4.71007C7.4334 4.65221 7.37772 4.6156 7.31692 4.6156C7.25612 4.6156 7.20044 4.65221 7.17345 4.71007L6.2653 6.65953L4.23439 6.9722C4.17413 6.98146 4.1241 7.02621 4.10522 7.08757C4.08645 7.14893 4.10213 7.21628 4.14575 7.26136L5.61528 8.77883L5.26841 10.9214C5.25817 10.985 5.28281 11.0493 5.33209 11.0873C5.38137 11.1251 5.44665 11.1302 5.50062 11.1002L7.31692 10.0882L9.13332 11.0999C9.15679 11.1129 9.18228 11.1194 9.20778 11.1194C9.24095 11.1194 9.27391 11.1084 9.30186 11.0871C9.35114 11.0491 9.37577 10.9849 9.36553 10.9212L9.01866 8.7786L10.4881 7.26125C10.5318 7.21616 10.5474 7.14882 10.5286 7.08746Z" fill="#DB6810"/></svg>