<svg width="76" height="76" viewBox="0 0 76 76" fill="none" xmlns="http://www.w3.org/2000/svg"> <g filter="url(#filter0_d)"> <rect x="6" y="5" width="64" height="64" rx="32" fill="white"/> <rect x="6.5" y="5.5" width="63" height="63" rx="31.5" stroke="#F77E21"/> </g> <mask id="mask0" mask-type="alpha" maskUnits="userSpaceOnUse" x="10" y="9" width="56" height="56"> <rect x="10" y="9" width="56" height="56" rx="28" fill="#C4C4C4"/> </mask> <g mask="url(#mask0)"> <path d="M17 60.5146V64.9997H59V60.5146C59 53.6345 48.5302 50.1379 37.9978 50.1509C27.5369 50.1596 17 53.2252 17 60.5146Z" fill="#2081BC"/> <path d="M37.8053 48.2915H33.7427V52.4675C33.7427 54.3573 35.3982 55.8901 37.4384 55.8901H38.1767C40.2169 55.8901 41.8724 54.3573 41.8724 52.4675V48.2915H37.8053Z" fill="#DBA689"/> <path opacity="0.54" d="M25.4607 61.0457H26.803V64.7296H25.4607V61.0457Z" fill="black"/> <path opacity="0.54" d="M48.8569 61.0457H50.1992V64.7296H48.8569V61.0457Z" fill="black"/> <path d="M52.2081 31.4792C52.2081 31.4792 54.8435 31.9234 54.8435 34.6885C54.8435 37.127 52.9195 38.0894 50.9956 38.0894V31.4792H52.2081Z" fill="#DBA689"/> <path d="M23.4474 31.4792C23.4474 31.4792 20.812 31.9234 20.812 34.6885C20.812 37.127 22.7359 38.0894 24.6599 38.0894V31.4792H23.4474Z" fill="#DBA689"/> <path d="M37.8278 13.3817C26.4631 13.3817 23.4922 21.9557 23.4922 34.0002C23.4922 46.4889 31.7383 49.7199 37.8278 49.7199C43.8278 49.7199 52.1633 46.5847 52.1633 34.0002C52.1678 21.9513 49.1924 13.3817 37.8278 13.3817Z" fill="#FADCBC"/> <path d="M32.6864 34.1481C32.6864 34.8596 32.1982 35.4342 31.5924 35.4342C30.9891 35.4342 30.4957 34.8571 30.4957 34.1481C30.4957 33.4365 30.9865 32.8594 31.5924 32.8594C32.1982 32.8594 32.6864 33.4365 32.6864 34.1481Z" fill="#444444"/> <path d="M43.2432 34.1481C43.2432 34.8596 43.7314 35.4342 44.3398 35.4342C44.9431 35.4342 45.4339 34.8571 45.4339 34.1481C45.4339 33.4365 44.9431 32.8594 44.3398 32.8594C43.7314 32.8594 43.2432 33.4365 43.2432 34.1481Z" fill="#444444"/> <path d="M40.6677 42.7974C39.8558 43.8645 39.2844 44.2426 38.0002 44.4173C36.9884 44.3681 36.4057 44.0457 35.3326 42.7974C35.0276 42.7974 34.8952 43.1065 35.0966 43.5768C35.3787 44.23 36.4319 45.4841 38.0002 45.4841C39.5685 45.4841 40.6217 44.23 40.9037 43.5768C41.1051 43.1109 40.9727 42.7974 40.6677 42.7974Z" fill="#C88059"/> <path d="M39.8322 39.291C39.1252 39.4869 38.3914 39.5784 37.8277 39.5784C37.2639 39.5784 36.5301 39.4826 35.8232 39.291C35.5234 39.2082 35.4026 39.4869 35.51 39.6698C35.7337 40.053 36.6375 40.8281 37.8277 40.8281C39.0178 40.8281 39.9216 40.053 40.1454 39.6698C40.2527 39.4869 40.1364 39.2082 39.8322 39.291Z" fill="#DBA689"/> <path d="M38.1722 11.8054C38.1722 11.8054 37.9485 11.7967 37.8546 11.801C37.7606 11.801 37.5369 11.8054 37.5369 11.8054C25.2729 12.0362 21.5771 19.2167 21.5771 24.1939C21.5771 29.0317 21.5816 32.5894 21.5816 32.5894C21.5816 32.5894 21.7785 32.3934 22.1364 32.1191C22.5212 31.8273 22.9463 31.6662 22.9463 31.6662L23.5637 35.7072L27.6487 27.3988C27.6756 27.3465 27.7293 27.3161 27.7874 27.3248L30.208 27.586C32.642 27.8473 35.0895 27.978 37.5324 27.9823V27.9867C37.6398 27.9867 37.7427 27.9823 37.8501 27.9823C37.9575 27.9823 38.0604 27.9867 38.1678 27.9867V27.9823C40.6107 27.9736 43.0581 27.8473 45.4921 27.586L47.9127 27.3248C47.9709 27.3204 48.0246 27.3509 48.0514 27.3988L52.1364 35.7072L52.7539 31.6662C52.7539 31.6662 53.1789 31.8317 53.5637 32.1191C53.9261 32.3934 54.1185 32.5894 54.1185 32.5894C54.1185 32.5894 54.123 29.0361 54.123 24.1939C54.132 19.2167 50.4362 12.0362 38.1722 11.8054Z" fill="#7C420F"/> </g> <defs> <filter id="filter0_d" x="0" y="0" width="76" height="76" filterUnits="userSpaceOnUse" color-interpolation-filters="sRGB"> <feFlood flood-opacity="0" result="BackgroundImageFix"/> <feColorMatrix in="SourceAlpha" type="matrix" values="0 0 0 0 0 0 0 0 0 0 0 0 0 0 0 0 0 0 127 0"/> <feOffset dy="1"/> <feGaussianBlur stdDeviation="3"/> <feColorMatrix type="matrix" values="0 0 0 0 0.200417 0 0 0 0 0.208542 0 0 0 0 0.216667 0 0 0 0.2 0"/> <feBlend mode="normal" in2="BackgroundImageFix" result="effect1_dropShadow"/> <feBlend mode="normal" in="SourceGraphic" in2="effect1_dropShadow" result="shape"/> </filter> </defs> </svg>