<svg width="24" height="24" viewBox="0 0 24 24" fill="none" xmlns="http://www.w3.org/2000/svg"><path d="M20.1818 3.00002H14.4545C13.9861 2.9981 13.5319 3.16059 13.1715 3.45906C12.811 3.75753 12.5672 4.17296 12.4827 4.63267L11.73 8.75511C11.678 9.04232 11.6899 9.33743 11.7648 9.61956C11.8397 9.90169 11.9759 10.1639 12.1636 10.3878C12.3524 10.6117 12.5878 10.7919 12.8534 10.916C13.119 11.04 13.4085 11.1049 13.7018 11.1061H16.0909L15.8864 11.6449C15.7354 12.0444 15.6829 12.4743 15.7334 12.8982C15.784 13.3222 15.936 13.7278 16.1767 14.0808C16.4174 14.4338 16.7397 14.7239 17.1163 14.9265C17.493 15.1291 17.913 15.2383 18.3409 15.2449C18.4997 15.2461 18.6554 15.2013 18.7891 15.1158C18.9227 15.0302 19.0285 14.9078 19.0936 14.7633L20.9264 10.6327C20.9681 10.5427 20.993 10.4459 21 10.3469V3.81634C21 3.59984 20.9138 3.3922 20.7604 3.23911C20.6069 3.08602 20.3988 3.00002 20.1818 3.00002ZM19.3636 10.1265L17.8664 13.498C17.7202 13.4186 17.5943 13.3069 17.4982 13.1714C17.4019 13.0354 17.341 12.8777 17.321 12.7124C17.301 12.5471 17.3225 12.3794 17.3836 12.2245L17.6945 11.4082C17.7763 11.1964 17.8042 10.9678 17.7756 10.7427C17.7471 10.5176 17.663 10.3031 17.5309 10.1184C17.4008 9.93438 17.2278 9.78472 17.0269 9.68233C16.8259 9.57993 16.6029 9.52786 16.3773 9.53062H13.6855C13.6311 9.53077 13.5774 9.51917 13.5279 9.49663C13.4785 9.47408 13.4345 9.44112 13.3991 9.40001C13.3356 9.31296 13.3091 9.20439 13.3255 9.09797L14.0782 5.01634C14.0747 4.96575 14.0819 4.91498 14.0995 4.86739C14.117 4.81979 14.1445 4.77645 14.18 4.7402C14.2156 4.70396 14.2584 4.67564 14.3057 4.6571C14.3531 4.63857 14.4038 4.63024 14.4545 4.63267H19.3636V10.1265ZM10.3145 12.8367H7.95L8.15455 12.298C8.30337 11.8961 8.35278 11.4644 8.29856 11.0395C8.24434 10.6145 8.08811 10.2089 7.84313 9.85709C7.59815 9.50528 7.27167 9.21768 6.89144 9.01872C6.5112 8.81976 6.08844 8.71533 5.65909 8.71429C5.50031 8.71304 5.3446 8.75791 5.21095 8.84343C5.07729 8.92895 4.97146 9.05143 4.90636 9.19592L3.07364 13.3265C3.02675 13.4291 3.00168 13.5403 3 13.6531V20.1837C3 20.4002 3.0862 20.6078 3.23964 20.7609C3.39308 20.914 3.60119 21 3.81818 21H9.54545C10.0139 21.0019 10.4681 20.8394 10.8285 20.5409C11.189 20.2425 11.4328 19.827 11.5173 19.3673L12.27 15.2857C12.322 14.9985 12.3101 14.7034 12.2352 14.4213C12.1603 14.1391 12.0241 13.8769 11.8364 13.6531C11.659 13.4132 11.4304 13.2156 11.1673 13.0744C10.9042 12.9333 10.6129 12.8521 10.3145 12.8367ZM9.92182 19.0245C9.90777 19.1124 9.86148 19.192 9.79194 19.2478C9.7224 19.3036 9.63455 19.3317 9.54545 19.3265H4.63636V13.8327L6.13364 10.4612C6.27977 10.5406 6.40572 10.6523 6.50182 10.7878C6.5981 10.9237 6.65899 11.0815 6.67898 11.2468C6.69898 11.4121 6.67746 11.5798 6.61636 11.7347L6.30545 12.551C6.22366 12.7627 6.1958 12.9914 6.22436 13.2165C6.25291 13.4416 6.337 13.6561 6.46909 13.8408C6.59734 14.0278 6.76954 14.1807 6.97063 14.286C7.17173 14.3913 7.39562 14.4458 7.62273 14.4449H10.3145C10.3689 14.4447 10.4226 14.4563 10.4721 14.4789C10.5215 14.5014 10.5655 14.5344 10.6009 14.5755C10.6644 14.6626 10.6909 14.7711 10.6745 14.8775L9.92182 19.0245Z" fill="#2385C8"/></svg>