<svg width="33" height="32" viewBox="0 0 33 32" fill="none" xmlns="http://www.w3.org/2000/svg"><rect x="1.8335" y="1.33203" width="29.3333" height="29.3333" rx="14.6667" fill="white"/><path d="M16.5002 1.33203C8.3895 1.33203 1.8335 7.88803 1.8335 15.9987C1.8335 24.1094 8.3895 30.6654 16.5002 30.6654C24.6108 30.6654 31.1668 24.1094 31.1668 15.9987C31.1668 7.88803 24.6108 1.33203 16.5002 1.33203ZM22.8068 22.3054C22.6711 22.4413 22.51 22.5492 22.3325 22.6228C22.1551 22.6964 21.9649 22.7343 21.7728 22.7343C21.5807 22.7343 21.3905 22.6964 21.2131 22.6228C21.0357 22.5492 20.8745 22.4413 20.7388 22.3054L16.5002 18.0667L12.2615 22.3054C11.9873 22.5796 11.6153 22.7337 11.2275 22.7337C10.8397 22.7337 10.4677 22.5796 10.1935 22.3054C9.91926 22.0311 9.7652 21.6592 9.7652 21.2714C9.7652 21.0793 9.80302 20.8892 9.87651 20.7118C9.95 20.5344 10.0577 20.3731 10.1935 20.2374L14.4322 15.9987L10.1935 11.76C9.91926 11.4858 9.7652 11.1139 9.7652 10.726C9.7652 10.3382 9.91926 9.96626 10.1935 9.69203C10.4677 9.4178 10.8397 9.26373 11.2275 9.26373C11.6153 9.26373 11.9873 9.4178 12.2615 9.69203L16.5002 13.9307L20.7388 9.69203C20.8746 9.55624 21.0358 9.44853 21.2132 9.37504C21.3906 9.30156 21.5808 9.26373 21.7728 9.26373C21.9649 9.26373 22.155 9.30156 22.3324 9.37504C22.5098 9.44853 22.671 9.55624 22.8068 9.69203C22.9426 9.82782 23.0503 9.98902 23.1238 10.1664C23.1973 10.3438 23.2351 10.534 23.2351 10.726C23.2351 10.9181 23.1973 11.1082 23.1238 11.2856C23.0503 11.463 22.9426 11.6242 22.8068 11.76L18.5682 15.9987L22.8068 20.2374C23.3642 20.7947 23.3642 21.7334 22.8068 22.3054Z" fill="#F33C45"/></svg>