<svg width="33" height="32" viewBox="0 0 33 32" fill="none" xmlns="http://www.w3.org/2000/svg"><rect x="1.8335" y="1.33203" width="29.3333" height="29.3333" rx="14.6667" fill="white"/><path fill-rule="evenodd" clip-rule="evenodd" d="M16.5002 1.33203C8.40016 1.33203 1.8335 7.8987 1.8335 15.9987C1.8335 24.0987 8.40016 30.6654 16.5002 30.6654C24.6002 30.6654 31.1668 24.0987 31.1668 15.9987C31.1668 7.8987 24.6002 1.33203 16.5002 1.33203ZM22.8575 13.5187C22.9746 13.3849 23.0637 13.229 23.1196 13.0603C23.1755 12.8915 23.1972 12.7133 23.1832 12.536C23.1692 12.3588 23.1199 12.1861 23.0383 12.0282C22.9566 11.8703 22.8441 11.7303 22.7076 11.6165C22.571 11.5027 22.413 11.4173 22.243 11.3654C22.0729 11.3136 21.8942 11.2962 21.7173 11.3145C21.5405 11.3327 21.3691 11.3861 21.2132 11.4715C21.0572 11.557 20.92 11.6728 20.8095 11.812L15.0762 18.6907L12.1095 15.7227C11.858 15.4798 11.5212 15.3454 11.1716 15.3485C10.822 15.3515 10.4876 15.4917 10.2404 15.7389C9.99319 15.9862 9.85297 16.3206 9.84993 16.6702C9.84689 17.0198 9.98129 17.3566 10.2242 17.608L14.2242 21.608C14.3552 21.739 14.512 21.8412 14.6847 21.9081C14.8574 21.9751 15.0422 22.0053 15.2272 21.9969C15.4122 21.9885 15.5935 21.9416 15.7594 21.8593C15.9253 21.777 16.0722 21.661 16.1908 21.5187L22.8575 13.5187Z" fill="#41C940"/></svg>