<svg width="24" height="24" viewBox="0 0 24 24" fill="none" xmlns="http://www.w3.org/2000/svg"><path d="M11.9997 8.00003C12.2334 7.99957 12.4598 8.08095 12.6397 8.23003L18.6397 13.23C18.8439 13.3998 18.9724 13.6437 18.9967 13.9081C19.0211 14.1725 18.9395 14.4358 18.7697 14.64C18.6 14.8442 18.3561 14.9727 18.0916 14.9971C17.8272 15.0214 17.5639 14.9398 17.3597 14.77L11.9997 10.29L6.63972 14.61C6.53744 14.6931 6.41974 14.7551 6.2934 14.7926C6.16706 14.83 6.03457 14.8421 5.90354 14.8281C5.77251 14.8142 5.64553 14.7745 5.52989 14.7113C5.41426 14.6482 5.31225 14.5628 5.22972 14.46C5.13814 14.3572 5.06878 14.2366 5.02599 14.1057C4.9832 13.9748 4.9679 13.8365 4.98104 13.6995C4.99418 13.5624 5.03549 13.4295 5.10237 13.3092C5.16926 13.1888 5.26027 13.0836 5.36973 13L11.3697 8.17003C11.5548 8.04451 11.7766 7.98466 11.9997 8.00003Z" fill="#2385C8"/></svg>