<svg width="360" height="69" viewBox="0 0 360 69" fill="none" xmlns="http://www.w3.org/2000/svg"><path d="M0 54.4991H25.2588V29.8945H50.0174V54.4991H73.6506V68H98.5342V23.7119H124.543V49.8305H143.05V32.1657H165.933V57.7797H195.943V17.5292H221.452V57.7797H252.963V1H287.475V26.7401H313.859V48.6949H334.991V14.2486H356.374V40.1149H360" stroke="url(#paint0_linear)" stroke-width="2"/><path fill-rule="evenodd" clip-rule="evenodd" d="M257.89 8.00732H264.146V14.2638H257.89V8.00732ZM199.33 21.7717H205.586V28.0281H199.33V21.7717ZM102.48 28.0282H108.737V34.2847H102.48V28.0282ZM27.6533 33.5335H33.9097V39.7899H27.6533V33.5335ZM38.1641 42.0425H44.4205V48.2989H38.1641V42.0425ZM33.9097 51.5523H27.6533V57.8088H33.9097V51.5523ZM51.1775 57.8089H57.4339V64.0653H51.1775V57.8089ZM69.196 57.8089H62.9396V64.0653H69.196V57.8089ZM119.748 38.7887H113.492V45.0452H119.748V38.7887ZM102.48 50.5511H108.737V56.8075H102.48V50.5511ZM137.016 55.306H130.759V61.5624H137.016V55.306ZM151.531 36.7872H157.787V43.0437H151.531V36.7872ZM157.787 49.0494H151.531V55.3058H157.787V49.0494ZM205.586 44.2945H199.33V50.5509H205.586V44.2945ZM211.342 21.7717H217.598V28.0281H211.342V21.7717ZM217.598 33.0331H211.342V39.2895H217.598V33.0331ZM282.916 17.2667H276.659V23.5231H282.916V17.2667ZM267.65 28.0282H273.906V34.2847H267.65V28.0282ZM264.146 41.0418H257.89V47.2982H264.146V41.0418ZM298.431 33.5335H304.688V39.7899H298.431V33.5335ZM304.688 49.0494H298.431V55.3058H304.688V49.0494ZM341.976 33.0331H348.233V39.2895H341.976V33.0331ZM341.976 18.7689H348.233V25.0253H341.976V18.7689ZM276.659 41.0418H282.916V47.2982H276.659V41.0418Z" fill="url(#paint1_linear)"/><defs><linearGradient id="paint0_linear" x1="180" y1="1" x2="180" y2="68" gradientUnits="userSpaceOnUse"><stop stop-color="#F77E21" stop-opacity="0.3"/><stop offset="1" stop-color="#F77E21" stop-opacity="0"/></linearGradient><linearGradient id="paint1_linear" x1="187.943" y1="8.00732" x2="187.943" y2="64.0653" gradientUnits="userSpaceOnUse"><stop stop-color="#C6E8FF"/><stop offset="1" stop-color="white" stop-opacity="0"/></linearGradient></defs></svg>