<svg width="116" height="21" viewBox="0 0 116 21" fill="none" xmlns="http://www.w3.org/2000/svg"><path d="M115.846 0H0V20.0958H115.846V0Z" fill="white"/><path d="M107.746 16.4888C108.191 16.9066 108.709 17.238 109.275 17.4659C109.874 17.6772 110.505 17.7793 111.14 17.7673C111.143 17.7678 111.146 17.7678 111.149 17.7673C111.155 17.767 111.16 17.767 111.165 17.7673C111.8 17.7794 112.432 17.6773 113.031 17.4659C113.597 17.238 114.116 16.9067 114.561 16.4888C115.008 16.086 115.367 15.5949 115.614 15.0465C115.862 14.4981 115.993 13.9042 116 13.3025V5.12055C116 5.0989 115.991 5.07818 115.976 5.06283C115.961 5.04747 115.94 5.0387 115.919 5.03839H114.725C114.312 5.03839 113.916 5.20241 113.624 5.49437C113.332 5.78633 113.168 6.18232 113.168 6.59522V12.9514C113.175 13.2959 113.099 13.6369 112.949 13.9468C112.798 14.2567 112.577 14.5266 112.302 14.7346C111.97 14.9803 111.567 15.1129 111.154 15.1129C110.741 15.1129 110.339 14.9803 110.007 14.7346C109.732 14.5268 109.51 14.257 109.359 13.947C109.209 13.6371 109.134 13.2959 109.14 12.9514V6.59522C109.14 6.39067 109.1 6.18814 109.022 5.99918C108.943 5.81022 108.829 5.63854 108.684 5.49396C108.539 5.34938 108.367 5.23473 108.178 5.15656C107.989 5.07839 107.787 5.03824 107.582 5.03839H106.391C106.38 5.03831 106.369 5.04038 106.359 5.04448C106.349 5.04858 106.34 5.05463 106.332 5.06227C106.325 5.06992 106.319 5.07901 106.315 5.08902C106.311 5.09902 106.309 5.10973 106.309 5.12055V13.3013C106.315 13.903 106.446 14.4968 106.694 15.0452C106.942 15.5937 107.3 16.0848 107.747 16.4877" fill="#F77E21"/><path d="M47.5706 5.06024H46.2732C46.1961 5.06095 46.1191 5.06827 46.0433 5.08211L46.0078 5.08743C45.9401 5.10223 45.8735 5.12198 45.8086 5.14653L45.7495 5.16722C45.6926 5.19127 45.6373 5.21911 45.584 5.25055C45.5612 5.26225 45.5392 5.27569 45.5184 5.29075C45.4701 5.3218 45.4237 5.35575 45.3795 5.3924C45.3565 5.41191 45.3352 5.43201 45.3145 5.45151C45.2751 5.489 45.2376 5.52845 45.2022 5.56972C45.1833 5.59336 45.165 5.61878 45.1466 5.64479C45.1209 5.67931 45.0974 5.71544 45.0763 5.75295C45.055 5.78959 45.0349 5.82742 45.0172 5.86583C44.9995 5.90425 44.9865 5.93676 44.9735 5.97282C44.9605 6.00887 44.9433 6.06148 44.9303 6.10699C44.9262 6.12472 44.9215 6.14127 44.9179 6.159C43.8245 5.40769 42.5243 5.01522 41.1978 5.036H41.1819H41.1677C40.346 5.02862 39.5313 5.18661 38.772 5.50058C38.0127 5.81454 37.3243 6.27805 36.7478 6.86353C36.1494 7.43149 35.6752 8.11733 35.3551 8.87776C35.0351 9.63819 34.8762 10.4567 34.8883 11.2817C34.8883 11.3213 34.8883 11.3597 34.8883 11.3999C34.8883 11.4401 34.8883 11.4773 34.8883 11.5181C34.8762 12.3429 35.0352 13.1613 35.3553 13.9216C35.6753 14.682 36.1495 15.3677 36.7478 15.9356C37.3243 16.5211 38.0127 16.9846 38.772 17.2987C39.5313 17.6127 40.346 17.7709 41.1677 17.7637H41.1978C41.839 17.7674 42.4774 17.6798 43.0939 17.5037C43.2976 17.4455 43.4769 17.3228 43.6048 17.1539C43.7328 16.9851 43.8024 16.7793 43.8032 16.5674V14.0773C43.7943 14.0844 43.7878 14.0921 43.779 14.0986C43.2136 14.6187 42.5019 14.9524 41.7404 15.0543C41.1083 15.1244 40.4687 15.0361 39.8792 14.7973C39.2897 14.5586 38.7689 14.1769 38.3637 13.6866C37.8434 13.0383 37.5598 12.2318 37.5598 11.4005C37.5598 10.5691 37.8434 9.76263 38.3637 9.11426C38.7688 8.62394 39.2896 8.24222 39.8791 8.00355C40.4687 7.76487 41.1083 7.67676 41.7404 7.74716C42.5017 7.8488 43.2134 8.18203 43.779 8.70171C44.132 9.00532 44.414 9.38272 44.6052 9.80727C44.7964 10.2318 44.892 10.6931 44.8854 11.1587C44.8854 11.1587 44.9067 16.0532 44.9161 16.5964C44.9167 16.6267 44.9204 16.6568 44.9274 16.6862C45.0022 16.9882 45.176 17.2564 45.4209 17.4481C45.6659 17.6399 45.968 17.7441 46.2791 17.7442H47.6474V5.14416C47.6475 5.13353 47.6455 5.12298 47.6415 5.11313C47.6375 5.10328 47.6316 5.09431 47.6241 5.08673C47.6166 5.07916 47.6078 5.07312 47.598 5.06898C47.5882 5.06484 47.5776 5.06268 47.567 5.0626" fill="#2385C8"/><path d="M91.5401 5.06029H90.2451C90.1672 5.06093 90.0895 5.06825 90.0128 5.08216L89.9774 5.08749C89.9092 5.1024 89.8423 5.12214 89.777 5.14658L89.7214 5.16727C89.6643 5.19185 89.6087 5.21967 89.5548 5.25061C89.5335 5.26302 89.511 5.27603 89.4886 5.2908C89.441 5.32191 89.3955 5.35586 89.352 5.39246C89.3284 5.41197 89.3083 5.43207 89.2864 5.45157C89.2471 5.48874 89.21 5.52821 89.1753 5.56978C89.1538 5.59337 89.1341 5.61845 89.1162 5.64484C89.0909 5.67952 89.0676 5.71564 89.0464 5.75301C89.0247 5.78954 89.005 5.82722 88.9873 5.86589C88.9708 5.90071 88.9562 5.93643 88.9436 5.97287C88.9271 6.01672 88.9133 6.06153 88.9022 6.10705C88.8975 6.12478 88.8916 6.14132 88.8886 6.15906C87.7942 5.40701 86.4927 5.0145 85.165 5.03606H85.1502H85.1355C84.314 5.0286 83.4994 5.18656 82.7403 5.50053C81.9811 5.81451 81.293 6.27806 80.7167 6.86359C80.1181 7.43145 79.6437 8.11724 79.3235 8.87768C79.0032 9.63811 78.8441 10.4567 78.8561 11.2817C78.8561 11.3213 78.8561 11.3597 78.8597 11.3999C78.8632 11.4401 78.8561 11.4773 78.8561 11.5181C78.8441 12.3431 79.0033 13.1615 79.3236 13.9219C79.6438 14.6822 80.1182 15.3679 80.7167 15.9357C81.293 16.5212 81.9812 16.9848 82.7403 17.2988C83.4994 17.6129 84.314 17.771 85.1355 17.7638H85.165C85.8064 17.7675 86.445 17.68 87.0617 17.5037C87.2655 17.4457 87.4449 17.3231 87.5728 17.1542C87.7008 16.9853 87.7703 16.7794 87.771 16.5675V14.0774C87.7621 14.0845 87.7568 14.0922 87.7479 14.0987C87.1824 14.6193 86.4702 14.9531 85.7082 15.0544C85.0775 15.1233 84.4395 15.0345 83.8516 14.796C83.2637 14.5575 82.7442 14.1767 82.3398 13.6879C81.8181 13.0401 81.5337 12.2334 81.5337 11.4017C81.5337 10.57 81.8181 9.76328 82.3398 9.1155C82.7446 8.62546 83.265 8.2439 83.854 8.00523C84.4431 7.76656 85.0824 7.6783 85.7141 7.7484C86.4759 7.84944 87.1881 8.18273 87.7538 8.70295C88.1072 9.00627 88.3895 9.38362 88.5807 9.80823C88.7719 10.2328 88.8673 10.6943 88.8603 11.16C88.8603 11.16 88.881 16.0545 88.891 16.5976C88.8908 16.6279 88.8946 16.6581 88.9022 16.6875C88.9773 16.9897 89.1515 17.2581 89.3969 17.4499C89.6423 17.6416 89.9449 17.7457 90.2563 17.7455H91.6193V5.14422C91.6193 5.12259 91.6107 5.10184 91.5954 5.08655C91.5801 5.07125 91.5594 5.06266 91.5377 5.06266" fill="#2385C8"/><path d="M74.9246 6.34561C74.4796 5.92777 73.9606 5.59645 73.3943 5.3686C72.7963 5.15683 72.165 5.05472 71.5307 5.06717H71.5171H71.5047C70.8699 5.05464 70.238 5.15675 69.6394 5.3686C69.0739 5.59711 68.5557 5.92837 68.1109 6.34561L68.0985 6.3598C68.0938 6.35507 68.0908 6.35034 68.0855 6.34561C67.6406 5.92786 67.1219 5.59655 66.5558 5.3686C65.9576 5.1568 65.3261 5.05469 64.6917 5.06717H64.6793H64.6663C64.0314 5.05461 63.3995 5.15672 62.8009 5.3686C62.6328 5.435 62.4695 5.51281 62.3121 5.60149C62.1836 5.42765 62.0161 5.28633 61.8232 5.18882C61.6302 5.09132 61.4171 5.04034 61.2009 5.03998H59.832V17.7216C59.832 17.7671 59.8693 17.7216 59.9142 17.7216H61.2092C61.2867 17.7284 61.3646 17.7284 61.4421 17.7216H61.4769C61.5455 17.7074 61.6105 17.7452 61.6749 17.7216C61.6944 17.7151 61.7145 17.7299 61.734 17.7216H61.805C61.82 17.7282 61.8362 17.7316 61.8526 17.7316C61.8689 17.7316 61.8851 17.7282 61.9001 17.7216C61.922 17.7086 61.9433 17.7358 61.9657 17.7216H62.0296C62.0538 17.7311 62.0792 17.7423 62.1029 17.7216C62.1265 17.7009 62.1478 17.7423 62.1691 17.7216H62.2217C62.2429 17.7328 62.2624 17.7452 62.2808 17.7216C62.2991 17.698 62.3186 17.7476 62.3363 17.7216H62.3712C62.3836 17.7311 62.3948 17.7417 62.4067 17.7216H62.4356C62.4463 17.7322 62.4563 17.7423 62.4658 17.7216H62.4876C62.4959 17.7311 62.5024 17.7405 62.5083 17.7216H62.5314C62.5373 17.734 62.5444 17.7464 62.5497 17.7216H62.6679V9.82987C62.6644 9.5429 62.7193 9.25822 62.8292 8.99313C62.9392 8.72803 63.1018 8.48807 63.3074 8.28782C63.6728 7.9249 64.1669 7.72121 64.6819 7.72121C65.1969 7.72121 65.691 7.9249 66.0564 8.28782C66.4175 8.64196 66.6379 9.11513 66.6764 9.61945V17.7222H69.5271V9.61945C69.5657 9.11501 69.7862 8.64178 70.1477 8.28782C70.5131 7.9249 71.0072 7.72121 71.5222 7.72121C72.0372 7.72121 72.5313 7.9249 72.8967 8.28782C73.1021 8.48812 73.2647 8.72811 73.3746 8.9932C73.4844 9.25829 73.5392 9.54295 73.5356 9.82987V17.7222H76.3673V9.53198C76.3606 8.93031 76.2293 8.33655 75.9817 7.78814C75.7341 7.23974 75.3756 6.74857 74.9287 6.34561" fill="#2385C8"/><path d="M58.4984 6.28788C58.0535 5.87064 57.5353 5.53921 56.9699 5.31028C56.3709 5.09931 55.7389 4.99742 55.104 5.00944H55.0909H55.0779C54.4438 4.99761 53.8126 5.0995 53.2144 5.31028C53.0357 5.38258 52.8619 5.46649 52.6942 5.56147C52.5648 5.39918 52.4006 5.26806 52.2137 5.17782C52.0268 5.08759 51.8219 5.04055 51.6144 5.04017H50.2461V17.8116H53.0784V9.77332C53.0748 9.48662 53.1295 9.20219 53.2393 8.9373C53.349 8.67241 53.5115 8.4326 53.7168 8.23245C54.0822 7.86917 54.5765 7.66526 55.0918 7.66526C55.6071 7.66526 56.1015 7.86917 56.4669 8.23245C56.6623 8.4189 56.8177 8.6431 56.9238 8.89146L58.9795 6.8346C58.8299 6.64367 58.6693 6.46171 58.4984 6.28966" fill="#2385C8"/><path d="M100.721 9.59174C100.3 9.43937 99.8593 9.34628 99.4124 9.31512L103.689 5.03886H101.163C100.735 5.0387 100.311 5.12287 99.9157 5.28655C99.5202 5.45023 99.1608 5.69022 98.858 5.99282L96.9708 7.88064V4.57902C96.9708 3.17763 96.9678 2.10191 96.9649 1.93406C96.9651 1.90339 96.9616 1.87282 96.9542 1.84304C96.8792 1.541 96.7053 1.27276 96.4601 1.08112C96.2148 0.889472 95.9125 0.785452 95.6013 0.785645H94.2324V17.7299H96.9726V13.1457C97.102 12.8435 97.303 12.5774 97.5583 12.3703C97.8522 12.1338 98.2067 11.9849 98.5812 11.9405C98.9558 11.896 99.3353 11.9579 99.6764 12.119C100.017 12.2802 100.306 12.534 100.51 12.8516C100.713 13.1691 100.823 13.5375 100.827 13.9147C100.827 13.9561 100.827 14.0039 100.827 14.053V17.7299H103.687V13.7563C103.681 13.1547 103.549 12.5611 103.302 12.0128C103.054 11.4645 102.696 10.9734 102.249 10.5705C101.803 10.1532 101.285 9.82182 100.719 9.59292" fill="#F77E21"/><path d="M29.0549 4.05086C29.4202 3.68812 29.9142 3.48455 30.429 3.48455C30.9439 3.48455 31.4379 3.68812 31.8032 4.05086C31.999 4.2372 32.1545 4.46169 32.2601 4.71047L34.3176 2.65302C34.168 2.46229 34.0074 2.28053 33.8365 2.10866C33.3917 1.69098 32.8732 1.35949 32.3074 1.13106C31.709 0.919562 31.0772 0.817849 30.4426 0.830805H30.4214C29.785 0.817505 29.1515 0.919219 28.5513 1.13106C27.9857 1.35963 27.4675 1.69111 27.0228 2.10866C26.5755 2.51128 26.2165 3.00235 25.9687 3.55081C25.7208 4.09928 25.5895 4.6932 25.583 5.29502V17.7219H28.4153V10.5306H32.2454V7.69883H28.4153V5.59232C28.412 5.30556 28.4669 5.02109 28.5769 4.75621C28.6868 4.49133 28.8494 4.25156 29.0549 4.05144" fill="#2385C8"/><path d="M7.7177 5.02306L4.02185 7.03265L0.324219 5.02306L4.02185 3.01349L7.7177 5.02306Z" fill="#F77E21"/><path d="M13.2642 2.00957L9.56597 4.01916L5.87012 2.00957L9.56597 0L13.2642 2.00957Z" fill="#F77E21"/><path d="M13.2642 8.03919L9.56597 10.0488L5.87012 8.03919L9.56597 6.0296L13.2642 8.03919Z" fill="#F77E21"/><path d="M18.8097 5.02306L15.1127 7.03265L11.415 5.02306L15.1127 3.01349L18.8097 5.02306Z" fill="#F77E21"/><path d="M9.57332 10.055L5.86328 8.03717V18.0791L9.57273 20.0952L9.57332 10.055Z" fill="#2385C8"/><path d="M0.325195 5.0274V15.0664L4.02873 17.0819V7.04171L0.325195 5.0274Z" fill="#2385C8"/><path d="M9.56152 10.0549L13.2722 8.03827V18.0791L9.56152 20.0951V10.0549Z" fill="#1F71AA"/><path d="M18.8092 5.0274V15.0664L15.1045 17.0819V7.04171L18.8092 5.0274Z" fill="#1F71AA"/></svg>