<svg width="24" height="24" viewBox="0 0 24 24" fill="none" xmlns="http://www.w3.org/2000/svg"><rect width="24" height="24" fill="white"/><path d="M9.99934 6.49949L6.00063 8.69956L2 6.49949L6.00063 4.29944L9.99934 6.49949Z" fill="#F77E21"/><path d="M16.0003 3.20006L11.9991 5.40012L8.00037 3.20006L11.9991 1L16.0003 3.20006Z" fill="#F77E21"/><path d="M16.0003 9.80145L11.9991 12.0015L8.00037 9.80145L11.9991 7.60138L16.0003 9.80145Z" fill="#F77E21"/><path d="M22 6.49949L18 8.69956L13.9994 6.49949L18 4.29944L22 6.49949Z" fill="#F77E21"/><path d="M12.0067 12.0081L7.99268 9.79901V20.7928L12.0061 23L12.0067 12.0081Z" fill="#2385C8"/><path d="M2.00061 6.50403V17.4946L6.00764 19.7012V8.70927L2.00061 6.50403Z" fill="#2385C8"/><path d="M11.9939 12.0081L16.0086 9.80023V20.7928L11.9939 22.9999V12.0081Z" fill="#1F71AA"/><path d="M21.9999 6.50403V17.4946L17.9916 19.7012V8.70927L21.9999 6.50403Z" fill="#1F71AA"/></svg>