<svg width="360" height="130" viewBox="0 0 360 130" fill="none" xmlns="http://www.w3.org/2000/svg"><rect width="360" height="130" fill="#F77E21" fill-opacity="0.1"/><path d="M0 71.4991H25.2588V46.8945H50.0174V71.4991H73.6506V85H98.5342V40.7119H124.543V66.8305H143.05V49.1657H165.933V74.7797H195.943V34.5292H221.452V74.7797H252.963V18H287.475V43.7401H313.859V65.6949H334.991V31.2486H356.374V57.1149H360" stroke="url(#paint0_linear_4141_6314)" stroke-width="2"/><path fill-rule="evenodd" clip-rule="evenodd" d="M257.89 25.0073H264.146V31.2638H257.89V25.0073ZM199.33 38.7717H205.586V45.0281H199.33V38.7717ZM102.48 45.0282H108.737V51.2847H102.48V45.0282ZM27.6534 50.5335H33.9099V56.7899H27.6534V50.5335ZM38.1642 59.0425H44.4207V65.2989H38.1642V59.0425ZM33.9099 68.5523H27.6534V74.8088H33.9099V68.5523ZM51.1776 74.8089H57.434V81.0653H51.1776V74.8089ZM69.1961 74.8089H62.9397V81.0653H69.1961V74.8089ZM119.748 55.7887H113.492V62.0452H119.748V55.7887ZM102.48 67.5511H108.737V73.8075H102.48V67.5511ZM137.016 72.306H130.759V78.5624H137.016V72.306ZM151.531 53.7872H157.787V60.0437H151.531V53.7872ZM157.787 66.0494H151.531V72.3058H157.787V66.0494ZM205.586 61.2945H199.33V67.5509H205.586V61.2945ZM211.342 38.7717H217.599V45.0281H211.342V38.7717ZM217.599 50.0331H211.342V56.2895H217.599V50.0331ZM282.916 34.2667H276.659V40.5231H282.916V34.2667ZM267.65 45.0282H273.906V51.2847H267.65V45.0282ZM264.146 58.0418H257.89V64.2982H264.146V58.0418ZM298.432 50.5335H304.688V56.7899H298.432V50.5335ZM304.688 66.0494H298.432V72.3058H304.688V66.0494ZM341.976 50.0331H348.233V56.2895H341.976V50.0331ZM341.976 35.7689H348.233V42.0253H341.976V35.7689ZM276.659 58.0418H282.916V64.2982H276.659V58.0418Z" fill="url(#paint1_linear_4141_6314)"/><defs><linearGradient id="paint0_linear_4141_6314" x1="180" y1="18" x2="180" y2="85" gradientUnits="userSpaceOnUse"><stop stop-color="#F77E21" stop-opacity="0.2"/><stop offset="1" stop-color="#F77E21" stop-opacity="0"/></linearGradient><linearGradient id="paint1_linear_4141_6314" x1="187.943" y1="25.0073" x2="187.943" y2="81.0653" gradientUnits="userSpaceOnUse"><stop stop-color="#C6E8FF"/><stop offset="1" stop-color="white" stop-opacity="0"/></linearGradient></defs></svg>