<svg width="24" height="24" viewBox="0 0 24 24" fill="none" xmlns="http://www.w3.org/2000/svg"><rect width="24" height="24" fill="white"/><circle cx="12" cy="12" r="10" fill="#F77E21"/><circle cx="12" cy="12" r="8.4375" fill="white"/><circle cx="12" cy="12" r="6.6875" fill="white" stroke="#FFC044" stroke-linecap="round" stroke-linejoin="round" stroke-dasharray="5 5"/><path d="M16.4891 10.9204C16.4627 10.8355 16.3927 10.7736 16.3085 10.7608L13.4699 10.3281L12.2005 7.63072C12.1628 7.55066 12.085 7.5 12 7.5C11.915 7.5 11.8372 7.55066 11.7995 7.63072L10.5301 10.3283L7.69146 10.761C7.60723 10.7738 7.5373 10.8357 7.51091 10.9206C7.48468 11.0055 7.50659 11.0987 7.56757 11.1611L9.62157 13.2609L9.13673 16.2257C9.12242 16.3137 9.15686 16.4027 9.22574 16.4552C9.29462 16.5076 9.38586 16.5146 9.4613 16.4731L12 15.0727L14.5388 16.4727C14.5716 16.4907 14.6073 16.4996 14.6429 16.4996C14.6893 16.4996 14.7353 16.4845 14.7744 16.4549C14.8433 16.4024 14.8777 16.3136 14.8634 16.2254L14.3786 13.2606L16.4324 11.1609C16.4935 11.0985 16.5153 11.0053 16.4891 10.9204Z" fill="#DB6810"/></svg>