<svg width="24" height="24" viewBox="0 0 24 24" fill="none" xmlns="http://www.w3.org/2000/svg"><path d="M2 4.88889C2 4.65314 2.10536 4.42705 2.29289 4.26035C2.48043 4.09365 2.73478 4 3 4H21C21.2652 4 21.5196 4.09365 21.7071 4.26035C21.8946 4.42705 22 4.65314 22 4.88889V9.77778C21.337 9.77778 20.7011 10.0119 20.2322 10.4287C19.7634 10.8454 19.5 11.4106 19.5 12C19.5 12.5894 19.7634 13.1546 20.2322 13.5713C20.7011 13.9881 21.337 14.2222 22 14.2222V19.1111C22 19.3469 21.8946 19.573 21.7071 19.7397C21.5196 19.9064 21.2652 20 21 20H3C2.73478 20 2.48043 19.9064 2.29289 19.7397C2.10536 19.573 2 19.3469 2 19.1111V4.88889ZM8.085 18.2222C8.18807 17.9618 8.37955 17.7362 8.63301 17.5766C8.88647 17.4171 9.1894 17.3314 9.5 17.3314C9.8106 17.3314 10.1135 17.4171 10.367 17.5766C10.6204 17.7362 10.8119 17.9618 10.915 18.2222H20V15.584C19.2488 15.2531 18.6165 14.7422 18.1745 14.1089C17.7325 13.4757 17.4982 12.7452 17.4982 12C17.4982 11.2548 17.7325 10.5243 18.1745 9.89107C18.6165 9.25782 19.2488 8.74693 20 8.416V5.77778H10.915C10.8119 6.03822 10.6204 6.2638 10.367 6.42337C10.1135 6.58295 9.8106 6.66865 9.5 6.66865C9.1894 6.66865 8.88647 6.58295 8.63301 6.42337C8.37955 6.2638 8.18807 6.03822 8.085 5.77778H4V18.2222H8.085ZM9.5 11.1111C9.10218 11.1111 8.72064 10.9706 8.43934 10.7206C8.15804 10.4705 8 10.1314 8 9.77778C8 9.42416 8.15804 9.08502 8.43934 8.83497C8.72064 8.58492 9.10218 8.44444 9.5 8.44444C9.89782 8.44444 10.2794 8.58492 10.5607 8.83497C10.842 9.08502 11 9.42416 11 9.77778C11 10.1314 10.842 10.4705 10.5607 10.7206C10.2794 10.9706 9.89782 11.1111 9.5 11.1111ZM9.5 15.5556C9.10218 15.5556 8.72064 15.4151 8.43934 15.165C8.15804 14.915 8 14.5758 8 14.2222C8 13.8686 8.15804 13.5295 8.43934 13.2794C8.72064 13.0294 9.10218 12.8889 9.5 12.8889C9.89782 12.8889 10.2794 13.0294 10.5607 13.2794C10.842 13.5295 11 13.8686 11 14.2222C11 14.5758 10.842 14.915 10.5607 15.165C10.2794 15.4151 9.89782 15.5556 9.5 15.5556Z" fill="#2385C8"/></svg>