<svg width="28" height="28" viewBox="0 0 28 28" fill="none" xmlns="http://www.w3.org/2000/svg"><rect width="28" height="28" fill="none"/><path d="M20.2501 18.083V18.3937L20.4698 18.6133L22.5834 20.727V20.833H5.41675V20.727L7.53041 18.6133L7.75008 18.3937V18.083V12.2497C7.75008 8.9179 9.49003 6.30105 12.423 5.60614L13.0001 5.4694V4.87634V4.08301C13.0001 3.52889 13.446 3.08301 14.0001 3.08301C14.5542 3.08301 15.0001 3.52889 15.0001 4.08301V4.87634V5.46893L15.5766 5.606C18.4989 6.30082 20.2501 8.93023 20.2501 12.2497V18.083ZM15.3925 23.4997C15.1236 23.9944 14.5985 24.333 14.0001 24.333C13.3948 24.333 12.8719 23.995 12.6052 23.4997H15.3925Z" fill="none" stroke="#2385C8" stroke-width="1.5"/></svg>