<svg width="28" height="28" viewBox="0 0 28 28" fill="none" xmlns="http://www.w3.org/2000/svg"><rect width="28" height="28" fill="none"/><path d="M24.6737 8.0713L24.6736 8.07135L24.6801 8.0822C24.8211 8.31718 24.9017 8.5834 24.9147 8.85709C24.9276 9.12869 24.8737 9.39927 24.7575 9.64506L20.8098 17.5406C20.8097 17.5408 20.8095 17.5411 20.8094 17.5413C20.7716 17.616 20.7139 17.6788 20.6427 17.7228L21.037 18.3608L20.6427 17.7228C20.5715 17.7668 20.4895 17.7903 20.4058 17.7908H9.56282H9.54998L9.53715 17.7912C9.43444 17.7947 9.33357 17.7634 9.25096 17.7022C9.16836 17.6411 9.10888 17.5538 9.08222 17.4545L9.08215 17.4543L5.75654 5.09171L5.6072 4.53654H5.03229H3.53818C3.41753 4.53654 3.30181 4.48861 3.2165 4.40329C3.13118 4.31798 3.08325 4.20227 3.08325 4.08161C3.08325 3.96096 3.13118 3.84524 3.2165 3.75993C3.30181 3.67461 3.41753 3.62668 3.53818 3.62668H5.94804H5.96088L5.97371 3.62624C6.07642 3.62273 6.17729 3.65409 6.2599 3.71521C6.34165 3.77571 6.40075 3.86184 6.4278 3.95981L7.12537 6.67791L7.27 7.24147H7.85183H23.2683C23.5533 7.247 23.832 7.3258 24.0777 7.47033C24.325 7.61578 24.5303 7.82284 24.6737 8.0713Z" fill="none" stroke="#2385C8" stroke-width="1.5"/><path d="M11.2228 22.155C11.2228 23.0717 10.4796 23.8148 9.56293 23.8148C8.64622 23.8148 7.90308 23.0717 7.90308 22.155C7.90308 21.2383 8.64622 20.4951 9.56293 20.4951C10.4796 20.4951 11.2228 21.2383 11.2228 22.155Z" fill="none" stroke="#2385C8" stroke-width="1.5"/><path d="M22.0668 22.155C22.0668 23.0717 21.3236 23.8148 20.4069 23.8148C19.4902 23.8148 18.7471 23.0717 18.7471 22.155C18.7471 21.2383 19.4902 20.4951 20.4069 20.4951C21.3236 20.4951 22.0668 21.2383 22.0668 22.155Z" fill="none" stroke="#2385C8" stroke-width="1.5"/></svg>