<svg width="32" height="32" viewBox="0 0 32 32" fill="none" xmlns="http://www.w3.org/2000/svg"><circle cx="16" cy="16" r="12.5833" stroke="#7A7B7C" stroke-width="1.5"/><path d="M24 17.3333C24 18.2088 23.7931 19.0757 23.391 19.8845C22.989 20.6934 22.3997 21.4283 21.6569 22.0474C20.914 22.6664 20.0321 23.1575 19.0615 23.4925C18.0909 23.8276 17.0506 24 16 24C14.9494 24 13.9091 23.8276 12.9385 23.4925C11.9679 23.1575 11.086 22.6664 10.3431 22.0474C9.60028 21.4283 9.011 20.6934 8.60896 19.8845C8.20693 19.0757 8 18.2088 8 17.3333L16 17.3333H24Z" fill="#7A7B7C"/><circle cx="11.3334" cy="11.3333" r="2" fill="#7A7B7C"/><circle cx="20.6667" cy="11.3333" r="2" fill="#7A7B7C"/></svg>