<svg width="32" height="32" viewBox="0 0 32 32" fill="none" xmlns="http://www.w3.org/2000/svg"><path d="M28.7296 15.0082L4.31423 2.78402C4.12287 2.68819 3.90792 2.64979 3.69527 2.67345C3.48263 2.69711 3.28134 2.78182 3.11565 2.91738C2.95743 3.05017 2.83932 3.22452 2.77463 3.42084C2.70993 3.61715 2.7012 3.82765 2.74942 4.02866L5.69037 14.8859H18.2421V17.1085H5.69037L2.70503 27.9324C2.65978 28.1003 2.6545 28.2765 2.68961 28.4467C2.72472 28.617 2.79925 28.7767 2.90719 28.9129C3.01514 29.0491 3.15349 29.158 3.31113 29.2309C3.46876 29.3038 3.64129 29.3387 3.81482 29.3327C3.98855 29.3316 4.15961 29.2897 4.31423 29.2104L28.7296 16.9863C28.9114 16.893 29.0639 16.7513 29.1705 16.5768C29.277 16.4023 29.3334 16.2017 29.3334 15.9972C29.3334 15.7927 29.277 15.5921 29.1705 15.4176C29.0639 15.2431 28.9114 15.1014 28.7296 15.0082Z" fill="#7A7B7C"/></svg>