<svg width="32" height="32" viewBox="0 0 32 32" fill="none" xmlns="http://www.w3.org/2000/svg"><rect width="32" height="32" rx="16" fill="#FFC044"/><path d="M15.9989 28.4445C17.9626 28.4445 19.5545 26.8526 19.5545 24.8889C19.5545 22.9253 17.9626 21.3334 15.9989 21.3334C14.0352 21.3334 12.4434 22.9253 12.4434 24.8889C12.4434 26.8526 14.0352 28.4445 15.9989 28.4445Z" fill="white"/><path d="M19.5545 7.9193C19.5545 5.50476 17.9633 3.55566 15.9974 3.55566C15.4152 3.55579 14.8419 3.73134 14.328 4.0669C13.814 4.40246 13.3751 4.88775 13.0499 5.48012C12.7246 6.07249 12.5229 6.7538 12.4625 7.46419C12.4021 8.17457 12.4849 8.89227 12.7036 9.55421C14.0173 13.5571 15.9974 19.5557 15.9974 19.5557L19.296 9.55421C19.4572 9.05094 19.5545 8.49821 19.5545 7.9193Z" fill="white"/></svg>