<svg width="25" height="24" viewBox="0 0 25 24" fill="none" xmlns="http://www.w3.org/2000/svg"><g clip-path="url(#clip0_8125_26108)"><path d="M12.5002 0.480469C6.1366 0.480469 0.979004 5.63807 0.979004 12.0005C0.978846 13.5135 1.27674 15.0117 1.85568 16.4096C2.43462 17.8075 3.28326 19.0777 4.35313 20.1475C5.42301 21.2174 6.69316 22.0661 8.09104 22.645C9.48893 23.2239 10.9872 23.5218 12.5002 23.5217C18.8614 23.5217 24.0202 18.3641 24.0202 12.0005C24.0202 5.63807 18.8614 0.480469 12.5002 0.480469ZM13.5754 4.63967C14.6986 4.63967 15.0286 5.29127 15.0286 6.03647C15.0286 6.96647 14.2846 7.82687 13.0138 7.82687C11.9506 7.82687 11.4442 7.29287 11.4754 6.40847C11.4754 5.66327 12.0982 4.63967 13.5754 4.63967ZM10.6978 18.9005C9.9298 18.9005 9.3694 18.4337 9.9058 16.3877L10.7854 12.7577C10.9378 12.1769 10.963 11.9441 10.7854 11.9441C10.5562 11.9441 9.559 12.3449 8.971 12.7409L8.5882 12.1133C10.4542 10.5545 12.5998 9.64007 13.5178 9.64007C14.2858 9.64007 14.413 10.5473 14.0302 11.9441L13.0222 15.7601C12.8434 16.4345 12.9202 16.6673 13.099 16.6673C13.3294 16.6673 14.083 16.3889 14.8246 15.8045L15.259 16.3877C13.4434 18.2021 11.4646 18.9005 10.6978 18.9005Z" fill="#F77E21"/></g><defs><clipPath id="clip0_8125_26108"><rect width="24" height="24" fill="white" transform="translate(0.5)"/></clipPath></defs></svg>