<svg width="24" height="24" viewBox="0 0 24 24" fill="none" xmlns="http://www.w3.org/2000/svg"><path d="M13.0001 3.5C13.0001 3.10218 12.8421 2.72064 12.5608 2.43934C12.2795 2.15804 11.8979 2 11.5001 2C11.1023 2 10.7208 2.15804 10.4395 2.43934C10.1582 2.72064 10.0001 3.10218 10.0001 3.5V10H3.50012C3.1023 10 2.72077 10.158 2.43946 10.4393C2.15816 10.7206 2.00012 11.1022 2.00012 11.5C2.00012 11.8978 2.15816 12.2794 2.43946 12.5607C2.72077 12.842 3.1023 13 3.50012 13H10.0001V19.5C10.0001 19.8978 10.1582 20.2794 10.4395 20.5607C10.7208 20.842 11.1023 21 11.5001 21C11.8979 21 12.2795 20.842 12.5608 20.5607C12.8421 20.2794 13.0001 19.8978 13.0001 19.5V13H19.5001C19.8979 13 20.2795 12.842 20.5608 12.5607C20.8421 12.2794 21.0001 11.8978 21.0001 11.5C21.0001 11.1022 20.8421 10.7206 20.5608 10.4393C20.2795 10.158 19.8979 10 19.5001 10H13.0001V3.5Z" fill="#2385C8"/></svg>