<svg width="28" height="28" viewBox="0 0 28 28" fill="none" xmlns="http://www.w3.org/2000/svg"><rect width="28" height="28" fill="none"/><path d="M17.7319 19.6935L18.2172 19.9795L18.6271 19.5932C19.0519 19.1929 19.6097 18.95 20.2221 18.95C20.687 18.95 21.1422 19.0895 21.5302 19.3521C21.9184 19.6147 22.2223 19.9889 22.4022 20.4285C22.5821 20.8682 22.6293 21.3526 22.5375 21.82C22.4456 22.2873 22.2193 22.7153 21.8883 23.0504C21.5575 23.3853 21.1371 23.6124 20.6809 23.7042C20.2248 23.7961 19.7518 23.749 19.3216 23.5686C18.8912 23.3881 18.5218 23.0818 18.2612 22.6869C18.0012 22.2929 17.8616 21.8289 17.8609 21.3534C17.8629 21.1675 17.8863 20.9826 17.9306 20.8023L18.0634 20.2615L17.5841 19.9779L10.275 15.654L9.79073 15.3675L9.38021 15.7523C8.9476 16.1579 8.39098 16.4 7.77761 16.4C6.4791 16.4 5.4165 15.3376 5.4165 14C5.4165 12.6624 6.4791 11.6 7.77761 11.6C8.39098 11.6 8.9476 11.8421 9.38021 12.2477L9.79031 12.6321L10.2744 12.3464L17.5855 8.03088L18.051 7.75609L17.9376 7.22756C17.8892 7.00231 17.8609 6.82214 17.8609 6.65C17.8609 5.3124 18.9235 4.25 20.2221 4.25C21.5206 4.25 22.5832 5.3124 22.5832 6.65C22.5832 7.9876 21.5206 9.05 20.2221 9.05C19.6087 9.05 19.0521 8.80792 18.6195 8.40235L18.2094 8.01788L17.7253 8.30362L10.4142 12.6191L9.94862 12.8939L10.0621 13.4224C10.1105 13.6477 10.1387 13.8279 10.1387 14C10.1387 14.1721 10.1105 14.3523 10.0621 14.5776L9.94854 15.1065L10.4146 15.3811L17.7319 19.6935Z" fill="transparent" stroke="#2385C8" stroke-width="1.5"/></svg>