<svg width="12" height="10" viewBox="0 0 12 10" fill="none" xmlns="http://www.w3.org/2000/svg">
<path d="M10.7143 0.604594H10.2857V4.20459C10.2855 4.286 10.2643 4.36582 10.2243 4.43556C10.1843 4.5053 10.127 4.56233 10.0586 4.60059C9.99155 4.63673 9.91665 4.65367 9.84141 4.64972C9.76617 4.64577 9.69325 4.62106 9.63 4.57809L8.57143 3.84459L7.52143 4.57809C7.45818 4.62106 7.38526 4.64577 7.31002 4.64972C7.23478 4.65367 7.15987 4.63673 7.09286 4.60059C7.02282 4.56355 6.96381 4.50704 6.92225 4.43721C6.88069 4.36739 6.85817 4.28693 6.85714 4.20459V0.604594H4.28571C3.94472 0.604594 3.6177 0.746826 3.37658 1C3.13546 1.25317 3 1.59655 3 1.95459V8.25459C3 8.61264 3.13546 8.95601 3.37658 9.20919C3.6177 9.46236 3.94472 9.60459 4.28571 9.60459H10.7143C11.0553 9.60459 11.3823 9.46236 11.6234 9.20919C11.8645 8.95601 12 8.61264 12 8.25459V1.95459C12 1.59655 11.8645 1.25317 11.6234 1C11.3823 0.746826 11.0553 0.604594 10.7143 0.604594ZM6.85714 7.80459H5.14286C5.02919 7.80459 4.92018 7.75718 4.83981 7.67279C4.75944 7.5884 4.71429 7.47394 4.71429 7.35459C4.71429 7.23525 4.75944 7.12079 4.83981 7.0364C4.92018 6.952 5.02919 6.90459 5.14286 6.90459H6.85714C6.97081 6.90459 7.07982 6.952 7.16019 7.0364C7.24056 7.12079 7.28571 7.23525 7.28571 7.35459C7.28571 7.47394 7.24056 7.5884 7.16019 7.67279C7.07982 7.75718 6.97081 7.80459 6.85714 7.80459ZM6.85714 6.45459H5.14286C5.02919 6.45459 4.92018 6.40718 4.83981 6.32279C4.75944 6.2384 4.71429 6.12394 4.71429 6.00459C4.71429 5.88525 4.75944 5.77079 4.83981 5.6864C4.92018 5.602 5.02919 5.55459 5.14286 5.55459H6.85714C6.97081 5.55459 7.07982 5.602 7.16019 5.6864C7.24056 5.77079 7.28571 5.88525 7.28571 6.00459C7.28571 6.12394 7.24056 6.2384 7.16019 6.32279C7.07982 6.40718 6.97081 6.45459 6.85714 6.45459ZM8.33571 2.93109L7.71429 3.38109V0.604594H9.42857V3.36309L8.80714 2.91309C8.7355 2.86734 8.65265 2.84466 8.56886 2.84786C8.48506 2.85106 8.404 2.88 8.33571 2.93109ZM2.57143 1.95459C2.57143 2.07394 2.52628 2.1884 2.4459 2.27279C2.36553 2.35718 2.25652 2.40459 2.14286 2.40459H0.428571C0.314907 2.40459 0.205898 2.35718 0.125526 2.27279C0.0451529 2.1884 0 2.07394 0 1.95459C0 1.83525 0.0451529 1.72079 0.125526 1.6364C0.205898 1.552 0.314907 1.50459 0.428571 1.50459H2.14286C2.25652 1.50459 2.36553 1.552 2.4459 1.6364C2.52628 1.72079 2.57143 1.83525 2.57143 1.95459ZM2.57143 5.10459C2.57143 5.22394 2.52628 5.3384 2.4459 5.42279C2.36553 5.50718 2.25652 5.55459 2.14286 5.55459H0.428571C0.314907 5.55459 0.205898 5.50718 0.125526 5.42279C0.0451529 5.3384 0 5.22394 0 5.10459C0 4.98525 0.0451529 4.87079 0.125526 4.7864C0.205898 4.702 0.314907 4.65459 0.428571 4.65459H2.14286C2.25652 4.65459 2.36553 4.702 2.4459 4.7864C2.52628 4.87079 2.57143 4.98525 2.57143 5.10459ZM2.57143 8.25459C2.57143 8.37394 2.52628 8.4884 2.4459 8.57279C2.36553 8.65718 2.25652 8.70459 2.14286 8.70459H0.428571C0.314907 8.70459 0.205898 8.65718 0.125526 8.57279C0.0451529 8.4884 0 8.37394 0 8.25459C0 8.13525 0.0451529 8.02079 0.125526 7.9364C0.205898 7.852 0.314907 7.80459 0.428571 7.80459H2.14286C2.25652 7.80459 2.36553 7.852 2.4459 7.9364C2.52628 8.02079 2.57143 8.13525 2.57143 8.25459Z" fill="#F77E21"/>
</svg>
