<svg width="16" height="16" viewBox="0 0 16 16" fill="none" xmlns="http://www.w3.org/2000/svg"><path d="M2.66671 13.9997H3.33337V5.33301H2.66671C2.31309 5.33301 1.97395 5.47348 1.7239 5.72353C1.47385 5.97358 1.33337 6.31272 1.33337 6.66634V12.6663C1.33337 13.02 1.47385 13.3591 1.7239 13.6091C1.97395 13.8592 2.31309 13.9997 2.66671 13.9997ZM13.3334 5.33301H8.66671L9.41471 3.08767C9.48145 2.88728 9.49963 2.6739 9.46776 2.46511C9.43588 2.25632 9.35486 2.05808 9.23136 1.88674C9.10786 1.71539 8.94543 1.57584 8.75743 1.47956C8.56943 1.38329 8.36125 1.33306 8.15004 1.33301H8.00004L4.66671 4.95834V13.9997H12L14.608 8.26901L14.6667 7.99967V6.66634C14.6667 6.31272 14.5262 5.97358 14.2762 5.72353C14.0261 5.47348 13.687 5.33301 13.3334 5.33301Z" fill="#F77E21"/></svg>