<svg width="12" height="11" viewBox="0 0 12 11" fill="none" xmlns="http://www.w3.org/2000/svg"><path d="M11.9854 4.18054C11.9502 4.07677 11.857 4.00109 11.7447 3.98542L7.95981 3.45662L6.26735 0.159768C6.21706 0.0619198 6.11329 0 5.99998 0C5.88667 0 5.78291 0.0619198 5.73262 0.159768L4.04016 3.45681L0.255282 3.98561C0.142968 4.00128 0.049738 4.07696 0.014553 4.18073C-0.0204333 4.28451 0.00878818 4.39841 0.0900914 4.47466L2.82876 7.04108L2.18231 10.6647C2.16322 10.7723 2.20914 10.8811 2.30098 10.9453C2.39282 11.0093 2.51448 11.0179 2.61506 10.9671L5.99998 9.25548L9.3851 10.9667C9.42883 10.9887 9.47634 10.9996 9.52385 10.9996C9.58568 10.9996 9.6471 10.981 9.69918 10.9449C9.79102 10.8807 9.83694 10.7721 9.81786 10.6643L9.17141 7.0407L11.9099 4.47447C11.9914 4.39822 12.0204 4.28432 11.9854 4.18054Z" fill="#C1C6C6"/></svg>