<svg width="24" height="24" viewBox="0 0 24 24" fill="none" xmlns="http://www.w3.org/2000/svg">
<path d="M21.1422 23.6286C21.0951 20.6114 20.1551 17.8678 18.4838 15.8815C16.8222 13.9072 14.5704 12.8199 12.1424 12.8199C9.71445 12.8199 7.46262 13.9072 5.80106 15.8815C4.13137 17.8657 3.19198 20.6054 3.14289 23.619C3.12345 24.8121 7.6193 22.7886 12.1424 22.7886C16.6655 22.7886 21.1422 24.8121 21.1422 23.6286Z" fill="#2385C8"/>
<path d="M12.1425 12.0016C14.6282 12.0016 16.6433 9.98651 16.6433 7.50079C16.6433 5.01507 14.6282 3 12.1425 3C9.6568 3 7.64172 5.01507 7.64172 7.50079C7.64172 9.98651 9.6568 12.0016 12.1425 12.0016Z" fill="#F77E21"/>
</svg>
