<svg width="24" height="24" viewBox="0 0 24 24" fill="none" xmlns="http://www.w3.org/2000/svg">
<g clip-path="url(#clip0)">
<path d="M6.26012 16.2678C7.81586 14.4193 9.90383 13.4199 12.1424 13.4199C14.381 13.4199 16.4689 14.4192 18.0247 16.2677L18.0247 16.2678C19.5497 18.0804 20.4468 20.5926 20.5366 23.3997C20.499 23.4004 20.454 23.3999 20.4005 23.3974C19.9694 23.3769 19.322 23.248 18.4632 23.0656C18.374 23.0466 18.283 23.0272 18.1903 23.0074C16.5462 22.6565 14.3542 22.1886 12.1424 22.1886C9.93598 22.1886 7.74462 22.6543 6.09973 23.0038C6.00291 23.0244 5.90798 23.0446 5.81506 23.0642C4.95496 23.2461 4.30747 23.374 3.87796 23.3932C3.82734 23.3955 3.78447 23.3959 3.74848 23.3952C3.83918 20.5898 4.73572 18.0794 6.26012 16.2678ZM6.26012 16.2678L5.80106 15.8815L6.26012 16.2678Z" fill="white" stroke="#838588" stroke-width="1.2"/>
<path d="M16.0432 7.50079C16.0432 9.65514 14.2967 11.4016 12.1424 11.4016C9.98804 11.4016 8.2416 9.65514 8.2416 7.50079C8.2416 5.34644 9.98804 3.6 12.1424 3.6C14.2967 3.6 16.0432 5.34644 16.0432 7.50079Z" fill="white" stroke="#838588" stroke-width="1.2"/>
</g>
<defs>
<clipPath id="clip0">
<rect width="24" height="24" fill="white"/>
</clipPath>
</defs>
</svg>
