<svg width="24" height="25" viewBox="0 0 24 25" fill="none" xmlns="http://www.w3.org/2000/svg"><path d="M20.19 14.56L19.06 12.68C18.81 12.27 18.59 11.48 18.59 11V9.13C18.59 5.5 15.64 2.55 12.02 2.55C8.38996 2.56 5.43996 5.5 5.43996 9.13V10.99C5.43996 11.47 5.21996 12.26 4.97996 12.67L3.84996 14.55C3.41996 15.28 3.31996 16.11 3.58996 16.83C3.85996 17.56 4.46996 18.14 5.26996 18.4C6.34996 18.76 7.43996 19.02 8.54996 19.21C8.65996 19.23 8.76996 19.24 8.87996 19.26C9.01996 19.28 9.16996 19.3 9.31996 19.32C9.57996 19.36 9.83996 19.39 10.11 19.41C10.74 19.47 11.38 19.5 12.02 19.5C12.65 19.5 13.28 19.47 13.9 19.41C14.13 19.39 14.36 19.37 14.58 19.34C14.76 19.32 14.94 19.3 15.12 19.27C15.23 19.26 15.34 19.24 15.45 19.22C16.57 19.04 17.68 18.76 18.76 18.4C19.53 18.14 20.12 17.56 20.4 16.82C20.68 16.07 20.6 15.25 20.19 14.56ZM12.75 10.5C12.75 10.92 12.41 11.26 11.99 11.26C11.57 11.26 11.23 10.92 11.23 10.5V7.4C11.23 6.98 11.57 6.64 11.99 6.64C12.41 6.64 12.75 6.98 12.75 7.4V10.5Z" fill="#F77E21"/><path d="M14.8301 20.51C14.4101 21.67 13.3001 22.5 12.0001 22.5C11.2101 22.5 10.4301 22.18 9.88005 21.61C9.56005 21.31 9.32005 20.91 9.18005 20.5C9.31005 20.52 9.44005 20.53 9.58005 20.55C9.81005 20.58 10.0501 20.61 10.2901 20.63C10.8601 20.68 11.4401 20.71 12.0201 20.71C12.5901 20.71 13.1601 20.68 13.7201 20.63C13.9301 20.61 14.1401 20.6 14.3401 20.57C14.5001 20.55 14.6601 20.53 14.8301 20.51Z" fill="#F77E21"/></svg>