<svg width="48" height="48" viewBox="0 0 48 48" fill="none" xmlns="http://www.w3.org/2000/svg"><path d="M44.5214 17.761C44.4008 17.4052 44.0811 17.1458 43.6961 17.092L30.7194 15.279L24.9166 3.97551C24.7442 3.64003 24.3884 3.42773 24 3.42773C23.6115 3.42773 23.2557 3.64003 23.0833 3.97551L17.2806 15.2796L4.30384 17.0927C3.91877 17.1464 3.59912 17.4059 3.47848 17.7617C3.35853 18.1175 3.45872 18.508 3.73747 18.7694L13.1272 27.5686L10.9108 39.9925C10.8454 40.3614 11.0028 40.7343 11.3177 40.9544C11.6325 41.1739 12.0497 41.2034 12.3945 41.0291L24 35.1608L35.6061 41.0278C35.756 41.1032 35.9189 41.1405 36.0818 41.1405C36.2938 41.1405 36.5044 41.0769 36.6829 40.9531C36.9978 40.7329 37.1552 40.3608 37.0898 39.9912L34.8734 27.5673L44.2624 18.7688C44.5419 18.5073 44.6414 18.1168 44.5214 17.761Z" fill="#FFC044"/></svg>