<svg width="48" height="48" viewBox="0 0 48 48" fill="none" xmlns="http://www.w3.org/2000/svg"><path d="M44.5213 17.761C44.4007 17.4052 44.081 17.1458 43.6959 17.092L30.7192 15.279L24.9165 3.97551C24.7441 3.64003 24.3883 3.42773 23.9998 3.42773C23.6113 3.42773 23.2556 3.64003 23.0831 3.97551L17.2804 15.2796L4.30372 17.0927C3.91864 17.1464 3.599 17.4059 3.47836 17.7617C3.35841 18.1175 3.4586 18.508 3.73735 18.7694L13.1271 27.5686L10.9107 39.9925C10.8452 40.3614 11.0027 40.7343 11.3176 40.9544C11.6324 41.1739 12.0495 41.2034 12.3944 41.0291L23.9998 35.1608L35.6059 41.0278C35.7559 41.1032 35.9188 41.1405 36.0817 41.1405C36.2936 41.1405 36.5042 41.0769 36.6828 40.9531C36.9977 40.7329 37.1551 40.3608 37.0897 39.9912L34.8733 27.5673L44.2623 18.7688C44.5418 18.5073 44.6413 18.1168 44.5213 17.761Z" fill="#C1C6C6"/></svg>