<svg width="24" height="24" viewBox="0 0 24 24" fill="none" xmlns="http://www.w3.org/2000/svg">
<path d="M9.59139 15.6278C9.11591 15.6177 8.64824 15.7498 8.24829 16.0072C7.84835 16.2645 7.53435 16.6354 7.34651 17.0723C7.15868 17.5093 7.10557 17.9923 7.19398 18.4596C7.28239 18.9269 7.5083 19.3572 7.84277 19.6953C8.17725 20.0334 8.60504 20.2639 9.07136 20.3574C9.53768 20.4509 10.0213 20.403 10.4602 20.2199C10.8991 20.0368 11.2734 19.7268 11.5351 19.3297C11.7967 18.9325 11.9339 18.4663 11.9289 17.9907C11.9323 17.6816 11.8743 17.3749 11.7583 17.0884C11.6424 16.8019 11.4707 16.5412 11.2533 16.3214C11.0359 16.1016 10.7771 15.9272 10.4918 15.8081C10.2066 15.6891 9.90051 15.6278 9.59139 15.6278Z" fill="#838588"/>
<path d="M16.8834 15.6278C16.407 15.6126 15.937 15.7403 15.5337 15.9945C15.1305 16.2487 14.8126 16.6177 14.6208 17.054C14.429 17.4904 14.3722 17.9741 14.4576 18.4431C14.5431 18.912 14.7669 19.3446 15.1002 19.6853C15.4336 20.026 15.8612 20.2591 16.3282 20.3548C16.7952 20.4504 17.28 20.4041 17.7205 20.2218C18.1609 20.0396 18.5367 19.7297 18.7996 19.3321C19.0625 18.9345 19.2004 18.4674 19.1955 17.9907C19.1989 17.6838 19.1417 17.3791 19.0274 17.0943C18.913 16.8094 18.7436 16.5498 18.5289 16.3304C18.3142 16.111 18.0584 15.936 17.776 15.8154C17.4937 15.6949 17.1904 15.6311 16.8834 15.6278Z" fill="#838588"/>
<path d="M21.228 5.66784H6.16106L5.50045 3.55898C5.45712 3.40204 5.36467 3.26311 5.23665 3.16252C5.10863 3.06193 4.95176 3.00498 4.78903 3C4.78903 3 3.46128 3 2.62934 3C1.79741 3 1.78306 4.52448 2.62934 4.52448C3.47563 4.52448 4.20464 4.52448 4.20464 4.52448L7.2282 14.2304C7.27248 14.3846 7.36593 14.5203 7.49435 14.6166C7.62276 14.7129 7.77911 14.7646 7.93963 14.7639H18.9413C19.1042 14.7621 19.2626 14.7098 19.3945 14.6143C19.5265 14.5187 19.6256 14.3846 19.6781 14.2304L21.9649 6.65876C22.001 6.54381 22.0094 6.42192 21.9894 6.30309C21.9693 6.18427 21.9213 6.07189 21.8494 5.97519C21.7775 5.87849 21.6837 5.80022 21.5757 5.74679C21.4677 5.69336 21.3485 5.66631 21.228 5.66784Z" fill="#838588"/>
</svg>
