<svg width="32" height="32" viewBox="0 0 32 32" fill="none" xmlns="http://www.w3.org/2000/svg"><path d="M30 14.0358V14.8215C30 15.4724 29.4777 16.0001 28.8333 16.0001H28.4444L27.1751 24.9762C27.0109 26.1374 26.0264 27 24.8652 27H7.13479C5.97362 27 4.98915 26.1374 4.82489 24.9762L3.55556 16.0001H3.16667C2.52233 16.0001 2 15.4724 2 14.8215V14.0358C2 13.3849 2.52233 12.8572 3.16667 12.8572H6.44019L11.6309 5.64732C12.1362 4.94548 13.109 4.79026 13.8038 5.30072C14.4986 5.81119 14.6523 6.79396 14.1469 7.49585L10.2871 12.8572H21.7129L17.8531 7.4958C17.3477 6.79396 17.5014 5.81114 18.1962 5.30067C18.8909 4.79021 19.8639 4.94539 20.3692 5.64727L25.5598 12.8572H28.8333C29.4777 12.8572 30 13.3849 30 14.0358ZM17.1667 22.6786V17.1786C17.1667 16.5277 16.6443 16.0001 16 16.0001C15.3557 16.0001 14.8333 16.5277 14.8333 17.1786V22.6786C14.8333 23.3295 15.3557 23.8572 16 23.8572C16.6443 23.8572 17.1667 23.3295 17.1667 22.6786ZM22.6111 22.6786V17.1786C22.6111 16.5277 22.0888 16.0001 21.4444 16.0001C20.8001 16.0001 20.2778 16.5277 20.2778 17.1786V22.6786C20.2778 23.3295 20.8001 23.8572 21.4444 23.8572C22.0888 23.8572 22.6111 23.3295 22.6111 22.6786ZM11.7222 22.6786V17.1786C11.7222 16.5277 11.1999 16.0001 10.5556 16.0001C9.91122 16.0001 9.38889 16.5277 9.38889 17.1786V22.6786C9.38889 23.3295 9.91122 23.8572 10.5556 23.8572C11.1999 23.8572 11.7222 23.3295 11.7222 22.6786Z" fill="#F77E21"/></svg>