<svg width="24" height="24" viewBox="0 0 24 24" fill="none" xmlns="http://www.w3.org/2000/svg">
<circle cx="9.14503" cy="21.1055" r="2.29455" fill="white" stroke="#838588" stroke-width="1.2"/>
<circle cx="17.703" cy="21.1055" r="2.29455" fill="white" stroke="#838588" stroke-width="1.2"/>
<path d="M0.461426 4.74497C0.461426 4.39745 0.74315 4.11572 1.09068 4.11572H3.35605C3.70218 4.11572 3.97944 4.40415 3.97944 4.75028C3.97943 5.0965 3.70205 5.37422 3.35584 5.37422H1.09067C0.74315 5.37422 0.461426 5.0925 0.461426 4.74497Z" fill="#838588"/>
<path d="M3.25106 4.18527C3.57626 4.08539 3.921 4.26727 4.02216 4.59207L7.70732 16.4251C7.82345 16.798 7.73547 17.3146 7.35943 17.42C6.97475 17.5279 6.63983 17.1521 6.52104 16.7707L2.84265 4.95941C2.74093 4.63279 2.92404 4.28571 3.25106 4.18527Z" fill="#838588"/>
<path d="M23.4931 7.08715C23.8017 7.18194 23.975 7.50893 23.8802 7.81749L21.1276 16.777C21.0198 17.1278 20.6932 17.4413 20.3436 17.3296C19.9848 17.215 19.9051 16.7758 20.0157 16.4158L22.7628 7.4742C22.8576 7.16564 23.1846 6.99235 23.4931 7.08715Z" fill="#838588"/>
<path d="M21.1008 16.8699C21.1008 17.1935 20.8385 17.4558 20.5149 17.4558L7.54235 17.4558C7.18182 17.4558 6.73748 17.2145 6.75435 16.8543C6.77238 16.4693 7.20718 16.284 7.59258 16.284L20.5149 16.284C20.8385 16.284 21.1008 16.5463 21.1008 16.8699Z" fill="#838588"/>
<path d="M23.8307 7.55023C23.8113 7.88295 23.5358 8.14281 23.2026 8.14281L4.77803 8.14282C4.359 8.14282 3.74744 7.90659 3.83825 7.49751C3.93136 7.07805 4.44269 6.88432 4.87237 6.88432L23.2026 6.88431C23.5645 6.88431 23.8518 7.18891 23.8307 7.55023Z" fill="#838588"/>
</svg>
