<svg width="24" height="24" viewBox="0 0 24 24" fill="none" xmlns="http://www.w3.org/2000/svg">
<g clip-path="url(#clip0)">
<path d="M9.60578 18.1521C9.05422 18.1404 8.51172 18.2936 8.04779 18.5922C7.58386 18.8907 7.21961 19.3209 7.00172 19.8278C6.78384 20.3346 6.72223 20.895 6.82479 21.437C6.92734 21.9791 7.1894 22.4782 7.57739 22.8704C7.96537 23.2626 8.46162 23.53 9.00254 23.6384C9.54347 23.7469 10.1044 23.6913 10.6136 23.4789C11.1228 23.2665 11.5569 22.907 11.8605 22.4463C12.164 21.9856 12.3231 21.4448 12.3173 20.8931C12.3212 20.5346 12.254 20.1788 12.1194 19.8464C11.9849 19.514 11.7858 19.2116 11.5336 18.9567C11.2814 18.7018 10.9812 18.4994 10.6503 18.3613C10.3194 18.2232 9.96436 18.1521 9.60578 18.1521Z" fill="#F77E21"/>
<path d="M16.4991 18.5775C16.9668 18.2827 17.5121 18.1345 18.0647 18.1521C18.4208 18.156 18.7726 18.2299 19.1002 18.3698C19.4277 18.5096 19.7244 18.7126 19.9735 18.9671C20.2225 19.2217 20.419 19.5227 20.5517 19.8532C20.6844 20.1837 20.7507 20.5371 20.7468 20.8932C20.7524 21.446 20.5924 21.9879 20.2875 22.4492C19.9826 22.9104 19.5466 23.2698 19.0357 23.4812C18.5248 23.6926 17.9623 23.7463 17.4207 23.6354C16.879 23.5245 16.3829 23.254 15.9962 22.8588C15.6095 22.4637 15.3499 21.9618 15.2508 21.4178C15.1517 20.8739 15.2176 20.3127 15.4401 19.8065C15.6625 19.3004 16.0313 18.8723 16.4991 18.5775Z" fill="#F77E21"/>
<path d="M23.1046 6.59854H5.62688L4.86057 4.15226C4.8103 3.97021 4.70306 3.80905 4.55456 3.69237C4.40605 3.57569 4.22409 3.50962 4.03532 3.50385C4.03532 3.50385 2.49513 3.50385 1.53009 3.50385C0.565044 3.50385 0.548396 5.27224 1.53009 5.27224C2.51178 5.27224 3.35743 5.27224 3.35743 5.27224L6.86476 16.5311C6.91612 16.71 7.02453 16.8673 7.17349 16.9791C7.32245 17.0908 7.50382 17.1508 7.69001 17.15H20.452C20.6409 17.1479 20.8246 17.0872 20.9777 16.9764C21.1308 16.8655 21.2457 16.71 21.3067 16.5311L23.9593 7.748C24.0012 7.61466 24.011 7.47327 23.9877 7.33543C23.9644 7.19759 23.9088 7.06724 23.8254 6.95507C23.742 6.84289 23.6331 6.75209 23.5078 6.69012C23.3825 6.62814 23.2443 6.59676 23.1046 6.59854Z" fill="#2385C8"/>
</g>
<defs>
<clipPath id="clip0">
<rect width="24" height="24" fill="white"/>
</clipPath>
</defs>
</svg>
