<svg width="24" height="24" viewBox="0 0 24 24" fill="none" xmlns="http://www.w3.org/2000/svg"><path d="M19.016 4.45951C17.9337 3.55125 16.6754 2.87653 15.32 2.47769C14.4898 2.22444 13.6324 2.07071 12.7659 2.01973C12.3423 1.99342 11.9175 1.99342 11.4939 2.01973C10.9383 2.04849 10.3848 2.10858 9.83592 2.19972C8.67264 2.40958 7.55341 2.8153 6.52589 3.39961C5.14371 4.14868 3.98025 5.24449 3.14987 6.57932C2.61299 7.423 2.25379 8.36728 2.09423 9.35446C1.93467 10.3416 1.9781 11.351 2.22187 12.3208C2.62082 13.9491 3.5229 15.4102 4.79988 16.4964C6.39765 17.8955 8.38389 18.7745 10.4939 19.0162C10.6186 19.023 10.7405 19.0553 10.8522 19.111C10.9638 19.1668 11.0628 19.245 11.1431 19.3406C11.2233 19.4362 11.2831 19.5472 11.3187 19.6669C11.3543 19.7865 11.3649 19.9122 11.3499 20.0361C11.3499 20.3641 11.2759 20.6901 11.2359 21.016C11.1741 21.2583 11.1606 21.5104 11.1959 21.758C11.1976 21.793 11.2065 21.8273 11.222 21.8587C11.2376 21.8902 11.2595 21.918 11.2864 21.9406C11.3132 21.9631 11.3445 21.9799 11.3781 21.9897C11.4118 21.9996 11.4471 22.0024 11.4819 21.9979C11.6877 21.9714 11.8893 21.919 12.0819 21.842C12.9356 21.4466 13.7454 20.9627 14.4979 20.3981C16.1684 19.2175 17.7457 17.9104 19.216 16.4884C19.7278 16.0185 20.1915 15.4986 20.6 14.9366C21.4995 13.6635 21.9881 12.1457 22 10.587C22.0009 9.89528 21.906 9.2068 21.718 8.54115C21.2504 6.93892 20.3083 5.5159 19.016 4.45951ZM7.9439 12.1468C7.71544 12.1484 7.49169 12.0819 7.30119 11.9558C7.11069 11.8297 6.96207 11.6497 6.87428 11.4388C6.7865 11.2279 6.76353 10.9956 6.80831 10.7716C6.85309 10.5476 6.96358 10.342 7.1257 10.181C7.28782 10.02 7.49421 9.911 7.71855 9.8678C7.9429 9.82461 8.17503 9.8492 8.38533 9.93846C8.59564 10.0277 8.77459 10.1776 8.89937 10.3689C9.02414 10.5603 9.08908 10.7845 9.08591 11.0129C9.08276 11.3141 8.96118 11.6019 8.74746 11.814C8.53375 12.0262 8.24508 12.1458 7.9439 12.1468ZM11.9879 12.1468C11.7608 12.1449 11.5394 12.0757 11.3516 11.948C11.1637 11.8204 11.0179 11.64 10.9324 11.4296C10.847 11.2192 10.8257 10.9882 10.8714 10.7658C10.9171 10.5433 11.0276 10.3394 11.189 10.1797C11.3504 10.0199 11.5555 9.91155 11.7785 9.86821C12.0014 9.82487 12.2322 9.84851 12.4417 9.93613C12.6512 10.0238 12.8301 10.1714 12.9558 10.3606C13.0815 10.5497 13.1483 10.7718 13.1479 10.9989C13.1448 11.3047 13.0212 11.5968 12.8041 11.8121C12.5869 12.0273 12.2937 12.1483 11.9879 12.1488V12.1468ZM16.056 12.1468C15.8282 12.148 15.6052 12.0815 15.4152 11.9558C15.2253 11.8301 15.0769 11.6508 14.989 11.4407C14.9011 11.2306 14.8776 10.9991 14.9215 10.7756C14.9653 10.5521 15.0746 10.3466 15.2354 10.1853C15.3962 10.0239 15.6012 9.91397 15.8246 9.86934C16.048 9.82471 16.2796 9.84741 16.49 9.93457C16.7005 10.0217 16.8803 10.1694 17.0067 10.3589C17.1331 10.5484 17.2004 10.7712 17.2 10.9989C17.2005 11.303 17.0803 11.5949 16.8658 11.8105C16.6514 12.0261 16.3601 12.1478 16.056 12.1488V12.1468Z" fill="#2385C8"/></svg>