<svg width="32" height="32" viewBox="0 0 32 32" fill="none" xmlns="http://www.w3.org/2000/svg"><path d="M21.3337 2.66797H10.667C6.25499 2.66797 2.66699 6.25597 2.66699 10.668V28.0013C2.66699 28.3549 2.80747 28.6941 3.05752 28.9441C3.30756 29.1942 3.6467 29.3346 4.00033 29.3346H21.3337C25.7457 29.3346 29.3337 25.7466 29.3337 21.3346V10.668C29.3337 6.25597 25.7457 2.66797 21.3337 2.66797ZM26.667 21.3346C26.667 24.276 24.275 26.668 21.3337 26.668H5.33366V10.668C5.33366 7.72664 7.72566 5.33464 10.667 5.33464H21.3337C24.275 5.33464 26.667 7.72664 26.667 10.668V21.3346Z" fill="#F77E21"/><path d="M9.33301 12H22.6663V14.6667H9.33301V12ZM9.33301 17.3333H18.6663V20H9.33301V17.3333Z" fill="#F77E21"/></svg>