<svg width="24" height="24" viewBox="0 0 24 24" fill="none" xmlns="http://www.w3.org/2000/svg">
<path d="M23.1361 11.868C23.1361 17.7046 18.4046 22.4361 12.568 22.4361C11.4952 22.4361 10.4598 22.2762 9.48414 21.979C9.35008 21.9382 9.20604 21.9515 9.08256 22.0177C8.44321 22.3609 7.13784 23.0127 6.31045 23.4183C5.98394 23.5784 5.62471 23.343 5.64744 22.9801C5.70117 22.1222 5.80039 20.8756 5.83479 20.2659C5.84347 20.112 5.776 19.9662 5.65945 19.8654C3.41818 17.9276 2 15.0634 2 11.868C2 6.03146 6.73147 1.29999 12.568 1.29999C18.4046 1.29999 23.1361 6.03146 23.1361 11.868Z" fill="#2385C8"/>
<path d="M12.5853 10.3551C11.8156 10.2781 10.5724 10.2293 8.55939 11.3615L8.43358 12.368L8.05615 13.5003L9.44006 16.2681L13.2144 16.6455L16.737 16.5197L16.9887 14.1293C17.0306 13.3325 16.9132 11.739 16.108 11.2357C14.4725 10.2135 13.8434 10.4809 12.5853 10.3551Z" fill="#F77E21"/>
<path fill-rule="evenodd" clip-rule="evenodd" d="M19.3751 13.1649L19.379 13.1584C19.379 14.0287 19.2 14.8904 18.8523 15.6945C18.5046 16.4985 17.9949 17.2291 17.3523 17.8445C16.7098 18.4599 15.947 18.948 15.1075 19.2811C14.2679 19.6141 13.3682 19.7855 12.4595 19.7855C11.5508 19.7855 10.651 19.6141 9.81147 19.2811C8.97195 18.948 8.20915 18.4599 7.56661 17.8445C6.92407 17.2291 6.41438 16.4985 6.06664 15.6945C5.7189 14.8904 5.53992 14.0287 5.53992 13.1584L5.54032 13.1588C5.54032 13.1587 5.54032 13.1585 5.54032 13.1584C5.54032 12.3691 9.33558 10.9115 9.56634 10.8551C9.43173 12.039 9.50651 12.5749 9.5464 12.8607C9.55779 12.9424 9.56634 13.0037 9.56634 13.0538C9.27789 13.2229 9.10482 13.6739 9.16251 14.0122C9.27789 14.6323 9.91248 14.8578 10.3163 14.8014C10.7201 14.745 11.2394 14.3504 11.1817 13.7867C11.0086 12.8283 10.2009 12.8283 10.0279 12.8846C9.803 11.731 10.1259 10.7915 10.196 10.5877C10.1978 10.5824 10.1995 10.5776 10.2009 10.5732C12.5232 9.90275 14.2177 10.4119 14.6661 10.5466C14.7079 10.5591 14.7388 10.5684 14.7585 10.5732C14.8939 11.4554 14.8174 11.9234 14.7777 12.1664C14.7667 12.2339 14.7585 12.2841 14.7585 12.3209C14.0085 12.2081 13.547 12.6028 13.2585 12.9974C12.9701 13.392 12.8547 13.843 12.797 14.0685C12.5085 14.1249 12.3932 14.5195 12.5662 14.745C12.7393 14.9705 13.0854 15.0833 13.3162 14.8578C13.6393 14.5421 13.4124 14.2001 13.2585 14.0685C13.297 13.9746 13.4085 13.719 13.547 13.4484C13.72 13.1101 14.1239 12.6591 14.6431 12.7719C15.1623 12.8846 15.3931 13.1101 15.5084 13.5048C15.6238 13.8994 15.5084 14.5195 15.4507 14.6323C15.2777 14.6323 14.9892 14.8578 15.1046 15.2524C15.2777 15.647 15.6815 15.5907 15.8546 15.5343C16.2293 15.1681 16.0335 14.9134 15.9467 14.8004C15.9265 14.7742 15.9123 14.7556 15.9123 14.745C16.0276 14.3504 16.0853 13.6739 16.0276 13.5048C15.8546 12.7719 15.2777 12.49 15.22 12.49C15.3722 12.0437 15.3459 11.2048 15.3374 10.9326C15.3362 10.8953 15.3354 10.8687 15.3354 10.8551C16.6738 11.3061 19.2448 12.6134 19.3794 13.1584C19.3794 13.1546 19.378 13.157 19.3751 13.1649Z" fill="white"/>
<path d="M12.6222 9.02666C14.0861 9.02666 15.2728 7.83996 15.2728 6.37609C15.2728 4.91222 14.0861 3.72552 12.6222 3.72552C11.1584 3.72552 9.97168 4.91222 9.97168 6.37609C9.97168 7.83996 11.1584 9.02666 12.6222 9.02666Z" fill="#F77E21" stroke="white"/>
</svg>
