<svg width="24" height="24" viewBox="0 0 24 24" fill="none" xmlns="http://www.w3.org/2000/svg">
<path d="M22.5861 11.8681C22.5861 17.4009 18.1008 21.8861 12.568 21.8861C11.5501 21.8861 10.5686 21.7345 9.64441 21.4529L9.48414 21.9791L9.6444 21.4529C9.37291 21.3702 9.07735 21.3964 8.82245 21.5332C8.22707 21.8528 7.03427 22.4496 6.20648 22.8567C6.23051 22.4891 6.26191 22.0544 6.29218 21.6354C6.33008 21.1107 6.36622 20.6105 6.38391 20.2969C6.40299 19.9587 6.25375 19.6523 6.01918 19.4494C3.89359 17.6116 2.55 14.8971 2.55 11.8681C2.55 6.33528 7.03523 1.85005 12.568 1.85005C18.1008 1.85005 22.5861 6.33528 22.5861 11.8681Z" fill="white" stroke="#838588" stroke-width="1.1"/>
<mask id="path-2-inside-1" fill="white">
<path fill-rule="evenodd" clip-rule="evenodd" d="M5.54035 13.1587C5.54035 13.1586 5.54035 13.1585 5.54035 13.1584C5.54035 12.3691 9.3356 10.9115 9.56637 10.8551C9.43176 12.039 9.50654 12.5749 9.54642 12.8608C9.55782 12.9424 9.56637 13.0037 9.56637 13.0538C9.27791 13.2229 9.10484 13.6739 9.16253 14.0122C9.27792 14.6323 9.91251 14.8578 10.3163 14.8014C10.7202 14.745 11.2394 14.3504 11.1817 13.7867C11.0086 12.8283 10.201 12.8283 10.0279 12.8847C9.80303 11.731 10.1259 10.7915 10.196 10.5878C10.1978 10.5824 10.1995 10.5776 10.201 10.5732C12.5232 9.90276 14.2177 10.4119 14.6662 10.5466C14.7079 10.5591 14.7388 10.5684 14.7585 10.5732C14.8939 11.4554 14.8174 11.9235 14.7777 12.1664C14.7667 12.2339 14.7585 12.2841 14.7585 12.3209C14.0085 12.2081 13.547 12.6028 13.2585 12.9974C12.9701 13.392 12.8547 13.843 12.797 14.0685C12.5086 14.1249 12.3932 14.5195 12.5663 14.745C12.7393 14.9705 13.0855 15.0833 13.3162 14.8578C13.6393 14.5421 13.4124 14.2001 13.2585 14.0685C13.297 13.9746 13.4085 13.719 13.547 13.4484C13.7201 13.1101 14.1239 12.6591 14.6431 12.7719C15.1623 12.8846 15.3931 13.1101 15.5085 13.5048C15.6238 13.8994 15.5085 14.5195 15.4508 14.6323C15.2777 14.6323 14.9892 14.8578 15.1046 15.2524C15.2777 15.6471 15.6815 15.5907 15.8546 15.5343C16.2293 15.1681 16.0336 14.9134 15.9467 14.8004C15.9266 14.7742 15.9123 14.7556 15.9123 14.745C16.0277 14.3504 16.0854 13.6739 16.0277 13.5048C15.8546 12.7719 15.2777 12.49 15.22 12.49C15.3723 12.0437 15.3459 11.2048 15.3374 10.9326C15.3362 10.8953 15.3354 10.8687 15.3354 10.8551C16.6738 11.3061 19.2448 12.6134 19.3794 13.1584C19.3794 13.1587 19.3793 13.159 19.3792 13.1593C19.3791 14.0293 19.2001 14.8907 18.8525 15.6945C18.5047 16.4985 17.995 17.2291 17.3525 17.8445C16.71 18.4599 15.9472 18.948 15.1076 19.2811C14.2681 19.6141 13.3683 19.7855 12.4596 19.7855C11.551 19.7855 10.6512 19.6141 9.81165 19.2811C8.97213 18.948 8.20933 18.4599 7.56679 17.8445C6.92425 17.2291 6.41456 16.4985 6.06682 15.6945C5.71908 14.8904 5.5401 14.0287 5.5401 13.1584L5.54035 13.1587Z"/>
</mask>
<path fill-rule="evenodd" clip-rule="evenodd" d="M5.54035 13.1587C5.54035 13.1586 5.54035 13.1585 5.54035 13.1584C5.54035 12.3691 9.3356 10.9115 9.56637 10.8551C9.43176 12.039 9.50654 12.5749 9.54642 12.8608C9.55782 12.9424 9.56637 13.0037 9.56637 13.0538C9.27791 13.2229 9.10484 13.6739 9.16253 14.0122C9.27792 14.6323 9.91251 14.8578 10.3163 14.8014C10.7202 14.745 11.2394 14.3504 11.1817 13.7867C11.0086 12.8283 10.201 12.8283 10.0279 12.8847C9.80303 11.731 10.1259 10.7915 10.196 10.5878C10.1978 10.5824 10.1995 10.5776 10.201 10.5732C12.5232 9.90276 14.2177 10.4119 14.6662 10.5466C14.7079 10.5591 14.7388 10.5684 14.7585 10.5732C14.8939 11.4554 14.8174 11.9235 14.7777 12.1664C14.7667 12.2339 14.7585 12.2841 14.7585 12.3209C14.0085 12.2081 13.547 12.6028 13.2585 12.9974C12.9701 13.392 12.8547 13.843 12.797 14.0685C12.5086 14.1249 12.3932 14.5195 12.5663 14.745C12.7393 14.9705 13.0855 15.0833 13.3162 14.8578C13.6393 14.5421 13.4124 14.2001 13.2585 14.0685C13.297 13.9746 13.4085 13.719 13.547 13.4484C13.7201 13.1101 14.1239 12.6591 14.6431 12.7719C15.1623 12.8846 15.3931 13.1101 15.5085 13.5048C15.6238 13.8994 15.5085 14.5195 15.4508 14.6323C15.2777 14.6323 14.9892 14.8578 15.1046 15.2524C15.2777 15.6471 15.6815 15.5907 15.8546 15.5343C16.2293 15.1681 16.0336 14.9134 15.9467 14.8004C15.9266 14.7742 15.9123 14.7556 15.9123 14.745C16.0277 14.3504 16.0854 13.6739 16.0277 13.5048C15.8546 12.7719 15.2777 12.49 15.22 12.49C15.3723 12.0437 15.3459 11.2048 15.3374 10.9326C15.3362 10.8953 15.3354 10.8687 15.3354 10.8551C16.6738 11.3061 19.2448 12.6134 19.3794 13.1584C19.3794 13.1587 19.3793 13.159 19.3792 13.1593C19.3791 14.0293 19.2001 14.8907 18.8525 15.6945C18.5047 16.4985 17.995 17.2291 17.3525 17.8445C16.71 18.4599 15.9472 18.948 15.1076 19.2811C14.2681 19.6141 13.3683 19.7855 12.4596 19.7855C11.551 19.7855 10.6512 19.6141 9.81165 19.2811C8.97213 18.948 8.20933 18.4599 7.56679 17.8445C6.92425 17.2291 6.41456 16.4985 6.06682 15.6945C5.71908 14.8904 5.5401 14.0287 5.5401 13.1584L5.54035 13.1587Z" fill="white"/>
<path d="M5.54035 13.1587L4.79036 13.8201L6.54159 15.8058L6.54035 13.1582L5.54035 13.1587ZM9.56637 10.8551L10.56 10.9681L10.722 9.54336L9.32902 9.88369L9.56637 10.8551ZM9.54642 12.8608L10.5368 12.7226V12.7226L9.54642 12.8608ZM9.56637 13.0538L10.0722 13.9164L10.5664 13.6267V13.0538H9.56637ZM9.16253 14.0122L8.17677 14.1803L8.17803 14.1877L8.17941 14.1951L9.16253 14.0122ZM10.3163 14.8014L10.4546 15.7918L10.4546 15.7918L10.3163 14.8014ZM11.1817 13.7867L12.1765 13.6849L12.1726 13.6467L12.1658 13.6089L11.1817 13.7867ZM10.0279 12.8847L9.04636 13.076L9.26265 14.1856L10.3376 13.8355L10.0279 12.8847ZM10.196 10.5878L11.1417 10.9128L11.1417 10.9128L10.196 10.5878ZM10.201 10.5732L9.92357 9.61248L9.42276 9.75708L9.25449 10.2504L10.201 10.5732ZM14.6662 10.5466L14.3784 11.5043L14.3784 11.5043L14.6662 10.5466ZM14.7585 10.5732L15.7469 10.4215L15.6454 9.76051L14.9958 9.60181L14.7585 10.5732ZM14.7777 12.1664L13.7908 12.0051V12.0051L14.7777 12.1664ZM14.7585 12.3209L14.6098 13.3098L15.7585 13.4825V12.3209H14.7585ZM12.797 14.0685L12.9888 15.05L13.6092 14.9287L13.7658 14.3164L12.797 14.0685ZM12.5663 14.745L13.3596 14.1362L13.3595 14.1362L12.5663 14.745ZM13.3162 14.8578L12.6173 14.1426L12.6173 14.1426L13.3162 14.8578ZM13.2585 14.0685L12.3331 13.6897L12.0592 14.3588L12.6087 14.8286L13.2585 14.0685ZM13.547 13.4484L14.4372 13.9039L14.4372 13.9039L13.547 13.4484ZM14.6431 12.7719L14.4309 13.7491L14.4309 13.7491L14.6431 12.7719ZM15.4508 14.6323V15.6323H16.0624L16.341 15.0878L15.4508 14.6323ZM15.1046 15.2524L14.1448 15.5331L14.1629 15.595L14.1888 15.6541L15.1046 15.2524ZM15.8546 15.5343L16.1643 16.4851L16.3864 16.4128L16.5535 16.2495L15.8546 15.5343ZM15.9467 14.8004L15.1538 15.4098L15.1539 15.4098L15.9467 14.8004ZM15.9123 14.745L14.9525 14.4644L14.9123 14.6019V14.745H15.9123ZM16.0277 13.5048L15.0544 13.7346L15.0656 13.7818L15.0812 13.8276L16.0277 13.5048ZM15.22 12.49L14.2736 12.1672L13.8223 13.49H15.22V12.49ZM15.3374 10.9326L14.3379 10.9639V10.9639L15.3374 10.9326ZM15.3354 10.8551L15.6547 9.90747L14.3354 9.4629V10.8551H15.3354ZM19.3794 13.1584L20.3446 13.42L20.4124 13.17L20.3503 12.9186L19.3794 13.1584ZM19.3792 13.1593L18.4148 12.8947L18.3792 13.0245L18.3792 13.1591L19.3792 13.1593ZM18.8525 15.6945L17.9346 15.2975V15.2975L18.8525 15.6945ZM17.3525 17.8445L18.0442 18.5667L17.3525 17.8445ZM15.1076 19.2811L15.4764 20.2106L15.1076 19.2811ZM12.4596 19.7855L12.4596 18.7855H12.4596V19.7855ZM9.81165 19.2811L9.4429 20.2106H9.4429L9.81165 19.2811ZM6.06682 15.6945L6.98466 15.2975L6.06682 15.6945ZM5.5401 13.1584L6.29009 12.4969L4.5401 10.5127L4.5401 13.1584H5.5401ZM6.54035 13.1582V13.1584H4.54035C4.54035 13.1586 4.54035 13.1589 4.54035 13.1591L6.54035 13.1582ZM6.54035 13.1584C6.54035 13.4404 6.38923 13.5683 6.44629 13.5051C6.47675 13.4713 6.55532 13.4 6.70571 13.296C7.00098 13.0918 7.42761 12.8604 7.90018 12.6331C8.36481 12.4097 8.8404 12.2062 9.21465 12.0549C9.40133 11.9795 9.5597 11.9183 9.6756 11.8752C9.82103 11.8211 9.84402 11.8167 9.80371 11.8265L9.32902 9.88369C9.23102 9.90764 9.08493 9.96107 8.97863 10.0006C8.84281 10.0511 8.66682 10.1192 8.46525 10.2007C8.06299 10.3632 7.5465 10.584 7.03347 10.8307C6.52838 11.0736 5.99176 11.3581 5.56822 11.6509C5.35919 11.7955 5.13946 11.9679 4.96147 12.1652C4.81007 12.3329 4.54035 12.6791 4.54035 13.1584H6.54035ZM8.57277 10.7421C8.42736 12.021 8.50622 12.6421 8.55602 12.999L10.5368 12.7226C10.5069 12.5078 10.4361 12.057 10.56 10.9681L8.57277 10.7421ZM8.55602 12.999C8.55896 13.02 8.5612 13.0361 8.56314 13.0506C8.56504 13.0649 8.56619 13.0742 8.56689 13.0804C8.56759 13.0867 8.56752 13.0871 8.56727 13.0834C8.56701 13.0797 8.56637 13.0693 8.56637 13.0538H10.5664C10.5664 12.9182 10.5444 12.7771 10.5368 12.7226L8.55602 12.999ZM9.06057 12.1911C8.67095 12.4196 8.43571 12.7816 8.30918 13.0907C8.18038 13.4054 8.11073 13.7931 8.17677 14.1803L10.1483 13.844C10.1535 13.8746 10.1505 13.8866 10.1516 13.8787C10.1525 13.8719 10.1552 13.8603 10.1601 13.8484C10.1652 13.836 10.1677 13.8351 10.1607 13.8439C10.1544 13.852 10.128 13.8837 10.0722 13.9164L9.06057 12.1911ZM8.17941 14.1951C8.29951 14.8406 8.70091 15.2824 9.13776 15.5302C9.54934 15.7638 10.0306 15.851 10.4546 15.7918L10.1781 13.811C10.1897 13.8094 10.1939 13.8099 10.1908 13.8098C10.1879 13.8097 10.1814 13.8092 10.1723 13.8074C10.1633 13.8056 10.1539 13.8031 10.145 13.7998C10.1361 13.7966 10.1293 13.7933 10.1248 13.7907C10.1154 13.7854 10.1202 13.786 10.1296 13.7983C10.1343 13.8045 10.1386 13.8117 10.1419 13.819C10.1452 13.8264 10.1459 13.8305 10.1457 13.8292L8.17941 14.1951ZM10.4546 15.7918C10.8862 15.7316 11.316 15.5102 11.6354 15.1851C11.9703 14.8442 12.2418 14.3234 12.1765 13.6849L10.1869 13.8885C10.1857 13.8768 10.1857 13.8619 10.1881 13.8454C10.1905 13.8291 10.1947 13.8149 10.1992 13.8037C10.2079 13.7818 10.2154 13.7767 10.2087 13.7835C10.2016 13.7908 10.1886 13.8009 10.173 13.8089C10.1659 13.8125 10.1613 13.8142 10.1603 13.8145C10.159 13.8149 10.1647 13.8129 10.1781 13.811L10.4546 15.7918ZM12.1658 13.6089C12.0224 12.8151 11.5709 12.2987 11.0226 12.0466C10.7727 11.9317 10.5285 11.8833 10.3253 11.8694C10.1433 11.8569 9.92239 11.8673 9.71817 11.9338L10.3376 13.8355C10.2971 13.8487 10.2661 13.8552 10.2495 13.8583C10.2312 13.8616 10.2179 13.8631 10.2101 13.8639C10.2018 13.8646 10.1964 13.8648 10.1934 13.8648C10.1904 13.8648 10.1888 13.8647 10.1884 13.8647C10.1881 13.8647 10.1891 13.8648 10.1904 13.865C10.1914 13.8653 10.1902 13.8651 10.187 13.8637C10.1772 13.8592 10.1654 13.8501 10.1594 13.8423C10.1536 13.8347 10.1791 13.8618 10.1976 13.9644L12.1658 13.6089ZM11.0094 12.6933C10.8363 11.8053 11.0867 11.0727 11.1417 10.9128L9.25028 10.2627C9.16515 10.5104 8.76973 11.6568 9.04636 13.076L11.0094 12.6933ZM11.1417 10.9128C11.1434 10.9077 11.1455 10.9017 11.1474 10.8961L9.25449 10.2504C9.25347 10.2534 9.25222 10.2571 9.25027 10.2627L11.1417 10.9128ZM10.4784 11.534C12.5307 10.9414 14.0054 11.3922 14.3784 11.5043L14.9539 9.58889C14.4301 9.43151 12.5156 8.86409 9.92357 9.61248L10.4784 11.534ZM14.3784 11.5043C14.4061 11.5126 14.4693 11.532 14.5212 11.5447L14.9958 9.60181C15 9.60283 15.0031 9.60363 15.0048 9.60408C15.0066 9.60455 15.0076 9.60482 15.0076 9.60483C15.0076 9.60484 15.0071 9.60469 15.0058 9.60432C15.0045 9.60396 15.0028 9.60346 15.0005 9.60278C14.9898 9.59968 14.976 9.59555 14.9539 9.58889L14.3784 11.5043ZM13.7701 10.725C13.8852 11.475 13.8189 11.833 13.7908 12.0051L15.7646 12.3276C15.8159 12.0139 15.9026 11.4358 15.7469 10.4215L13.7701 10.725ZM13.7908 12.0051C13.7859 12.0349 13.7585 12.1827 13.7585 12.3209H15.7585C15.7585 12.3347 15.7581 12.3463 15.7577 12.3553C15.7572 12.3643 15.7567 12.3714 15.7563 12.3765C15.7554 12.3859 15.7548 12.3906 15.7551 12.388C15.7554 12.3856 15.7562 12.38 15.7579 12.369C15.7597 12.3579 15.7618 12.3453 15.7646 12.3276L13.7908 12.0051ZM14.9072 11.332C13.6421 11.1418 12.8549 11.855 12.4512 12.4073L14.0659 13.5875C14.1582 13.4612 14.2422 13.3861 14.3147 13.3465C14.3696 13.3166 14.4521 13.2861 14.6098 13.3098L14.9072 11.332ZM12.4512 12.4073C12.0376 12.9732 11.8857 13.5961 11.8282 13.8207L13.7658 14.3164C13.8237 14.0899 13.9026 13.8109 14.0659 13.5875L12.4512 12.4073ZM12.6052 13.0871C12.0211 13.2013 11.6835 13.6445 11.557 14.0359C11.433 14.4198 11.4491 14.9319 11.773 15.3539L13.3595 14.1362C13.5103 14.3327 13.4976 14.5348 13.4601 14.6509C13.4202 14.7744 13.2845 14.9922 12.9888 15.05L12.6052 13.0871ZM11.773 15.3539C11.9961 15.6447 12.3306 15.8703 12.7181 15.95C13.134 16.0356 13.6301 15.9493 14.0151 15.573L12.6173 14.1426C12.6832 14.0782 12.772 14.0259 12.8739 13.9993C12.9717 13.9739 13.0578 13.978 13.1211 13.9911C13.2346 14.0144 13.3094 14.0709 13.3596 14.1362L11.773 15.3539ZM14.0151 15.573C14.4366 15.1611 14.5566 14.6293 14.436 14.1501C14.3359 13.7524 14.0931 13.4665 13.9084 13.3085L12.6087 14.8286C12.5817 14.8055 12.565 14.7858 12.5518 14.7665C12.5385 14.747 12.5133 14.705 12.4964 14.6381C12.4782 14.5655 12.4706 14.4641 12.5015 14.3528C12.5327 14.24 12.5884 14.1708 12.6173 14.1426L14.0151 15.573ZM14.184 14.4474C14.213 14.3766 14.3129 14.1468 14.4372 13.9039L12.6568 12.9929C12.5041 13.2912 12.381 13.5726 12.3331 13.6897L14.184 14.4474ZM14.4372 13.9039C14.451 13.877 14.4726 13.8421 14.4998 13.808C14.5273 13.7736 14.5512 13.7516 14.5661 13.7404C14.5808 13.7293 14.5748 13.7376 14.5461 13.7456C14.5311 13.7498 14.512 13.7533 14.4901 13.7541C14.4679 13.7549 14.4476 13.7527 14.4309 13.7491L14.8553 11.7947C14.2353 11.66 13.7134 11.8793 13.3644 12.1417C13.0288 12.3939 12.7953 12.7221 12.6568 12.9929L14.4372 13.9039ZM14.4309 13.7491C14.5916 13.784 14.6022 13.8145 14.569 13.7855C14.5524 13.7709 14.5405 13.755 14.535 13.7455C14.5309 13.7386 14.5376 13.7476 14.5486 13.7854L16.4683 13.2242C16.3729 12.8979 16.2031 12.5576 15.8854 12.2798C15.5782 12.0112 15.2138 11.8725 14.8553 11.7947L14.4309 13.7491ZM14.5486 13.7854C14.5472 13.7805 14.5545 13.8062 14.557 13.8706C14.5593 13.9308 14.5567 14.0019 14.5494 14.0757C14.5421 14.1492 14.5315 14.2128 14.5224 14.2551C14.5179 14.2765 14.5152 14.2855 14.5158 14.2835C14.5161 14.2824 14.5186 14.2739 14.5237 14.26C14.5279 14.2488 14.5396 14.2177 14.5605 14.1768L16.341 15.0878C16.4215 14.9305 16.461 14.754 16.4783 14.673C16.5035 14.555 16.5253 14.4177 16.5396 14.2728C16.5657 14.0097 16.5796 13.6048 16.4683 13.2242L14.5486 13.7854ZM15.4508 13.6323C14.9924 13.6323 14.6007 13.8863 14.3697 14.1941C14.0968 14.5578 14.0008 15.0405 14.1448 15.5331L16.0644 14.9718C16.0931 15.0697 16.0836 15.2423 15.9694 15.3946C15.9218 15.458 15.8612 15.5104 15.7899 15.5496C15.7262 15.5847 15.6116 15.6323 15.4508 15.6323V13.6323ZM14.1888 15.6541C14.422 16.1857 14.8601 16.4603 15.2878 16.5439C15.6571 16.6161 15.9834 16.5441 16.1643 16.4851L15.5449 14.5835C15.5598 14.5786 15.5698 14.5766 15.5808 14.5754C15.5913 14.5742 15.6231 14.5716 15.6714 14.5811C15.7232 14.5912 15.7991 14.6166 15.8756 14.6747C15.9554 14.7354 16.0002 14.8047 16.0204 14.8508L14.1888 15.6541ZM16.5535 16.2495C16.8946 15.9162 17.1215 15.4758 17.0683 14.9681C17.0226 14.5326 16.7757 14.238 16.7395 14.1909L15.1539 15.4098C15.2046 15.4758 15.099 15.365 15.0792 15.1767C15.0677 15.0671 15.0865 14.9657 15.1198 14.8879C15.1498 14.8177 15.1785 14.7968 15.1557 14.8191L16.5535 16.2495ZM16.7395 14.1909C16.721 14.1668 16.7385 14.1887 16.7571 14.2169C16.7676 14.2328 16.7965 14.2775 16.8254 14.3411C16.8488 14.3927 16.9123 14.5412 16.9123 14.745H14.9123C14.9123 14.9542 14.9776 15.109 15.0043 15.1679C15.0364 15.2387 15.0702 15.2917 15.0867 15.3168C15.1175 15.3636 15.1523 15.4078 15.1538 15.4098L16.7395 14.1909ZM16.8721 15.0257C16.9542 14.7448 17.0058 14.4077 17.0308 14.1303C17.0437 13.9874 17.0515 13.8401 17.0502 13.7048C17.0492 13.6097 17.0455 13.3911 16.9741 13.1819L15.0812 13.8276C15.0654 13.7811 15.0579 13.7455 15.0546 13.7285C15.0511 13.7098 15.0498 13.6978 15.0495 13.6947C15.0489 13.6896 15.05 13.6982 15.0503 13.7241C15.0507 13.7755 15.0477 13.8537 15.0389 13.9504C15.0207 14.1522 14.9857 14.3507 14.9525 14.4644L16.8721 15.0257ZM17.0009 13.2749C16.8616 12.685 16.5549 12.2649 16.2641 11.9927C16.1205 11.8581 15.9768 11.7557 15.8503 11.6818C15.7877 11.6453 15.7212 11.6111 15.6533 11.5824C15.6201 11.5684 15.5763 11.5513 15.5255 11.536C15.5002 11.5283 15.3776 11.49 15.22 11.49V13.49C15.1309 13.49 15.0622 13.4777 15.0315 13.4716C14.9948 13.4643 14.9659 13.4562 14.9479 13.4507C14.9119 13.4399 14.8866 13.4296 14.875 13.4247C14.8504 13.4143 14.8398 13.4078 14.8422 13.4092C14.8454 13.4111 14.8676 13.4249 14.897 13.4525C14.9524 13.5044 15.0207 13.5917 15.0544 13.7346L17.0009 13.2749ZM16.1665 12.8129C16.2933 12.4409 16.3265 11.9927 16.3383 11.684C16.3511 11.3466 16.3412 11.0385 16.3369 10.9012L14.3379 10.9639C14.3421 11.0988 14.3497 11.3462 14.3397 11.608C14.3287 11.8984 14.2989 12.0928 14.2736 12.1672L16.1665 12.8129ZM16.3369 10.9012C16.3363 10.8819 16.3359 10.8682 16.3356 10.8577C16.3354 10.8526 16.3354 10.8497 16.3354 10.8483C16.3353 10.8464 16.3354 10.8494 16.3354 10.8551H14.3354C14.3354 10.8889 14.3371 10.9374 14.3379 10.9639L16.3369 10.9012ZM15.0161 11.8028C15.6167 12.0052 16.5399 12.4182 17.3298 12.8493C17.7239 13.0644 18.0567 13.2689 18.2871 13.438C18.4038 13.5237 18.4713 13.5837 18.5028 13.6164C18.5606 13.6761 18.4578 13.5973 18.4086 13.3982L20.3503 12.9186C20.2674 12.5832 20.0548 12.3443 19.941 12.2265C19.8009 12.0816 19.6351 11.9465 19.4708 11.826C19.1395 11.5827 18.7207 11.3299 18.2879 11.0937C17.424 10.6222 16.3925 10.1561 15.6547 9.90747L15.0161 11.8028ZM18.4143 12.8967C18.4145 12.896 18.4147 12.8954 18.4148 12.8947L20.3436 13.4239C20.3439 13.4226 20.3443 13.4213 20.3446 13.42L18.4143 12.8967ZM18.3792 13.1591C18.3791 13.8917 18.2284 14.6182 17.9346 15.2975L19.7703 16.0914C20.1717 15.1632 20.3791 14.1668 20.3792 13.1594L18.3792 13.1591ZM17.9346 15.2975C17.6407 15.9772 17.2086 16.5977 16.6608 17.1223L18.0442 18.5667C18.7815 17.8605 19.3688 17.0198 19.7703 16.0914L17.9346 15.2975ZM16.6608 17.1223C16.113 17.647 15.4603 18.0654 14.7389 18.3516L15.4764 20.2106C16.4341 19.8307 17.307 19.2728 18.0442 18.5667L16.6608 17.1223ZM14.7389 18.3516C14.0175 18.6377 13.2429 18.7855 12.4596 18.7855L12.4596 20.7855C13.4938 20.7855 14.5188 20.5905 15.4764 20.2106L14.7389 18.3516ZM12.4596 18.7855C11.6764 18.7855 10.9018 18.6377 10.1804 18.3516L9.4429 20.2106C10.4005 20.5905 11.4255 20.7855 12.4596 20.7855V18.7855ZM10.1804 18.3516C9.45904 18.0654 8.80633 17.647 8.25847 17.1223L6.8751 18.5667C7.61233 19.2728 8.48522 19.8307 9.4429 20.2106L10.1804 18.3516ZM8.25847 17.1223C7.71071 16.5977 7.27861 15.9772 6.98466 15.2975L5.14898 16.0914C5.5505 17.0198 6.13779 17.8605 6.8751 18.5667L8.25847 17.1223ZM6.98466 15.2975C6.69075 14.618 6.5401 13.8912 6.5401 13.1584H4.5401C4.5401 14.1661 4.74741 15.1629 5.14898 16.0914L6.98466 15.2975ZM4.79011 13.8198L4.79036 13.8201L6.29034 12.4972L6.29009 12.4969L4.79011 13.8198Z" fill="#838588" mask="url(#path-2-inside-1)"/>
<path d="M12.5752 9.08124C13.9347 9.08124 15.0368 7.97914 15.0368 6.61962C15.0368 5.26011 13.9347 4.15801 12.5752 4.15801C11.2157 4.15801 10.1136 5.26011 10.1136 6.61962C10.1136 7.97914 11.2157 9.08124 12.5752 9.08124Z" fill="white" stroke="#838588" stroke-width="1.1"/>
</svg>
