<svg width="24" height="24" viewBox="0 0 24 24" fill="none" xmlns="http://www.w3.org/2000/svg">
<rect width="24" height="24" fill="white"/>
<path d="M21.4995 16.1541C20.8698 16.3398 20.3922 16.8593 20.2267 17.4975M21.4995 16.1541L20.2267 6.5025C20.2265 6.50162 20.2262 6.50079 20.226 6.5H16.7832L15.6399 7.24982L9.51556 17.0869L9.58544 17.5H20.226M21.4995 16.1541C21.4998 16.1531 21.5 16.1515 21.5 16.1492V7.85084C21.5 7.84852 21.4998 7.84692 21.4995 7.84588C20.8697 7.66016 20.3922 7.14064 20.2267 6.50252L21.4995 16.1541ZM20.2267 17.4975C20.2267 17.4975 20.2267 17.4975 20.2267 17.4975L20.2364 17.5M20.2267 17.4975L20.2363 17.5M20.2267 17.4975C20.2265 17.4984 20.2262 17.4992 20.226 17.5M20.2364 17.5H20.2363M20.2364 17.5L20.2418 17.5014C20.2461 17.5005 20.2505 17.5 20.2548 17.5H20.2364ZM20.2363 17.5H20.226M20.2363 17.5L20.2418 17.5014M20.226 17.5C20.2235 17.508 20.2207 17.5111 20.2207 17.5112C20.2207 17.5112 20.221 17.5109 20.2216 17.5103C20.2233 17.5089 20.2271 17.5062 20.2334 17.5039C20.2361 17.5029 20.2389 17.5021 20.2418 17.5014M20.2418 17.5014L20.2548 17.5048L20.7107 17.623C20.6535 17.8433 20.4702 18 20.2548 18L20.2418 17.5014ZM21.4991 7.84464C21.4988 7.84439 21.4987 7.84423 21.4987 7.8442L21.4991 7.84464ZM21.4991 16.1554C21.4989 16.1557 21.4988 16.1559 21.4988 16.1558L21.4991 16.1554Z" fill="white" stroke="#838588"/>
<path d="M16.557 14.5642C16.4953 14.5642 16.4326 14.5538 16.3721 14.5318C16.1286 14.4429 16.014 14.1994 16.1162 13.9878L18.0536 9.9765C18.1558 9.76488 18.4362 9.6654 18.6796 9.75413C18.9231 9.84297 19.0377 10.0865 18.9355 10.2981L16.9981 14.3094C16.9213 14.4685 16.7438 14.5642 16.557 14.5642Z" fill="#838588"/>
<path d="M15.8342 12.0944C15.0985 12.0944 14.5 11.5203 14.5 10.8146C14.5 10.1088 15.0985 9.53467 15.8342 9.53467C16.5698 9.53467 17.1683 10.1088 17.1683 10.8146C17.1683 11.5203 16.5698 12.0944 15.8342 12.0944ZM15.8342 10.3657C15.6294 10.3657 15.4563 10.5713 15.4563 10.8146C15.4563 11.0579 15.6294 11.2634 15.8342 11.2634C16.039 11.2634 16.212 11.0579 16.212 10.8146C16.212 10.5713 16.039 10.3657 15.8342 10.3657Z" fill="#838588"/>
<path d="M19.1548 14.8381C18.4191 14.8381 17.8206 14.264 17.8206 13.5582C17.8206 12.8524 18.4191 12.2783 19.1548 12.2783C19.8904 12.2783 20.489 12.8524 20.489 13.5582C20.489 14.264 19.8904 14.8381 19.1548 14.8381ZM19.1548 13.1093C18.9499 13.1093 18.7769 13.3149 18.7769 13.5582C18.7769 13.8015 18.9499 14.0071 19.1548 14.0071C19.3596 14.0071 19.5327 13.8015 19.5327 13.5582C19.5327 13.3149 19.3596 13.1093 19.1548 13.1093Z" fill="#838588"/>
<path d="M15.7336 6.5H3.77407C3.77383 6.50078 3.77359 6.50162 3.77336 6.50249L15.7336 6.5ZM15.7336 6.5L8.8852 17.5H3.77407C3.77383 17.4992 3.77359 17.4984 3.77336 17.4975L15.7336 6.5ZM2.50052 7.84593C3.13029 7.66021 3.6078 7.14072 3.77334 6.5026L3.77336 17.4975C3.60784 16.8594 3.13032 16.3398 2.50053 16.1541C2.50025 16.1531 2.5 16.1515 2.5 16.1492V7.85088C2.5 7.84857 2.50025 7.84697 2.50052 7.84593ZM2.50098 16.1554C2.50124 16.1556 2.50132 16.1558 2.5013 16.1558L2.50098 16.1554ZM2.50129 7.84421C2.50131 7.84423 2.50123 7.8444 2.50098 7.84466L2.50129 7.84421Z" fill="#EDF0F2" stroke="#838588"/>
<path d="M7.35865 13.4453H4.76786C4.60114 13.4453 4.46606 13.302 4.46606 13.1252C4.46606 12.9485 4.60118 12.8052 4.76786 12.8052H7.35865C7.52537 12.8052 7.66044 12.9485 7.66044 13.1252C7.66044 13.302 7.52537 13.4453 7.35865 13.4453Z" fill="#838588"/>
<path d="M8.24396 14.8374H4.76786C4.60114 14.8374 4.46606 14.6941 4.46606 14.5173C4.46606 14.3406 4.60118 14.1973 4.76786 14.1973H8.24396C8.41068 14.1973 8.54576 14.3406 8.54576 14.5173C8.54576 14.6941 8.41068 14.8374 8.24396 14.8374Z" fill="#838588"/>
</svg>
