<svg width="24" height="24" viewBox="0 0 24 24" fill="none" xmlns="http://www.w3.org/2000/svg"><path d="M8 6V5.5C8 4.11929 9.11929 3 10.5 3H18.5C19.8807 3 21 4.11929 21 5.5V9.5C21 10.3284 20.3284 11 19.5 11H19V14" stroke="#2385C8" stroke-width="2" stroke-linecap="round" stroke-linejoin="round"/><path fill-rule="evenodd" clip-rule="evenodd" d="M3 11.5C3 10.1193 4.11929 9 5.5 9L13.5 9C14.8807 9 16 10.1193 16 11.5V15.5C16 16.8807 14.8807 18 13.5 18H12L8 21V18H5.5C4.11929 18 3 16.8807 3 15.5V11.5Z" stroke="#2385C8" stroke-width="2" stroke-linecap="round" stroke-linejoin="round"/></svg>