<svg width="33" height="32" viewBox="0 0 33 32" fill="none" xmlns="http://www.w3.org/2000/svg"><path d="M17.8333 26.668H8.5C8.14638 26.668 7.80724 26.5275 7.55719 26.2774C7.30714 26.0274 7.16667 25.6883 7.16667 25.3346V6.66797C7.16667 6.31435 7.30714 5.97521 7.55719 5.72516C7.80724 5.47511 8.14638 5.33464 8.5 5.33464H15.1667V9.33464C15.1667 10.3955 15.5881 11.4129 16.3382 12.1631C17.0884 12.9132 18.1058 13.3346 19.1667 13.3346H23.1667V16.0013C23.1667 16.3549 23.3071 16.6941 23.5572 16.9441C23.8072 17.1942 24.1464 17.3346 24.5 17.3346C24.8536 17.3346 25.1928 17.1942 25.4428 16.9441C25.6929 16.6941 25.8333 16.3549 25.8333 16.0013V12.0013V11.9213C25.8194 11.7988 25.7926 11.6781 25.7533 11.5613V11.4413C25.6892 11.3042 25.6037 11.1782 25.5 11.068L17.5 3.06797C17.3898 2.96426 17.2638 2.87874 17.1267 2.81464C17.0869 2.80898 17.0465 2.80898 17.0067 2.81464C16.8712 2.73696 16.7216 2.68709 16.5667 2.66797H8.5C7.43913 2.66797 6.42172 3.0894 5.67157 3.83954C4.92143 4.58969 4.5 5.6071 4.5 6.66797V25.3346C4.5 26.3955 4.92143 27.4129 5.67157 28.1631C6.42172 28.9132 7.43913 29.3346 8.5 29.3346H17.8333C18.187 29.3346 18.5261 29.1942 18.7761 28.9441C19.0262 28.6941 19.1667 28.3549 19.1667 28.0013C19.1667 27.6477 19.0262 27.3085 18.7761 27.0585C18.5261 26.8084 18.187 26.668 17.8333 26.668ZM17.8333 7.21464L21.2867 10.668H19.1667C18.813 10.668 18.4739 10.5275 18.2239 10.2774C17.9738 10.0274 17.8333 9.68826 17.8333 9.33464V7.21464ZM11.1667 10.668C10.813 10.668 10.4739 10.8084 10.2239 11.0585C9.97381 11.3085 9.83333 11.6477 9.83333 12.0013C9.83333 12.3549 9.97381 12.6941 10.2239 12.9441C10.4739 13.1942 10.813 13.3346 11.1667 13.3346H12.5C12.8536 13.3346 13.1928 13.1942 13.4428 12.9441C13.6929 12.6941 13.8333 12.3549 13.8333 12.0013C13.8333 11.6477 13.6929 11.3085 13.4428 11.0585C13.1928 10.8084 12.8536 10.668 12.5 10.668H11.1667ZM19.1667 16.0013H11.1667C10.813 16.0013 10.4739 16.1418 10.2239 16.3918C9.97381 16.6419 9.83333 16.981 9.83333 17.3346C9.83333 17.6883 9.97381 18.0274 10.2239 18.2774C10.4739 18.5275 10.813 18.668 11.1667 18.668H19.1667C19.5203 18.668 19.8594 18.5275 20.1095 18.2774C20.3595 18.0274 20.5 17.6883 20.5 17.3346C20.5 16.981 20.3595 16.6419 20.1095 16.3918C19.8594 16.1418 19.5203 16.0013 19.1667 16.0013ZM28.1133 23.0546L25.4467 20.388C25.3199 20.2666 25.1703 20.1714 25.0067 20.108C24.682 19.9746 24.3179 19.9746 23.9933 20.108C23.8297 20.1714 23.6801 20.2666 23.5533 20.388L20.8867 23.0546C20.6356 23.3057 20.4945 23.6462 20.4945 24.0013C20.4945 24.3564 20.6356 24.6969 20.8867 24.948C21.1377 25.199 21.4783 25.3401 21.8333 25.3401C22.1884 25.3401 22.5289 25.199 22.78 24.948L23.1667 24.548V28.0013C23.1667 28.3549 23.3071 28.6941 23.5572 28.9441C23.8072 29.1942 24.1464 29.3346 24.5 29.3346C24.8536 29.3346 25.1928 29.1942 25.4428 28.9441C25.6929 28.6941 25.8333 28.3549 25.8333 28.0013V24.548L26.22 24.948C26.344 25.0729 26.4914 25.1721 26.6539 25.2398C26.8164 25.3075 26.9906 25.3424 27.1667 25.3424C27.3427 25.3424 27.517 25.3075 27.6794 25.2398C27.8419 25.1721 27.9894 25.0729 28.1133 24.948C28.2383 24.824 28.3375 24.6766 28.4052 24.5141C28.4729 24.3516 28.5077 24.1773 28.5077 24.0013C28.5077 23.8253 28.4729 23.651 28.4052 23.4885C28.3375 23.3261 28.2383 23.1786 28.1133 23.0546V23.0546ZM16.5 24.0013C16.8536 24.0013 17.1928 23.8608 17.4428 23.6108C17.6929 23.3607 17.8333 23.0216 17.8333 22.668C17.8333 22.3143 17.6929 21.9752 17.4428 21.7252C17.1928 21.4751 16.8536 21.3346 16.5 21.3346H11.1667C10.813 21.3346 10.4739 21.4751 10.2239 21.7252C9.97381 21.9752 9.83333 22.3143 9.83333 22.668C9.83333 23.0216 9.97381 23.3607 10.2239 23.6108C10.4739 23.8608 10.813 24.0013 11.1667 24.0013H16.5Z" fill="white"/></svg>