<svg width="36" height="10" viewBox="0 0 36 10" fill="none" xmlns="http://www.w3.org/2000/svg"><g clip-path="url(#clip0_4431_14993)"><path d="M0.317669 9.61367C0.0562039 9.35615 -0.0437332 8.9713 0.0178577 8.45912C0.0788563 7.95552 0.269107 7.57267 0.588609 7.31057C0.908112 7.04847 1.33377 6.91756 1.86558 6.91785C2.38674 6.91785 2.77923 7.04589 3.04306 7.30198C3.3069 7.55807 3.40772 7.94221 3.34554 8.4544C3.28454 8.95799 3.09429 9.34142 2.77479 9.60466C2.45529 9.8679 2.02785 9.99967 1.49248 9.99996C0.971628 9.99996 0.580022 9.8712 0.317669 9.61367ZM2.19915 9.18705C2.35283 9.03897 2.45099 8.79475 2.49186 8.4544C2.53272 8.11404 2.49541 7.87025 2.37859 7.72475C2.26178 7.57925 2.06768 7.505 1.79452 7.505C1.52136 7.505 1.31437 7.57882 1.16203 7.72689C1.00968 7.87497 0.912406 8.1209 0.870654 8.46427C0.828903 8.80763 0.867989 9.04369 0.984805 9.19048C1.10162 9.33727 1.29572 9.41023 1.56222 9.41023C1.82872 9.41023 2.04458 9.33512 2.19915 9.18705Z" fill="#F69331"/><path d="M7.08135 6.97583L6.72291 9.93733H6.10108L4.7295 8.13468L4.51141 9.93733H3.74878L4.10722 6.97583H4.81211L6.10685 8.739L6.32005 6.97583H7.08135Z" fill="#F69331"/><path d="M7.7777 9.62708C7.51831 9.37872 7.42059 8.98943 7.48455 8.45922C7.54822 7.93474 7.74187 7.54531 8.06552 7.29093C8.38917 7.03656 8.81172 6.90923 9.33317 6.90894C9.74048 6.90805 10.1443 6.9819 10.5231 7.12655L10.444 7.77937C10.2599 7.68735 10.0688 7.60901 9.87238 7.54502C9.70927 7.49466 9.53904 7.46918 9.36781 7.46948C9.05778 7.46948 8.81779 7.54431 8.64782 7.69396C8.47785 7.8436 8.37155 8.09741 8.32891 8.45536C8.28568 8.80759 8.33172 9.05996 8.46704 9.21247C8.60237 9.36498 8.81112 9.44124 9.09332 9.44124C9.25613 9.4473 9.41864 9.42327 9.57213 9.37042L9.63564 8.84636H9.07333L9.14129 8.2884H10.5311L10.3623 9.68288C9.92511 9.88804 9.44607 9.9964 8.96007 10.0001C8.43151 10.0001 8.03739 9.87574 7.7777 9.62708Z" fill="#F69331"/><path d="M12.2657 8.77842L11.997 9.01405L11.8851 9.9377H11.0571L11.4156 6.9762H12.2435L12.0943 8.21058L13.2859 6.9762H14.3284L12.8995 8.22818L14.0774 9.93813H13.0399L12.2657 8.77842Z" fill="#F69331"/><path d="M14.8907 6.97583H15.7186L15.3606 9.93733H14.5322L14.8907 6.97583Z" fill="#F69331"/><path d="M18.0998 9.93775L17.5486 8.91839H17.0378L16.9139 9.93989H16.0859L16.4444 6.97839H18.1056C18.4973 6.97839 18.791 7.05665 18.9868 7.21317C19.1825 7.36968 19.2616 7.60374 19.224 7.91534C19.1947 8.12003 19.103 8.31167 18.9606 8.46584C18.8183 8.62001 18.6316 8.72974 18.4245 8.78105L19.1529 9.93989L18.0998 9.93775ZM18.325 7.94839C18.3414 7.81191 18.3165 7.70847 18.2504 7.63722C18.1842 7.56597 18.0789 7.53078 17.9359 7.53078H17.2052L17.1017 8.38918H17.7964C18.1136 8.38833 18.2897 8.24139 18.325 7.94839Z" fill="#F69331"/><path d="M24.0564 5.87839C24.7741 5.87839 25.4923 5.87839 26.2105 5.87839C26.4353 5.87839 26.5845 5.76208 26.5903 5.5934C26.5961 5.42473 26.4526 5.30455 26.2288 5.29296C26.1746 5.28996 26.1199 5.29296 26.0657 5.29296H23.7481C23.1507 5.29296 22.5533 5.2891 21.9559 5.29682C21.8445 5.2968 21.7349 5.32459 21.6379 5.37751C21.5837 5.40731 21.5437 5.45639 21.5264 5.51429C21.5092 5.57218 21.516 5.63431 21.5455 5.6874C21.6103 5.8256 21.7329 5.88311 21.9008 5.88268C22.6198 5.87896 23.3383 5.87753 24.0564 5.87839Z" fill="#4292CF"/><path d="M23.7064 4.11478C24.0803 4.11478 24.4548 4.11478 24.8288 4.11478C25.0824 4.11478 25.2347 4.00491 25.237 3.82464C25.2392 3.64438 25.0913 3.5272 24.8372 3.52635C24.0889 3.52377 23.3408 3.52377 22.5928 3.52635C22.3379 3.52635 22.1962 3.64566 22.2042 3.83237C22.2113 4.00662 22.3592 4.11221 22.6039 4.11307C22.9686 4.11607 23.3368 4.11478 23.7064 4.11478Z" fill="#4292CF"/><path d="M26.4184 2.3515C26.7924 2.3515 27.1664 2.3515 27.5404 2.3515C27.7851 2.3515 27.9326 2.24549 27.9401 2.07037C27.9477 1.8841 27.8069 1.76607 27.551 1.76478C26.7969 1.76135 26.0428 1.76135 25.2889 1.76478C25.0468 1.76478 24.9034 1.88453 24.906 2.06136C24.9087 2.23819 25.0593 2.34979 25.2969 2.35107C25.6705 2.3515 26.0444 2.3515 26.4184 2.3515Z" fill="#4292CF"/><path d="M29.0528 9.40346C28.8178 9.40346 28.5829 9.40346 28.3479 9.40346C28.1054 9.40346 27.9575 9.5099 27.9481 9.68458C27.9393 9.86699 28.0854 9.98931 28.3372 9.99146C28.8134 9.99575 29.2892 9.99575 29.7648 9.99146C29.9993 9.98846 30.1481 9.8597 30.1392 9.68673C30.1303 9.51376 29.9815 9.40775 29.7563 9.4056C29.5249 9.40174 29.2877 9.40346 29.0528 9.40346Z" fill="#4292CF"/><path d="M22.1171 9.98875V9.99133H22.4969C22.5089 9.99133 22.5213 9.99133 22.5333 9.99133C22.7496 9.97287 22.8753 9.85956 22.8686 9.68788C22.862 9.5162 22.7216 9.40847 22.508 9.4059C22.2415 9.40246 21.976 9.40246 21.7116 9.4059C21.5011 9.4089 21.3594 9.52779 21.3563 9.69346C21.3531 9.85913 21.478 9.97502 21.6832 9.98832C21.8271 9.99605 21.9741 9.98875 22.1171 9.98875Z" fill="#4292CF"/><path d="M23.5336 2.35164C23.6539 2.35164 23.7752 2.35679 23.8956 2.35164C24.0834 2.34177 24.2149 2.22288 24.2207 2.06966C24.2265 1.91643 24.1092 1.78252 23.9178 1.77265C23.6708 1.7602 23.4233 1.76106 23.1764 1.77523C22.9841 1.78596 22.8686 1.91729 22.878 2.07567C22.8873 2.23404 23.0183 2.34521 23.2075 2.35422C23.3159 2.35679 23.4247 2.35164 23.5336 2.35164Z" fill="#4292CF"/><path d="M26.5971 4.11432C26.7112 4.11432 26.8258 4.11947 26.9395 4.11432C27.1252 4.10445 27.2576 3.98556 27.2656 3.83405C27.2736 3.68254 27.1585 3.5482 26.9666 3.53704C26.7209 3.52395 26.4746 3.52395 26.2289 3.53704C26.0352 3.54648 25.918 3.67052 25.9202 3.82718C25.9224 3.98384 26.0588 4.10702 26.2546 4.11561C26.3684 4.11861 26.4829 4.11432 26.5971 4.11432Z" fill="#4292CF"/><path d="M30.3914 2.35156C30.9009 2.35156 31.3886 2.35156 31.8763 2.35156C32.0689 2.34654 32.2616 2.35141 32.4537 2.36615C32.8788 2.41154 33.2733 2.60156 33.5668 2.90223C34.177 3.50311 34.7824 4.11129 35.4167 4.69415C35.9053 5.14224 36.0741 5.64741 35.9701 6.24958C35.8897 6.7157 35.8435 7.18653 35.7925 7.65608C35.7365 8.18314 35.3248 8.53552 34.7189 8.51449C34.4187 8.50418 34.2663 8.57157 34.1295 8.82265C33.7124 9.58964 32.7602 10.0506 31.8487 9.9785C31.0048 9.91197 30.3861 9.38491 30.2888 8.65398C30.2844 8.61749 30.2799 8.58144 30.2728 8.52178H30.0801C29.1145 8.52178 28.1488 8.52393 27.1832 8.51921C27.0598 8.51921 27.0056 8.55054 26.9611 8.6514C26.5614 9.55788 25.4066 10.1364 24.369 9.95446C23.6521 9.82871 23.1293 9.33898 23.0334 8.70462C23.025 8.64797 23.013 8.59131 23.0005 8.52178H21.7347C21.6685 8.52178 21.6014 8.52393 21.5357 8.52178C21.3336 8.51363 21.1955 8.40246 21.1875 8.24366C21.1786 8.07198 21.3029 7.94665 21.5188 7.93807C21.7955 7.92691 22.0736 7.93249 22.3512 7.93163C22.5386 7.93163 22.726 7.92605 22.9126 7.93506C23.0574 7.94236 23.1316 7.90759 23.1906 7.7784C23.5611 6.96292 24.5484 6.41955 25.5323 6.47191C26.3495 6.51483 26.998 7.0406 27.1037 7.74664C27.1122 7.8033 27.1246 7.85952 27.1361 7.91832C27.1803 7.92468 27.2248 7.92883 27.2694 7.93077C27.7944 7.93077 28.3194 7.93077 28.8444 7.93334C28.9594 7.93334 29.0021 7.90116 29.0141 7.80158C29.1349 6.82214 29.2587 5.84284 29.3854 4.86369C29.548 3.58952 29.7129 2.31408 29.8802 1.03734C29.9246 0.716727 29.8011 0.589682 29.4271 0.589682H22.6181C22.3645 0.589682 22.2184 0.496116 22.2024 0.324435C22.1882 0.167776 22.2863 0.0445946 22.4649 0.015838C22.5664 0.00272046 22.6689 -0.00244681 22.7713 0.000386693C24.9984 0.000386693 27.2256 0.000386693 29.4529 0.000386693C30.208 0.000386693 30.6335 0.420147 30.5495 1.0764C30.4962 1.49315 30.4461 1.9112 30.3914 2.35156ZM29.6808 7.9312C29.8655 7.9312 30.0334 7.92176 30.1991 7.9342C30.3457 7.94493 30.407 7.89472 30.4612 7.77969C30.8556 6.93888 31.8465 6.40109 32.8534 6.47191C33.6378 6.52728 34.3005 7.07794 34.3734 7.75737C34.3898 7.90716 34.4462 7.94965 34.6008 7.93206C34.6369 7.93012 34.673 7.93012 34.7091 7.93206C34.9779 7.92734 35.0831 7.84622 35.1124 7.62003C35.1822 7.07837 35.2457 6.53629 35.3181 5.99464C35.3625 5.67617 35.2497 5.41092 35.0032 5.17443C34.3409 4.54049 33.6871 3.90356 33.0338 3.26619C32.9319 3.16239 32.8091 3.08 32.6728 3.02417C32.5365 2.96834 32.3898 2.94027 32.2418 2.94171C31.6502 2.94171 31.0586 2.94171 30.4652 2.93957C30.3541 2.93957 30.303 2.96618 30.2915 3.06833C30.2471 3.47521 30.1929 3.88124 30.1409 4.28769C30.0388 5.08472 29.9344 5.88133 29.8327 6.67793C29.7807 7.08867 29.7318 7.49899 29.679 7.9312H29.6808ZM23.6934 8.47028C23.6885 8.99949 24.1203 9.38834 24.7279 9.40208C25.55 9.42096 26.3522 8.81278 26.441 8.10331C26.505 7.58827 26.1617 7.15906 25.6193 7.07623C24.6835 6.93073 23.701 7.64277 23.6934 8.47028ZM30.9675 8.48015C30.9675 9.01279 31.3935 9.39135 32.0077 9.40165C32.8143 9.41495 33.573 8.84841 33.6956 8.13936C33.8017 7.53376 33.3611 7.07151 32.6611 7.05434C31.7972 7.03331 30.9693 7.72904 30.9675 8.48015Z" fill="#4292CF"/><path d="M24.0564 5.87841C23.3384 5.87841 22.6202 5.87841 21.9018 5.87841C21.733 5.87841 21.6104 5.82132 21.5465 5.68312C21.517 5.63003 21.5101 5.56791 21.5274 5.51001C21.5447 5.45212 21.5847 5.40303 21.6389 5.37324C21.7359 5.32032 21.8454 5.29252 21.9569 5.29255C22.5543 5.28482 23.1517 5.28869 23.7491 5.28869H26.0667C26.1209 5.28869 26.1756 5.28869 26.2297 5.28869C26.4518 5.30156 26.5971 5.42174 26.5913 5.58913C26.5855 5.75652 26.4363 5.87326 26.2115 5.87412C25.4933 5.87412 24.7751 5.87412 24.0573 5.87412L24.0564 5.87841Z" fill="#4292CF"/><path d="M23.7065 4.11487C23.3387 4.11487 22.9705 4.11487 22.6027 4.11487C22.3584 4.11487 22.2105 4.00843 22.203 3.83417C22.195 3.64747 22.3362 3.52944 22.5916 3.52815C23.3396 3.52415 24.0877 3.52415 24.836 3.52815C25.0909 3.52815 25.2393 3.64489 25.2357 3.82645C25.2322 4.008 25.0812 4.11573 24.8275 4.11659C24.4531 4.11573 24.0787 4.11487 23.7065 4.11487Z" fill="#4292CF"/><path d="M26.4184 2.35162C26.0444 2.35162 25.6704 2.35162 25.2964 2.35162C25.0588 2.35162 24.9082 2.23703 24.9056 2.06191C24.9029 1.8868 25.0464 1.76619 25.2884 1.76533C26.0426 1.76133 26.7967 1.76133 27.5506 1.76533C27.8055 1.76533 27.9472 1.88465 27.9397 2.07093C27.9325 2.24604 27.7851 2.3512 27.5399 2.35205C27.1664 2.35162 26.7924 2.35162 26.4184 2.35162Z" fill="#4292CF"/><path d="M29.0528 9.40339C29.2877 9.40339 29.5227 9.40339 29.7572 9.40339C29.9824 9.40554 30.1321 9.51713 30.1401 9.68452C30.1481 9.85191 30.0002 9.98496 29.7657 9.98925C29.2901 9.99469 28.8143 9.99469 28.3381 9.98925C28.0863 9.98711 27.9384 9.86478 27.949 9.68237C27.9575 9.50769 28.1054 9.40253 28.3488 9.40125C28.5828 9.4021 28.8178 9.40339 29.0528 9.40339Z" fill="#4292CF"/><path d="M22.1171 9.98885C21.9723 9.98885 21.8271 9.99614 21.6832 9.9867C21.478 9.9734 21.3527 9.85408 21.3563 9.69184C21.3598 9.5296 21.5011 9.40728 21.7116 9.40428C21.9781 9.40056 22.2436 9.40056 22.508 9.40428C22.7216 9.40685 22.8633 9.52059 22.8687 9.68626C22.874 9.85193 22.7496 9.97125 22.5333 9.98971C22.5213 9.98971 22.5089 9.98971 22.4969 9.98971H22.1171V9.98885Z" fill="#4292CF"/><path d="M23.5335 2.35153C23.4247 2.35153 23.3159 2.35583 23.2075 2.35153C23.0183 2.34252 22.8868 2.22835 22.8779 2.07298C22.869 1.91761 22.9841 1.78456 23.1764 1.77254C23.4233 1.75838 23.6708 1.75752 23.9177 1.76996C24.1092 1.77984 24.2286 1.91031 24.2206 2.06697C24.2126 2.22363 24.0834 2.33909 23.8955 2.34896C23.7751 2.3554 23.6539 2.34896 23.5335 2.34896V2.35153Z" fill="#4292CF"/><path d="M26.5971 4.11426C26.483 4.11426 26.3684 4.11855 26.2547 4.11426C26.0588 4.10568 25.9224 3.9855 25.9202 3.82584C25.918 3.66617 26.0352 3.54514 26.2289 3.5357C26.4746 3.52261 26.7209 3.52261 26.9667 3.5357C27.1585 3.54686 27.274 3.6769 27.2656 3.83271C27.2571 3.98851 27.1252 4.1031 26.9396 4.11297C26.8259 4.11898 26.7113 4.11297 26.5971 4.11297V4.11426Z" fill="#4292CF"/><path d="M32.5866 5.87753C32.1424 5.87753 31.6942 5.87753 31.2483 5.87753C30.9294 5.87753 30.8041 5.7668 30.8259 5.49511C30.8734 4.94702 30.9267 4.39893 30.9827 3.85169C31.0062 3.61863 31.1221 3.53108 31.3962 3.52721C31.6312 3.52421 31.8661 3.52721 32.1015 3.52721C32.1722 3.52521 32.2425 3.53763 32.3079 3.56367C32.3732 3.5897 32.4322 3.62876 32.4808 3.67829C33.0606 4.23254 33.6431 4.78478 34.2282 5.33502C34.3441 5.44404 34.4059 5.56336 34.333 5.70585C34.2602 5.84835 34.1109 5.88139 33.9435 5.88011C33.4913 5.87496 33.0392 5.87753 32.5866 5.87753ZM31.632 4.1354C31.5978 4.51224 31.5636 4.88994 31.529 5.27278H33.2417C32.8864 4.93672 32.5479 4.63241 32.2339 4.30965C32.0718 4.14269 31.8994 4.06844 31.632 4.1354Z" fill="#4292CF"/><path d="M1.23171 0.196167H4.98135L4.87387 1.0932H2.46205L2.32436 2.23402H4.40527L4.29645 3.14565H2.21465L1.99257 4.98307H0.654297L1.23171 0.196167Z" fill="#4292CF"/><path d="M8.61625 4.98307L7.72792 3.33235H6.90178L6.7019 4.98307H5.3623L5.93972 0.196167H8.62425C9.25733 0.196167 9.73199 0.322925 10.0482 0.576441C10.3645 0.829957 10.4923 1.20794 10.4316 1.7104C10.3847 2.04148 10.2366 2.35151 10.0064 2.60084C9.77611 2.85017 9.47413 3.02746 9.13903 3.11003L10.3165 4.98307H8.61625ZM8.98047 1.76791C9.00712 1.54787 8.96684 1.38034 8.85965 1.26531C8.75246 1.15029 8.58324 1.09306 8.35197 1.09363H7.17094L7.00305 2.48039H8.12634C8.63831 2.48039 8.92302 2.24289 8.98047 1.76791Z" fill="#4292CF"/><path d="M11.7974 0.196167H15.5728L15.4644 1.0932H13.0264L12.9007 2.13359H15.0153L14.9056 3.03835H12.7914L12.6644 4.08603H15.1011L14.9927 4.98307H11.2173L11.7974 0.196167Z" fill="#4292CF"/><path d="M16.6953 0.196167H20.4707L20.3619 1.0932H17.9248L17.7991 2.13359H19.9133L19.8036 3.03835H17.6894L17.5623 4.08603H19.999L19.8906 4.98307H16.1152L16.6953 0.196167Z" fill="#4292CF"/></g><defs><clipPath id="clip0_4431_14993"><rect width="36" height="10" fill="white"/></clipPath></defs></svg>