<svg width="36" height="36" viewBox="0 0 36 36" fill="none" xmlns="http://www.w3.org/2000/svg">
<path d="M35.014 19.1092L31.1501 12.8639C31.0489 12.7021 30.9081 12.5687 30.7411 12.4763C30.574 12.3839 30.3862 12.3356 30.1953 12.336H23.9501V10.1232C23.9501 9.82534 23.8318 9.53964 23.6211 9.32899C23.4105 9.11834 23.1248 9 22.8269 9H7.10149C6.80359 9 6.51789 9.11834 6.30724 9.32899C6.09659 9.53964 5.97825 9.82534 5.97825 10.1232V24.7254C5.97825 25.0233 6.09659 25.309 6.30724 25.5196C6.51789 25.7303 6.80359 25.8486 7.10149 25.8486H10.7857C10.9846 26.1838 11.2673 26.4615 11.6061 26.6544C11.9448 26.8473 12.3279 26.9487 12.7177 26.9487C13.1075 26.9487 13.4906 26.8473 13.8293 26.6544C14.168 26.4615 14.4508 26.1838 14.6497 25.8486H26.5111C26.71 26.1838 26.9927 26.4615 27.3314 26.6544C27.6702 26.8473 28.0533 26.9487 28.4431 26.9487C28.8328 26.9487 29.2159 26.8473 29.5547 26.6544C29.8934 26.4615 30.1761 26.1838 30.375 25.8486H34.0593C34.3572 25.8486 34.6429 25.7303 34.8535 25.5196C35.0642 25.309 35.1825 25.0233 35.1825 24.7254V19.7382C35.1897 19.5165 35.1311 19.2976 35.014 19.1092Z" fill="#2385C8"/>
<path d="M11.8198 20.0916C13.292 20.0916 14.1636 19.22 14.1636 17.7808V17.1729H11.937V17.9968H13.0869L13.0833 18.0737C13.054 18.7256 12.5596 19.1541 11.8381 19.1541C10.9592 19.1541 10.4026 18.4766 10.4026 17.3303V17.3267C10.4026 16.2061 10.9263 15.5615 11.7979 15.5615C12.3948 15.5615 12.8159 15.8582 12.9917 16.3708L13.0063 16.4075H14.116L14.105 16.3562C13.9292 15.3638 13.0649 14.624 11.7942 14.624C10.2451 14.624 9.27466 15.6458 9.27466 17.3376V17.3413C9.27466 19.0625 10.2415 20.0916 11.8198 20.0916ZM15.0044 20H16.0738V17.7881C16.0738 17.2351 16.3814 16.9165 16.9087 16.9165C17.0625 16.9165 17.209 16.9385 17.2969 16.9751V16.0339C17.2164 16.012 17.1065 15.9937 16.9893 15.9937C16.5242 15.9937 16.191 16.2683 16.0774 16.7444H16.0555V16.0742H15.0044V20ZM19.0094 20.0623C19.5257 20.0623 19.9432 19.8169 20.1666 19.4141H20.1886V20H21.2579V17.3083C21.2579 16.5173 20.6024 15.9937 19.588 15.9937C18.5516 15.9937 17.9291 16.5137 17.8705 17.2388L17.8668 17.2827H18.8446L18.8519 17.2498C18.9032 16.9971 19.1449 16.8103 19.544 16.8103C19.9615 16.8103 20.1886 17.0264 20.1886 17.3743V17.616L19.2181 17.6746C18.244 17.7368 17.691 18.1543 17.691 18.8684V18.8757C17.691 19.5679 18.222 20.0623 19.0094 20.0623ZM18.7494 18.8208V18.8135C18.7494 18.5352 18.9654 18.3594 19.3792 18.3337L20.1886 18.2825V18.5645C20.1886 18.9746 19.837 19.2822 19.3573 19.2822C18.9874 19.2822 18.7494 19.1101 18.7494 18.8208ZM23.7101 20.0806C23.9335 20.0806 24.1056 20.0586 24.2265 20.0403V19.2566C24.1605 19.2639 24.091 19.2749 23.9958 19.2749C23.6735 19.2749 23.5087 19.1504 23.5087 18.7842V16.8799H24.2265V16.0742H23.5087V15.1147H22.4284V16.0742H21.8827V16.8799H22.4284V18.9014C22.4284 19.7437 22.8385 20.0806 23.7101 20.0806ZM25.5727 15.5688C25.895 15.5688 26.144 15.3162 26.144 15.0122C26.144 14.7083 25.895 14.4556 25.5727 14.4556C25.2504 14.4556 25.0014 14.7083 25.0014 15.0122C25.0014 15.3162 25.2504 15.5688 25.5727 15.5688ZM25.038 20H26.1074V16.0742H25.038V20ZM28.6401 20.0806C29.6509 20.0806 30.3577 19.5752 30.3577 18.8062V18.8025C30.3577 18.2239 30.0208 17.9016 29.2004 17.7295L28.5339 17.5867C28.1384 17.5024 28.0029 17.3706 28.0029 17.1692V17.1655C28.0029 16.9128 28.2336 16.748 28.6035 16.748C28.999 16.748 29.2297 16.9604 29.2664 17.2424L29.27 17.2717H30.2551V17.2351C30.2295 16.5466 29.6472 15.9937 28.6035 15.9937C27.6038 15.9937 26.9592 16.4771 26.9592 17.2241V17.2278C26.9592 17.8137 27.3438 18.1946 28.1055 18.3557L28.772 18.4949C29.1565 18.5791 29.2883 18.7 29.2883 18.9087V18.9124C29.2883 19.165 29.043 19.3225 28.6401 19.3225C28.2117 19.3225 27.981 19.1431 27.9114 18.8354L27.9041 18.8025H26.8604L26.864 18.8354C26.9482 19.5789 27.5525 20.0806 28.6401 20.0806Z" fill="white"/>
<circle cx="12.9013" cy="26.1794" r="2.82051" fill="#1F71AA"/>
<circle cx="28.286" cy="26.1794" r="2.82051" fill="#1F71AA"/>
<circle cx="12.9013" cy="26.1796" r="1.79487" fill="#4F9DD3"/>
<circle cx="28.2859" cy="26.1796" r="1.79487" fill="#4F9DD3"/>
<rect x="0.850044" y="13.1025" width="4.10256" height="1.02564" rx="0.512821" fill="#2385C8"/>
<rect x="1.87569" y="11.051" width="3.07692" height="1.02564" rx="0.512821" fill="#2385C8"/>
<rect x="2.90133" y="9" width="2.05128" height="1.02564" rx="0.512821" fill="#2385C8"/>
</svg>
