<svg width="24" height="24" viewBox="0 0 24 24" fill="none" xmlns="http://www.w3.org/2000/svg">
<path d="M22 11.9811C22.0102 17.4908 17.5169 21.9961 12.0072 22C9.62761 22.0017 7.44181 21.1722 5.72411 19.7858C5.27746 19.4254 5.24407 18.756 5.64996 18.3501L6.10427 17.8958C6.45141 17.5486 7.0056 17.5106 7.3902 17.8158C8.65572 18.82 10.2573 19.4194 12 19.4194C16.101 19.4194 19.4193 16.1004 19.4193 12C19.4193 7.899 16.1004 4.58065 12 4.58065C10.0317 4.58065 8.24399 5.34553 6.91661 6.59404L8.96314 8.64058C9.36959 9.04703 9.08173 9.74195 8.50697 9.74195H2.64516C2.28883 9.74195 2 9.45312 2 9.09679V3.23496C2 2.6602 2.69492 2.37234 3.10137 2.77875L5.09217 4.76956C6.88746 3.05387 9.32064 2 12 2C17.5165 2 21.9898 6.46694 22 11.9811ZM14.7052 15.1579L15.1012 14.6486C15.4294 14.2267 15.3534 13.6187 14.9315 13.2906L13.2903 12.0141V7.80646C13.2903 7.27199 12.857 6.83872 12.3226 6.83872H11.6774C11.1429 6.83872 10.7097 7.27199 10.7097 7.80646V13.2763L13.3471 15.3276C13.769 15.6558 14.377 15.5798 14.7052 15.1579Z" fill="#2385C8"/>
</svg>
