<svg width="20" height="20" viewBox="0 0 20 20" fill="none" xmlns="http://www.w3.org/2000/svg">
<path fill-rule="evenodd" clip-rule="evenodd" d="M3.16667 2.71667C5.01674 0.976094 7.45986 0.00480486 10 0C11.9778 0 13.9112 0.58649 15.5557 1.6853C17.2002 2.78412 18.4819 4.3459 19.2388 6.17317C19.9957 8.00043 20.1937 10.0111 19.8079 11.9509C19.422 13.8907 18.4696 15.6725 17.0711 17.0711C15.6725 18.4696 13.8907 19.422 11.9509 19.8079C10.0111 20.1937 8.00043 19.9957 6.17317 19.2388C4.3459 18.4819 2.78412 17.2002 1.6853 15.5557C0.58649 13.9112 0 11.9778 0 10C0 9.77899 0.0877975 9.56703 0.244078 9.41074C0.400358 9.25447 0.61232 9.16667 0.833333 9.16667C1.05435 9.16667 1.26631 9.25447 1.42259 9.41074C1.57887 9.56703 1.66667 9.77899 1.66667 10C1.66348 11.9185 2.32238 13.7794 3.53211 15.2684C4.74184 16.7575 6.42831 17.7835 8.30682 18.1733C10.1853 18.5631 12.1408 18.2928 13.8431 17.4081C15.5454 16.5233 16.8903 15.0782 17.6508 13.3168C18.4112 11.5555 18.5406 9.58564 18.0171 7.73993C17.4936 5.89421 16.3493 4.28565 14.7773 3.18581C13.2053 2.08596 11.302 1.5622 9.38866 1.70294C7.4753 1.84369 5.66911 2.64031 4.275 3.95833H6.075C6.29601 3.95833 6.50798 4.04613 6.66426 4.20241C6.82054 4.35869 6.90833 4.57065 6.90833 4.79167C6.90833 5.01268 6.82054 5.22464 6.66426 5.38092C6.50798 5.5372 6.29601 5.625 6.075 5.625H2.33333C2.11232 5.625 1.90036 5.5372 1.74408 5.38092C1.5878 5.22464 1.5 5.01268 1.5 4.79167V1.05C1.5 0.828986 1.5878 0.617025 1.74408 0.460744C1.90036 0.304464 2.11232 0.216667 2.33333 0.216667C2.55435 0.216667 2.76631 0.304464 2.92259 0.460744C3.07887 0.617025 3.16667 0.828986 3.16667 1.05V2.71667ZM9.41071 6.07741C9.56699 5.92113 9.77895 5.83333 9.99997 5.83333C10.221 5.83333 10.4329 5.92113 10.5892 6.07741C10.7455 6.23369 10.8333 6.44565 10.8333 6.66667V10.2583L14.6083 11C14.8293 11.0221 15.0325 11.1311 15.1731 11.303C15.3138 11.4749 15.3804 11.6957 15.3583 11.9167C15.3362 12.1377 15.2272 12.3409 15.0553 12.4815C14.8834 12.6222 14.6626 12.6888 14.4416 12.6667H14.275L9.8333 11.775C9.64224 11.736 9.47089 11.6313 9.34907 11.479C9.22726 11.3268 9.1627 11.1366 9.16663 10.9417V6.66667C9.16663 6.44565 9.25443 6.23369 9.41071 6.07741Z" fill="#838588"/>
</svg>
