<svg width="24" height="24" viewBox="0 0 24 24" fill="none" xmlns="http://www.w3.org/2000/svg">
<path d="M10.1583 6.54418L6.07927 8.76211L1.99829 6.54418L6.07927 4.32626L10.1583 6.54418Z" fill="#F77E21"/>
<path d="M16.2798 3.21792L12.1982 5.43585L8.11914 3.21792L12.1982 1L16.2798 3.21792Z" fill="#F77E21"/>
<path d="M16.2798 9.87305L12.1982 12.091L8.11914 9.87305L12.1982 7.65512L16.2798 9.87305Z" fill="#F77E21"/>
<path d="M22.4 6.54418L18.3196 8.76211L14.2386 6.54418L18.3196 4.32626L22.4 6.54418Z" fill="#F77E21"/>
<path d="M12.2059 12.0975L8.11121 9.87039V20.9535L12.2052 23.1786L12.2059 12.0975Z" fill="#2385C8"/>
<path d="M1.9989 6.54874V17.6286L6.08641 19.853V8.77188L1.9989 6.54874Z" fill="#2385C8"/>
<path d="M12.193 12.0975L16.2883 9.8717V20.9535L12.193 23.1786V12.0975Z" fill="#1F71AA"/>
<path d="M22.4 6.54874V17.6286L18.3112 19.853V8.77188L22.4 6.54874Z" fill="#1F71AA"/>
</svg>
