<svg width="24" height="24" viewBox="0 0 24 24" fill="none" xmlns="http://www.w3.org/2000/svg">
<path d="M12.8392 12.2819C12.6516 12.2819 12.4995 12.434 12.4995 12.6216V23.0543C12.4995 23.2419 12.6516 23.394 12.8392 23.394C13.0268 23.394 13.1789 23.2419 13.1789 23.0543V12.6216C13.1789 12.434 13.0268 12.2819 12.8392 12.2819Z" fill="#838588" stroke="#838588" stroke-width="0.3"/>
<path d="M16.8225 10.1647C16.6349 10.1647 16.4828 10.3168 16.4828 10.5044V20.968C16.4828 21.1556 16.6349 21.3076 16.8225 21.3076C17.0101 21.3076 17.1622 21.1556 17.1622 20.968V10.5044C17.1622 10.3168 17.0101 10.1647 16.8225 10.1647Z" fill="#838588" stroke="#838588" stroke-width="0.3"/>
<path d="M18.909 9.05728C18.7214 9.05728 18.5694 9.20936 18.5694 9.39696V19.9062C18.5694 20.0938 18.7214 20.2459 18.909 20.2459C19.0967 20.2459 19.2487 20.0938 19.2487 19.9062V9.39696C19.2487 9.20936 19.0967 9.05728 18.909 9.05728Z" fill="#838588" stroke="#838588" stroke-width="0.3"/>
<path d="M22.703 6.94937C22.5154 6.94937 22.3633 7.10145 22.3633 7.28905V17.8382C22.3633 18.0258 22.5154 18.1778 22.703 18.1778C22.8906 18.1778 23.0427 18.0258 23.0427 17.8382V7.28905C23.0427 7.10145 22.8906 6.94937 22.703 6.94937Z" fill="#838588" stroke="#838588" stroke-width="0.3"/>
<path d="M8.85595 10.0687C8.66834 10.0687 8.51626 10.2208 8.51626 10.4084V20.9678C8.51626 21.1554 8.66834 21.3074 8.85595 21.3074C9.04355 21.3074 9.19563 21.1554 9.19563 20.9678V10.4084C9.19563 10.2208 9.04355 10.0687 8.85595 10.0687Z" fill="#838588" stroke="#838588" stroke-width="0.3"/>
<path d="M6.76928 9.05728C6.58167 9.05728 6.42959 9.20936 6.42959 9.39696V19.975C6.42959 20.1626 6.58167 20.3147 6.76928 20.3147C6.95688 20.3147 7.10896 20.1626 7.10896 19.975V9.39696C7.10896 9.20936 6.95688 9.05728 6.76928 9.05728Z" fill="#838588" stroke="#838588" stroke-width="0.3"/>
<path d="M2.78576 6.71987C2.59815 6.71987 2.44607 6.87196 2.44607 7.05956V17.6266C2.44607 17.8142 2.59815 17.9663 2.78576 17.9663C2.97336 17.9663 3.12544 17.8142 3.12544 17.6266V7.05956C3.12544 6.87196 2.97336 6.71987 2.78576 6.71987Z" fill="#838588" stroke="#838588" stroke-width="0.3"/>
<rect x="7.23091" y="9.20565" width="0.679373" height="5.21237" rx="0.339687" transform="rotate(118.782 7.23091 9.20565)" fill="#838588" stroke="#838588" stroke-width="0.3"/>
<path d="M13.1567 6.06856C13.2471 5.90414 13.187 5.69762 13.0226 5.60729L9.04068 3.41984C8.87625 3.32952 8.66973 3.38958 8.5794 3.55401C8.48908 3.71844 8.54914 3.92496 8.71357 4.01528L12.6955 6.20273C12.8599 6.29306 13.0664 6.23299 13.1567 6.06856Z" fill="#838588" stroke="#838588" stroke-width="0.3"/>
<path d="M13.1467 12.7341C13.2372 12.5693 13.1767 12.3624 13.0116 12.2723L9.03758 10.1046C8.87324 10.015 8.66734 10.0752 8.5772 10.2393C8.48668 10.4041 8.54722 10.611 8.71226 10.7011L12.6863 12.8687C12.8506 12.9584 13.0565 12.8982 13.1467 12.7341Z" fill="#838588" stroke="#838588" stroke-width="0.3"/>
<path d="M19.1709 9.44674C19.2614 9.28197 19.2009 9.07502 19.0358 8.98499L14.9727 6.7684C14.8084 6.67874 14.6025 6.73896 14.5123 6.90304C14.4218 7.06781 14.4823 7.27476 14.6474 7.36479L18.7105 9.58138C18.8748 9.67104 19.0807 9.61082 19.1709 9.44674Z" fill="#838588" stroke="#838588" stroke-width="0.3"/>
<path d="M17.0684 10.3159C16.9789 10.1506 16.7722 10.0893 16.6071 10.1793L12.7508 12.2816C12.5864 12.3711 12.5255 12.5768 12.6146 12.7415C12.7041 12.9068 12.9108 12.968 13.0759 12.8781L16.9323 10.7758C17.0966 10.6862 17.1575 10.4806 17.0684 10.3159Z" fill="#838588" stroke="#838588" stroke-width="0.3"/>
<path d="M10.9985 6.97705C10.909 6.8117 10.7022 6.75048 10.5371 6.84047L6.68081 8.94268C6.51645 9.03228 6.45555 9.23796 6.54464 9.4026C6.63412 9.56795 6.8409 9.62917 7.00598 9.53918L10.8623 7.43697C11.0267 7.34737 11.0876 7.14169 10.9985 6.97705Z" fill="#838588" stroke="#838588" stroke-width="0.3"/>
<path d="M17.1261 3.56359C17.0363 3.39748 16.8281 3.33659 16.6629 3.42807L12.7099 5.61633C12.5469 5.70657 12.487 5.9113 12.5757 6.07517C12.6656 6.24128 12.8737 6.30216 13.039 6.21069L16.9919 4.02243C17.1549 3.93219 17.2148 3.72746 17.1261 3.56359Z" fill="#838588" stroke="#838588" stroke-width="0.3"/>
<path d="M13.1181 8.0896C13.0286 7.92425 12.8219 7.86303 12.6568 7.95301L8.76729 10.0732C8.60293 10.1628 8.54203 10.3685 8.63112 10.5331C8.7206 10.6984 8.92737 10.7597 9.09245 10.6697L12.9819 8.54952C13.1463 8.45992 13.2072 8.25424 13.1181 8.0896Z" fill="#838588" stroke="#838588" stroke-width="0.3"/>
<path d="M19.0003 4.77613C18.9108 4.61077 18.7041 4.54956 18.539 4.63955L14.6965 6.73424C14.5322 6.82384 14.4713 7.02952 14.5604 7.19415C14.6498 7.35951 14.8566 7.42073 15.0217 7.33074L18.8642 5.23604C19.0285 5.14644 19.0894 4.94076 19.0003 4.77613Z" fill="#838588" stroke="#838588" stroke-width="0.3"/>
<path d="M7.04816 4.75073C6.95868 4.58538 6.75191 4.52416 6.58683 4.61415L2.69735 6.73431C2.53298 6.8239 2.47208 7.02959 2.56117 7.19423C2.65065 7.35958 2.85742 7.4208 3.0225 7.33081L6.91199 5.21065C7.07635 5.12106 7.13725 4.91537 7.04816 4.75073Z" fill="#838588" stroke="#838588" stroke-width="0.3"/>
<path d="M13.1752 1.33641C13.0858 1.17107 12.879 1.10985 12.7139 1.19981L8.70218 3.38617C8.5378 3.47576 8.47689 3.68145 8.56598 3.8461C8.65546 4.01144 8.86221 4.07267 9.02728 3.9827L13.039 1.79634C13.2034 1.70676 13.2643 1.50106 13.1752 1.33641Z" fill="#838588" stroke="#838588" stroke-width="0.3"/>
<path d="M17.0463 10.6278C17.1352 10.4647 17.0767 10.2605 16.9149 10.1693L13.0159 7.97158C12.8509 7.87855 12.6416 7.93854 12.5509 8.10489C12.462 8.26795 12.5206 8.47218 12.6824 8.56338L16.5813 10.7611C16.7463 10.8541 16.9556 10.7941 17.0463 10.6278Z" fill="#838588" stroke="#838588" stroke-width="0.3"/>
<path d="M23.0093 7.35684C23.0982 7.19374 23.0396 6.98946 22.8778 6.8983L18.88 4.64654C18.7149 4.55358 18.5057 4.61359 18.4151 4.7799C18.3261 4.943 18.3847 5.14728 18.5466 5.23845L22.5444 7.4902C22.7094 7.58317 22.9186 7.52316 23.0093 7.35684Z" fill="#838588" stroke="#838588" stroke-width="0.3"/>
<path d="M10.9766 7.28892C11.0655 7.12585 11.007 6.92162 10.8452 6.83043L6.94624 4.63272C6.78119 4.53968 6.57192 4.59967 6.48123 4.76602C6.39233 4.92908 6.45088 5.13331 6.61266 5.22451L10.5116 7.42222C10.6766 7.51526 10.8859 7.45527 10.9766 7.28892Z" fill="#838588" stroke="#838588" stroke-width="0.3"/>
<path d="M17.1034 3.87461C17.1923 3.71155 17.1338 3.50732 16.972 3.41612L13.0731 1.21841C12.908 1.12537 12.6988 1.18536 12.6081 1.35172C12.5192 1.51478 12.5777 1.71901 12.7395 1.8102L16.6384 4.00792C16.8035 4.10095 17.0127 4.04096 17.1034 3.87461Z" fill="#838588" stroke="#838588" stroke-width="0.3"/>
<path d="M23.0002 7.12575C22.9107 6.96039 22.7039 6.89917 22.5388 6.98919L18.8133 9.02056C18.649 9.11017 18.5881 9.31584 18.6772 9.48046C18.7667 9.64583 18.9735 9.70704 19.1385 9.61703L22.8641 7.58565C23.0284 7.49604 23.0893 7.29038 23.0002 7.12575Z" fill="#838588" stroke="#838588" stroke-width="0.3"/>
<path d="M17.1201 20.8518C17.0306 20.6865 16.8238 20.6252 16.6587 20.7152L12.7396 22.8514C12.5752 22.941 12.5143 23.1467 12.6034 23.3113C12.6929 23.4767 12.8997 23.5379 13.0647 23.4479L16.9839 21.3117C17.1482 21.2221 17.2092 21.0164 17.1201 20.8518Z" fill="#838588" stroke="#838588" stroke-width="0.3"/>
<path d="M22.9967 17.6919C22.9072 17.5265 22.7004 17.4653 22.5353 17.5553L18.7665 19.6102C18.6021 19.6998 18.5413 19.9054 18.6304 20.0701C18.7198 20.2354 18.9266 20.2966 19.0917 20.2066L22.8605 18.1518C23.0249 18.0622 23.0857 17.8565 22.9967 17.6919Z" fill="#838588" stroke="#838588" stroke-width="0.3"/>
<rect x="7.23091" y="19.8595" width="0.679373" height="5.21237" rx="0.339687" transform="rotate(118.782 7.23091 19.8595)" fill="#838588" stroke="#838588" stroke-width="0.3"/>
<rect x="13.2835" y="23.0745" width="0.679373" height="5.21898" rx="0.339687" transform="rotate(118.782 13.2835 23.0745)" fill="#838588" stroke="#838588" stroke-width="0.3"/>
</svg>
