<svg width="24" height="24" viewBox="0 0 24 24" fill="none" xmlns="http://www.w3.org/2000/svg"><g clip-path="url(#clip0_10795_33095)"><path d="M11.9997 0.484375C5.63612 0.484375 0.478516 5.64197 0.478516 12.0044C0.478358 13.5174 0.776255 15.0156 1.35519 16.4135C1.93413 17.8114 2.78277 19.0816 3.85265 20.1514C4.92252 21.2213 6.19267 22.07 7.59056 22.6489C8.98844 23.2278 10.4867 23.5257 11.9997 23.5256C18.3609 23.5256 23.5197 18.368 23.5197 12.0044C23.5197 5.64197 18.3609 0.484375 11.9997 0.484375ZM13.0749 4.64357C14.1981 4.64357 14.5281 5.29518 14.5281 6.04037C14.5281 6.97037 13.7841 7.83077 12.5133 7.83077C11.4501 7.83077 10.9437 7.29677 10.9749 6.41237C10.9749 5.66717 11.5977 4.64357 13.0749 4.64357ZM10.1973 18.9044C9.42932 18.9044 8.86892 18.4376 9.40532 16.3916L10.2849 12.7616C10.4373 12.1808 10.4625 11.948 10.2849 11.948C10.0557 11.948 9.05852 12.3488 8.47052 12.7448L8.08772 12.1172C9.95372 10.5584 12.0993 9.64397 13.0173 9.64397C13.7853 9.64397 13.9125 10.5512 13.5297 11.948L12.5217 15.764C12.3429 16.4384 12.4197 16.6712 12.5985 16.6712C12.8289 16.6712 13.5825 16.3928 14.3241 15.8084L14.7585 16.3916C12.9429 18.206 10.9641 18.9044 10.1973 18.9044Z" fill="#2385C8"/></g><defs><clipPath id="clip0_10795_33095"><rect width="24" height="24" fill="white"/></clipPath></defs></svg>