<svg width="24" height="24" viewBox="0 0 24 24" fill="none" xmlns="http://www.w3.org/2000/svg"><path d="M23.2185 16.6006L15.8621 3.68976C14.8736 1.95262 13.5058 1 12 1C10.4942 1 9.12642 1.95262 8.1379 3.68976L0.781522 16.6006C-0.14952 18.2481 -0.252969 19.8283 0.494164 21.0723C1.2413 22.3164 2.71257 23 4.64362 23H19.3564C21.2874 23 22.7587 22.3164 23.5058 21.0723C24.253 19.8283 24.1495 18.2369 23.2185 16.6006ZM11.1379 8.84514C11.1379 8.38563 11.5287 8.00459 12 8.00459C12.4713 8.00459 12.8621 8.38563 12.8621 8.84514V14.4488C12.8621 14.9083 12.4713 15.2894 12 15.2894C11.5287 15.2894 11.1379 14.9083 11.1379 14.4488V8.84514ZM12.8161 18.6067C12.7586 18.6516 12.7012 18.6964 12.6437 18.7412C12.5747 18.786 12.5058 18.8197 12.4368 18.8421C12.3678 18.8757 12.2989 18.8981 12.2184 18.9093C12.1494 18.9205 12.069 18.9317 12 18.9317C11.931 18.9317 11.8506 18.9205 11.7701 18.9093C11.7011 18.8981 11.6322 18.8757 11.5632 18.8421C11.4942 18.8197 11.4253 18.786 11.3563 18.7412C11.2988 18.6964 11.2414 18.6516 11.1839 18.6067C10.977 18.3938 10.8506 18.1024 10.8506 17.811C10.8506 17.5196 10.977 17.2282 11.1839 17.0153C11.2414 16.9705 11.2988 16.9256 11.3563 16.8808C11.4253 16.836 11.4942 16.8023 11.5632 16.7799C11.6322 16.7463 11.7011 16.7239 11.7701 16.7127C11.9195 16.6791 12.0805 16.6791 12.2184 16.7127C12.2989 16.7239 12.3678 16.7463 12.4368 16.7799C12.5058 16.8023 12.5747 16.836 12.6437 16.8808C12.7012 16.9256 12.7586 16.9705 12.8161 17.0153C13.023 17.2282 13.1494 17.5196 13.1494 17.811C13.1494 18.1024 13.023 18.3938 12.8161 18.6067Z" fill="#F33C45"/></svg>