<svg width="25" height="24" viewBox="0 0 25 24" fill="none" xmlns="http://www.w3.org/2000/svg"><g clip-path="url(#clip0_9630_26786)"><path d="M12.5001 0.480057C6.13648 0.480057 0.978882 5.63766 0.978882 12.0001C0.978724 13.5131 1.27662 15.0113 1.85556 16.4092C2.4345 17.8071 3.28314 19.0773 4.35301 20.1471C5.42289 21.217 6.69304 22.0656 8.09092 22.6446C9.48881 23.2235 10.9871 23.5214 12.5001 23.5213C18.8613 23.5213 24.0201 18.3637 24.0201 12.0001C24.0201 5.63766 18.8613 0.480057 12.5001 0.480057ZM13.5753 4.63926C14.6985 4.63926 15.0285 5.29086 15.0285 6.03606C15.0285 6.96606 14.2845 7.82646 13.0137 7.82646C11.9505 7.82646 11.4441 7.29246 11.4753 6.40806C11.4753 5.66286 12.0981 4.63926 13.5753 4.63926ZM10.6977 18.9001C9.92968 18.9001 9.36928 18.4333 9.90568 16.3873L10.7853 12.7573C10.9377 12.1765 10.9629 11.9437 10.7853 11.9437C10.5561 11.9437 9.55888 12.3445 8.97088 12.7405L8.58808 12.1129C10.4541 10.5541 12.5997 9.63966 13.5177 9.63966C14.2857 9.63966 14.4129 10.5469 14.0301 11.9437L13.0221 15.7597C12.8433 16.4341 12.9201 16.6669 13.0989 16.6669C13.3293 16.6669 14.0829 16.3885 14.8245 15.8041L15.2589 16.3873C13.4433 18.2017 11.4645 18.9001 10.6977 18.9001Z" fill="#FFC044"/></g><defs><clipPath id="clip0_9630_26786"><rect width="24" height="24" fill="white" transform="translate(0.5)"/></clipPath></defs></svg>