<svg width="32" height="32" viewBox="0 0 32 32" fill="none" xmlns="http://www.w3.org/2000/svg"><path d="M15.9997 2.66797C12.3237 2.66797 9.33301 5.65864 9.33301 9.33464V12.0013H7.99967C6.52901 12.0013 5.33301 13.1973 5.33301 14.668V26.668C5.33301 28.1386 6.52901 29.3346 7.99967 29.3346H23.9997C25.4703 29.3346 26.6663 28.1386 26.6663 26.668V14.668C26.6663 13.1973 25.4703 12.0013 23.9997 12.0013H22.6663V9.33464C22.6663 5.65864 19.6757 2.66797 15.9997 2.66797ZM11.9997 9.33464C11.9997 7.1293 13.7943 5.33464 15.9997 5.33464C18.205 5.33464 19.9997 7.1293 19.9997 9.33464V12.0013H11.9997V9.33464ZM24.0023 26.668H17.333V23.6306C18.1263 23.168 18.6663 22.3173 18.6663 21.3346C18.6663 19.864 17.4703 18.668 15.9997 18.668C14.529 18.668 13.333 19.864 13.333 21.3346C13.333 22.316 13.873 23.168 14.6663 23.6306V26.668H7.99967V14.668H23.9997L24.0023 26.668Z" fill="#2385C8"/></svg>