<svg width="25" height="25" viewBox="0 0 25 25" fill="none" xmlns="http://www.w3.org/2000/svg">
<path d="M8.58099 4.02618C8.58099 2.90715 9.53134 2 10.7037 2H21.9234C23.0957 2 24.0461 2.90715 24.0461 4.02619V19.3673C24.0461 20.4863 23.0957 21.3935 21.9234 21.3935H10.7037C9.53134 21.3935 8.58099 20.4863 8.58099 19.3673V4.02618Z" fill="#F77E21"/>
<path d="M14.3423 5.11336C14.3423 4.30686 14.9239 3.60649 15.7465 3.42245L21.8113 2.06563C22.9529 1.81022 24.0459 2.63724 24.0459 3.75654V20.2986C24.0459 21.0402 23.5526 21.7 22.8179 21.941L16.7532 23.931C15.572 24.3186 14.3423 23.4809 14.3423 22.2886V5.11336Z" fill="#2385C8"/>
<mask id="path-3-outside-1" maskUnits="userSpaceOnUse" x="0" y="6.49976" width="13" height="11" fill="black">
<rect fill="white" y="6.49976" width="13" height="11"/>
<path fill-rule="evenodd" clip-rule="evenodd" d="M6.7016 15.5045C6.84114 15.6384 7.02441 15.705 7.20785 15.705C7.39111 15.705 7.57455 15.6384 7.71497 15.5045L11.2963 12.086C11.5761 11.8187 11.5761 11.3857 11.2963 11.1186L7.71497 7.70006C7.43501 7.43299 6.98139 7.43299 6.7016 7.70006C6.4218 7.96714 6.4218 8.40014 6.7016 8.66738L9.06116 10.9189H1.71627C1.32089 10.9189 1 11.2252 1 11.6026C1 11.9801 1.32089 12.2864 1.71627 12.2864H9.05977L6.7016 14.5372C6.4218 14.8043 6.4218 15.2373 6.7016 15.5045Z"/>
</mask>
<path fill-rule="evenodd" clip-rule="evenodd" d="M6.7016 15.5045C6.84114 15.6384 7.02441 15.705 7.20785 15.705C7.39111 15.705 7.57455 15.6384 7.71497 15.5045L11.2963 12.086C11.5761 11.8187 11.5761 11.3857 11.2963 11.1186L7.71497 7.70006C7.43501 7.43299 6.98139 7.43299 6.7016 7.70006C6.4218 7.96714 6.4218 8.40014 6.7016 8.66738L9.06116 10.9189H1.71627C1.32089 10.9189 1 11.2252 1 11.6026C1 11.9801 1.32089 12.2864 1.71627 12.2864H9.05977L6.7016 14.5372C6.4218 14.8043 6.4218 15.2373 6.7016 15.5045Z" fill="#2385C8"/>
<path d="M6.7016 15.5045L7.39388 14.7829L7.3923 14.7814L6.7016 15.5045ZM7.71497 15.5045L8.405 16.2283L8.40545 16.2279L7.71497 15.5045ZM11.2963 12.086L11.9868 12.8093L11.987 12.8091L11.2963 12.086ZM11.2963 11.1186L10.6059 11.842V11.842L11.2963 11.1186ZM7.71497 7.70006L8.40545 6.97671L8.40523 6.97649L7.71497 7.70006ZM6.7016 7.70006L6.01112 6.97671L6.7016 7.70006ZM6.7016 8.66738L6.01089 9.39052L6.01124 9.39085L6.7016 8.66738ZM9.06116 10.9189V11.9189H11.5577L9.75151 10.1955L9.06116 10.9189ZM9.05977 12.2864L9.75023 13.0097L11.5558 11.2864H9.05977V12.2864ZM6.7016 14.5372L6.01114 13.8139L6.01112 13.8139L6.7016 14.5372ZM7.20785 14.705C7.26379 14.705 7.33418 14.7256 7.39388 14.7829L6.00932 16.2262C6.34811 16.5512 6.78503 16.705 7.20785 16.705V14.705ZM7.02495 14.7808C7.08252 14.7259 7.15125 14.705 7.20785 14.705V16.705C7.63097 16.705 8.06659 16.551 8.405 16.2283L7.02495 14.7808ZM10.6059 11.3626L7.0245 14.7812L8.40545 16.2279L11.9868 12.8093L10.6059 11.3626ZM10.6059 11.842C10.4728 11.715 10.4732 11.4894 10.6056 11.3628L11.987 12.8091C12.6791 12.1481 12.6794 11.0564 11.9868 10.3953L10.6059 11.842ZM7.0245 8.42342L10.6059 11.842L11.9868 10.3953L8.40545 6.97671L7.0245 8.42342ZM7.39208 8.42342C7.33391 8.47893 7.26489 8.49976 7.20822 8.49976C7.15156 8.49976 7.0827 8.47894 7.02472 8.42363L8.40523 6.97649C7.73901 6.34096 6.67746 6.34066 6.01112 6.97671L7.39208 8.42342ZM7.3923 7.94424C7.52477 8.07077 7.52511 8.29643 7.39208 8.42342L6.01112 6.97671C5.3185 7.63785 5.31883 8.7295 6.01089 9.39052L7.3923 7.94424ZM9.75151 10.1955L7.39195 7.94391L6.01124 9.39085L8.3708 11.6424L9.75151 10.1955ZM1.71627 11.9189H9.06116V9.91893H1.71627V11.9189ZM2 11.6026C2 11.8208 1.82883 11.9189 1.71627 11.9189V9.91893C0.812949 9.91893 0 10.6296 0 11.6026H2ZM1.71627 11.2864C1.82883 11.2864 2 11.3844 2 11.6026H0C0 12.5757 0.812948 13.2864 1.71627 13.2864V11.2864ZM9.05977 11.2864H1.71627V13.2864H9.05977V11.2864ZM7.39205 15.2606L9.75023 13.0097L8.36931 11.563L6.01114 13.8139L7.39205 15.2606ZM7.3923 14.7814C7.52477 14.9079 7.52511 15.1336 7.39208 15.2606L6.01112 13.8139C5.3185 14.475 5.31883 15.5667 6.01089 16.2277L7.3923 14.7814Z" fill="white" mask="url(#path-3-outside-1)"/>
</svg>
