<svg width="24" height="24" viewBox="0 0 24 24" fill="none" xmlns="http://www.w3.org/2000/svg">
<path d="M9.7958 12.3125H1.0874C0.707901 12.3125 0.399902 12.0045 0.399902 11.625C0.399902 11.2455 0.707901 10.9375 1.0874 10.9375H9.7958C10.1753 10.9375 10.4833 11.2455 10.4833 11.625C10.4833 12.0045 10.1753 12.3125 9.7958 12.3125Z" fill="#838588"/>
<path d="M6.35823 15.75C6.18216 15.75 6.00626 15.683 5.87231 15.5484C5.60376 15.2796 5.60376 14.8442 5.87231 14.5757L8.82407 11.6241L5.87231 8.67336C5.60376 8.40463 5.60376 7.96924 5.87231 7.70068C6.14087 7.43213 6.57626 7.43213 6.84499 7.70068L10.2825 11.1382C10.551 11.4067 10.551 11.8421 10.2825 12.1109L6.84499 15.5484C6.71021 15.683 6.53414 15.75 6.35823 15.75Z" fill="#838588"/>
<path d="M15.0666 24.0001C14.0555 24.0001 13.2334 23.1779 13.2334 22.1667V5.66672C13.2334 4.88304 13.7321 4.18362 14.4745 3.92598L19.9819 2.0899C21.2138 1.71224 22.4 2.62617 22.4 3.83349V20.3335C22.4 21.1164 21.9013 21.8148 21.1598 22.0732L15.6506 23.9103C15.4498 23.9726 15.2638 24.0001 15.0666 24.0001ZM20.5666 3.3751C20.507 3.3751 20.4567 3.38249 20.4026 3.39894L14.9182 5.22763C14.7385 5.29007 14.6084 5.47151 14.6084 5.66672V22.1667C14.6084 22.4794 14.9475 22.6903 15.2308 22.6013L20.7152 20.7726C20.8939 20.7102 21.025 20.5287 21.025 20.3335V3.83349C21.025 3.58139 20.8197 3.3751 20.5666 3.3751Z" fill="#838588"/>
<path d="M8.4209 6.5834C8.0414 6.5834 7.7334 6.2754 7.7334 5.8959V4.52089C7.7334 3.13028 8.86351 2 10.2541 2H20.5666C20.9461 2 21.2541 2.308 21.2541 2.6875C21.2541 3.067 20.9461 3.375 20.5666 3.375H10.2541C9.62252 3.375 9.1084 3.88929 9.1084 4.52089V5.8959C9.1084 6.2754 8.8004 6.5834 8.4209 6.5834Z" fill="#838588"/>
<path d="M13.9209 21.2499H10.2541C8.86351 21.2499 7.7334 20.1196 7.7334 18.729V17.354C7.7334 16.9745 8.0414 16.6665 8.4209 16.6665C8.8004 16.6665 9.1084 16.9745 9.1084 17.354V18.729C9.1084 19.3606 9.62252 19.8749 10.2541 19.8749H13.9209C14.3004 19.8749 14.6084 20.1829 14.6084 20.5624C14.6084 20.9419 14.3004 21.2499 13.9209 21.2499Z" fill="#838588"/>
</svg>
