<svg width="24" height="22" viewBox="0 0 24 22" fill="none" xmlns="http://www.w3.org/2000/svg">
<path d="M19.6498 16.5334C21.0331 16.5318 22.1539 15.411 22.1555 14.0277V4.35013C22.1539 2.9669 21.0331 1.84602 19.6498 1.84445H4.01663C2.6334 1.84602 1.51253 2.9669 1.51095 4.35013V14.0277C1.51253 15.411 2.6334 16.5318 4.01663 16.5334H5.50542C5.64713 16.5334 5.78154 16.597 5.87129 16.707C5.87131 16.707 5.87133 16.707 5.87135 16.7071L5.79385 16.7703C5.86456 16.8568 5.89255 16.9706 5.87019 17.0802L19.6498 16.5334ZM19.6498 16.5334H11.8332C11.7565 16.5334 11.681 16.5521 11.6132 16.5878L5.41873 19.8482L5.96817 17.1001C5.96818 17.1001 5.96819 17.1001 5.9682 17.1L19.6498 16.5334ZM19.65 0.9H19.6499L4.01652 0.9L4.01641 0.9C2.11196 0.902059 0.568563 2.44546 0.566504 4.34991V4.35002L0.566504 14.0278L0.566504 14.028C0.568563 15.9324 2.11196 17.4758 4.01641 17.4779H4.01652H4.92925L4.29814 20.6338C4.26239 20.8125 4.33275 20.9955 4.47841 21.1046C4.62419 21.2137 4.81975 21.2291 4.98092 21.1443C4.98093 21.1443 4.98094 21.1442 4.98094 21.1442L11.9499 17.4779H19.6499H19.65C21.5545 17.4758 23.0979 15.9324 23.1 14.028V14.0278V4.35002V4.34991C23.0979 2.44546 21.5545 0.902059 19.65 0.9Z" fill="#838588" stroke="#838588" stroke-width="0.2"/>
<rect x="5.93401" y="5.41667" width="11.7985" height="1.1635" rx="0.581749" fill="#838588" stroke="#838588" stroke-width="0.1"/>
<rect x="5.93401" y="8.60717" width="11.7985" height="1.1635" rx="0.581749" fill="#838588" stroke="#838588" stroke-width="0.1"/>
<rect x="5.93401" y="11.7977" width="7.54448" height="1.1635" rx="0.581749" fill="#838588" stroke="#838588" stroke-width="0.1"/>
<rect x="16.569" y="11.7977" width="1.1635" height="1.1635" rx="0.581749" fill="#838588" stroke="#838588" stroke-width="0.1"/>
<rect x="14.4419" y="11.7977" width="1.1635" height="1.1635" rx="0.581749" fill="#838588" stroke="#838588" stroke-width="0.1"/>
</svg>
