<svg width="24" height="24" viewBox="0 0 24 24" fill="none" xmlns="http://www.w3.org/2000/svg">
<g clip-path="url(#clip0)">
<path d="M19.6499 4H4.01652C2.16721 4.002 0.668503 5.50071 0.666504 7.35002V17.0278C0.668503 18.8772 2.16721 20.3759 4.01652 20.3779H5.05122L4.3962 23.6534C4.36803 23.7942 4.42346 23.9385 4.53833 24.0245C4.65319 24.1105 4.80732 24.1226 4.93436 24.0558L11.9252 20.3779H19.6499C21.4992 20.3759 22.9979 18.8772 23 17.0278V7.35002C22.9979 5.50071 21.4992 4.002 19.6499 4Z" fill="#2385C8"/>
<path d="M4.39628 23.6534L5.0513 20.3779H11.9253L4.93444 24.0558C4.8074 24.1226 4.65327 24.1105 4.53841 24.0245C4.42354 23.9385 4.36811 23.7942 4.39628 23.6534Z" fill="#F77E21"/>
<rect x="5.98401" y="8.46671" width="11.6985" height="1.0635" rx="0.531749" fill="white"/>
<rect x="5.98401" y="11.6572" width="11.6985" height="1.0635" rx="0.531749" fill="white"/>
<rect x="5.98401" y="14.8477" width="7.44448" height="1.0635" rx="0.531749" fill="white"/>
<rect x="16.619" y="14.8477" width="1.0635" height="1.0635" rx="0.531749" fill="#F77E21"/>
<rect x="14.4919" y="14.8477" width="1.0635" height="1.0635" rx="0.531749" fill="#F77E21"/>
</g>
<defs>
<clipPath id="clip0">
<rect width="24" height="24" fill="white"/>
</clipPath>
</defs>
</svg>
