<svg width="24" height="24" viewBox="0 0 24 24" fill="none" xmlns="http://www.w3.org/2000/svg">
<g clip-path="url(#clip0)">
<path d="M9.37537 4.62479C9.37537 3.17516 10.5505 2 12.0002 2C13.4498 2 14.6249 3.17516 14.6249 4.62479V5.53337C14.6249 6.983 13.4498 8.15816 12.0002 8.15816C10.5505 8.15816 9.37537 6.983 9.37537 5.53337V4.62479Z" fill="#1F71AA"/>
<path d="M8.50024 20.7931C8.50024 18.9753 9.97387 17.5016 11.7917 17.5016H12.2083C14.0261 17.5016 15.4997 18.9753 15.4997 20.7931C15.4997 22.6109 14.0261 24.0845 12.2083 24.0845H11.7917C9.97387 24.0845 8.50024 22.6109 8.50024 20.7931Z" fill="#F77E21"/>
<path fill-rule="evenodd" clip-rule="evenodd" d="M17.7972 8.94959C18.2018 9.76385 18.4303 10.6758 18.4342 11.6382C18.4345 11.6465 18.4346 11.6548 18.4346 11.6631C18.4346 13.5752 18.6289 16.2538 19.5543 18.1552C20.0583 19.1906 20.5615 19.5329 20.6284 19.575C20.9102 19.7016 21.049 19.9941 20.9843 20.2904C20.9189 20.5897 20.6306 20.7961 20.316 20.7961H15.431H11.8907H8.56899H3.68404C3.36934 20.7961 3.08117 20.5897 3.01572 20.2904C2.9509 19.9941 3.08983 19.7016 3.37161 19.575C3.43852 19.5328 3.94178 19.1906 4.44566 18.1552C5.37109 16.2537 5.56534 13.5752 5.56534 11.6631C5.56534 10.6869 5.79642 9.76229 6.20818 8.93815C7.19895 6.72623 9.41958 5.1853 12.0001 5.1853C14.5851 5.1853 16.8089 6.73155 17.7972 8.94959Z" fill="#2385C8"/>
</g>
<defs>
<clipPath id="clip0">
<rect width="24" height="24" fill="white"/>
</clipPath>
</defs>
</svg>
