<svg width="24" height="24" viewBox="0 0 24 24" fill="none" xmlns="http://www.w3.org/2000/svg">
<path d="M20.6284 19.5077C20.5615 19.4658 20.0583 19.1248 19.5543 18.0933C18.6289 16.1992 18.4346 13.5309 18.4346 11.6261C18.4346 11.6178 18.4345 11.6096 18.4342 11.6013C18.4241 9.08383 16.8653 6.91365 14.6348 5.93993V4.45077C14.6348 3.0994 13.4998 2 12.1048 2H11.8952C10.5001 2 9.36522 3.0994 9.36522 4.45077V5.93985C7.12719 6.9167 5.56534 9.09796 5.56534 11.6261C5.56534 13.5309 5.37109 16.1992 4.44566 18.0933C3.94178 19.1248 3.43852 19.4657 3.37161 19.5077C3.08983 19.6339 2.9509 19.9252 3.01572 20.2204C3.08117 20.5186 3.36934 20.7241 3.68404 20.7241H8.56899C8.59627 22.5349 10.1244 24 12 24C13.8756 24 15.4038 22.5349 15.431 20.7241H20.316C20.6306 20.7241 20.9189 20.5186 20.9843 20.2204C21.049 19.9252 20.9102 19.6338 20.6284 19.5077ZM10.6982 4.45077C10.6982 3.81135 11.2352 3.29117 11.8952 3.29117H12.1049C12.7649 3.29117 13.3019 3.81135 13.3019 4.45077V5.52142C12.8812 5.43733 12.4458 5.39307 11.9998 5.39307C11.554 5.39307 11.1187 5.43728 10.6982 5.52129V4.45077H10.6982ZM12 22.7088C10.8594 22.7088 9.92895 21.8229 9.90189 20.7242H14.0981C14.0711 21.8229 13.1407 22.7088 12 22.7088ZM14.6836 19.4329C14.6835 19.4329 5.20288 19.4329 5.20288 19.4329C5.31818 19.2592 5.43552 19.0624 5.55215 18.8401C6.44537 17.1366 6.89829 14.7095 6.89829 11.6261C6.89829 8.90112 9.18684 6.68424 11.9998 6.68424C14.8128 6.68424 17.1013 8.90112 17.1013 11.6282C17.1013 11.6362 17.1014 11.6441 17.1017 11.652C17.1043 14.723 17.5572 17.1415 18.4479 18.8401C18.5645 19.0625 18.6819 19.2592 18.7972 19.4329H14.6836Z" fill="#838588"/>
</svg>
