<svg width="12" height="12" viewBox="0 0 12 12" fill="none" xmlns="http://www.w3.org/2000/svg">
<path d="M5.32827 5.51465V11.2647L5.81845 12V5.51465H5.32827Z" fill="#2385C8"/>
<path d="M5.81873 5.51465V12L6.30893 11.2647V5.51465H5.81873Z" fill="#2385C8"/>
<path d="M8.6372 2.8186C8.6372 4.37619 7.37496 5.6372 5.8186 5.6372C4.51592 5.6372 3.4191 4.75362 3.09681 3.55265C3.03308 3.31859 3 3.07349 3 2.8186C2.99997 1.26224 4.26221 0 5.81857 0C6.6911 0 7.47051 0.39583 7.98645 1.01836C8.39332 1.50611 8.6372 2.13479 8.6372 2.8186Z" fill="#DB6810"/>
<path d="M8.08329 1.75121C8.08329 3.30757 6.82105 4.56981 5.26469 4.56981C4.39216 4.56981 3.61398 4.17398 3.09681 3.55265C3.03308 3.31859 3 3.07349 3 2.8186C3 1.26224 4.26224 0 5.8186 0C6.69113 0 7.47054 0.39583 7.98647 1.01836C8.0502 1.25245 8.08329 1.49755 8.08329 1.75121Z" fill="#F77E21"/>
<path d="M6.55998 1.31857C6.58291 1.11208 6.42603 0.926862 6.22224 0.886528C5.72691 0.788512 4.51907 0.701669 3.98789 2.01042C3.98789 2.01042 3.85838 2.34718 4.23074 2.30508C4.41019 2.28478 4.57058 2.1862 4.68353 2.04529C4.86696 1.81643 5.30225 1.44385 6.11144 1.61989C6.30145 1.66122 6.50429 1.55631 6.55124 1.36761C6.55511 1.35193 6.55808 1.33558 6.55998 1.31857Z" fill="white"/>
</svg>
