<svg width="24" height="24" viewBox="0 0 24 24" fill="none" xmlns="http://www.w3.org/2000/svg">
<path d="M21.3333 9.33333C21.1565 9.33333 20.987 9.2631 20.8619 9.13807C20.7369 9.01305 20.6667 8.84348 20.6667 8.66667V5.33333C20.6661 4.80308 20.4552 4.29471 20.0802 3.91976C19.7053 3.54482 19.1969 3.33392 18.6667 3.33333H15.3333C15.1565 3.33333 14.987 3.2631 14.8619 3.13807C14.7369 3.01305 14.6667 2.84348 14.6667 2.66667C14.6667 2.48986 14.7369 2.32029 14.8619 2.19526C14.987 2.07024 15.1565 2 15.3333 2H18.6667C19.5504 2.00104 20.3976 2.35256 21.0225 2.97746C21.6474 3.60236 21.999 4.4496 22 5.33333V8.66667C22 8.84348 21.9298 9.01305 21.8047 9.13807C21.6797 9.2631 21.5101 9.33333 21.3333 9.33333ZM3.33333 8.66667V5.33333C3.33392 4.80308 3.54482 4.29471 3.91976 3.91976C4.29471 3.54482 4.80308 3.33392 5.33333 3.33333H8.66667C8.84348 3.33333 9.01305 3.2631 9.13807 3.13807C9.2631 3.01305 9.33333 2.84348 9.33333 2.66667C9.33333 2.48986 9.2631 2.32029 9.13807 2.19526C9.01305 2.07024 8.84348 2 8.66667 2H5.33333C4.4496 2.00104 3.60236 2.35256 2.97746 2.97746C2.35256 3.60236 2.00104 4.4496 2 5.33333V8.66667C2 8.84348 2.07024 9.01305 2.19526 9.13807C2.32029 9.2631 2.48986 9.33333 2.66667 9.33333C2.84348 9.33333 3.01305 9.2631 3.13807 9.13807C3.2631 9.01305 3.33333 8.84348 3.33333 8.66667ZM9.33333 21.3333C9.33333 21.1565 9.2631 20.987 9.13807 20.8619C9.01305 20.7369 8.84348 20.6667 8.66667 20.6667H5.33333C4.80308 20.6661 4.29471 20.4552 3.91976 20.0802C3.54482 19.7053 3.33392 19.1969 3.33333 18.6667V15.3333C3.33333 15.1565 3.2631 14.987 3.13807 14.8619C3.01305 14.7369 2.84348 14.6667 2.66667 14.6667C2.48986 14.6667 2.32029 14.7369 2.19526 14.8619C2.07024 14.987 2 15.1565 2 15.3333V18.6667C2.00104 19.5504 2.35256 20.3976 2.97746 21.0225C3.60236 21.6474 4.4496 21.999 5.33333 22H8.66667C8.84348 22 9.01305 21.9298 9.13807 21.8047C9.2631 21.6797 9.33333 21.5101 9.33333 21.3333ZM22 18.6667V15.3333C22 15.1565 21.9298 14.987 21.8047 14.8619C21.6797 14.7369 21.5101 14.6667 21.3333 14.6667C21.1565 14.6667 20.987 14.7369 20.8619 14.8619C20.7369 14.987 20.6667 15.1565 20.6667 15.3333V18.6667C20.6661 19.1969 20.4552 19.7053 20.0802 20.0802C19.7053 20.4552 19.1969 20.6661 18.6667 20.6667H15.3333C15.1565 20.6667 14.987 20.7369 14.8619 20.8619C14.7369 20.987 14.6667 21.1565 14.6667 21.3333C14.6667 21.5101 14.7369 21.6797 14.8619 21.8047C14.987 21.9298 15.1565 22 15.3333 22H18.6667C19.5504 21.999 20.3976 21.6474 21.0225 21.0225C21.6474 20.3976 21.999 19.5504 22 18.6667Z" fill="white"/>
<path d="M18.4167 14H5.58333C5.42862 14 5.28025 14.0527 5.17085 14.1464C5.06146 14.2402 5 14.3674 5 14.5V17.5C5 17.8978 5.18437 18.2794 5.51256 18.5607C5.84075 18.842 6.28587 19 6.75 19H17.25C17.7141 19 18.1592 18.842 18.4874 18.5607C18.8156 18.2794 19 17.8978 19 17.5V14.5C19 14.3674 18.9385 14.2402 18.8291 14.1464C18.7197 14.0527 18.5714 14 18.4167 14Z" fill="white"/>
<path d="M19.3103 10.5417H18.6207V6.75C18.6207 6.28587 18.4463 5.84075 18.1359 5.51256C17.8255 5.18437 17.4045 5 16.9655 5H7.03448C6.5955 5 6.1745 5.18437 5.8641 5.51256C5.55369 5.84075 5.37931 6.28587 5.37931 6.75V10.5417H4.68966C4.50675 10.5417 4.33133 10.6185 4.202 10.7552C4.07266 10.892 4 11.0774 4 11.2708C4 11.4642 4.07266 11.6497 4.202 11.7864C4.33133 11.9232 4.50675 12 4.68966 12H19.3103C19.4933 12 19.6687 11.9232 19.798 11.7864C19.9273 11.6497 20 11.4642 20 11.2708C20 11.0774 19.9273 10.892 19.798 10.7552C19.6687 10.6185 19.4933 10.5417 19.3103 10.5417Z" fill="white"/>
</svg>
