<svg width="24" height="25" viewBox="0 0 24 25" fill="none" xmlns="http://www.w3.org/2000/svg">
<path d="M7.78662 6.50796L9.3657 5.02176L9.53874 4.84872C9.60893 4.77853 9.67092 4.7006 9.72353 4.61643C9.9632 4.23296 10.3835 4 10.8357 4H17.4469C18.6781 4 19.6762 4.99809 19.6762 6.2293V21.277C19.6762 22.5082 18.6781 23.5063 17.4469 23.5063H7.2293C5.99809 23.5063 5 22.5082 5 21.277V9.24016C5 9.16761 5.05881 9.1088 5.13136 9.1088C5.1662 9.1088 5.19961 9.09496 5.22425 9.07033L7.78662 6.50796Z" fill="white"/>
<path d="M7.60084 13.267C7.60084 13.2157 7.64243 13.1741 7.69373 13.1741H15.682C15.7333 13.1741 15.7749 13.2157 15.7749 13.267C15.7749 13.3183 15.7333 13.3599 15.682 13.3599H7.69373C7.64243 13.3599 7.60084 13.3183 7.60084 13.267Z" fill="white"/>
<path d="M7.60084 15.3105C7.60084 15.2592 7.64243 15.2176 7.69373 15.2176H15.682C15.7333 15.2176 15.7749 15.2592 15.7749 15.3105C15.7749 15.3618 15.7333 15.4034 15.682 15.4034H7.69373C7.64243 15.4034 7.60084 15.3618 7.60084 15.3105Z" fill="white"/>
<path d="M7.60084 17.5398C7.60084 17.4885 7.64243 17.4469 7.69373 17.4469H15.682C15.7333 17.4469 15.7749 17.4885 15.7749 17.5398C15.7749 17.5911 15.7333 17.6327 15.682 17.6327H7.69373C7.64243 17.6327 7.60084 17.5911 7.60084 17.5398Z" fill="white"/>
<path d="M7.60084 11.0377C7.60084 10.9864 7.64243 10.9448 7.69373 10.9448H12.7096C12.7609 10.9448 12.8025 10.9864 12.8025 11.0377C12.8025 11.089 12.7609 11.1306 12.7096 11.1306H7.69373C7.64243 11.1306 7.60084 11.089 7.60084 11.0377Z" fill="white"/>
<path d="M13.3599 20.1406C13.3599 20.0893 13.4014 20.0477 13.4527 20.0477H16.9825C17.0338 20.0477 17.0753 20.0893 17.0753 20.1406C17.0753 20.1919 17.0338 20.2335 16.9825 20.2335H13.4527C13.4014 20.2335 13.3599 20.1919 13.3599 20.1406Z" fill="white"/>
<path d="M5 9.17532V9.18646L8.21751 9.20166C8.77461 9.20428 9.30995 8.98951 9.70576 8.60462C10.1016 8.21972 10.3254 7.69622 10.3281 7.14927L10.3436 4.21301L10.9448 4L10.3436 4.00101H10.3328L5 9.17532Z" fill="white"/>
<path d="M7.78662 6.50796L9.3657 5.02176L9.53874 4.84872C9.60893 4.77853 9.67092 4.7006 9.72353 4.61643C9.9632 4.23296 10.3835 4 10.8357 4H17.4469C18.6781 4 19.6762 4.99809 19.6762 6.2293V21.277C19.6762 22.5082 18.6781 23.5063 17.4469 23.5063H7.2293C5.99809 23.5063 5 22.5082 5 21.277V9.24016C5 9.16761 5.05881 9.1088 5.13136 9.1088C5.1662 9.1088 5.19961 9.09496 5.22425 9.07033L7.78662 6.50796Z" stroke="#838588" stroke-width="1.1"/>
<path d="M7.60084 13.267C7.60084 13.2157 7.64243 13.1741 7.69373 13.1741H15.682C15.7333 13.1741 15.7749 13.2157 15.7749 13.267C15.7749 13.3183 15.7333 13.3599 15.682 13.3599H7.69373C7.64243 13.3599 7.60084 13.3183 7.60084 13.267Z" stroke="#838588" stroke-width="1.1"/>
<path d="M7.60084 15.3105C7.60084 15.2592 7.64243 15.2176 7.69373 15.2176H15.682C15.7333 15.2176 15.7749 15.2592 15.7749 15.3105C15.7749 15.3618 15.7333 15.4034 15.682 15.4034H7.69373C7.64243 15.4034 7.60084 15.3618 7.60084 15.3105Z" stroke="#838588" stroke-width="1.1"/>
<path d="M7.60084 17.5398C7.60084 17.4885 7.64243 17.4469 7.69373 17.4469H15.682C15.7333 17.4469 15.7749 17.4885 15.7749 17.5398C15.7749 17.5911 15.7333 17.6327 15.682 17.6327H7.69373C7.64243 17.6327 7.60084 17.5911 7.60084 17.5398Z" stroke="#838588" stroke-width="1.1"/>
<path d="M7.60084 11.0377C7.60084 10.9864 7.64243 10.9448 7.69373 10.9448H12.7096C12.7609 10.9448 12.8025 10.9864 12.8025 11.0377C12.8025 11.089 12.7609 11.1306 12.7096 11.1306H7.69373C7.64243 11.1306 7.60084 11.089 7.60084 11.0377Z" stroke="#838588" stroke-width="1.1"/>
<path d="M13.3599 20.1406C13.3599 20.0893 13.4014 20.0477 13.4527 20.0477H16.9825C17.0338 20.0477 17.0753 20.0893 17.0753 20.1406C17.0753 20.1919 17.0338 20.2335 16.9825 20.2335H13.4527C13.4014 20.2335 13.3599 20.1919 13.3599 20.1406Z" stroke="#838588" stroke-width="1.1"/>
<path d="M5 9.17532V9.18646L8.21751 9.20166C8.77461 9.20428 9.30995 8.98951 9.70576 8.60462C10.1016 8.21972 10.3254 7.69622 10.3281 7.14927L10.3436 4.21301L10.9448 4L10.3436 4.00101H10.3328L5 9.17532Z" stroke="#838588" stroke-width="1.1"/>
</svg>
