<svg width="24" height="24" viewBox="0 0 24 24" fill="none" xmlns="http://www.w3.org/2000/svg">
<path d="M7.50012 6L10.171 3.3C10.3591 3.12856 10.4397 3.05509 10.4742 3.02361C10.4909 3.00837 10.5127 3 10.5353 3H18.0697C19.412 3 20.5001 4.07452 20.5001 5.4V21.6C20.5001 22.9255 19.412 24 18.0697 24H6.9305C5.58824 24 4.50012 22.9255 4.50012 21.6V8.63281C4.50012 8.55471 4.74525 8.45858 4.82434 8.45858C4.86232 8.45858 4.71774 8.4851 4.7446 8.45858L7.50012 6Z" fill="#2385C8"/>
<path d="M7.50012 6L10.171 3.3C10.3591 3.12856 10.4397 3.05509 10.4742 3.02361C10.4909 3.00837 10.5127 3 10.5353 3H18.0697C19.412 3 20.5001 4.07452 20.5001 5.4V21.6C20.5001 22.9255 19.412 24 18.0697 24H6.9305C5.58824 24 4.50012 22.9255 4.50012 21.6V8.63281C4.50012 8.55471 4.74525 8.45858 4.82434 8.45858C4.86232 8.45858 4.71774 8.4851 4.7446 8.45858L7.50012 6Z" fill="#2385C8"/>
<path d="M4.487 8.6206V8.63227L8.15709 8.64818C8.79255 8.65091 9.40319 8.42613 9.85468 8.02327C10.3062 7.62041 10.5615 7.07247 10.5646 6.5L10.5001 3L4.487 8.6206Z" fill="#F77E21"/>
<path d="M18.8015 21.769L18.8793 5.25305C18.882 4.65847 18.653 4.08713 18.2426 3.66463C17.8321 3.24214 17.2739 3.00307 16.6906 3H18.3115C18.8947 3.00307 19.453 3.24214 19.8634 3.66463C20.2738 4.08713 20.5028 4.65847 20.5001 5.25305V21.769C20.4972 22.3636 20.1849 22.9326 19.7704 23.351C19.3559 23.7694 18.7954 24.0028 18.212 24L16.7726 23.9927C17.3228 23.949 17.8368 23.6962 18.2126 23.2843C18.5885 22.8724 18.7986 22.3315 18.8015 21.769Z" fill="#1F71AA"/>
<rect x="8.04773" y="12.3333" width="8.38095" height="0.777778" rx="0.388889" fill="white"/>
<rect x="8.04773" y="14.6667" width="8.38095" height="0.777778" rx="0.388889" fill="white"/>
<rect x="8.04773" y="17" width="8.38095" height="0.777778" rx="0.388889" fill="white"/>
<rect x="8.04773" y="10" width="5.33333" height="0.777778" rx="0.388889" fill="white"/>
<rect x="14.1432" y="19.3333" width="3.80952" height="0.777778" rx="0.388889" fill="white"/>
</svg>
