<svg width="32" height="32" viewBox="0 0 32 32" fill="none" xmlns="http://www.w3.org/2000/svg"><path fill-rule="evenodd" clip-rule="evenodd" d="M8.70012 4C6.65768 4 5.00195 5.6531 5.00195 7.69231V24.3077C5.00195 26.3469 6.65768 28 8.70012 28H17.021C17.5316 28 17.9455 27.5867 17.9455 27.0769C17.9455 26.5671 17.5316 26.1538 17.021 26.1538H8.70012C7.6789 26.1538 6.85104 25.3273 6.85104 24.3077V7.69231C6.85104 6.6727 7.6789 5.84615 8.70012 5.84615H15.1719V11.3875C15.1719 11.8973 15.5858 12.3105 16.0965 12.3105H21.4169C21.4964 12.3105 21.5722 12.3012 21.6437 12.2838V15.0769C21.6437 15.5867 22.0576 16 22.5682 16C23.0789 16 23.4928 15.5867 23.4928 15.0769V11.8274C23.4928 10.946 23.177 10.0937 22.6025 9.42449L19.0525 5.28939C18.3499 4.471 17.3242 4 16.2446 4H8.70012ZM17.021 6.3753V10.2798C17.021 10.3817 17.1038 10.4644 17.2059 10.4644H20.3344C20.4895 10.4644 20.5757 10.2853 20.4788 10.1644L17.3503 6.25997C17.2411 6.1237 17.021 6.20078 17.021 6.3753Z" fill="#F77E21"/><path d="M8.70012 10.9231C8.70012 10.1584 9.32102 9.53846 10.0869 9.53846H11.936C12.7019 9.53846 13.3228 10.1584 13.3228 10.9231C13.3228 11.6878 12.7019 12.3077 11.936 12.3077H10.0869C9.32102 12.3077 8.70012 11.6878 8.70012 10.9231Z" fill="#F77E21"/><path d="M8.70012 16.4615C8.70012 15.6968 9.32102 15.0769 10.0869 15.0769H18.4078C19.1737 15.0769 19.7946 15.6968 19.7946 16.4615C19.7946 17.2262 19.1737 17.8462 18.4078 17.8462H10.0869C9.32102 17.8462 8.70012 17.2262 8.70012 16.4615Z" fill="#F77E21"/><path d="M10.0869 20.6154C9.32102 20.6154 8.70012 21.2353 8.70012 22C8.70012 22.7647 9.32102 23.3846 10.0869 23.3846H14.7096C15.4756 23.3846 16.0965 22.7647 16.0965 22C16.0965 21.2353 15.4756 20.6154 14.7096 20.6154H10.0869Z" fill="#F77E21"/><path d="M17.875 19.9844C17.875 19.4321 18.3227 18.9844 18.875 18.9844H20.0866C20.54 18.9844 20.9297 19.0478 21.2555 19.1746C21.584 19.3014 21.8365 19.489 22.013 19.7375C22.1895 19.9861 22.2778 20.2916 22.2778 20.6543C22.2778 20.951 22.2235 21.2058 22.1149 21.4189C22.009 21.6293 21.8583 21.8056 21.6628 21.9476C21.4873 22.0745 21.2837 22.1784 21.0521 22.2591C21.006 22.2752 20.9606 22.2931 20.9169 22.3147L20.8043 22.37C20.6671 22.4375 20.5161 22.4725 20.3632 22.4725H19.1143C18.8701 22.4725 18.6715 22.2758 18.6692 22.0316C18.667 21.7842 18.8669 21.5824 19.1143 21.5824H20.0947C20.3092 21.5824 20.4871 21.5469 20.6283 21.4759C20.7695 21.4049 20.8753 21.306 20.9459 21.1792C21.0193 21.0524 21.0559 20.9053 21.0559 20.738C21.0559 20.5605 21.0206 20.407 20.95 20.2777C20.8794 20.1484 20.7722 20.0495 20.6283 19.981C20.4844 19.9125 20.3038 19.8783 20.0866 19.8783C19.54 19.8783 19.0969 20.3214 19.0969 20.868V23.9119C19.0969 24.2493 18.8233 24.5228 18.4859 24.5228C18.1485 24.5228 17.875 24.2493 17.875 23.9119V19.9844ZM21.6767 24.5228C21.3768 24.5228 21.1007 24.3593 20.9567 24.0962L20.1159 22.5612C19.9622 22.2806 20.0637 21.9285 20.3432 21.7728C20.625 21.616 20.9806 21.718 21.1363 22.0004L22.4924 24.46C22.4959 24.4663 22.4977 24.4733 22.4977 24.4805C22.4977 24.5039 22.4787 24.5228 22.4554 24.5228H21.6767Z" fill="#F77E21"/><path d="M22.7459 21.8906C22.9182 21.8906 23.0784 21.9794 23.1698 22.1255L23.8072 23.145C24.0031 23.4582 24.4593 23.4582 24.6551 23.145L25.2925 22.1255C25.3839 21.9794 25.5441 21.8906 25.7164 21.8906H26.0079C26.4092 21.8906 26.647 22.3396 26.4215 22.6715L25.2783 24.3548C25.1627 24.525 25.1632 24.7487 25.2795 24.9184L26.4639 26.6464C26.6913 26.9782 26.4538 27.4291 26.0515 27.4291H25.7504C25.5787 27.4291 25.4191 27.3411 25.3275 27.1959L24.654 26.1287C24.4578 25.8178 24.0045 25.8178 23.8083 26.1287L23.1348 27.1959C23.0432 27.3411 22.8836 27.4291 22.712 27.4291H22.4033C22.0007 27.4291 21.7632 26.9777 21.9911 26.646L23.1777 24.9189C23.2944 24.7489 23.2949 24.5248 23.1789 24.3544L22.0336 22.672C21.8076 22.3401 22.0453 21.8906 22.4469 21.8906H22.7459Z" fill="#F77E21"/></svg>