<svg width="224" height="224" viewBox="0 0 224 224" fill="none" xmlns="http://www.w3.org/2000/svg">
<path d="M84.6666 67.6506H17.0571V74.4734H84.6666V67.6506Z" fill="#5B5C5F"/>
<path d="M97.5659 94.9419H17.0571V101.765H97.5659V94.9419Z" fill="#5B5C5F"/>
<path d="M112.576 108.587H17.0571V115.41H112.576V108.587Z" fill="#5B5C5F"/>
<path d="M126.222 122.233H17.0571V129.056H126.222V122.233Z" fill="#5B5C5F"/>
<path d="M126.222 135.878H17.0571V142.701H126.222V135.878Z" fill="#5B5C5F"/>
<path d="M126.222 149.524H17.0571V156.347H126.222V149.524Z" fill="#5B5C5F"/>
<path d="M103.479 163.17H17.0571V169.992H103.479V163.17Z" fill="#5B5C5F"/>
<path d="M126.222 190.461H71.6392V197.284H126.222V190.461Z" fill="#5B5C5F"/>
<path d="M187.477 120.806L183.354 122.728L174.382 103.487C195.912 88.6541 204.27 59.9546 192.86 35.4861C180.141 8.20968 147.601 -3.63475 120.324 9.08512C101.982 17.6387 90.6194 35.154 89.0102 54.005H39.7998V60.8278H88.8589C89.1367 67.7162 90.7327 74.6581 93.7768 81.2962H17.0568V88.119H97.5144C106.4 101.928 120.849 110.646 136.456 112.672V213.204H38.6623V181.364H6.82281V38.0852H89.033V31.2624H0V186.188L33.8384 220.027H143.279V113.13C143.344 113.13 143.409 113.133 143.475 113.133C148.276 113.133 153.123 112.496 157.893 111.179L164.461 125.265L170.645 122.381L164.376 108.937C165.073 108.646 165.768 108.345 166.459 108.023C167.149 107.701 167.828 107.362 168.499 107.016L177.17 125.612L162.742 132.34L199.266 210.665L224 199.131L187.477 120.806ZM31.8395 208.379L11.6467 188.186H31.8395V208.379ZM163.576 101.839C139.708 112.969 111.237 102.605 100.107 78.7382C88.9774 54.8704 99.3401 26.3987 123.207 15.2687C129.718 12.2329 136.569 10.7966 143.318 10.7966C161.315 10.7966 178.583 21.0122 186.676 38.3692C197.806 62.237 187.443 90.7095 163.576 101.839ZM196.799 189.231L171.809 135.64L184.177 129.873L209.166 183.464L196.799 189.231ZM199.682 195.414L212.049 189.647L214.932 195.831L202.566 201.598L199.682 195.414Z" fill="#5B5C5F"/>
<circle cx="143" cy="59" r="37.5" stroke="#5B5C5F" stroke-width="7"/>
</svg>
