<svg width="14" height="14" viewBox="0 0 14 14" fill="none" xmlns="http://www.w3.org/2000/svg">
<g clip-path="url(#clip0)">
<path d="M7.07053 10.1906C4.25639 10.1906 1.97507 7.90938 1.97507 5.09531C1.97507 2.28125 4.25639 0 7.07053 0C9.88467 0 12.166 2.28125 12.166 5.09531C12.166 7.90938 9.88467 10.1906 7.07053 10.1906Z" fill="#FFC044"/>
<path d="M11.1983 8.07642L12.9515 11.1154L10.9053 11.0068L9.97561 12.8332L8.35376 10.0216C9.51583 9.72096 10.5137 9.02121 11.1983 8.07642Z" fill="#2385C8"/>
<path d="M2.93254 8.06104C3.6121 9.00835 4.60997 9.71063 5.76952 10.0163L4.14262 12.833L3.21296 11.0066L1.16669 11.1152L2.93254 8.06104Z" fill="#2385C8"/>
<path d="M7.07037 8.78866C5.03058 8.78866 3.37699 7.13512 3.37699 5.09538C3.37699 3.05564 5.03058 1.4021 7.07037 1.4021C9.11017 1.4021 10.7638 3.05564 10.7638 5.09538C10.7638 7.13512 9.11017 8.78866 7.07037 8.78866Z" fill="#F8984D"/>
<path d="M4.53919 4.69601C4.42551 4.58486 4.48866 4.39034 4.64529 4.3676L6.10294 4.15541C6.1661 4.1453 6.21915 4.10741 6.24694 4.04931L6.89871 2.72811C6.96944 2.58412 7.17407 2.58412 7.24481 2.72811L7.89405 4.04931C7.92184 4.10488 7.97742 4.1453 8.03805 4.15541L9.4957 4.3676C9.65233 4.39034 9.71548 4.58486 9.6018 4.69601L8.54835 5.72417C8.50288 5.76964 8.48267 5.83279 8.49278 5.89342L8.74035 7.34345C8.76814 7.50007 8.6014 7.62133 8.45993 7.54554L7.15639 6.86095C7.10081 6.83063 7.0326 6.83063 6.97702 6.86095L5.67348 7.54554C5.53201 7.6188 5.3678 7.50007 5.39306 7.34345L5.64316 5.89342C5.65327 5.83027 5.63306 5.76711 5.58758 5.72417L4.53919 4.69601Z" fill="white"/>
</g>
<defs>
<clipPath id="clip0">
<rect width="14" height="14" fill="white"/>
</clipPath>
</defs>
</svg>
