<svg width="23" height="14" viewBox="0 0 23 14" fill="none" xmlns="http://www.w3.org/2000/svg"><path d="M22.805 7.14459L20.4356 3.31497C20.3736 3.2157 20.2872 3.13389 20.1848 3.07725C20.0824 3.02061 19.9672 2.991 19.8501 2.99124H16.0205V1.63434C16.0205 1.45166 15.9479 1.27647 15.8188 1.1473C15.6896 1.01812 15.5144 0.945557 15.3317 0.945557H5.68878C5.50611 0.945557 5.33091 1.01812 5.20174 1.1473C5.07257 1.27647 5 1.45166 5 1.63434V10.5885C5 10.7712 5.07257 10.9464 5.20174 11.0755C5.33091 11.2047 5.50611 11.2773 5.68878 11.2773H7.94799C8.06996 11.4828 8.24332 11.6531 8.45104 11.7714C8.65875 11.8897 8.89366 11.9519 9.13269 11.9519C9.37172 11.9519 9.60663 11.8897 9.81434 11.7714C10.0221 11.6531 10.1954 11.4828 10.3174 11.2773H17.5909C17.7129 11.4828 17.8863 11.6531 18.094 11.7714C18.3017 11.8897 18.5366 11.9519 18.7756 11.9519C19.0147 11.9519 19.2496 11.8897 19.4573 11.7714C19.665 11.6531 19.8384 11.4828 19.9603 11.2773H22.2195C22.4022 11.2773 22.5774 11.2047 22.7066 11.0755C22.8358 10.9464 22.9083 10.7712 22.9083 10.5885V7.53031C22.9127 7.39435 22.8768 7.26014 22.805 7.14459Z" fill="#2385C8"/><circle cx="9.2447" cy="11.4801" r="1.72957" fill="#F77E21"/><circle cx="18.6793" cy="11.4801" r="1.72957" fill="#F77E21"/><circle cx="9.24516" cy="11.4803" r="1.10063" fill="#FFC044"/><circle cx="18.6792" cy="11.4803" r="1.10063" fill="#FFC044"/><rect y="10" width="4" height="1" rx="0.5" fill="#F8984D"/><rect x="1" y="8" width="3" height="1" rx="0.5" fill="#F8984D"/><rect x="2" y="6" width="2" height="1" rx="0.5" fill="#F8984D"/><path d="M19.9091 4L21 6L17 6L17 4L19.9091 4Z" fill="#F8984D"/></svg>