<svg width="32" height="32" viewBox="0 0 32 32" fill="none" xmlns="http://www.w3.org/2000/svg"><path d="M21.3938 23.2022H10.6665C9.00965 23.2022 7.6665 21.859 7.6665 20.2022V13.6769C7.76452 12.0955 8.08878 11.0365 8.90096 9.66063C9.40347 8.80935 10.3481 8.3335 11.3367 8.3335H21.0214C22.1007 8.3335 23.1261 8.89976 23.5762 9.88072C24.1436 11.1172 24.3678 12.1468 24.3938 13.6769V20.2022C24.3938 21.859 23.0506 23.2022 21.3938 23.2022Z" fill="#2385C8" stroke="#FDFEFF" stroke-width="1.5" stroke-linecap="round" stroke-linejoin="round"/><path d="M9.9289 14.3739C9.27131 14.3739 8.76989 14.1733 8.4084 13.9388C7.84073 13.5705 7.70396 12.844 7.85827 12.1851C8.05867 11.3295 8.37443 10.4986 8.9209 9.57697C9.40251 8.76476 10.3151 8.3335 11.2594 8.3335H11.9633H16.0321H19.8748H21.1067C22.1411 8.3335 23.1342 8.85171 23.569 9.79024C23.9395 10.5898 24.1552 11.3229 24.2777 12.0897C24.3926 12.8084 24.1644 13.5649 23.5453 13.9477C23.1722 14.1783 22.6918 14.3739 22.1353 14.3739C20.779 14.3739 19.8748 13.2123 19.8748 13.2123C19.8748 13.2123 18.9707 14.3739 17.8404 14.3739C16.7102 14.3739 16.0321 13.2123 16.0321 13.2123C16.0321 13.2123 15.1279 14.3739 13.9977 14.3739C13.0935 14.3739 11.9633 13.2123 11.9633 13.2123C11.9633 13.2123 11.0591 14.3739 9.9289 14.3739Z" fill="#F77E21"/><path d="M11.9633 13.2123C11.9633 13.2123 11.0591 14.3739 9.9289 14.3739C9.27131 14.3739 8.76989 14.1733 8.4084 13.9388C7.84073 13.5705 7.70396 12.844 7.85827 12.1851C8.05867 11.3295 8.37443 10.4986 8.9209 9.57697C9.40251 8.76476 10.3151 8.3335 11.2594 8.3335L11.9633 8.3335M11.9633 13.2123C11.9633 13.2123 13.0935 14.3739 13.9977 14.3739C15.1279 14.3739 16.0321 13.2123 16.0321 13.2123M11.9633 13.2123V8.3335M16.0321 13.2123C16.0321 13.2123 16.7102 14.3739 17.8404 14.3739C18.9707 14.3739 19.8748 13.2123 19.8748 13.2123M16.0321 13.2123V8.3335M19.8748 13.2123C19.8748 13.2123 20.779 14.3739 22.1353 14.3739C22.6918 14.3739 23.1722 14.1783 23.5453 13.9477C24.1644 13.5649 24.3926 12.8084 24.2777 12.0897C24.1552 11.3229 23.9395 10.5898 23.5691 9.79024C23.1342 8.85171 22.1411 8.3335 21.1067 8.3335L19.8748 8.3335M19.8748 13.2123V8.3335M11.9633 8.3335H16.0321M16.0321 8.3335H19.8748" stroke="#FDFEFF" stroke-width="1.5" stroke-linecap="round" stroke-linejoin="round"/><mask id="path-5-inside-1_2566_20083" fill="white"><rect x="9.29297" y="16.2324" width="9.29293" height="5.57576" rx="1"/></mask><rect x="9.29297" y="16.2324" width="9.29293" height="5.57576" rx="1" fill="#2385C8" stroke="#FDFEFF" stroke-width="3" mask="url(#path-5-inside-1_2566_20083)"/><mask id="path-6-inside-2_2566_20083" fill="white"><rect x="19.5146" y="16.2324" width="3.25253" height="5.57576" rx="1"/></mask><rect x="19.5146" y="16.2324" width="3.25253" height="5.57576" rx="1" fill="#2385C8" stroke="#FDFEFF" stroke-width="3" mask="url(#path-6-inside-2_2566_20083)"/><rect x="0.75" y="0.75" width="30.5" height="30.5" rx="15.25" stroke="#2385C8" stroke-width="1.5"/></svg>