<svg width="24" height="24" viewBox="0 0 24 24" fill="none" xmlns="http://www.w3.org/2000/svg">
<path d="M11 9H12V15H11V9Z" fill="#838588"/>
<path d="M9 2H14V3H9V2Z" fill="#838588"/>
<path d="M21 7.28318L19.8829 6.18766L18.1128 7.93582C16.6639 6.28325 14.6259 5.24554 12.4225 5.0383C10.219 4.83107 8.01936 5.47024 6.28063 6.82301C4.5419 8.17579 3.39774 10.1382 3.08588 12.3024C2.77402 14.4666 3.31843 16.6663 4.60601 18.4445C5.89358 20.2226 7.82531 21.4424 9.99985 21.8505C12.1744 22.2586 14.4245 21.8236 16.2828 20.6359C18.141 19.4481 19.4644 17.599 19.9781 15.4726C20.4918 13.3463 20.1562 11.1062 19.0411 9.21781L21 7.28318ZM11.5596 20.4915C10.1592 20.4915 8.79031 20.0814 7.62595 19.3131C6.4616 18.5447 5.5541 17.4526 5.0182 16.1749C4.48231 14.8971 4.3421 13.4911 4.61529 12.1347C4.88849 10.7782 5.56282 9.53226 6.55302 8.55432C7.54323 7.57638 8.80482 6.91039 10.1783 6.64058C11.5517 6.37076 12.9753 6.50924 14.2691 7.0385C15.5629 7.56776 16.6686 8.46402 17.4466 9.61396C18.2246 10.7639 18.6399 12.1159 18.6399 13.4989C18.6399 15.3534 17.8939 17.1321 16.5661 18.4434C15.2383 19.7548 13.4374 20.4915 11.5596 20.4915Z" fill="#838588"/>
</svg>
