<svg width="32" height="32" viewBox="0 0 32 32" fill="none" xmlns="http://www.w3.org/2000/svg"><rect x="4" y="7.75" width="15" height="13.5" rx="1" stroke="#2385C8" stroke-width="1.3"/><path d="M24.4648 11.5H20C19.4477 11.5 19 11.9477 19 12.5V20.25C19 20.8023 19.4477 21.25 20 21.25H27C27.5523 21.25 28 20.8023 28 20.25V16.3028C28 16.1054 27.9416 15.9123 27.8321 15.7481L25.2969 11.9453C25.1114 11.6671 24.7992 11.5 24.4648 11.5Z" stroke="#2385C8" stroke-width="1.3"/><path d="M20.8643 15.875V13.875C20.8643 13.5989 21.0881 13.375 21.3643 13.375H23.7173C23.8954 13.375 24.06 13.4697 24.1495 13.6236L25.3128 15.6236C25.5066 15.957 25.2661 16.375 24.8805 16.375H21.3643C21.0881 16.375 20.8643 16.1511 20.8643 15.875Z" stroke="#2385C8" stroke-width="1.3"/><rect x="9.1" y="18.85" width="4.8" height="4.8" rx="2.4" fill="white" stroke="#2385C8" stroke-width="1.2"/><rect x="21.1" y="18.85" width="4.8" height="4.8" rx="2.4" fill="white" stroke="#2385C8" stroke-width="1.2"/></svg>