<svg width="56" height="56" viewBox="0 0 56 56" fill="none" xmlns="http://www.w3.org/2000/svg"><rect x="0.5" y="0.5" width="55" height="55" rx="7.5" fill="white" stroke="#F77E21"/><path d="M36.3237 22.0393H33.1075L32.3413 19.892C32.2884 19.745 32.1914 19.618 32.0635 19.5283C31.9357 19.4386 31.7833 19.3905 31.6271 19.3906H24.3717C24.0525 19.3906 23.7663 19.5916 23.6599 19.892L22.8913 22.0393H19.6751C18.6298 22.0393 17.7832 22.8859 17.7832 23.9312V34.7149C17.7832 35.7602 18.6298 36.6068 19.6751 36.6068H36.3237C37.369 36.6068 38.2156 35.7602 38.2156 34.7149V23.9312C38.2156 22.8859 37.369 22.0393 36.3237 22.0393ZM27.9994 32.8231C25.9089 32.8231 24.2156 31.1298 24.2156 29.0393C24.2156 26.9487 25.9089 25.2555 27.9994 25.2555C30.09 25.2555 31.7832 26.9487 31.7832 29.0393C31.7832 31.1298 30.09 32.8231 27.9994 32.8231ZM25.7291 29.0393C25.7291 29.6414 25.9683 30.2188 26.3941 30.6446C26.8199 31.0704 27.3973 31.3095 27.9994 31.3095C28.6015 31.3095 29.179 31.0704 29.6047 30.6446C30.0305 30.2188 30.2697 29.6414 30.2697 29.0393C30.2697 28.4372 30.0305 27.8597 29.6047 27.4339C29.179 27.0082 28.6015 26.769 27.9994 26.769C27.3973 26.769 26.8199 27.0082 26.3941 27.4339C25.9683 27.8597 25.7291 28.4372 25.7291 29.0393Z" fill="#F77E21"/></svg>