<svg width="32" height="32" viewBox="0 0 32 32" fill="none" xmlns="http://www.w3.org/2000/svg"><path fill-rule="evenodd" clip-rule="evenodd" d="M22.4153 18.779C22.0659 18.6052 20.3532 17.7675 20.0344 17.6509C19.7155 17.5354 19.4834 17.4782 19.2501 17.8259C19.018 18.1712 18.351 18.9529 18.1482 19.1839C17.9442 19.416 17.7414 19.444 17.3932 19.2714C17.0451 19.0964 15.922 18.7312 14.5915 17.5505C13.5563 16.6312 12.8565 15.496 12.6537 15.1484C12.4509 14.8019 12.6314 14.614 12.8061 14.4414C12.9632 14.2862 13.1543 14.0365 13.3289 13.8347C13.5036 13.6317 13.561 13.487 13.6771 13.2549C13.7943 13.0239 13.7357 12.822 13.6478 12.6482C13.561 12.4744 12.8647 10.7675 12.574 10.0734C12.2915 9.39787 12.0042 9.49004 11.7909 9.47837C11.5869 9.46904 11.3548 9.4667 11.1227 9.4667C10.8906 9.4667 10.5131 9.55304 10.1942 9.9007C9.87421 10.2472 8.97507 11.086 8.97507 12.7929C8.97507 14.4985 10.2224 16.147 10.397 16.3792C10.5717 16.6102 12.853 20.1125 16.3475 21.614C17.1799 21.971 17.8281 22.1845 18.3334 22.3432C19.1681 22.608 19.9277 22.5707 20.5279 22.4808C21.1961 22.3817 22.5888 21.642 22.8795 20.8323C23.1691 20.0227 23.1691 19.3285 23.0823 19.1839C22.9956 19.0392 22.7634 18.9529 22.4141 18.779H22.4153ZM16.0592 27.4158H16.0545C13.9789 27.4162 11.9414 26.8609 10.1556 25.8082L9.73354 25.5585L5.34686 26.7042L6.51797 22.4482L6.24249 22.0118C5.08209 20.1736 4.468 18.0461 4.47117 15.8752C4.47351 9.51687 9.67141 4.34388 16.0639 4.34388C19.1587 4.34388 22.0683 5.54554 24.2558 7.72487C25.3347 8.79421 26.1899 10.0659 26.7718 11.4662C27.3537 12.8666 27.6508 14.368 27.646 15.8834C27.6436 22.2417 22.4458 27.4158 16.0592 27.4158ZM25.9204 6.06937C24.6288 4.77545 23.092 3.7495 21.399 3.05098C19.7061 2.35245 17.8907 1.99524 16.058 2.00005C8.37486 2.00005 2.11957 8.2242 2.11723 15.874C2.11367 18.3086 2.75539 20.701 3.97764 22.8098L2 30L9.39006 28.0703C11.4344 29.1788 13.7253 29.7596 16.0533 29.7597H16.0592C23.7423 29.7597 29.9976 23.5355 29.9999 15.8845C30.0056 14.0613 29.648 12.2551 28.9477 10.5704C28.2475 8.88566 27.2185 7.35582 25.9204 6.06937Z" fill="#128C7E"/></svg>