<svg width="24" height="24" viewBox="0 0 24 24" fill="none" xmlns="http://www.w3.org/2000/svg">
<path fill-rule="evenodd" clip-rule="evenodd" d="M17.5 18.5455C21.1571 15.3444 23 12.7253 23 8.70346C23 4.84943 19.0193 2.21933 15.6515 3.20988C13.6035 3.81234 12.9271 5.21064 12 6.98197C11.0729 5.21064 10.3965 3.81234 8.3485 3.20988C4.98067 2.21933 1 4.84877 1 8.70346C1 12.7253 2.84289 15.3444 6.5 18.5455C7.92394 19.7917 10.9 22 12 22C13.1 22 16.0761 19.7917 17.5 18.5455ZM4.22382 6.50078C3.65025 7.06981 3.27244 7.83288 3.27244 8.70346C3.27244 9.27183 3.34601 9.81136 3.51808 10.3496C3.79613 11.1553 2.60412 11.5466 2.3909 10.7324C2.18205 10.0769 2.08167 9.39442 2.08167 8.70346C2.08167 7.46249 2.60848 6.38672 3.41022 5.59152C4.19077 4.81469 5.23753 4.30991 6.30549 4.17945C6.6409 4.1152 6.95885 4.44888 6.95885 4.79961C6.95885 5.20409 6.70698 5.34897 6.38279 5.42436C5.52618 5.60267 4.88466 5.84523 4.22382 6.50078Z" fill="#838588"/>
</svg>
