<svg width="22" height="19" viewBox="0 0 22 19" fill="none" xmlns="http://www.w3.org/2000/svg">
<path d="M19.889 10.5007C19.0393 11.9428 17.7435 13.3274 15.9402 14.9058L7.10861 1.02535C8.74548 1.50688 9.28495 2.53785 10.2139 4.31314L10.2469 4.37612L10.9999 5.81505L11.753 4.37612L11.786 4.31314C12.7149 2.53784 13.2544 1.50686 14.8913 1.02534C17.7518 0.184007 21.1499 2.45499 21.1499 5.70347C21.1499 7.56897 20.7267 9.0792 19.889 10.5007ZM15.9401 14.9059C15.2539 15.5064 14.1831 16.3473 13.1563 17.0333C12.6423 17.3767 12.156 17.6701 11.745 17.8742C11.5396 17.9763 11.3659 18.0495 11.2261 18.0959C11.157 18.1188 11.1023 18.1331 11.061 18.1413C11.0187 18.1498 10.9998 18.15 10.9999 18.15C11.0001 18.15 10.9812 18.1498 10.9389 18.1413C10.8976 18.1331 10.8429 18.1188 10.7737 18.0959C10.634 18.0495 10.4603 17.9763 10.2549 17.8742C9.84392 17.6701 9.35758 17.3767 8.84362 17.0333C7.81682 16.3473 6.74595 15.5064 6.05975 14.9058C4.25641 13.3274 2.96061 11.9428 2.11085 10.5007C1.27319 9.0792 0.849948 7.56897 0.849948 5.70347C0.849948 2.45442 4.24799 0.184005 7.10857 1.02534L15.9401 14.9059Z" fill="white" stroke="#838588" stroke-width="1.7"/>
</svg>
