<svg width="24" height="21" viewBox="0 0 24 21" fill="none" xmlns="http://www.w3.org/2000/svg"><path d="M4.75364 4.65151L7.29727 13.613C7.41936 14.0431 7.81216 14.3399 8.25929 14.3399L17.9344 14.3397C18.3099 14.3397 18.6538 14.1293 18.8247 13.795L22.3839 6.83418C22.8942 5.83609 22.1693 4.65128 21.0483 4.6513L4.75364 4.65151ZM4.75364 4.65151L4.07485 2.23008C3.95383 1.79839 3.5603 1.5 3.11197 1.5H1.5" stroke="#FDFEFF" stroke-width="1.5" stroke-linecap="round"/><path d="M9.5499 18.3287C9.5499 19.1045 8.90999 19.7501 8.0999 19.7501C7.28982 19.7501 6.6499 19.1045 6.6499 18.3287C6.6499 17.5528 7.28982 16.9072 8.0999 16.9072C8.90999 16.9072 9.5499 17.5528 9.5499 18.3287Z" stroke="#FDFEFF" stroke-width="1.5"/><path d="M19.45 18.3287C19.45 19.1045 18.8101 19.7501 18 19.7501C17.19 19.7501 16.55 19.1045 16.55 18.3287C16.55 17.5528 17.19 16.9072 18 16.9072C18.8101 16.9072 19.45 17.5528 19.45 18.3287Z" stroke="#FDFEFF" stroke-width="1.5"/></svg>