<svg width="14" height="16" viewBox="0 0 14 16" fill="none" xmlns="http://www.w3.org/2000/svg"><path d="M9.77767 8.93317V10.9332C9.77767 13.5998 8.88878 14.6665 6.66656 14.6665H4.55545C2.33322 14.6665 1.44434 13.5998 1.44434 10.9332V8.39984C1.44434 5.73317 2.33322 4.6665 4.55545 4.6665H6.22211" stroke="#2385C8" stroke-linecap="round" stroke-linejoin="round"/><path d="M9.77724 8.93317H7.99946C6.66612 8.93317 6.22168 8.39984 6.22168 6.79984V4.6665L9.77724 8.93317Z" stroke="#2385C8" stroke-linecap="round" stroke-linejoin="round"/><path d="M6.77734 1.3335H8.99957" stroke="#2385C8" stroke-linecap="round" stroke-linejoin="round"/><path d="M4.22168 3.3335C4.22168 2.22683 4.96612 1.3335 5.88835 1.3335H7.3439" stroke="#2385C8" stroke-linecap="round" stroke-linejoin="round"/><path d="M12.5553 5.3335V9.46016C12.5553 10.4935 11.8553 11.3335 10.9941 11.3335" stroke="#2385C8" stroke-linecap="round" stroke-linejoin="round"/><path d="M12.555 5.3335H10.8883C9.63835 5.3335 9.22168 4.8335 9.22168 3.3335V1.3335L12.555 5.3335Z" stroke="#2385C8" stroke-linecap="round" stroke-linejoin="round"/></svg>