<svg width="18" height="21" viewBox="0 0 18 21" fill="none" xmlns="http://www.w3.org/2000/svg"><path d="M12.125 11.6666V14.1666C12.125 17.4999 11.125 18.8333 8.625 18.8333H6.25C3.75 18.8333 2.75 17.4999 2.75 14.1666V10.9999C2.75 7.66659 3.75 6.33325 6.25 6.33325H8.125" stroke="#2385C8" stroke-width="1.5" stroke-linecap="round" stroke-linejoin="round"/><path d="M12.125 11.6666H10.125C8.625 11.6666 8.125 10.9999 8.125 8.99992V6.33325L12.125 11.6666Z" stroke="#2385C8" stroke-width="1.5" stroke-linecap="round" stroke-linejoin="round"/><path d="M8.75 2.16675H11.25" stroke="#2385C8" stroke-width="1.5" stroke-linecap="round" stroke-linejoin="round"/><path d="M5.875 4.66675C5.875 3.28341 6.7125 2.16675 7.75 2.16675H9.3875" stroke="#2385C8" stroke-width="1.5" stroke-linecap="round" stroke-linejoin="round"/><path d="M15.25 7.16675V12.3251C15.25 13.6167 14.4625 14.6667 13.4938 14.6667" stroke="#2385C8" stroke-width="1.5" stroke-linecap="round" stroke-linejoin="round"/><path d="M15.25 7.16675H13.375C11.9688 7.16675 11.5 6.54175 11.5 4.66675V2.16675L15.25 7.16675Z" stroke="#2385C8" stroke-width="1.5" stroke-linecap="round" stroke-linejoin="round"/></svg>