<svg width="25" height="24" viewBox="0 0 25 24" fill="none" xmlns="http://www.w3.org/2000/svg"><path d="M15.667 2V12C15.667 13.1 14.767 14 13.667 14H2.66699V6C2.66699 3.79 4.45699 2 6.66699 2H15.667Z" stroke="#7A7B7C" stroke-width="1.5" stroke-linecap="round" stroke-linejoin="round"/><path d="M22.667 14V17C22.667 18.66 21.327 20 19.667 20H18.667C18.667 18.9 17.767 18 16.667 18C15.567 18 14.667 18.9 14.667 20H10.667C10.667 18.9 9.76699 18 8.66699 18C7.56699 18 6.66699 18.9 6.66699 20H5.66699C4.00699 20 2.66699 18.66 2.66699 17V14H13.667C14.767 14 15.667 13.1 15.667 12V5H17.507C18.227 5 18.887 5.39001 19.247 6.01001L20.957 9H19.667C19.117 9 18.667 9.45 18.667 10V13C18.667 13.55 19.117 14 19.667 14H22.667Z" stroke="#7A7B7C" stroke-width="1.5" stroke-linecap="round" stroke-linejoin="round"/><path d="M8.66699 22C9.77156 22 10.667 21.1046 10.667 20C10.667 18.8954 9.77156 18 8.66699 18C7.56242 18 6.66699 18.8954 6.66699 20C6.66699 21.1046 7.56242 22 8.66699 22Z" stroke="#7A7B7C" stroke-width="1.5" stroke-linecap="round" stroke-linejoin="round"/><path d="M16.667 22C17.7716 22 18.667 21.1046 18.667 20C18.667 18.8954 17.7716 18 16.667 18C15.5624 18 14.667 18.8954 14.667 20C14.667 21.1046 15.5624 22 16.667 22Z" stroke="#7A7B7C" stroke-width="1.5" stroke-linecap="round" stroke-linejoin="round"/><path d="M22.667 12V14H19.667C19.117 14 18.667 13.55 18.667 13V10C18.667 9.45 19.117 9 19.667 9H20.957L22.667 12Z" stroke="#7A7B7C" stroke-width="1.5" stroke-linecap="round" stroke-linejoin="round"/></svg>