<svg width="32" height="32" viewBox="0 0 32 32" fill="none" xmlns="http://www.w3.org/2000/svg"><path d="M15.9745 17.0482C16.5608 17.0482 17.0361 16.5722 17.0361 15.985C17.0361 15.3979 16.5608 14.9219 15.9745 14.9219C15.3882 14.9219 14.913 15.3979 14.913 15.985C14.913 16.5722 15.3882 17.0482 15.9745 17.0482Z" fill="#2385C8"/><path d="M20.2207 17.0482C20.807 17.0482 21.2823 16.5722 21.2823 15.985C21.2823 15.3979 20.807 14.9219 20.2207 14.9219C19.6345 14.9219 19.1592 15.3979 19.1592 15.985C19.1592 16.5722 19.6345 17.0482 20.2207 17.0482Z" fill="#2385C8"/><path d="M11.7283 17.0482C12.3146 17.0482 12.7899 16.5722 12.7899 15.985C12.7899 15.3979 12.3146 14.9219 11.7283 14.9219C11.142 14.9219 10.6667 15.3979 10.6667 15.985C10.6667 16.5722 11.142 17.0482 11.7283 17.0482Z" fill="#2385C8"/><path d="M23.4799 8.47437C21.7381 6.71857 19.4392 5.6264 16.9795 5.38616C14.5198 5.14591 12.0535 5.77265 10.0058 7.15832C7.95807 8.54399 6.45724 10.6018 5.76204 12.9768C5.06685 15.3519 5.22087 17.8955 6.19754 20.1691C6.29933 20.3804 6.33273 20.6183 6.29308 20.8495L5.3589 25.3467C5.32291 25.5191 5.33026 25.6978 5.38029 25.8666C5.43032 26.0355 5.52146 26.1893 5.64552 26.3141C5.74722 26.4153 5.86832 26.4947 6.0015 26.5477C6.13469 26.6007 6.2772 26.6261 6.42047 26.6225H6.63278L11.1763 25.7081C11.4072 25.6803 11.6414 25.7133 11.8557 25.8038C14.1259 26.782 16.6657 26.9362 19.0372 26.24C21.4088 25.5437 23.4634 24.0407 24.847 21.9899C26.2306 19.9391 26.8564 17.4691 26.6166 15.0057C26.3767 12.5424 25.2861 10.24 23.533 8.49563L23.4799 8.47437ZM24.361 17.3624C24.1534 18.6317 23.6611 19.8375 22.921 20.8887C22.1809 21.94 21.2124 22.8095 20.0883 23.4318C18.9642 24.054 17.7139 24.4128 16.4313 24.4812C15.1487 24.5495 13.8674 24.3256 12.6837 23.8264C12.2639 23.6475 11.813 23.5536 11.3568 23.5499C11.1575 23.5513 10.9587 23.5691 10.7623 23.6031L7.76866 24.2091L8.37375 21.211C8.49427 20.5617 8.41658 19.8911 8.15083 19.2867C7.6523 18.1012 7.42875 16.818 7.497 15.5335C7.56524 14.249 7.9235 12.9968 8.54482 11.871C9.16614 10.7452 10.0343 9.77525 11.084 9.03407C12.1338 8.29289 13.3377 7.79981 14.6052 7.59195C15.9356 7.37328 17.2989 7.47497 18.5823 7.88864C19.8657 8.3023 21.0323 9.01603 21.9857 9.9708C22.939 10.9256 23.6517 12.0939 24.0647 13.3793C24.4778 14.6646 24.5793 16.0299 24.361 17.3624Z" fill="#2385C8"/></svg>