<svg width="28" height="32" viewBox="0 0 28 32" fill="none" xmlns="http://www.w3.org/2000/svg"><path d="M5.01001 11.22V15.71C5.01001 20.2 6.81001 22 11.3 22H16.69C21.18 22 22.98 20.2 22.98 15.71V11.22" stroke="#2385C8" stroke-width="1.5" stroke-linecap="round" stroke-linejoin="round"/><path d="M14 12C15.83 12 17.18 10.51 17 8.68L16.34 2H11.67L11 8.68C10.82 10.51 12.17 12 14 12Z" stroke="#2385C8" stroke-width="1.5" stroke-linecap="round" stroke-linejoin="round"/><path d="M20.31 12C22.33 12 23.81 10.36 23.61 8.35L23.33 5.6C22.97 3 21.97 2 19.35 2H16.3L17 9.01C17.17 10.66 18.66 12 20.31 12Z" stroke="#2385C8" stroke-width="1.5" stroke-linecap="round" stroke-linejoin="round"/><path d="M7.63988 12C9.28988 12 10.7799 10.66 10.9399 9.01L11.1599 6.8L11.6399 2H8.58988C5.96988 2 4.96988 3 4.60988 5.6L4.33988 8.35C4.13988 10.36 5.61988 12 7.63988 12Z" stroke="#2385C8" stroke-width="1.5" stroke-linecap="round" stroke-linejoin="round"/><path d="M14 17C12.33 17 11.5 17.83 11.5 19.5V22H16.5V19.5C16.5 17.83 15.67 17 14 17Z" stroke="#2385C8" stroke-width="1.5" stroke-linecap="round" stroke-linejoin="round"/><path d="M5.83496 27.75V27.9844C5.83496 28.3066 5.79297 28.5957 5.70898 28.8516C5.625 29.1074 5.50488 29.3252 5.34863 29.5049C5.19434 29.6846 5.00879 29.8223 4.79199 29.918C4.5752 30.0117 4.33496 30.0586 4.07129 30.0586C3.80957 30.0586 3.57031 30.0117 3.35352 29.918C3.13867 29.8223 2.95215 29.6846 2.79395 29.5049C2.63574 29.3252 2.5127 29.1074 2.4248 28.8516C2.33887 28.5957 2.2959 28.3066 2.2959 27.9844V27.75C2.2959 27.4277 2.33887 27.1396 2.4248 26.8857C2.51074 26.6299 2.63184 26.4121 2.78809 26.2324C2.94629 26.0508 3.13281 25.9131 3.34766 25.8193C3.56445 25.7236 3.80371 25.6758 4.06543 25.6758C4.3291 25.6758 4.56934 25.7236 4.78613 25.8193C5.00293 25.9131 5.18945 26.0508 5.3457 26.2324C5.50195 26.4121 5.62207 26.6299 5.70605 26.8857C5.79199 27.1396 5.83496 27.4277 5.83496 27.75ZM5.09961 27.9844V27.7441C5.09961 27.5059 5.07617 27.2959 5.0293 27.1143C4.98438 26.9307 4.91699 26.7773 4.82715 26.6543C4.73926 26.5293 4.63086 26.4355 4.50195 26.373C4.37305 26.3086 4.22754 26.2764 4.06543 26.2764C3.90332 26.2764 3.75879 26.3086 3.63184 26.373C3.50488 26.4355 3.39648 26.5293 3.30664 26.6543C3.21875 26.7773 3.15137 26.9307 3.10449 27.1143C3.05762 27.2959 3.03418 27.5059 3.03418 27.7441V27.9844C3.03418 28.2227 3.05762 28.4336 3.10449 28.6172C3.15137 28.8008 3.21973 28.9561 3.30957 29.083C3.40137 29.208 3.51074 29.3027 3.6377 29.3672C3.76465 29.4297 3.90918 29.4609 4.07129 29.4609C4.23535 29.4609 4.38086 29.4297 4.50781 29.3672C4.63477 29.3027 4.74219 29.208 4.83008 29.083C4.91797 28.9561 4.98438 28.8008 5.0293 28.6172C5.07617 28.4336 5.09961 28.2227 5.09961 27.9844ZM7.36566 25.7344V30H6.63031V25.7344H7.36566ZM9.1059 27.6006V28.1836H7.17816V27.6006H9.1059ZM9.34906 25.7344V26.3203H7.17816V25.7344H9.34906ZM10.7304 25.7344V30H9.995V25.7344H10.7304ZM12.4706 27.6006V28.1836H10.5429V27.6006H12.4706ZM12.7137 25.7344V26.3203H10.5429V25.7344H12.7137ZM16.0316 29.417V30H13.89V29.417H16.0316ZM14.095 25.7344V30H13.3597V25.7344H14.095ZM17.4451 25.7344V30H16.7097V25.7344H17.4451ZM21.8029 25.7344V30H21.0676L19.1545 26.9443V30H18.4191V25.7344H19.1545L21.0734 28.7959V25.7344H21.8029ZM25.5309 29.417V30H23.2663V29.417H25.5309ZM23.4743 25.7344V30H22.7389V25.7344H23.4743ZM25.235 27.5156V28.0898H23.2663V27.5156H25.235ZM25.5163 25.7344V26.3203H23.2663V25.7344H25.5163Z" fill="#2385C8"/><rect x="0.5" y="24.5" width="27" height="7" rx="1.5" stroke="#2385C8"/></svg>