<svg width="26" height="32" viewBox="0 0 26 32" fill="none" xmlns="http://www.w3.org/2000/svg"><path d="M17.36 3.84C17.36 2.40001 14.96 2.39999 12.56 2.39999H6.8C2.96 2.39999 2 3.35999 2 7.19999V16.8C2 20.64 2.96 21.6 6.8 21.6H12.56C14.96 21.6 17.36 21.6 17.36 20.16" stroke="#F77E21" stroke-width="1.5" stroke-linecap="round" stroke-linejoin="round"/><path d="M9.67989 19.776C10.5017 19.776 11.1679 19.1098 11.1679 18.288C11.1679 17.4662 10.5017 16.8 9.67989 16.8C8.85809 16.8 8.19189 17.4662 8.19189 18.288C8.19189 19.1098 8.85809 19.776 9.67989 19.776Z" stroke="#F77E21" stroke-width="1.5" stroke-linecap="round" stroke-linejoin="round"/><path d="M11.6 5.75999H7.76001" stroke="#F77E21" stroke-width="1.5" stroke-linecap="round" stroke-linejoin="round"/><path d="M16.0159 8.48H20.624C22.8 8.48 23.0176 9.49759 23.1648 10.7392L23.7408 15.5392C23.9264 17.1136 23.44 18.4 21.2 18.4H15.4463C13.1999 18.4 12.7135 17.1136 12.9055 15.5392L13.4816 10.7392C13.6224 9.49759 13.8399 8.48 16.0159 8.48Z" stroke="#F77E21" stroke-width="1.5" stroke-linecap="round" stroke-linejoin="round"/><path d="M15.7605 9.43999V7.19999C15.7605 6.23999 16.4005 5.59999 17.3605 5.59999H19.2805C20.2405 5.59999 20.8805 6.23999 20.8805 7.19999V9.43999" stroke="#F77E21" stroke-width="1.5" stroke-linecap="round" stroke-linejoin="round"/><path d="M23.7029 15.2191H15.7605" stroke="#F77E21" stroke-width="1.5" stroke-linecap="round" stroke-linejoin="round"/><path d="M5.83496 27.75V27.9844C5.83496 28.3066 5.79297 28.5957 5.70898 28.8516C5.625 29.1074 5.50488 29.3252 5.34863 29.5049C5.19434 29.6846 5.00879 29.8223 4.79199 29.918C4.5752 30.0117 4.33496 30.0586 4.07129 30.0586C3.80957 30.0586 3.57031 30.0117 3.35352 29.918C3.13867 29.8223 2.95215 29.6846 2.79395 29.5049C2.63574 29.3252 2.5127 29.1074 2.4248 28.8516C2.33887 28.5957 2.2959 28.3066 2.2959 27.9844V27.75C2.2959 27.4277 2.33887 27.1396 2.4248 26.8857C2.51074 26.6299 2.63184 26.4121 2.78809 26.2324C2.94629 26.0508 3.13281 25.9131 3.34766 25.8193C3.56445 25.7236 3.80371 25.6758 4.06543 25.6758C4.3291 25.6758 4.56934 25.7236 4.78613 25.8193C5.00293 25.9131 5.18945 26.0508 5.3457 26.2324C5.50195 26.4121 5.62207 26.6299 5.70605 26.8857C5.79199 27.1396 5.83496 27.4277 5.83496 27.75ZM5.09961 27.9844V27.7441C5.09961 27.5059 5.07617 27.2959 5.0293 27.1143C4.98438 26.9307 4.91699 26.7773 4.82715 26.6543C4.73926 26.5293 4.63086 26.4355 4.50195 26.373C4.37305 26.3086 4.22754 26.2764 4.06543 26.2764C3.90332 26.2764 3.75879 26.3086 3.63184 26.373C3.50488 26.4355 3.39648 26.5293 3.30664 26.6543C3.21875 26.7773 3.15137 26.9307 3.10449 27.1143C3.05762 27.2959 3.03418 27.5059 3.03418 27.7441V27.9844C3.03418 28.2227 3.05762 28.4336 3.10449 28.6172C3.15137 28.8008 3.21973 28.9561 3.30957 29.083C3.40137 29.208 3.51074 29.3027 3.6377 29.3672C3.76465 29.4297 3.90918 29.4609 4.07129 29.4609C4.23535 29.4609 4.38086 29.4297 4.50781 29.3672C4.63477 29.3027 4.74219 29.208 4.83008 29.083C4.91797 28.9561 4.98438 28.8008 5.0293 28.6172C5.07617 28.4336 5.09961 28.2227 5.09961 27.9844ZM10.0141 25.7344V30H9.27875L7.36566 26.9443V30H6.63031V25.7344H7.36566L9.28461 28.7959V25.7344H10.0141ZM13.622 29.417V30H11.4804V29.417H13.622ZM11.6854 25.7344V30H10.9501V25.7344H11.6854ZM15.0355 25.7344V30H14.3001V25.7344H15.0355ZM19.3933 25.7344V30H18.658L16.7449 26.9443V30H16.0095V25.7344H16.7449L18.6638 28.7959V25.7344H19.3933ZM23.1213 29.417V30H20.8566V29.417H23.1213ZM21.0646 25.7344V30H20.3293V25.7344H21.0646ZM22.8254 27.5156V28.0898H20.8566V27.5156H22.8254ZM23.1066 25.7344V26.3203H20.8566V25.7344H23.1066Z" fill="#F77E21"/><rect x="0.5" y="24.5" width="25" height="7" rx="1.5" stroke="#F77E21"/></svg>