<svg width="32" height="32" viewBox="0 0 32 32" fill="none" xmlns="http://www.w3.org/2000/svg"><path d="M25.7361 8.71418L22.8961 5.8772C22.5494 5.53058 22.0854 5.33594 21.5948 5.33594C21.1041 5.33594 20.6401 5.52791 20.2934 5.8772L17.2348 8.93016C16.8881 9.27678 16.6934 9.74339 16.6934 10.234C16.6934 10.7273 16.8854 11.1885 17.2348 11.5378L19.6241 13.9295C19.0798 15.1976 18.2977 16.3498 17.3201 17.3238C16.3414 18.3076 15.1974 19.0836 13.9281 19.6328L11.5387 17.2411C11.1921 16.8945 10.7281 16.6999 10.2374 16.6999C9.99538 16.699 9.75561 16.7464 9.53215 16.8393C9.3087 16.9323 9.10604 17.0689 8.93606 17.2411L5.87471 20.2941C5.52804 20.6407 5.33337 21.1073 5.33337 21.5979C5.33337 22.0912 5.52537 22.5525 5.87471 22.9017L8.71206 25.7387C9.30406 26.3306 10.1201 26.6693 10.9574 26.6693C11.1307 26.6693 11.2987 26.6559 11.4694 26.6266C15.0001 26.0453 18.5041 24.1656 21.3334 21.3393C24.1601 18.5076 26.0375 15.0041 26.6241 11.4712C26.7921 10.4686 26.4561 9.43676 25.7361 8.71418ZM24.7335 11.1539C24.2135 14.2975 22.5228 17.4331 19.9761 19.9794C17.4294 22.5258 14.2961 24.2162 11.1521 24.7362C10.7574 24.8028 10.3521 24.6695 10.0641 24.3842L7.27738 21.5979L10.2321 18.6409L13.4267 21.8405L13.4507 21.8645L14.0267 21.6512C15.7732 21.0092 17.3592 19.9951 18.6747 18.6793C19.9903 17.3635 21.0039 15.7773 21.6454 14.0309L21.8588 13.4549L18.6374 10.2367L21.5921 7.27969L24.3788 10.066C24.6668 10.354 24.8001 10.7593 24.7335 11.1539Z" fill="#2385C8"/></svg>