<svg width="24" height="24" viewBox="0 0 24 24" fill="none" xmlns="http://www.w3.org/2000/svg"><path d="M16.1667 7.5441C16.1667 9.38417 13.6285 12.6633 12.5139 14.0147C12.2465 14.3382 11.75 14.3382 11.4861 14.0147C10.3715 12.6633 7.83333 9.38417 7.83333 7.5441C7.83333 5.30974 9.69792 3.5 12 3.5C14.3021 3.5 16.1667 5.30974 16.1667 7.5441ZM16.4444 10.2537C16.566 10.0211 16.6771 9.78858 16.7778 9.55941C16.7951 9.51897 16.8125 9.47516 16.8299 9.43472L20.8576 7.871C21.4062 7.65868 22 8.04961 22 8.62253V17.7487C22 18.079 21.7917 18.3756 21.4757 18.5002L16.4444 20.4515V10.2537ZM6.77778 8.16083C6.86111 8.63601 7.02778 9.11456 7.22222 9.55941C7.32292 9.78858 7.43403 10.0211 7.55556 10.2537V18.726L3.14236 20.4414C2.59375 20.6537 2 20.2628 2 19.6899V10.5637C2 10.2334 2.20833 9.93686 2.52431 9.81217L6.78125 8.16083H6.77778ZM13.3819 14.6887C13.8646 14.1023 14.6215 13.1486 15.3333 12.0937V20.4953L8.66667 18.6452V12.0937C9.37847 13.1486 10.1354 14.1023 10.6181 14.6887C11.3299 15.5514 12.6701 15.5514 13.3819 14.6887ZM12 8.62253C12.3684 8.62253 12.7216 8.4805 12.9821 8.2277C13.2426 7.97489 13.3889 7.63202 13.3889 7.2745C13.3889 6.91697 13.2426 6.5741 12.9821 6.32129C12.7216 6.06849 12.3684 5.92646 12 5.92646C11.6316 5.92646 11.2784 6.06849 11.0179 6.32129C10.7574 6.5741 10.6111 6.91697 10.6111 7.2745C10.6111 7.63202 10.7574 7.97489 11.0179 8.2277C11.2784 8.4805 11.6316 8.62253 12 8.62253Z" fill="#F77E21"/></svg>