<svg width="21" height="20" viewBox="0 0 21 20" fill="none" xmlns="http://www.w3.org/2000/svg"><path d="M14.1154 5.85128L14.1154 5.85125H14.1101C12.9962 5.85125 12.0881 4.9414 12.0881 3.86113V0.606247C12.0881 0.579227 12.0953 0.564936 12.102 0.555573C12.1104 0.543811 12.1252 0.531038 12.1464 0.522545C12.1676 0.51406 12.1886 0.512543 12.2056 0.515662C12.2198 0.518283 12.2377 0.525094 12.2587 0.546455C13.1743 1.47757 14.5487 2.88805 15.7521 4.12297C16.3316 4.71776 16.8715 5.27183 17.3014 5.712L17.3026 5.71323C17.3208 5.73177 17.3248 5.74543 17.3262 5.75435C17.3281 5.76614 17.3269 5.78306 17.3187 5.80201C17.3104 5.82101 17.2976 5.8359 17.284 5.84526C17.2725 5.85318 17.2559 5.86058 17.2281 5.86058C16.1908 5.86058 14.9833 5.86057 14.1154 5.85128ZM17.2281 6.36058C17.7508 6.36058 18.0259 5.73572 17.6591 5.36266C17.2301 4.92336 16.6908 4.36988 16.1116 3.77546C14.9078 2.54006 13.5316 1.12779 12.6152 0.195889C12.2393 -0.186489 11.5881 0.0746472 11.5881 0.606247V3.86113C11.5881 5.22277 12.7253 6.35125 14.1101 6.35125C14.9812 6.36058 16.1917 6.36058 17.2279 6.36058H17.2281Z" fill="#F77E21" stroke="#F77E21"/><path d="M17.7498 8.27517V8.27525V8.27539V8.27559V8.27585V8.27616V8.27653V8.27696V8.27744V8.27798V8.27857V8.27922V8.27992V8.28068V8.28149V8.28236V8.28328V8.28426V8.28529V8.28638V8.28751V8.28871V8.28996V8.29125V8.29261V8.29401V8.29547V8.29699V8.29855V8.30017V8.30184V8.30356V8.30533V8.30716V8.30903V8.31096V8.31294V8.31497V8.31705V8.31918V8.32136V8.3236V8.32588V8.32821V8.33059V8.33303V8.33551V8.33804V8.34062V8.34325V8.34593V8.34865V8.35143V8.35425V8.35712V8.36004V8.36301V8.36602V8.36908V8.37219V8.37535V8.37855V8.3818V8.3851V8.38844V8.39183V8.39527V8.39875V8.40228V8.40585V8.40947V8.41313V8.41684V8.42059V8.42439V8.42823V8.43212V8.43605V8.44003V8.44405V8.44811V8.45221V8.45636V8.46056V8.46479V8.46907V8.47339V8.47776V8.48216V8.48661V8.4911V8.49563V8.50021V8.50482V8.50948V8.51417V8.51891V8.52369V8.52851V8.53337V8.53827V8.54321V8.5482V8.55322V8.55828V8.56338V8.56851V8.57369V8.57891V8.58416V8.58946V8.59479V8.60016V8.60557V8.61102V8.6165V8.62202V8.62758V8.63318V8.63881V8.64449V8.65019V8.65594V8.66172V8.66753V8.67339V8.67927V8.6852V8.69116V8.69715V8.70318V8.70925V8.71535V8.72148V8.72765V8.73385V8.74009V8.74636V8.75267V8.75901V8.76538V8.77178V8.77822V8.78469V8.7912V8.79773V8.8043V8.81091V8.81754V8.82421V8.8309V8.83763V8.84439V8.85118V8.85801V8.86486V8.87175V8.87866V8.88561V8.89258V8.89959V8.90662V8.91369V8.92078V8.92791V8.93506V8.94224V8.94945V8.95669V8.96396V8.97126V8.97858V8.98594V8.99332V9.00073V9.00816V9.01563V9.02312V9.03063V9.03818V9.04575V9.05335V9.06097V9.06862V9.0763V9.084V9.09173V9.09948V9.10726V9.11506V9.12289V9.13074V9.13862V9.14652V9.15445V9.1624V9.17037V9.17837V9.18639V9.19443V9.2025V9.21059V9.21871V9.22684V9.235V9.24319V9.25139V9.25961V9.26786V9.27613V9.28442V9.29274V9.30107V9.30942V9.3178V9.3262V9.33461V9.34305V9.35151V9.35998V9.36848V9.377V9.38553V9.39409V9.40266V9.41126V9.41987V9.4285V9.43715V9.44582V9.4545V9.46321V9.47193V9.48067V9.48942V9.4982V9.50699V9.5158V9.52462V9.53346V9.54232V9.5512V9.56009V9.56899V9.57791V9.58685V9.5958V9.60477V9.61375V9.62275V9.63176V9.64079V9.64983V9.65889V9.66796V9.67704V9.68614V9.69525V9.70437V9.71351V9.72266V9.73182V9.741V9.75019V9.75939V9.7686V9.77783V9.78706V9.79631V9.80557V9.81484V9.82412V9.83342V9.84272V9.85203V9.86136V9.87069V9.88004V9.88939V9.89876V9.90813V9.91752V9.92691V9.93631V9.94573V9.95514V9.96457V9.97401V9.98346V9.99291V10.0024V10.0118V10.0213V10.0308V10.0403V10.0498V10.0593V10.0688V10.0783V10.0878V10.0974V10.1069V10.1165V10.126V10.1356V10.1451V10.1547V10.1643V10.1738V10.1834V10.193V10.2026V10.2122V10.2218V10.2314V10.241V10.2506V10.2602V10.2698V10.2794V10.289V10.2987V10.3083V10.3179V10.3275V10.3372V10.3468V10.3564V10.3661V10.3757V10.3853V10.395V10.4046V10.4142V10.4239V10.4335V10.4432V10.4528V10.4624V10.4721V10.4817V10.4914V10.501V10.5106V10.5203V10.5299V10.5395V10.5492V10.5588V10.5684V10.578V10.5877V10.5973V10.6069V10.6165V10.6261V10.6357V10.6453V10.6549V10.6645V10.6741V10.6837V10.6933V10.7028V10.7124V10.722V10.7315V10.7411V10.7507V10.7602V10.7697V10.7793V10.7888V10.7983V10.8078V10.8173V10.8269V10.8363V10.8458V10.8553V10.8648V10.8743V10.8837V10.8932V10.9026V10.912V10.9215V10.9309V10.9403V10.9497V10.9591V10.9685V10.9778V10.9872V10.9965V11.0059V11.0152V11.0245V11.0338V11.0431V11.0524V11.0617V11.071V11.0802V11.0895V11.0987V11.1079V11.1171V11.1263V11.1355V11.1447V11.1538V11.163V11.1721V11.1812V11.1903V11.1994V11.2085V11.2176V11.2266V11.2357V11.2447V11.2537V11.2627V11.2717V11.2806V11.2896V11.2985V11.3074V11.3163V11.3252V11.3341V11.3429V11.3517V11.3606V11.3694V11.3782V11.3869V11.3957V11.4044V11.4131V11.4218V11.4305V11.4392V11.4478V11.4564V11.465V11.4736V11.4822V11.4907V11.4993V11.5078V11.5162V11.5247V11.5332V11.5416V11.55V11.5584V11.5668V11.5751V11.5834V11.5917V11.6V11.6083V11.6165V11.6247V11.6329V11.6411V11.6493V11.6574V11.6655V11.6736V11.6816V11.6897V11.6977V11.7057V11.7136V11.7216V11.7295V11.7374V11.7452V11.7531V11.7609V11.7687V11.7765V11.7842V11.7919V11.7996V11.8073V11.8149V11.8225V11.828C17.7466 11.8295 17.7433 11.831 17.7399 11.8326C17.6231 11.8858 17.4375 11.9328 17.2274 11.9452C17.0171 11.9575 16.8244 11.9326 16.6852 11.8788C16.5513 11.827 16.5052 11.7661 16.4868 11.7164C16.2244 11.0041 15.7521 9.8226 14.5844 9.07836C14.3159 8.90723 13.8842 8.77728 13.4355 8.68308C12.9663 8.58458 12.4098 8.51161 11.8461 8.48365C11.284 8.45577 10.6987 8.47182 10.1763 8.55896C9.66911 8.64357 9.151 8.80624 8.79033 9.12572C8.48403 9.39705 8.3205 9.82486 8.22181 10.2033C8.11747 10.6035 8.06035 11.053 8.02879 11.4628C7.997 11.8757 7.99 12.2644 7.99081 12.5488C7.99122 12.6914 7.99359 12.8088 7.99589 12.8911C7.99705 12.9322 7.99818 12.9647 7.99904 12.9872L8 13.0109V14.9059V16.8339C7.89345 16.9177 7.74374 17.041 7.63331 17.1601C7.44274 17.3657 7.36802 17.4121 7.28253 17.4407C7.16259 17.4808 6.97108 17.5 6.5 17.5H5.5266C4.16787 17.5 2.97422 17.0811 2.12694 16.3247C1.2869 15.5748 0.749756 14.4607 0.749756 12.9845V5.01551C0.749756 3.53933 1.2869 2.42517 2.12694 1.67528C2.97422 0.918915 4.16787 0.5 5.5266 0.5H9.54344C9.81259 0.5 9.99081 0.704973 9.99081 0.90045V3.50275C9.99081 5.94559 12.0578 7.87469 14.5645 7.87469H17.3024C17.5715 7.87469 17.7498 8.07966 17.7498 8.27517Z" fill="#F77E21" stroke="#F77E21"/><path d="M9.5 11C9.5 10.4477 9.94772 10 10.5 10H12.2266C12.7856 10 13.266 10.0751 13.6677 10.2252C14.0727 10.3754 14.384 10.5976 14.6016 10.8919C14.8192 11.1862 14.928 11.548 14.928 11.9775C14.928 12.3288 14.8611 12.6306 14.7271 12.8829C14.5966 13.1321 14.4108 13.3408 14.1698 13.509C13.949 13.6624 13.6921 13.7874 13.399 13.8838C13.354 13.8986 13.3097 13.9155 13.2669 13.9357L13.057 14.0349C12.9235 14.0979 12.7776 14.1306 12.63 14.1306H11.0062C10.7171 14.1306 10.482 13.8977 10.4792 13.6086C10.4764 13.3156 10.7132 13.0765 11.0062 13.0765H12.2366C12.5011 13.0765 12.7203 13.0345 12.8944 12.9504C13.0685 12.8663 13.199 12.7492 13.286 12.5991C13.3764 12.4489 13.4216 12.2748 13.4216 12.0766C13.4216 11.8663 13.3781 11.6847 13.2911 11.5315C13.204 11.3784 13.0718 11.2612 12.8944 11.1802C12.717 11.0991 12.4944 11.0585 12.2266 11.0585H12.0064C11.4541 11.0585 11.0064 11.5063 11.0064 12.0585V15.8053C11.0064 16.2213 10.6692 16.5585 10.2532 16.5585C9.83722 16.5585 9.5 16.2213 9.5 15.8053V11ZM14.1682 16.5585C13.8091 16.5585 13.4775 16.3659 13.2996 16.0539L12.2821 14.2696C12.0839 13.922 12.2115 13.4793 12.5644 13.2906C12.9032 13.1093 13.3248 13.2302 13.5162 13.5636L15.1925 16.4839C15.1969 16.4915 15.1992 16.5 15.1992 16.5087C15.1992 16.5362 15.1769 16.5585 15.1494 16.5585H14.1682Z" fill="#F77E21"/><path d="M15.5754 13.4414C15.7445 13.4414 15.9021 13.5269 15.9944 13.6686L16.917 15.086C17.1142 15.3889 17.5579 15.3889 17.7551 15.086L18.6777 13.6686C18.77 13.5269 18.9276 13.4414 19.0968 13.4414H19.7244C20.13 13.4414 20.3668 13.8989 20.1327 14.2301L18.5958 16.4036C18.473 16.5773 18.4735 16.8096 18.597 16.9827L20.186 19.2095C20.4222 19.5404 20.1856 19.9999 19.7791 19.9999H19.1389C18.9705 19.9999 18.8134 19.9152 18.721 19.7745L17.7539 18.3026C17.5564 18.002 17.1157 18.002 16.9182 18.3026L15.9511 19.7745C15.8587 19.9152 15.7016 19.9999 15.5332 19.9999H14.8835C14.4767 19.9999 14.2401 19.5399 14.4768 19.209L16.0689 16.9832C16.1928 16.8099 16.1933 16.577 16.0701 16.4032L14.5302 14.2305C14.2955 13.8994 14.5323 13.4414 14.9382 13.4414H15.5754Z" fill="#F77E21"/></svg>