<svg width="25" height="24" viewBox="0 0 25 24" fill="none" xmlns="http://www.w3.org/2000/svg"><path d="M3.50293 7.43994L12.3329 12.5499L21.1029 7.46991" stroke="#F77E21" stroke-width="1.5" stroke-linecap="round" stroke-linejoin="round"/><path d="M12.333 21.61V12.54" stroke="#F77E21" stroke-width="1.5" stroke-linecap="round" stroke-linejoin="round"/><path d="M10.2626 2.48L4.92264 5.45003C3.71264 6.12003 2.72266 7.80001 2.72266 9.18001V14.83C2.72266 16.21 3.71264 17.89 4.92264 18.56L10.2626 21.53C11.4026 22.16 13.2726 22.16 14.4126 21.53L19.7527 18.56C20.9627 17.89 21.9526 16.21 21.9526 14.83V9.18001C21.9526 7.80001 20.9627 6.12003 19.7527 5.45003L14.4126 2.48C13.2626 1.84 11.4026 1.84 10.2626 2.48Z" stroke="#F77E21" stroke-width="1.5" stroke-linecap="round" stroke-linejoin="round"/><path d="M17.3328 13.2401V9.58014L7.84277 4.1001" stroke="#F77E21" stroke-width="1.5" stroke-linecap="round" stroke-linejoin="round"/></svg>