<svg width="412" height="112" viewBox="0 0 412 112" fill="none" xmlns="http://www.w3.org/2000/svg"><path d="M277.879 56.728C216.662 55.1275 228.201 42.3658 160.574 41.3458C97.4716 40.394 0 70.1913 0 70.1913L0.000939515 111.5H411.85V0C411.85 0 405.931 0.693363 402.235 1.60285C361.851 11.5388 339.095 58.3284 277.879 56.728Z" fill="white" fill-opacity="0.1"/><path d="M411.849 27.9863C412.188 26.6077 411.849 25.6851 411.849 25.6851V27.9863C410.883 31.9136 404.411 39.541 368.905 40.0765C317.524 40.8515 313.475 24.9891 252.879 24.999C184.932 25.0102 173.714 56.4924 121.792 61.5504C64.4216 67.1392 0.00012207 25.9474 0.00012207 25.9474V106.5H411.849V27.9863Z" fill="white" fill-opacity="0.1"/></svg>