<svg width="16" height="16" viewBox="0 0 16 16" fill="none" xmlns="http://www.w3.org/2000/svg"><path d="M8.47523 4.66659V1.33325H6.09428C5.7154 1.33325 5.35204 1.48376 5.08413 1.75167C4.81622 2.01958 4.66571 2.38294 4.66571 2.76182V11.3333C4.66571 11.7121 4.81622 12.0755 5.08413 12.3434C5.35204 12.6113 5.7154 12.7618 6.09428 12.7618H11.8095C12.1884 12.7618 12.5518 12.6113 12.8197 12.3434C13.0876 12.0755 13.2381 11.7121 13.2381 11.3333V6.09516H9.90285C9.52397 6.09516 9.16061 5.94465 8.8927 5.67674C8.62479 5.40883 8.47428 5.04547 8.47428 4.66659H8.47523Z" fill="#0194F3"/><path d="M9.42767 4.66665V1.57141L12.9991 5.14284H9.90386C9.77757 5.14284 9.65645 5.09267 9.56715 5.00337C9.47784 4.91406 9.42767 4.79294 9.42767 4.66665Z" fill="#0194F3"/><path d="M2.7619 4.19054C2.7619 3.93795 2.86224 3.69571 3.04085 3.51711C3.21945 3.3385 3.4617 3.23816 3.71428 3.23816V11.3334C3.71428 11.9649 3.96513 12.5705 4.41165 13.017C4.85816 13.4635 5.46377 13.7143 6.09523 13.7143H11.3333C11.3333 13.9669 11.233 14.2092 11.0544 14.3878C10.8758 14.5664 10.6335 14.6667 10.3809 14.6667H6.14857C5.25037 14.6667 4.38896 14.3099 3.75383 13.6748C3.11871 13.0397 2.7619 12.1783 2.7619 11.2801V4.19054Z" fill="#0194F3"/></svg>