<svg width="40" height="40" viewBox="0 0 40 40" fill="none" xmlns="http://www.w3.org/2000/svg"><path d="M20 2.5V11.25C20 12.2446 20.3951 13.1984 21.0984 13.9017C21.8016 14.6049 22.7554 15 23.75 15H32.5V33.75C32.5 34.7446 32.1049 35.6984 31.4017 36.4016C30.6984 37.1049 29.7446 37.5 28.75 37.5H11.25C10.2554 37.5 9.30161 37.1049 8.59835 36.4016C7.89509 35.6984 7.5 34.7446 7.5 33.75V6.25C7.5 5.25544 7.89509 4.30161 8.59835 3.59835C9.30161 2.89509 10.2554 2.5 11.25 2.5H20Z" fill="#4BC8B0"/><path d="M22.5 3.125V11.25C22.5 11.5815 22.6317 11.8995 22.8661 12.1339C23.1005 12.3683 23.4185 12.5 23.75 12.5H31.875L22.5 3.125Z" fill="#4BC8B0"/><path d="M12.852 29V20.996H16.752C17.656 20.996 18.364 21.208 18.876 21.632C19.388 22.048 19.644 22.68 19.644 23.528C19.644 23.864 19.58 24.192 19.452 24.512C19.332 24.824 19.148 25.104 18.9 25.352C18.66 25.592 18.36 25.764 18 25.868L20.052 29H17.58L15.996 26.24H14.796V29H12.852ZM14.796 24.812H16.428C16.772 24.812 17.044 24.72 17.244 24.536C17.444 24.352 17.544 24.048 17.544 23.624C17.544 23.256 17.456 22.976 17.28 22.784C17.104 22.592 16.848 22.496 16.512 22.496H14.796V24.812ZM27.2998 29H25.1878L23.9038 27.2L22.6678 29H20.7838L23.0638 26.024L20.8438 22.928H22.9558L24.2518 24.752L25.4998 22.928H27.3958L25.1038 25.928L27.2998 29Z" fill="white"/></svg>