<svg width="16" height="16" viewBox="0 0 16 16" fill="none" xmlns="http://www.w3.org/2000/svg"><path d="M8.94737 2.94737C8.94737 2.69611 8.84756 2.45514 8.66989 2.27748C8.49222 2.09981 8.25126 2 8 2C7.74874 2 7.50778 2.09981 7.33011 2.27748C7.15244 2.45514 7.05263 2.69611 7.05263 2.94737V7.05263H2.94737C2.69611 7.05263 2.45514 7.15244 2.27748 7.33011C2.09981 7.50778 2 7.74874 2 8C2 8.25126 2.09981 8.49222 2.27748 8.66989C2.45514 8.84756 2.69611 8.94737 2.94737 8.94737H7.05263V13.0526C7.05263 13.3039 7.15244 13.5449 7.33011 13.7225C7.50778 13.9002 7.74874 14 8 14C8.25126 14 8.49222 13.9002 8.66989 13.7225C8.84756 13.5449 8.94737 13.3039 8.94737 13.0526V8.94737H13.0526C13.3039 8.94737 13.5449 8.84756 13.7225 8.66989C13.9002 8.49222 14 8.25126 14 8C14 7.74874 13.9002 7.50778 13.7225 7.33011C13.5449 7.15244 13.3039 7.05263 13.0526 7.05263H8.94737V2.94737Z" fill="#0194F3"/></svg>