<svg xmlns="http://www.w3.org/2000/svg" width="381" height="143" fill="none"><g clip-path="url(#a)"><rect width="380" height="143" x=".156" fill="#fff" rx="8"/><path fill="#333537" d="M28.816 58.62V63h-3.24V49.66h6c1.56 0 2.787.353 3.68 1.06.894.707 1.34 1.8 1.34 3.28 0 1.48-.446 2.62-1.34 3.42-.893.8-2.12 1.2-3.68 1.2h-2.76Zm0-2.5h2.36c.347 0 .64-.047.88-.14a1.4 1.4 0 0 0 .6-.4 1.63 1.63 0 0 0 .32-.6c.08-.24.12-.493.12-.76 0-.32-.04-.6-.12-.84a1.808 1.808 0 0 0-.32-.64 1.323 1.323 0 0 0-.6-.42 2.437 2.437 0 0 0-.88-.14h-2.36v3.94Zm14.722 7.18c-1.014 0-1.914-.207-2.7-.62a4.633 4.633 0 0 1-1.82-1.8c-.427-.787-.64-1.72-.64-2.8 0-1.76.433-3.12 1.3-4.08.88-.973 2.133-1.46 3.76-1.46 1.12 0 2.02.24 2.7.72.693.48 1.2 1.18 1.52 2.1.32.92.473 2.04.46 3.36h-7.7l-.32-1.9h5.56l-.44.94c-.014-1.08-.167-1.84-.46-2.28-.294-.44-.774-.66-1.44-.66-.374 0-.714.093-1.02.28-.294.187-.527.5-.7.94-.16.427-.24 1.02-.24 1.78 0 .96.226 1.7.68 2.22.466.52 1.206.78 2.22.78.373 0 .74-.04 1.1-.12.373-.093.72-.2 1.04-.32.32-.12.593-.227.82-.32v2.56c-.48.2-1.02.36-1.62.48-.587.133-1.274.2-2.06.2Zm6.85-9.56a6.445 6.445 0 0 1 1-.4 11.06 11.06 0 0 1 1.36-.38c.493-.107.987-.193 1.48-.26.507-.067.973-.1 1.4-.1.907 0 1.68.12 2.32.36.64.227 1.127.6 1.46 1.12.347.52.52 1.227.52 2.12V63h-2.98v-6.2c0-.253-.04-.487-.12-.7a1.298 1.298 0 0 0-.32-.54 1.341 1.341 0 0 0-.6-.36 2.672 2.672 0 0 0-.92-.14c-.307 0-.613.04-.92.12-.307.067-.54.14-.7.22V63h-2.98v-9.26Zm16.268 9.56c-.92-.053-1.714-.267-2.38-.64-.654-.373-1.167-.92-1.54-1.64-.36-.733-.54-1.653-.54-2.76 0-1.12.14-2.047.42-2.78.28-.747.666-1.327 1.16-1.74.506-.413 1.113-.707 1.82-.88a9.917 9.917 0 0 1 2.36-.26c.84 0 1.573.107 2.2.32.626.213 1.113.52 1.46.92.346.4.52.893.52 1.48v7.8c0 .707-.114 1.327-.34 1.86a3.34 3.34 0 0 1-1.02 1.36c-.44.373-.98.653-1.62.84-.627.187-1.354.28-2.18.28-.894 0-1.66-.067-2.3-.2-.627-.12-1.107-.273-1.44-.46v-2.62c.2.08.493.187.88.32.386.133.82.24 1.3.32.48.093.96.14 1.44.14.626 0 1.106-.087 1.44-.26.346-.173.586-.407.72-.7.133-.293.2-.627.2-1v-1.64l.58.42a3.612 3.612 0 0 1-.76.8c-.294.227-.64.4-1.04.52-.387.133-.834.2-1.34.2Zm.76-2.24c.346 0 .666-.033.96-.1.293-.08.573-.193.84-.34v-4.64c0-.28-.08-.493-.24-.64a1.278 1.278 0 0 0-.6-.3 3.498 3.498 0 0 0-.76-.08c-.614 0-1.1.133-1.46.4-.347.267-.6.64-.76 1.12-.147.467-.22 1-.22 1.6 0 .92.206 1.647.62 2.18.413.533.953.8 1.62.8ZM74.89 63v-9.98h2.98l.02 9.98h-3Zm-.06-11.5v-2.3h3.08v2.3h-3.08ZM80.754 63v-9.06c.186-.16.52-.34 1-.54.48-.213 1.026-.4 1.64-.56a7.026 7.026 0 0 1 1.88-.26c.626 0 1.12.047 1.48.14.36.093.633.213.82.36v2.18a5.805 5.805 0 0 0-.86-.12c-.347-.027-.707-.04-1.08-.04a14.074 14.074 0 0 0-1.06 0c-.334.013-.614.04-.84.08V63h-2.98Zm8.814 0v-9.98h2.98l.02 9.98h-3Zm-.06-11.5v-2.3h3.08v2.3h-3.08Zm15.323 4.7V63h-2.98v-6.2c0-.253-.04-.487-.12-.7a1.345 1.345 0 0 0-.92-.9 2.67 2.67 0 0 0-.92-.14c-.307 0-.593.04-.86.12-.253.067-.46.14-.62.22V63h-2.98v-9.26a6.453 6.453 0 0 1 1-.4 11.07 11.07 0 0 1 1.36-.38 19.12 19.12 0 0 1 1.48-.26c.507-.067.973-.1 1.4-.1.907 0 1.667.12 2.28.36.627.227 1.093.6 1.4 1.12.32.52.48 1.227.48 2.12Zm-3.06-1.78c.413-.36.913-.673 1.5-.94a8.77 8.77 0 0 1 1.86-.64 7.68 7.68 0 0 1 1.82-.24c.907 0 1.667.12 2.28.36.627.227 1.093.6 1.4 1.12.32.52.48 1.227.48 2.12V63h-2.98v-6.2c0-.253-.04-.487-.12-.7a1.345 1.345 0 0 0-.92-.9 2.67 2.67 0 0 0-.92-.14c-.307 0-.593.047-.86.14-.253.08-.46.187-.62.32l-2.92-1.1Zm16.08 8.88c-.613 0-1.193-.06-1.74-.18a4.32 4.32 0 0 1-1.42-.54c-.4-.267-.713-.62-.94-1.06-.226-.453-.34-1.013-.34-1.68 0-.627.127-1.173.38-1.64.267-.467.667-.827 1.2-1.08.534-.253 1.207-.38 2.02-.38.454 0 .894.047 1.32.14.427.093.807.22 1.14.38.347.16.62.333.82.52l.12 1.44a3.5 3.5 0 0 0-.96-.38 4.933 4.933 0 0 0-1.2-.14c-.653 0-1.133.1-1.44.3-.293.187-.44.487-.44.9 0 .253.074.48.22.68.147.2.34.353.58.46.254.107.514.16.78.16.68 0 1.154-.047 1.42-.14.28-.093.42-.28.42-.56v-3.72c0-.613-.2-1.053-.6-1.32-.386-.28-.94-.42-1.66-.42-.586 0-1.18.107-1.78.32-.586.2-1.066.447-1.44.74v-2.64c.347-.213.88-.413 1.6-.6.734-.187 1.554-.28 2.46-.28.32 0 .674.027 1.06.08.387.053.774.153 1.16.3.387.133.74.333 1.06.6.334.267.6.607.8 1.02.2.413.3.927.3 1.54l-.02 4.78c0 .573-.193 1.04-.58 1.4-.386.347-.946.6-1.68.76-.72.16-1.593.24-2.62.24Zm7.746-9.56a6.408 6.408 0 0 1 1-.4c.413-.147.866-.273 1.36-.38.493-.107.986-.193 1.48-.26.506-.067.973-.1 1.4-.1.906 0 1.68.12 2.32.36.64.227 1.126.6 1.46 1.12.346.52.52 1.227.52 2.12V63h-2.98v-6.2c0-.253-.04-.487-.12-.7a1.345 1.345 0 0 0-.92-.9 2.674 2.674 0 0 0-.92-.14c-.307 0-.614.04-.92.12-.307.067-.54.14-.7.22V63h-2.98v-9.26ZM146.911 59l-1.1-2.06 5.32-7.28h4.08l-8.3 9.34Zm-3.1 4V49.66h3.24V63h-3.24Zm6-8.26 5.82 8.26h-4.06l-4.26-6.18 2.5-2.08Zm12.274 8.56c-1.013 0-1.913-.207-2.7-.62a4.635 4.635 0 0 1-1.82-1.8c-.427-.787-.64-1.72-.64-2.8 0-1.76.433-3.12 1.3-4.08.88-.973 2.133-1.46 3.76-1.46 1.12 0 2.02.24 2.7.72.693.48 1.2 1.18 1.52 2.1.32.92.473 2.04.46 3.36h-7.7l-.32-1.9h5.56l-.44.94c-.013-1.08-.167-1.84-.46-2.28-.293-.44-.773-.66-1.44-.66-.373 0-.713.093-1.02.28-.293.187-.527.5-.7.94-.16.427-.24 1.02-.24 1.78 0 .96.227 1.7.68 2.22.467.52 1.207.78 2.22.78.373 0 .74-.04 1.1-.12a9.6 9.6 0 0 0 1.04-.32c.32-.12.593-.227.82-.32v2.56c-.48.2-1.02.36-1.62.48-.587.133-1.273.2-2.06.2ZM30.056 91.28a15.3 15.3 0 0 1-1.84-.1 9.902 9.902 0 0 1-1.52-.3 8.403 8.403 0 0 1-1.36-.52v-3.08a6.53 6.53 0 0 0 2.08 1.12c.774.253 1.507.38 2.2.38.614 0 1.08-.113 1.4-.34.334-.24.5-.6.5-1.08 0-.36-.153-.647-.46-.86-.293-.227-.686-.42-1.18-.58-.493-.173-1.046-.367-1.66-.58a7.545 7.545 0 0 1-1.14-.46 4.081 4.081 0 0 1-1-.7 3.263 3.263 0 0 1-.7-1.06c-.173-.413-.26-.92-.26-1.52 0-.547.1-1.073.3-1.58.2-.507.507-.96.92-1.36.427-.4.967-.713 1.62-.94.654-.24 1.42-.36 2.3-.36a9.14 9.14 0 0 1 1.44.1c.427.067.834.167 1.22.3.387.12.78.28 1.18.48v3.12a6.744 6.744 0 0 0-1.04-.7 6.379 6.379 0 0 0-1.18-.56 4.234 4.234 0 0 0-1.3-.24c-.4-.013-.766.027-1.1.12-.333.093-.593.247-.78.46-.186.2-.28.46-.28.78 0 .373.114.667.34.88.227.213.54.393.94.54.4.133.847.28 1.34.44.547.16 1.047.34 1.5.54.467.187.874.427 1.22.72.347.293.614.653.8 1.08.187.427.28.94.28 1.54 0 .8-.186 1.533-.56 2.2-.373.653-.913 1.173-1.62 1.56-.706.373-1.573.56-2.6.56Zm11.743.02c-1.013 0-1.913-.207-2.7-.62a4.633 4.633 0 0 1-1.82-1.8c-.426-.787-.64-1.72-.64-2.8 0-1.76.434-3.12 1.3-4.08.88-.973 2.134-1.46 3.76-1.46 1.12 0 2.02.24 2.7.72.694.48 1.2 1.18 1.52 2.1.32.92.474 2.04.46 3.36h-7.7l-.32-1.9h5.56l-.44.94c-.013-1.08-.166-1.84-.46-2.28-.293-.44-.773-.66-1.44-.66-.373 0-.713.093-1.02.28-.293.187-.526.5-.7.94-.16.427-.24 1.02-.24 1.78 0 .96.227 1.7.68 2.22.467.52 1.207.78 2.22.78.374 0 .74-.04 1.1-.12.374-.093.72-.2 1.04-.32.32-.12.594-.227.82-.32v2.56c-.48.2-1.02.36-1.62.48-.586.133-1.273.2-2.06.2Zm9.81-.3h-2.96V77.06h2.96V91Zm7.606.3c-.933 0-1.76-.147-2.48-.44-.72-.293-1.28-.74-1.68-1.34-.4-.613-.6-1.407-.6-2.38v-6.26h2.98v6.02c0 .64.14 1.12.42 1.44.294.307.754.46 1.38.46.64 0 1.1-.153 1.38-.46.28-.32.42-.8.42-1.44v-6.02h2.8v6.26c0 1.44-.413 2.493-1.24 3.16-.826.667-1.953 1-3.38 1Zm7.452-.3v-9.06c.186-.16.52-.34 1-.54.48-.213 1.026-.4 1.64-.56a7.025 7.025 0 0 1 1.88-.26c.627 0 1.12.047 1.48.14.36.093.633.213.82.36v2.18a5.807 5.807 0 0 0-.86-.12c-.347-.027-.707-.04-1.08-.04a14.074 14.074 0 0 0-1.06 0c-.334.013-.613.04-.84.08V91h-2.98Zm13.515.3c-.934 0-1.76-.147-2.48-.44-.72-.293-1.28-.74-1.68-1.34-.4-.613-.6-1.407-.6-2.38v-6.26h2.98v6.02c0 .64.14 1.12.42 1.44.293.307.753.46 1.38.46.64 0 1.1-.153 1.38-.46.28-.32.42-.8.42-1.44v-6.02h2.8v6.26c0 1.44-.414 2.493-1.24 3.16-.827.667-1.954 1-3.38 1Zm7.451-.3V76.88h3v6l-1.26-.68a6.617 6.617 0 0 1 1.88-1.14 5.757 5.757 0 0 1 2.24-.46c.734 0 1.38.12 1.94.36s.994.633 1.3 1.18c.32.533.48 1.273.48 2.22V91h-2.98v-6.02c0-.667-.166-1.147-.5-1.44-.32-.307-.793-.46-1.42-.46-.32 0-.64.047-.96.14-.306.08-.546.187-.72.32l-.04 7.46h-2.96Zm18.254 0V77.66h3.24V91h-3.24Zm6.174-9.26a6.49 6.49 0 0 1 1-.4c.414-.147.867-.273 1.36-.38.494-.107.987-.193 1.48-.26.507-.067.974-.1 1.4-.1.907 0 1.68.12 2.32.36.64.227 1.127.6 1.46 1.12.347.52.52 1.227.52 2.12V91h-2.98v-6.2c0-.253-.04-.487-.12-.7a1.286 1.286 0 0 0-.32-.54 1.334 1.334 0 0 0-.6-.36 2.67 2.67 0 0 0-.92-.14c-.306 0-.613.04-.92.12-.306.067-.54.14-.7.22V91h-2.98v-9.26Zm17.228 9.56a8.65 8.65 0 0 1-2.18-.26 4.366 4.366 0 0 1-1.7-.86c-.48-.413-.86-.973-1.14-1.68-.267-.707-.4-1.587-.4-2.64 0-1.64.4-2.933 1.2-3.88.813-.947 2.027-1.42 3.64-1.42.213 0 .493.02.84.06a4.16 4.16 0 0 1 1.08.24c.373.133.707.36 1 .68l-.6.92v-5.74h2.96v11.64c0 .493-.133.927-.4 1.3-.267.36-.627.66-1.08.9-.44.24-.94.42-1.5.54a7.4 7.4 0 0 1-1.72.2Zm.12-2.5c.48 0 .867-.06 1.16-.18.307-.133.46-.327.46-.58v-4.66c-.24-.133-.5-.233-.78-.3a2.711 2.711 0 0 0-.78-.12c-.56 0-1.033.093-1.42.28-.387.187-.68.5-.88.94-.187.44-.28 1.033-.28 1.78 0 .587.08 1.093.24 1.52.16.413.42.74.78.98.373.227.873.34 1.5.34Zm11.987 2.5c-1.706 0-2.993-.453-3.86-1.36-.853-.92-1.28-2.267-1.28-4.04 0-1.907.434-3.273 1.3-4.1.88-.84 2.16-1.26 3.84-1.26 1.134 0 2.08.193 2.84.58a3.668 3.668 0 0 1 1.74 1.74c.4.787.6 1.8.6 3.04 0 1.773-.446 3.12-1.34 4.04-.893.907-2.173 1.36-3.84 1.36Zm0-2.38c.494 0 .9-.113 1.22-.34.334-.24.58-.58.74-1.02.174-.453.26-1.007.26-1.66 0-.747-.086-1.333-.26-1.76-.16-.44-.406-.753-.74-.94-.333-.2-.74-.3-1.22-.3-.506 0-.92.1-1.24.3-.32.2-.56.52-.72.96-.146.427-.22 1.007-.22 1.74 0 1.013.174 1.773.52 2.28.36.493.914.74 1.66.74Zm7.437-7.18a6.49 6.49 0 0 1 1-.4c.414-.147.867-.273 1.36-.38.494-.107.987-.193 1.48-.26.507-.067.974-.1 1.4-.1.907 0 1.68.12 2.32.36.64.227 1.127.6 1.46 1.12.347.52.52 1.227.52 2.12V91h-2.98v-6.2c0-.253-.04-.487-.12-.7a1.286 1.286 0 0 0-.32-.54 1.334 1.334 0 0 0-.6-.36 2.67 2.67 0 0 0-.92-.14c-.306 0-.613.04-.92.12-.306.067-.54.14-.7.22V91h-2.98v-9.26Zm16.968 9.56c-1.014 0-1.914-.207-2.7-.62a4.628 4.628 0 0 1-1.82-1.8c-.427-.787-.64-1.72-.64-2.8 0-1.76.433-3.12 1.3-4.08.88-.973 2.133-1.46 3.76-1.46 1.12 0 2.02.24 2.7.72.693.48 1.2 1.18 1.52 2.1.32.92.473 2.04.46 3.36h-7.7l-.32-1.9h5.56l-.44.94c-.014-1.08-.167-1.84-.46-2.28-.294-.44-.774-.66-1.44-.66a1.92 1.92 0 0 0-1.02.28c-.294.187-.527.5-.7.94-.16.427-.24 1.02-.24 1.78 0 .96.226 1.7.68 2.22.466.52 1.206.78 2.22.78.373 0 .74-.04 1.1-.12a9.6 9.6 0 0 0 1.04-.32c.32-.12.593-.227.82-.32v2.56c-.48.2-1.02.36-1.62.48-.587.133-1.274.2-2.06.2Zm9.85 0c-.72 0-1.34-.08-1.86-.24a14.128 14.128 0 0 1-1.44-.5v-2.62c.28.187.594.38.94.58.347.187.727.34 1.14.46.427.12.874.18 1.34.18.48 0 .814-.08 1-.24.2-.173.3-.38.3-.62 0-.227-.1-.407-.3-.54-.2-.147-.46-.267-.78-.36-.32-.093-.66-.18-1.02-.26a5.315 5.315 0 0 1-.96-.3 3.16 3.16 0 0 1-.86-.58 2.834 2.834 0 0 1-.62-.88c-.146-.36-.22-.793-.22-1.3 0-.653.127-1.193.38-1.62.254-.44.587-.793 1-1.06.414-.267.86-.453 1.34-.56.48-.12.947-.173 1.4-.16.827.027 1.48.12 1.96.28.494.147.94.34 1.34.58v2.34a21.654 21.654 0 0 0-1.36-.7c-.44-.227-.946-.34-1.52-.34-.52 0-.893.08-1.12.24a.748.748 0 0 0-.34.64c0 .253.074.453.22.6.16.147.367.267.62.36.254.08.534.16.84.24.334.08.674.18 1.02.3.36.107.694.267 1 .48.32.2.574.487.76.86.2.36.3.84.3 1.44-.013.813-.233 1.467-.66 1.96-.426.48-.98.827-1.66 1.04-.666.2-1.393.3-2.18.3Zm6.909-.3v-9.98h2.98l.02 9.98h-3Zm-.06-11.5v-2.3h3.08v2.3h-3.08Zm9.822 11.8c-.613 0-1.193-.06-1.74-.18a4.32 4.32 0 0 1-1.42-.54c-.4-.267-.713-.62-.94-1.06-.226-.453-.34-1.013-.34-1.68 0-.627.127-1.173.38-1.64.267-.467.667-.827 1.2-1.08.534-.253 1.207-.38 2.02-.38.454 0 .894.047 1.32.14.427.093.807.22 1.14.38.347.16.62.333.82.52l.12 1.44a3.5 3.5 0 0 0-.96-.38 4.933 4.933 0 0 0-1.2-.14c-.653 0-1.133.1-1.44.3-.293.187-.44.487-.44.9 0 .253.074.48.22.68.147.2.34.353.58.46.254.107.514.16.78.16.68 0 1.154-.047 1.42-.14.28-.093.42-.28.42-.56v-3.72c0-.613-.2-1.053-.6-1.32-.386-.28-.94-.42-1.66-.42-.586 0-1.18.107-1.78.32-.586.2-1.066.447-1.44.74v-2.64c.347-.213.88-.413 1.6-.6.734-.187 1.554-.28 2.46-.28.32 0 .674.027 1.06.08.387.053.774.153 1.16.3.387.133.74.333 1.06.6.334.267.6.607.8 1.02.2.413.3.927.3 1.54l-.02 4.78c0 .573-.193 1.04-.58 1.4-.386.347-.946.6-1.68.76-.72.16-1.593.24-2.62.24Z"/><path fill="#fff" d="M216.897 107.505C170.132 117.156 128.156 143 128.156 143h224V1.022h-27.195s-32.92-1.5-53.674 20.496c-20.924 22.178-22.901 79.489-54.39 85.987Z"/><path fill="#FFE9D3" d="M216.897 107.505C170.132 117.156 128.156 143 128.156 143h224V1.022h-27.195s-32.92-1.5-53.674 20.496c-20.924 22.178-22.901 79.489-54.39 85.987Z"/><path fill="#fff" d="M254.559 107.505C211.134 117.156 172.156 143 172.156 143h208V1.022h-25.252s-30.569-1.5-49.84 20.496c-19.43 22.178-21.266 79.489-50.505 85.987Z"/><path fill="#FFCA96" d="M254.559 107.505C211.134 117.156 172.156 143 172.156 143h208V1.022h-25.252s-30.569-1.5-49.84 20.496c-19.43 22.178-21.266 79.489-50.505 85.987Z"/><g filter="url(#b)"><path fill="#3C81B6" d="M299.157 112.001c22.091 0 40-17.909 40-40 0-22.092-17.909-40.001-40-40.001-22.092 0-40.001 17.909-40.001 40 0 22.092 17.909 40.001 40.001 40.001Z"/><path fill="#4292CF" d="M299.156 109.535c20.729 0 37.533-16.804 37.533-37.533 0-20.73-16.804-37.533-37.533-37.533-20.729 0-37.533 16.804-37.533 37.533 0 20.729 16.804 37.533 37.533 37.533Z"/><path fill="#F69331" d="m299.329 42.418.229 2.343-.556 1.316-1.232 1.381-.268 1.026.611 1.412.993.481-1.174.903s.421.537-.979.2l-1.4-.336-1.816-.296-.52.577-.492.889-1.948.505-.351.77.451 3.004s-.039.688-1.475.512l-1.434-.174-.512-.949.299-1.238-.973-1.903.112-1.011.868-1.87s1.284.769 1.174-.903c-.11-1.672-.291-2.442-.291-2.442l-.908-1.226-.823.711-1.212-.566-.246-1.447.189-.755s-1.685-.572-1.766-.301c-.081.27-.904.981-.904.981l-1.181-.252-.958-1.746-.265-.553 2.09-.678 1.002 1.112 1.039-1.257h-.526s-1.416-2.122 1.799-.964c3.216 1.158 3.292.36 3.212 1.154l-.08.796.643.673 2.315.563 3.995-.546 3.269.104ZM275.363 80.106l-1.974.779-2.172-.717-.364-1.235-.9-.208-.824.08-.256-1.636-.173-.762-1.337-2.657 2.182.862 1.713 2.033-.051.982-.282.614.231.369.831.016-.07-.727.947.2.293 1s2.799.119 2.206 1.007Z"/><path fill="url(#c)" d="M316.413 40.625h-.006s-.009.01.006 0Z"/><path fill="url(#d)" d="m317.957 46.77-.027-.028s.01.024.027.028Z"/><path fill="url(#e)" d="m317.054 91.776-.029-.018c-.101.035.029.019.029.019Z"/><path fill="url(#f)" d="m285.532 45.977.032.24a.353.353 0 0 0-.032-.24Z"/><path fill="url(#g)" d="m282.784 95.65.01-.017s-.027.005-.01.016Z"/><path fill="#F69331" d="M327.61 68.933c.022.019.05.03.079.035.03.003.06-.001.087-.013l-.057.429.935-1.512 1.977 1.275 2.736 1.575.255 1.125 1.224.935 1.063-.662.028-1.709.673-.796a37.582 37.582 0 0 0-.831-5.83c-.582-.147-.51.19-.623-.361l-.147-.685s-.104-.98-.118-1.312c-.015-.331-.203.032-.203.032l-.603 1.755-.831-.288-.104-.69s-.41.312-.208-.509c.202-.82-.219-.34.208-.821l.425-.481s.266-.706.132-1.31l-.134-.602.486-.355c-5.27-13.266-17.881-22.816-32.818-23.635l-.073.28s-1.438.929-.4 1.185c1.038.257-.527.081 1.039.256 1.236.139 1.328.09 1.312.063l.886.727.134 1.143s-1.186.39 1.203-.019c2.39-.409.488-1.155 2.147-.37 1.659.784 2.33-1.065 1.723.4-.415 1.01-.519 1.22-.549 1.255l.56.451 2.218-.174 1.304.381-2.439.623-.047.506 1.471 1.728s.844-.462.208.8-.605-.157-.547 1.039c.041.843-.028.96-.073.956l.997.727.262 1.164-.659.85-1.414.259.244-1.662-.126-.813.113-.89-.815.375-.916.805-.612.884-.346.178-1.778-.475-.466-.339-.52-.168-.135 1.018.475 1.465.627 1.983s-.175 2.106-.588 2.668l-.415.562-.503 1.325.193 1.259.755.59 1.106.163.656-1.143 1.437.154.612.737.756 1.13 1.006.055.406-1.143-1.38-.868s-1.206-.273-.434-.936c.772-.662 2.242-.01.771-.658l-1.471-.647-.537-.25.241-1.41.7-.854.803.084-.182.983 1.174.61 1.756-.23.338 1.112-.416 2.144-1.31.412.381.856s1.369-.293-.144.688c-1.513.98.208-.572-1.351.705-1.558 1.277-1.379 1.003-1.379 1.003l-1.272 1.192-.598 1.506-.987-.472-1.281.861-1.039-.797-.318-2.07s.898-1.468-.087-.568-.712-.307-.984.898.181.098-.263.996c-.443.9.375.816-.443.9l-.819.084-.415.562-.701 2.478s1.115 1.034 1.984.193l.868-.84 1.368-.293.291 1.078.337 1.112.896.154s3.552-1.502 1.039.546.391 1.187.391 1.187l-1.094.46-1.809.402-.946 2.224s-1.455-1.066.021.953c1.475 2.018.669 1.642 1.474 2.018l.806.374.962-.23 1.282-.323 1.192.192.312-1.463s.338.032.529-1.162c.191-1.193.777-.078.19-1.192-.587-1.115-1.112-.208-.587-1.116l.526-.912 1.027-.615.632-.762.478-.946 1.058-.416 1.039-.243 1.155 1.028 1.177.36s.624-1.385 1.182-.431c.381.645.486.74.514.737l-.486 1.337-.935.683.127.563.669.022.925.066.156-1.143.208-1.35.748-.541-.587-1.116-.659-.77-1.237.064-1.846.159-1.012-.634 1.89-.415 2.077.262 1.271.97.824 1.2 1.753.324.312 1.19s1.454-.246.667-1.34c-.788-1.094.152-.24-.634-.951-.785-.711-.754-.508-.754-.508l-.322-1.281.689-.728.093-1.22-.492-1.378-.548-.79.242-1.2.868.033.374-.806V57.23l1.096.373 1.09.871s.465.054-.624 1.343l-1.091 1.29-.34 1.84.305 1.45.766.38 1.136-.174 1.072-.872.25-1.077.977.681.848 2.628-.526 1.271-.376 1.93.271-.28.058.049Z"/><path fill="#F69331" d="M335.201 78.585s-.434.316-.753-.91c-.319-1.227-1.87.02-.319-1.226l1.552-1.247-.465-.85-1.095-.603s-.553.96-1.855-.703c-1.303-1.662 1.077-2.181-1.302-1.662l-2.379.526s-.254 2.008-.63.247l-.376-1.76.136-1.014-.415.678a.132.132 0 0 0-.013-.07.133.133 0 0 0-.046-.055l-.104-.075.136-.697-.462.474-1.965.601-1.021.38-1.225.22-.38.823.327 1.014-1.233.433h-1.121l-.613.696-.544.748-2.267.694-3.812-1.486-6.4 4.083-1.723 2.285-2.817 2.554-1.94 2.008-.279 5.254.104 2.69s1.261.405 2.675 2.236c1.414 1.83.039-2.257 1.357 1.295 1.317 3.552-2.789 2.82.519 3.096 3.308.275 2.382.375 2.382.375s.76.099 3.81-2.029l3.052-2.128 1.641.792c.137-.063.644-.248 2.204-.754l2.896-.941 1.123 3.487-1.039 2.538 1.956.808a37.499 37.499 0 0 0 13.68-23.062l-.957.237ZM261.623 71.995c0 1.405.079 2.81.235 4.206l1.601.307.381 1.75.192 1.974 1.016 1.793 1.981 3.066.416 2.063-1.504 1.828.023.539a37.636 37.636 0 0 0 22.782 18.547l-.038-.638s-.482-.637.611-.743c1.093-.106.887-.612 1.094-.104l.208.506 1.094-.104s.349-.191 1.47-.563l1.12-.372-.279-1.235s-.669 1.221-.398-.854c.272-2.076-1.215-1.143.271-2.078l1.486-.935.201-1.176-.716-.877-1.65-.207-1.473-.015s.977.852-.546-.208c-1.523-1.06-1.271-.087-1.523-1.062-.253-.974 1.105-.527-.253-.973-1.358-.446.215-.494-1.358-.447-1.055.033-1.286.009-1.324-.011a.776.776 0 0 1-.947.444l-.702-.195-.299-.917s.665.355-.091-.935c-.757-1.29.328-.401-.758-1.293-1.085-.893 1.039.372-1.085-.894l-2.121-1.265s.095 1.516-.665 1.273l-.764-.249-.153-1.558-.182-1.87-1.512-.957-1.082-.841c-.377.16-.795.2-1.197.116-.646-.147.312 1.074-.646-.147-.958-1.22-.623-.415-.96-1.221-.336-.806.719-.175-.34-.807l-1.061-.633s.766-.233-1.125.32l-1.892.551-.447.774-.935-2.064-.955-.643-.389-.75.264-1.603-.214-1.662-.664-.882-1.403-.91-.144-.935.325-.978.467-1.149-.372-1.12-1.101.581-.904.454-.612-.887-.312-2.701 1.028-.785.502-.785.717-1.805 1.507.38.007 1.156.453.323 1.238.3.214 1.663-.283.87-.502.778.68.52.986-.675.478-1.57s-1.062-.104-.104-1.04c.958-.934-1.558-.373.768-.757 2.326-.385-2.165 1.525 1.454-.142 3.62-1.666 3.276-.372 3.623-1.667l.347-1.296 1.506-.727 1.012-.94.855-.398.69 1.143s.312.495.89-.034l.579-.53-.353-2.016s-.381-.12-.368-1.068l.013-.947s.015.156 1.082.312l1.067.159.971.798.061.624-.194.702 1.841 1.03.925.857.598.207-.152-1.558s.682-.075-.045-1.583c-.728-1.508.14.354-.728-1.507l-.865-1.86-.485-1.738-.882-.965-.701-.721-.248-.922s-.347 1.296-.97.831l-.623-.464-.064-1.729-.347-.86-1.067.367-.865 1.924-.623.639-1.584.732-.674.381-.659-.303s.994-.044.639-1.534c-.356-1.49.171.14-.356-1.49-.526-1.63-2.191-.366-.526-1.631 1.664-1.265 1.408-1.188 1.408-1.188l2.35-.703 1.351.341.951-1.558 1.724-.7 1.093.416-1.213 1.59-1.335.393.319 1.652 1.863 1.292-.09.692 1.361-1.131.128-1.379.611-.743.371-.51-.163-3.295-.303-1.298c-.039.118-.25.174-.995-.153l-1.373-.603-.426-.063-1.065.945.076.782-1.068.366-.118-.672.145-1.222-.798.445-1.077-.263-.159-1.088.955-.462.641-.43.023-.843-.498-.793-.23-.346c-10.275 6.698-17.064 18.285-17.064 31.456Z"/><path fill="#fff" d="M304.979 50.877c.191-.192.385-.383.585-.574a.81.81 0 0 1 .909-.145.806.806 0 0 1 .258.197l.255.295a.8.8 0 0 1-.051 1.102c-.18.171-.361.35-.541.53a.799.799 0 0 1-1.123.012l-.279-.268a.798.798 0 0 1-.248-.572.815.815 0 0 1 .235-.577ZM302.365 53.733c.176-.208.353-.414.531-.618a.797.797 0 0 1 .558-.27.804.804 0 0 1 .585.207l.287.258a.802.802 0 0 1 .064 1.127c-.168.19-.334.384-.498.578a.802.802 0 0 1-1.123.104l-.299-.245a.795.795 0 0 1-.291-.549.8.8 0 0 1 .186-.592ZM299.969 56.767c.162-.22.327-.438.493-.655a.796.796 0 0 1 .85-.286.795.795 0 0 1 .282.142l.306.238a.805.805 0 0 1 .147 1.116c-.158.208-.314.416-.469.624a.801.801 0 0 1-1.111.17l-.312-.226a.799.799 0 0 1-.186-1.123ZM297.784 59.936a49.2 49.2 0 0 1 .445-.682.798.798 0 0 1 .517-.341.806.806 0 0 1 .607.127l.319.218a.802.802 0 0 1 .208 1.11c-.139.211-.277.425-.416.64a.802.802 0 0 1-1.102.249l-.328-.208a.8.8 0 0 1-.364-.82.817.817 0 0 1 .114-.293ZM295.8 63.236c.133-.24.267-.478.403-.716a.815.815 0 0 1 .493-.37.796.796 0 0 1 .609.089l.333.197a.806.806 0 0 1 .29 1.087c-.13.225-.257.453-.383.68a.8.8 0 0 1-1.083.31l-.341-.183a.798.798 0 0 1-.416-.794.815.815 0 0 1 .095-.3ZM294.026 66.662c.117-.246.235-.492.357-.737a.8.8 0 0 1 .784-.438.811.811 0 0 1 .304.087l.345.177a.803.803 0 0 1 .346 1.074c-.112.227-.222.455-.33.685a.802.802 0 0 1-1.063.387l-.351-.159a.8.8 0 0 1-.421-.456.794.794 0 0 1 .029-.62ZM292.469 70.195c.104-.254.209-.508.317-.76a.809.809 0 0 1 .752-.49.805.805 0 0 1 .308.067l.355.154a.802.802 0 0 1 .422 1.047c-.104.239-.203.479-.3.719a.803.803 0 0 1-1.039.442l-.36-.14a.798.798 0 0 1-.455-1.04ZM291.159 73.803l.255-.755a.81.81 0 0 1 .719-.547.8.8 0 0 1 .314.047l.364.13a.8.8 0 0 1 .49 1.012l-.249.741a.805.805 0 0 1-1.003.511l-.368-.116a.81.81 0 0 1-.476-.402.798.798 0 0 1-.046-.62ZM290.068 77.508c.067-.267.135-.535.208-.801a.797.797 0 0 1 .994-.55l.369.104a.801.801 0 0 1 .559.978c-.069.25-.134.501-.194.753a.806.806 0 0 1-.969.58l-.376-.092a.817.817 0 0 1-.497-.363.802.802 0 0 1-.094-.61ZM289.227 81.268c.053-.267.104-.532.163-.798a.813.813 0 0 1 .35-.512.8.8 0 0 1 .609-.112l.378.084a.8.8 0 0 1 .616.946l-.156.76a.806.806 0 0 1-.935.634l-.377-.065a.798.798 0 0 1-.648-.937ZM288.64 85.085c.03-.275.062-.55.098-.824a.819.819 0 0 1 .317-.527.804.804 0 0 1 .598-.146l.378.056a.806.806 0 0 1 .682.896c-.033.257-.063.514-.092.771a.802.802 0 0 1-.884.703l-.385-.041a.806.806 0 0 1-.685-.575.79.79 0 0 1-.027-.313ZM288.302 88.906l.05-.795a.817.817 0 0 1 .278-.557.804.804 0 0 1 .592-.192l.385.032a.804.804 0 0 1 .736.853l-.051.78a.805.805 0 0 1-.831.75l-.388-.016a.804.804 0 0 1-.771-.855ZM288.197 92.784c0-.278 0-.555.006-.831a.81.81 0 0 1 .51-.734.81.81 0 0 1 .309-.055l.388.007a.803.803 0 0 1 .788.81c-.005.26-.007.519-.006.777a.807.807 0 0 1-.792.802l-.383.008a.801.801 0 0 1-.82-.784ZM288.358 96.635c-.023-.27-.046-.538-.063-.806a.808.808 0 0 1 .769-.859l.386-.016a.803.803 0 0 1 .831.747c.017.255.039.512.06.767a.805.805 0 0 1-.735.869l-.386.031a.806.806 0 0 1-.862-.733ZM288.74 100.446l-.104-.79a.806.806 0 0 1 .714-.9l.385-.04a.805.805 0 0 1 .881.697l.098.776a.811.811 0 0 1-.158.589.808.808 0 0 1-.526.308l-.383.054a.816.816 0 0 1-.598-.158.814.814 0 0 1-.309-.536ZM289.339 104.236l-.137-.783a.795.795 0 0 1 .365-.823.79.79 0 0 1 .296-.112l.382-.062a.805.805 0 0 1 .922.653l.135.771a.804.804 0 0 1-.633.927l-.38.077a.81.81 0 0 1-.833-.352.809.809 0 0 1-.117-.296Z"/><path fill="#fff" d="M308.184 51.438h-.605a.697.697 0 0 1-.712-.641l-.05-.588a.7.7 0 0 1 .408-.7.707.707 0 0 1 .279-.065c.234-.006.465-.007.695-.006a.704.704 0 0 1 .701.719l-.013.589a.701.701 0 0 1-.703.692ZM311.344 51.596c-.208-.02-.422-.042-.634-.058a.7.7 0 0 1-.637-.738l.033-.589a.707.707 0 0 1 .764-.662c.222.018.443.039.663.06a.704.704 0 0 1 .609.499c.026.089.035.182.026.275l-.061.586a.702.702 0 0 1-.763.627ZM314.509 52.001l-.631-.094a.706.706 0 0 1-.596-.79l.077-.585a.699.699 0 0 1 .801-.602l.654.098a.704.704 0 0 1 .588.816l-.104.58a.7.7 0 0 1-.789.577ZM317.644 52.596a35.163 35.163 0 0 0-.615-.123.699.699 0 0 1-.556-.555.713.713 0 0 1 .001-.276l.116-.577a.7.7 0 0 1 .822-.552c.221.043.442.085.661.132a.705.705 0 0 1 .537.854l-.135.576a.702.702 0 0 1-.831.52ZM320.728 53.403c-.2-.057-.402-.11-.604-.161a.707.707 0 0 1-.52-.585.705.705 0 0 1 .017-.275l.151-.57a.706.706 0 0 1 .856-.5c.217.056.436.113.652.174a.703.703 0 0 1 .508.607.702.702 0 0 1-.026.277l-.17.562a.698.698 0 0 1-.864.47ZM323.774 54.39c-.198-.067-.398-.13-.597-.193a.702.702 0 0 1-.455-.889l.184-.56a.703.703 0 0 1 .88-.45c.214.069.428.136.64.208a.713.713 0 0 1 .41.364.707.707 0 0 1 .025.547l-.208.553a.7.7 0 0 1-.879.42ZM326.746 55.562l-.595-.237a.705.705 0 0 1-.393-.91l.216-.548a.694.694 0 0 1 .375-.387.704.704 0 0 1 .539-.008l.613.245a.696.696 0 0 1 .391.386.72.72 0 0 1-.007.549l-.236.54a.7.7 0 0 1-.903.37Z"/><path fill="#fff" d="M308.326 49.942c-.078.122-.155.244-.23.365a.79.79 0 0 1-1.039.287l-.362-.191a.785.785 0 0 1-.398-.492.796.796 0 0 1 .086-.626c.089-.145.179-.288.27-.429a.792.792 0 0 1 1.111-.229l.338.23a.793.793 0 0 1 .224 1.085ZM310.155 47.363c-.094.12-.189.241-.281.361a.792.792 0 0 1-1.09.157l-.332-.239a.797.797 0 0 1-.158-1.13c.097-.128.196-.253.294-.378a.795.795 0 0 1 1.122-.132l.319.255a.788.788 0 0 1 .126 1.106ZM312.199 44.912l-.302.347a.793.793 0 0 1-1.108.083l-.312-.264a.788.788 0 0 1-.241-.857.779.779 0 0 1 .156-.271l.311-.36a.797.797 0 0 1 .865-.223.79.79 0 0 1 .269.163l.3.277a.793.793 0 0 1 .062 1.105ZM314.391 42.6c-.104.104-.208.214-.311.322a.798.798 0 0 1-.863.192.797.797 0 0 1-.262-.168l-.297-.285a.796.796 0 0 1-.022-1.12c.113-.118.226-.236.34-.352a.798.798 0 0 1 .879-.17.786.786 0 0 1 .259.18l.283.295a.79.79 0 0 1-.006 1.106Z"/><path fill="#fff" d="M306.881 52.488c-.15-.26-.302-.52-.454-.775a.832.832 0 0 1 .249-1.12l.289-.191a.819.819 0 0 1 .931.017c.09.064.166.145.224.24.17.283.335.565.498.848a.831.831 0 0 1-.067.915.818.818 0 0 1-.245.21l-.301.17a.833.833 0 0 1-1.124-.314ZM308.786 56.04a31.3 31.3 0 0 0-.416-.815.822.822 0 0 1 .34-1.108l.306-.162a.83.83 0 0 1 1.119.345c.15.286.296.574.438.864a.83.83 0 0 1-.381 1.105l-.312.152a.823.823 0 0 1-1.094-.38ZM310.506 59.723l-.38-.856a.822.822 0 0 1 .404-1.082l.312-.146a.82.82 0 0 1 .914.15.83.83 0 0 1 .187.266l.384.864a.82.82 0 0 1-.425 1.092l-.318.137a.823.823 0 0 1-1.078-.425ZM312.068 63.468l-.345-.868a.833.833 0 0 1 .451-1.07l.319-.131a.825.825 0 0 1 1.081.455l.352.878a.832.832 0 0 1-.01.637.83.83 0 0 1-.461.44l-.323.123a.823.823 0 0 1-1.064-.464ZM313.465 67.275l-.312-.882a.827.827 0 0 1 .494-1.045l.325-.119a.825.825 0 0 1 1.06.5l.311.892a.823.823 0 0 1-.519 1.056l-.328.11a.827.827 0 0 1-1.031-.512ZM314.701 71.136l-.276-.896a.82.82 0 0 1 .538-1.027l.33-.104a.824.824 0 0 1 1.039.546l.276.904a.82.82 0 0 1-.559 1.032l-.332.097a.823.823 0 0 1-1.016-.552Z"/><path fill="#fff" d="m305.744 51.79.031-.425a.962.962 0 0 1 .664-.843.958.958 0 0 1 .375-.042l.077.006a.96.96 0 0 1 .877 1.026l-.031.422a.96.96 0 0 1-1.022.887h-.077a.965.965 0 0 1-.663-.33.966.966 0 0 1-.231-.702ZM305.504 55.496l.024-.422a.973.973 0 0 1 .322-.662.966.966 0 0 1 .695-.238h.078a.961.961 0 0 1 .897 1.014l-.026.423a.96.96 0 0 1-1.011.9l-.077-.005a.963.963 0 0 1-.661-.318.96.96 0 0 1-.241-.692ZM305.302 59.21l.021-.424a.955.955 0 0 1 1.007-.91h.078a.957.957 0 0 1 .906 1.005l-.019.423a.962.962 0 0 1-1.003.91h-.078a.956.956 0 0 1-.912-1.004ZM305.136 62.921l.016-.424a.954.954 0 0 1 1.001-.918h.077a.959.959 0 0 1 .916.996l-.018.424a.95.95 0 0 1-.625.86.956.956 0 0 1-.369.059h-.077a.953.953 0 0 1-.863-.627.935.935 0 0 1-.058-.37ZM305.001 66.626l.015-.424a.96.96 0 0 1 .991-.928h.078a.96.96 0 0 1 .925.989l-.015.423a.958.958 0 0 1-.986.928h-.078a.96.96 0 0 1-.93-.988ZM304.9 70.337l.009-.425a.96.96 0 0 1 .985-.935h.077a.96.96 0 0 1 .935.98l-.01.423a.959.959 0 0 1-.978.935h-.078a.956.956 0 0 1-.94-.978ZM304.829 74.05l.005-.424a.966.966 0 0 1 .607-.88.958.958 0 0 1 .369-.066h.078a.957.957 0 0 1 .941.97l-.006.424a.962.962 0 0 1-.971.946h-.077a.96.96 0 0 1-.946-.97ZM304.791 77.76v-.425a.965.965 0 0 1 .6-.882.955.955 0 0 1 .368-.07h.077a.959.959 0 0 1 .95.964v.424a.96.96 0 0 1-.963.954h-.077a.966.966 0 0 1-.678-.285.948.948 0 0 1-.277-.68ZM304.782 81.469v-.424a.963.963 0 0 1 .96-.96h.077a.957.957 0 0 1 .958.96v.423a.958.958 0 0 1-.954.959h-.077a.959.959 0 0 1-.964-.958ZM304.812 85.182l-.005-.425a.959.959 0 0 1 .95-.968h.078a.952.952 0 0 1 .89.583c.049.116.075.24.076.366l.005.423a.957.957 0 0 1-.945.969h-.078a.957.957 0 0 1-.971-.948ZM304.874 88.897l-.01-.424a.971.971 0 0 1 .064-.37.97.97 0 0 1 .51-.53.959.959 0 0 1 .367-.08h.078a.96.96 0 0 1 .975.934l.01.424a.957.957 0 0 1-.935.98h-.077a.96.96 0 0 1-.982-.934ZM304.97 92.614c0-.145-.009-.29-.015-.434a.97.97 0 0 1 .264-.686.962.962 0 0 1 .671-.298h.078a.957.957 0 0 1 .984.935c0 .138.008.275.014.415a.971.971 0 0 1-.257.689.952.952 0 0 1-.668.304h-.077a.956.956 0 0 1-.994-.925ZM267.077 57.081c-.104.132-.208.263-.306.395a.71.71 0 0 1-.966.154l-.476-.326a.714.714 0 0 1-.165-1.018l.356-.456a.711.711 0 0 1 1.01-.104l.443.368a.712.712 0 0 1 .104.987ZM269.05 54.816l-.342.363a.727.727 0 0 1-1.007.047l-.415-.372a.706.706 0 0 1-.239-.494.705.705 0 0 1 .184-.517l.392-.415a.723.723 0 0 1 .503-.217.711.711 0 0 1 .508.205l.392.392a.73.73 0 0 1 .024 1.008ZM271.214 52.718l-.371.335a.725.725 0 0 1-1.008-.037l-.386-.404a.712.712 0 0 1 .028-1.011c.141-.13.282-.258.424-.385a.716.716 0 0 1 .79-.101c.084.042.159.1.22.172l.367.427a.72.72 0 0 1-.064 1.004ZM273.55 50.801l-.416.312a.704.704 0 0 1-.977-.122l-.363-.447a.704.704 0 0 1-.152-.533.71.71 0 0 1 .278-.48c.146-.112.294-.224.442-.334a.715.715 0 0 1 .798-.038c.081.05.151.114.206.191l.336.468a.71.71 0 0 1-.152.983ZM276.023 49.116l-.422.265a.718.718 0 0 1-.98-.208l-.312-.468a.697.697 0 0 1-.104-.54.697.697 0 0 1 .312-.452c.162-.103.324-.205.487-.306a.714.714 0 0 1 .797.042.724.724 0 0 1 .186.21l.281.484a.718.718 0 0 1-.245.973ZM278.652 47.687l-.447.22a.72.72 0 0 1-.953-.307l-.266-.497a.726.726 0 0 1-.081-.27.707.707 0 0 1 .386-.7c.171-.084.344-.17.519-.253a.707.707 0 0 1 .95.352l.23.513a.72.72 0 0 1-.338.942ZM281.413 46.546c-.163.056-.326.112-.489.17a.705.705 0 0 1-.892-.404l-.215-.535a.725.725 0 0 1 .013-.558.72.72 0 0 1 .411-.377l.528-.185a.707.707 0 0 1 .773.209.71.71 0 0 1 .138.246l.174.55a.708.708 0 0 1-.441.884ZM284.264 45.74c-.164.032-.328.067-.49.104a.707.707 0 0 1-.841-.506l-.15-.56a.711.711 0 0 1 .528-.879c.188-.043.376-.081.564-.12a.713.713 0 0 1 .84.567l.103.566a.712.712 0 0 1-.554.828ZM287.892 45.247l-.903.053-.066.007a.909.909 0 0 1-1.022-.777l-.051-.373a.72.72 0 0 1 .139-.527.699.699 0 0 1 .471-.273l.271-.036c.021 0 .043 0 .064-.006l.274-.017a.708.708 0 0 1 .751.67l.072 1.28ZM290.188 45.23c-.171 0-.344-.007-.519-.01a.707.707 0 0 1-.696-.702v-.577a.704.704 0 0 1 .444-.663.703.703 0 0 1 .276-.051c.19 0 .38 0 .571.01a.711.711 0 0 1 .687.761l-.042.575a.71.71 0 0 1-.721.658ZM293.11 45.544a20.17 20.17 0 0 0-.492-.09.707.707 0 0 1-.588-.78l.068-.573a.714.714 0 0 1 .821-.623c.19.03.379.066.568.104a.708.708 0 0 1 .563.83l-.111.571a.708.708 0 0 1-.829.561ZM296.041 46.217c-.163-.044-.327-.086-.491-.128a.708.708 0 0 1-.513-.854l.136-.56a.701.701 0 0 1 .324-.441.71.71 0 0 1 .542-.079c.184.047.368.095.551.145a.71.71 0 0 1 .488.901l-.176.549a.707.707 0 0 1-.861.467ZM298.852 47.206c-.16-.068-.32-.135-.481-.198a.712.712 0 0 1-.399-.897l.196-.542a.718.718 0 0 1 .379-.406.71.71 0 0 1 .556-.01l.514.209a.708.708 0 0 1 .437.661.694.694 0 0 1-.056.273l-.222.538a.71.71 0 0 1-.924.371ZM301.571 48.483l-.464-.242a.71.71 0 0 1-.312-.935l.247-.52a.7.7 0 0 1 .416-.366.705.705 0 0 1 .552.043l.492.256a.701.701 0 0 1 .351.422.71.71 0 0 1-.056.547l-.275.504a.71.71 0 0 1-.951.291ZM304.192 49.984l-.447-.276a.713.713 0 0 1-.241-.963l.291-.496a.72.72 0 0 1 .441-.33.708.708 0 0 1 .543.085l.471.29a.714.714 0 0 1 .326.73.707.707 0 0 1-.104.26l-.312.483a.71.71 0 0 1-.968.217Z"/><path fill="#fff" d="m306.699 51.691-.429-.304a.707.707 0 0 1-.175-.982l.328-.474a.703.703 0 0 1 .738-.289c.092.02.178.06.255.114l.45.318a.702.702 0 0 1 .29.47.704.704 0 0 1-.135.536l-.35.46a.709.709 0 0 1-.972.151Z"/><path fill="#fff" d="m305.666 49.422.26.007a.963.963 0 0 1 .878.677.969.969 0 0 1 .037.39l-.01.077a.96.96 0 0 1-.99.847c-.066 0-.134 0-.201-.007a.96.96 0 0 1-.943-.942v-.079a.972.972 0 0 1 .28-.689.959.959 0 0 1 .689-.281ZM302.146 49.567l.264-.025a.958.958 0 0 1 1.033.9l.005.078a.962.962 0 0 1-.881 1.01l-.197.02a.965.965 0 0 1-1.057-.826l-.009-.078a.946.946 0 0 1 .193-.717.966.966 0 0 1 .649-.362ZM298.7 50.105l.23-.047a.956.956 0 0 1 1.137.778l.014.077a.958.958 0 0 1-.751 1.1l-.225.045a.954.954 0 0 1-1.124-.71l-.019-.076a.964.964 0 0 1 .738-1.167ZM295.309 51.012l.223-.074a.957.957 0 0 1 1.045.309c.082.1.142.216.177.34l.022.075a.956.956 0 0 1-.623 1.171l-.217.072a.954.954 0 0 1-1.202-.582l-.027-.074a.964.964 0 0 1 .602-1.237ZM292.051 52.285l.214-.094a.955.955 0 0 1 1.066.2c.091.092.162.2.21.32l.031.072a.958.958 0 0 1-.5 1.236l-.208.093a.954.954 0 0 1-1.246-.45l-.036-.07a.964.964 0 0 1 .156-1.083.953.953 0 0 1 .313-.224ZM288.945 53.91l.203-.116a.961.961 0 0 1 1.324.37l.038.068a.956.956 0 0 1-.36 1.286l-.197.114a.954.954 0 0 1-1.287-.311l-.043-.067a.959.959 0 0 1 .322-1.343ZM286.032 55.896l.2-.153a.958.958 0 0 1 1.356.22l.045.065a.963.963 0 0 1-.214 1.32l-.167.126a.96.96 0 0 1-1.328-.154l-.05-.06a.957.957 0 0 1 .158-1.364ZM283.362 58.177l.18-.177a.952.952 0 0 1 1.075-.172c.116.056.22.135.305.231l.052.06a.963.963 0 0 1 .238.674.964.964 0 0 1-.295.651l-.149.148a.96.96 0 0 1-1.351 0l-.056-.054a.964.964 0 0 1-.283-.68.952.952 0 0 1 .284-.681ZM280.973 60.699l.153-.176a.96.96 0 0 1 1.371-.078l.058.053a.953.953 0 0 1 .075 1.335c-.051.057-.104.116-.151.173a.955.955 0 0 1-1.321.121l-.061-.05a.971.971 0 0 1-.355-.663.966.966 0 0 1 .231-.715ZM278.844 63.482l.138-.2a.945.945 0 0 1 .632-.395.955.955 0 0 1 .724.179l.064.046a.96.96 0 0 1 .207 1.319l-.122.185a.957.957 0 0 1-1.314.256l-.07-.049a.964.964 0 0 1-.41-.616.96.96 0 0 1 .151-.725ZM276.984 66.424l.129-.218a.953.953 0 0 1 .968-.452.96.96 0 0 1 .353.13l.066.04a.96.96 0 0 1 .321 1.313c-.036.06-.073.12-.104.18a.957.957 0 0 1-1.283.365l-.069-.037a.953.953 0 0 1-.381-1.322ZM275.381 69.543l.104-.23a.962.962 0 0 1 .932-.553.95.95 0 0 1 .367.1l.071.036a.962.962 0 0 1 .439 1.259c-.03.064-.059.129-.087.193a.946.946 0 0 1-.53.507.96.96 0 0 1-.734-.018l-.072-.03a.96.96 0 0 1-.49-1.264ZM274.045 72.727l.083-.218a.956.956 0 0 1 1.259-.546l.073.03a.956.956 0 0 1 .532 1.225l-.082.215a.962.962 0 0 1-1.222.561l-.073-.027a.965.965 0 0 1-.545-.5.953.953 0 0 1-.025-.74ZM272.917 75.988l.07-.222a.959.959 0 0 1 1.218-.623l.073.025a.959.959 0 0 1 .609 1.198l-.069.22a.96.96 0 0 1-1.183.63l-.074-.023a.968.968 0 0 1-.575-.467.958.958 0 0 1-.069-.738ZM271.987 79.31l.058-.226a.97.97 0 0 1 .446-.587.962.962 0 0 1 .732-.097l.075.02a.958.958 0 0 1 .677 1.163l-.058.222a.957.957 0 0 1-1.143.692l-.076-.018a.954.954 0 0 1-.73-.791.947.947 0 0 1 .019-.379ZM271.239 82.672l.046-.228a.959.959 0 0 1 1.143-.743l.076.017a.958.958 0 0 1 .737 1.132l-.046.225a.96.96 0 0 1-1.111.748l-.077-.013a.957.957 0 0 1-.768-1.138Z"/><path fill="#fff" d="M306.839 54.287a3.808 3.808 0 1 0-.001-7.615 3.808 3.808 0 0 0 .001 7.615Z"/><path fill="#3C81B6" d="M306.839 52.647a2.167 2.167 0 1 0 0-4.334 2.167 2.167 0 0 0 0 4.334Z"/><path fill="#fff" d="M315.556 72.496a2.291 2.291 0 1 0 0-4.583 2.291 2.291 0 0 0 0 4.583Z"/><path fill="#3C81B6" d="M315.556 71.514a1.304 1.304 0 1 0 0-2.608 1.304 1.304 0 0 0 0 2.608Z"/><path fill="#fff" d="M306.267 97.94a2.291 2.291 0 1 0 0-4.581 2.291 2.291 0 0 0 0 4.582Z"/><path fill="#3C81B6" d="M306.267 96.951a1.303 1.303 0 1 0 0-2.606 1.303 1.303 0 0 0 0 2.606Z"/><path fill="#fff" d="M290.953 108.253a2.29 2.29 0 1 0 .001-4.581 2.29 2.29 0 0 0-.001 4.581Z"/><path fill="#3C81B6" d="M290.952 107.272a1.304 1.304 0 1 0 0-2.608 1.304 1.304 0 0 0 0 2.608Z"/><path fill="#fff" d="M271.955 87.581a2.29 2.29 0 1 0 0-4.58 2.29 2.29 0 0 0 0 4.58Z"/><path fill="#3C81B6" d="M271.955 86.592a1.304 1.304 0 1 0 0-2.608 1.304 1.304 0 0 0 0 2.608Z"/><path fill="#fff" d="M265.023 60.558a2.291 2.291 0 1 0 0-4.582 2.291 2.291 0 0 0 0 4.582Z"/><path fill="#3C81B6" d="M265.023 59.576a1.303 1.303 0 1 0 0-2.606 1.303 1.303 0 0 0 0 2.606Z"/><path fill="#fff" d="M327.999 57.894a2.29 2.29 0 1 0 0-4.58 2.29 2.29 0 0 0 0 4.58Z"/><path fill="#3C81B6" d="M327.999 56.912a1.304 1.304 0 1 0 0-2.608 1.304 1.304 0 0 0 0 2.608Z"/><path fill="#fff" d="M314.39 43.238a2.291 2.291 0 1 0 0-4.582 2.291 2.291 0 0 0 0 4.582Z"/><path fill="#3C81B6" d="M314.39 42.256a1.303 1.303 0 1 0 0-2.606 1.303 1.303 0 0 0 0 2.606Z"/></g><path fill="#2385C8" d="M258.314 126.998a.867.867 0 0 1-.574.82l-3.495 1.269-1.269 3.494a.874.874 0 0 1-1.64 0l-1.269-3.494-3.495-1.269a.872.872 0 0 1-.57-.82.876.876 0 0 1 .57-.82l3.495-1.269 1.269-3.495a.875.875 0 0 1 1.64 0l1.269 3.495 3.495 1.269a.862.862 0 0 1 .574.82ZM329.314 13.998a.865.865 0 0 1-.574.82l-3.495 1.269-1.269 3.494a.877.877 0 0 1-1.32.414.877.877 0 0 1-.32-.414l-1.269-3.494-3.495-1.269a.876.876 0 0 1 0-1.64l3.495-1.27 1.269-3.494a.877.877 0 0 1 1.32-.414.877.877 0 0 1 .32.414l1.269 3.495 3.495 1.268a.865.865 0 0 1 .574.82Z"/><path fill="#F77E21" d="M365.314 112.998a.867.867 0 0 1-.574.82l-3.495 1.269-1.269 3.494a.874.874 0 0 1-1.64 0l-1.269-3.494-3.495-1.269a.872.872 0 0 1-.57-.82.876.876 0 0 1 .57-.82l3.495-1.269 1.269-3.495a.875.875 0 0 1 1.64 0l1.269 3.495 3.495 1.269a.862.862 0 0 1 .574.82ZM245.314 62.998a.865.865 0 0 1-.574.82l-3.495 1.269-1.269 3.495a.877.877 0 0 1-1.32.413.877.877 0 0 1-.32-.413l-1.269-3.495-3.495-1.269a.876.876 0 0 1 0-1.64l3.495-1.27 1.269-3.494a.877.877 0 0 1 1.32-.414.877.877 0 0 1 .32.414l1.269 3.495 3.495 1.269a.865.865 0 0 1 .574.82Z"/></g><rect width="379" height="142" x=".656" y=".5" stroke="#EDF0F2" rx="7.5"/><defs><linearGradient id="c" x1="279.706" x2="313.899" y1="100.335" y2="44.976" gradientUnits="userSpaceOnUse"><stop offset=".09" stop-color="#7CAB71"/><stop offset=".23" stop-color="#86BE78"/><stop offset=".5" stop-color="#95DC84"/><stop offset=".73" stop-color="#9FEE8B"/><stop offset=".9" stop-color="#A2F58E"/></linearGradient><linearGradient id="d" x1="282.164" x2="317.586" y1="104.821" y2="47.333" gradientUnits="userSpaceOnUse"><stop offset=".09" stop-color="#7CAB71"/><stop offset=".23" stop-color="#86BE78"/><stop offset=".5" stop-color="#95DC84"/><stop offset=".73" stop-color="#9FEE8B"/><stop offset=".9" stop-color="#A2F58E"/></linearGradient><linearGradient id="e" x1="302.522" x2="337.059" y1="115.32" y2="59.294" gradientUnits="userSpaceOnUse"><stop offset=".09" stop-color="#7CAB71"/><stop offset=".23" stop-color="#86BE78"/><stop offset=".5" stop-color="#95DC84"/><stop offset=".73" stop-color="#9FEE8B"/><stop offset=".9" stop-color="#A2F58E"/></linearGradient><linearGradient id="f" x1="259.301" x2="293.815" y1="88.685" y2="32.659" gradientUnits="userSpaceOnUse"><stop offset=".09" stop-color="#7CAB71"/><stop offset=".23" stop-color="#86BE78"/><stop offset=".5" stop-color="#95DC84"/><stop offset=".73" stop-color="#9FEE8B"/><stop offset=".9" stop-color="#A2F58E"/></linearGradient><linearGradient id="g" x1="279.435" x2="313.962" y1="101.082" y2="45.102" gradientUnits="userSpaceOnUse"><stop offset=".09" stop-color="#7CAB71"/><stop offset=".23" stop-color="#86BE78"/><stop offset=".5" stop-color="#95DC84"/><stop offset=".73" stop-color="#9FEE8B"/><stop offset=".9" stop-color="#A2F58E"/></linearGradient><clipPath id="a"><rect width="380" height="143" x=".156" fill="#fff" rx="8"/></clipPath><filter id="b" width="92.001" height="92" x="254.156" y="28" color-interpolation-filters="sRGB" filterUnits="userSpaceOnUse"><feFlood flood-opacity="0" result="BackgroundImageFix"/><feColorMatrix in="SourceAlpha" result="hardAlpha" values="0 0 0 0 0 0 0 0 0 0 0 0 0 0 0 0 0 0 127 0"/><feOffset dx="1" dy="2"/><feGaussianBlur stdDeviation="3"/><feComposite in2="hardAlpha" operator="out"/><feColorMatrix values="0 0 0 0 1 0 0 0 0 1 0 0 0 0 1 0 0 0 0.8 0"/><feBlend in2="BackgroundImageFix" result="effect1_dropShadow_9609_26456"/><feBlend in="SourceGraphic" in2="effect1_dropShadow_9609_26456" result="shape"/></filter></defs></svg>