<svg width="20" height="20" viewBox="0 0 20 20" fill="none" xmlns="http://www.w3.org/2000/svg">
<path d="M10.0004 6.44439C8.03599 6.44439 6.44488 8.0355 6.44488 9.99995C6.44488 11.9644 8.03599 13.5555 10.0004 13.5555C11.9649 13.5555 13.556 11.9644 13.556 9.99995C13.556 8.0355 11.9649 6.44439 10.0004 6.44439ZM17.9471 9.11106C17.5382 5.40439 14.596 2.46217 10.8893 2.05328V0.222168H9.11155V2.05328C5.40488 2.46217 2.46266 5.40439 2.05377 9.11106H0.222656V10.8888H2.05377C2.46266 14.5955 5.40488 17.5377 9.11155 17.9466V19.7777H10.8893V17.9466C14.596 17.5377 17.5382 14.5955 17.9471 10.8888H19.7782V9.11106H17.9471ZM10.0004 16.2222C6.56043 16.2222 3.77821 13.4399 3.77821 9.99995C3.77821 6.55995 6.56043 3.77772 10.0004 3.77772C13.4404 3.77772 16.2227 6.55995 16.2227 9.99995C16.2227 13.4399 13.4404 16.2222 10.0004 16.2222Z" fill="#BDBDBD"/>
</svg>
