<svg width="16" height="16" viewBox="0 0 16 16" fill="none" xmlns="http://www.w3.org/2000/svg"><path d="M8.47523 4.66634V1.33301H6.09428C5.7154 1.33301 5.35204 1.48352 5.08413 1.75143C4.81622 2.01934 4.66571 2.3827 4.66571 2.76158V11.333C4.66571 11.7119 4.81622 12.0753 5.08413 12.3432C5.35204 12.6111 5.7154 12.7616 6.09428 12.7616H11.8095C12.1884 12.7616 12.5518 12.6111 12.8197 12.3432C13.0876 12.0753 13.2381 11.7119 13.2381 11.333V6.09491H9.90285C9.52397 6.09491 9.16061 5.9444 8.8927 5.67649C8.62479 5.40858 8.47428 5.04522 8.47428 4.66634H8.47523Z" fill="#F77E21"/><path d="M9.42767 4.66653V1.57129L12.9991 5.14272H9.90386C9.77757 5.14272 9.65645 5.09255 9.56715 5.00324C9.47784 4.91394 9.42767 4.79282 9.42767 4.66653Z" fill="#F77E21"/><path d="M2.7619 4.19066C2.7619 3.93808 2.86224 3.69583 3.04085 3.51723C3.21945 3.33862 3.4617 3.23828 3.71428 3.23828V11.3335C3.71428 11.965 3.96513 12.5706 4.41165 13.0171C4.85816 13.4636 5.46377 13.7145 6.09523 13.7145H11.3333C11.3333 13.9671 11.233 14.2093 11.0544 14.3879C10.8758 14.5665 10.6335 14.6669 10.3809 14.6669H6.14857C5.25037 14.6669 4.38896 14.31 3.75383 13.6749C3.11871 13.0398 2.7619 12.1784 2.7619 11.2802V4.19066Z" fill="#F77E21"/></svg>