<svg width="24" height="24" viewBox="0 0 24 24" fill="none" xmlns="http://www.w3.org/2000/svg"><path fill-rule="evenodd" clip-rule="evenodd" d="M6.52498 3.15002C6.11076 3.15002 5.77498 3.48581 5.77498 3.90002C5.77498 4.31424 6.11076 4.65002 6.52498 4.65002H8.47498V6.87324C6.80162 7.1984 5.66413 7.62281 4.95035 8.31433C4.1462 9.0934 4.00957 10.0784 3.97542 11.0743L3.97498 11.0872V11.1V18.1C3.97498 19.6188 5.20619 20.85 6.72498 20.85H11.7232C13.2419 20.85 14.4732 19.6188 14.4732 18.1V11.1097C14.5052 9.82851 14.1096 8.82032 13.1974 8.09603C12.4067 7.46816 11.2958 7.1127 9.97498 6.86691V4.65002H13.725C14.1392 4.65002 14.475 4.31424 14.475 3.90002C14.475 3.48581 14.1392 3.15002 13.725 3.15002H9.22498H6.52498ZM9.03823 8.29374C9.16416 8.27094 9.29359 8.27018 9.41787 8.29132C10.8308 8.53168 11.7282 8.84476 12.2647 9.27074C12.7375 9.64618 12.9979 10.1646 12.9734 11.08L12.9732 11.09V11.1V18.1C12.9732 18.7904 12.4135 19.35 11.7232 19.35H6.72498C6.03462 19.35 5.47498 18.7904 5.47498 18.1V11.1131C5.50763 10.191 5.63812 9.73652 5.99408 9.39165C6.40071 8.9977 7.22822 8.6214 9.03823 8.29374Z" fill="#2385C8"/><path d="M14.7506 7.80464C14.2442 7.11203 15.4053 5.50772 15.8205 4.97531C15.8944 4.88058 16.0317 4.87722 16.1097 4.96861C16.5445 5.47821 17.7483 7.01596 17.1716 7.80464C16.5911 8.59852 15.3311 8.59852 14.7506 7.80464Z" fill="#2385C8"/><path d="M15.7343 14.5581C14.8499 13.288 17.0169 10.2662 17.6078 9.48629C17.6827 9.38744 17.825 9.38387 17.9043 9.47923C18.5244 10.225 20.7766 13.1115 19.7693 14.5581C18.8019 15.9474 16.7017 15.9474 15.7343 14.5581Z" fill="#2385C8"/><path fill-rule="evenodd" clip-rule="evenodd" d="M8.32496 13.8V12H10.125V13.8H11.925V15.6H10.125V17.4H8.32496V15.6H6.52496V13.8H8.32496Z" fill="#2385C8"/></svg>