<svg width="24" height="24" viewBox="0 0 24 24" fill="none" xmlns="http://www.w3.org/2000/svg"><path d="M12.8202 14.6836V10.7727C12.8202 10.5557 12.7326 10.3476 12.5767 10.1942C12.4208 10.0407 12.2094 9.95452 11.9889 9.95452C11.7684 9.95452 11.557 10.0407 11.4011 10.1942C11.2452 10.3476 11.1576 10.5557 11.1576 10.7727V14.6836C10.9063 14.8264 10.6974 15.0314 10.5515 15.2783C10.4057 15.5252 10.328 15.8053 10.3263 16.0909C10.3263 16.5249 10.5015 16.9411 10.8133 17.248C11.1251 17.5548 11.548 17.7272 11.9889 17.7272C12.4299 17.7272 12.8528 17.5548 13.1646 17.248C13.4764 16.9411 13.6515 16.5249 13.6515 16.0909C13.6498 15.8053 13.5721 15.5252 13.4263 15.2783C13.2805 15.0314 13.0715 14.8264 12.8202 14.6836ZM15.7298 12.8182V6.68181C15.7298 5.70533 15.3357 4.76885 14.6341 4.07838C13.9326 3.3879 12.9811 3 11.9889 3C10.9968 3 10.0452 3.3879 9.34369 4.07838C8.64214 4.76885 8.24801 5.70533 8.24801 6.68181V12.8182C7.67344 13.459 7.2788 14.2363 7.10313 15.0732C6.92746 15.9102 6.97685 16.7778 7.2464 17.5902C7.51596 18.4027 7.99634 19.1317 8.64004 19.7054C9.28373 20.279 10.0684 20.6773 10.9165 20.8609C11.2688 20.9399 11.6278 20.9865 11.9889 20.9999C12.9538 21.0044 13.8992 20.7333 14.7106 20.2195C15.5221 19.7058 16.1647 18.9714 16.5607 18.1054C16.9566 17.2395 17.0889 16.2791 16.9414 15.3406C16.7939 14.4022 16.3731 13.5259 15.7298 12.8182ZM14.0672 18.6027C13.4058 19.1799 12.5384 19.4748 11.656 19.4227C10.7736 19.3705 9.94844 18.9755 9.36196 18.3245C8.77549 17.6735 8.4758 16.8199 8.5288 15.9514C8.58181 15.083 8.98318 14.2708 9.64461 13.6936C9.72316 13.6178 9.78565 13.5275 9.82846 13.4278C9.87127 13.328 9.89355 13.2209 9.894 13.1127V6.68181C9.894 6.13932 10.113 5.61905 10.5027 5.23546C10.8925 4.85186 11.4211 4.63636 11.9723 4.63636C12.5235 4.63636 13.0521 4.85186 13.4419 5.23546C13.8316 5.61905 14.0506 6.13932 14.0506 6.68181V13.1782C14.051 13.2864 14.0733 13.3935 14.1161 13.4932C14.1589 13.5929 14.2214 13.6833 14.3 13.7591C14.6398 14.0821 14.9057 14.4728 15.0801 14.9049C15.2545 15.3371 15.3333 15.8009 15.3112 16.2654C15.2892 16.7299 15.1669 17.1844 14.9524 17.5987C14.7378 18.013 14.4361 18.3776 14.0672 18.6681V18.6027Z" fill="#2385C8"/></svg>