<svg width="24" height="24" viewBox="0 0 24 24" fill="none" xmlns="http://www.w3.org/2000/svg"><path fill-rule="evenodd" clip-rule="evenodd" d="M12 6C12.502 6 12.9091 6.41577 12.9091 6.92857V18.0714C12.9091 18.5842 12.502 19 12 19C11.498 19 11.0909 18.5842 11.0909 18.0714V6.92857C11.0909 6.41577 11.498 6 12 6ZM5.63636 8.78571C4.63217 8.78571 3.81818 9.61714 3.81818 10.6429C3.81818 11.6686 4.63217 12.5 5.63636 12.5C6.64056 12.5 7.45455 11.6686 7.45455 10.6429C7.45455 9.61714 6.64056 8.78571 5.63636 8.78571ZM5.63636 13.4286C3.36364 13.4286 2.53289 14.4692 2 16.2143H9.27273C8.66071 14.5541 7.90909 13.4286 5.63636 13.4286ZM16.5455 10.6429C16.5455 9.61714 17.3594 8.78571 18.3636 8.78571C19.3678 8.78571 20.1818 9.61714 20.1818 10.6429C20.1818 11.6686 19.3678 12.5 18.3636 12.5C17.3594 12.5 16.5455 11.6686 16.5455 10.6429ZM14.7273 16.2143C15.2602 14.4692 16.0909 13.4286 18.3636 13.4286C20.6364 13.4286 21.388 14.5541 22 16.2143H14.7273Z" fill="#2385C8"/></svg>