<svg width="28" height="28" viewBox="0 0 28 28" fill="none" xmlns="http://www.w3.org/2000/svg"><path d="M11.8 27.1998C5.46666 26.0665 0.666656 20.5998 0.666656 13.9998C0.666656 6.6665 6.66666 0.666504 14 0.666504C21.3333 0.666504 27.3333 6.6665 27.3333 13.9998C27.3333 20.5998 22.5333 26.0665 16.2 27.1998L15.4667 26.5998H12.5333L11.8 27.1998Z" fill="#FDFEFF"/><path d="M19.1999 17.7334L19.7999 14H16.2666V11.4C16.2666 10.3334 16.6666 9.53337 18.2666 9.53337H19.9999V6.13337C19.0666 6.00003 17.9999 5.8667 17.0666 5.8667C13.9999 5.8667 11.8666 7.73337 11.8666 11.0667V14H8.53326V17.7334H11.8666V27.1334C12.5999 27.2667 13.3333 27.3334 14.0666 27.3334C14.7999 27.3334 15.5333 27.2667 16.2666 27.1334V17.7334H19.1999Z" fill="#2385C8"/></svg>