<svg xmlns="http://www.w3.org/2000/svg" width="770" height="134" fill="none"><path fill="#FDFEFF" d="M49.427 33.475 24.799 46.866.159 33.475l24.64-13.392 24.628 13.392ZM86.387 13.391 61.743 26.783 37.115 13.39 61.743 0l24.644 13.391ZM86.387 53.574 61.743 66.965 37.115 53.574l24.628-13.392 24.644 13.392ZM123.34 33.475 98.703 46.866l-24.64-13.391 24.64-13.392 24.637 13.392ZM61.79 67.004 37.068 53.558v66.918l24.718 13.434.004-66.906ZM.162 33.502V100.4l24.68 13.431V46.925L.162 33.502Z"/><path fill="#F2F2F2" d="m61.712 67.004 24.726-13.438v66.909L61.711 133.91V67.004ZM123.34 33.502V100.4l-24.688 13.431V46.925l24.688-13.423Z"/><path fill="#FDFEFF" d="M714.859 114.869a32.734 32.734 0 0 0 10.19 6.51 35.297 35.297 0 0 0 12.426 2.009.167.167 0 0 0 .063 0 35.321 35.321 0 0 0 12.541-2.009 32.747 32.747 0 0 0 10.193-6.51 29.003 29.003 0 0 0 9.591-21.233V39.113a.554.554 0 0 0-.544-.548h-7.952a10.376 10.376 0 0 0-10.374 10.375v42.356a14.586 14.586 0 0 1-1.463 6.633 14.585 14.585 0 0 1-4.311 5.25 12.862 12.862 0 0 1-15.294 0 14.55 14.55 0 0 1-5.774-11.883V48.94a10.372 10.372 0 0 0-6.41-9.587 10.37 10.37 0 0 0-3.972-.788h-7.941a.545.545 0 0 0-.547.548v54.515a29 29 0 0 0 9.586 21.233M313.861 38.715h-8.645a9.001 9.001 0 0 0-1.532.146l-.236.035c-.452.099-.895.23-1.328.394l-.394.138c-.379.16-.748.346-1.102.555a3.331 3.331 0 0 0-.438.268 9.405 9.405 0 0 0-.925.678c-.154.13-.295.264-.433.393-.263.25-.513.513-.749.788-.126.158-.248.327-.37.5-.171.23-.328.471-.469.721a8.68 8.68 0 0 0-.685 1.465c-.087.24-.201.591-.288.894-.027.119-.059.229-.082.347a42.597 42.597 0 0 0-24.79-7.483h-.201a40.82 40.82 0 0 0-29.453 12.178 39.782 39.782 0 0 0-12.391 29.441v1.576a39.787 39.787 0 0 0 12.391 29.437 40.833 40.833 0 0 0 29.453 12.182h.201a45.027 45.027 0 0 0 12.635-1.733 6.517 6.517 0 0 0 4.727-6.238V98.803c-.06.047-.103.099-.162.142a24.961 24.961 0 0 1-13.584 6.369 25.541 25.541 0 0 1-22.502-9.114 24.343 24.343 0 0 1 0-30.47 25.523 25.523 0 0 1 22.502-9.11 24.96 24.96 0 0 1 13.584 6.361 21.202 21.202 0 0 1 7.373 16.373s.142 32.616.205 36.236c.004.201.029.402.075.598a9.277 9.277 0 0 0 9.008 7.05h9.118V39.274a.543.543 0 0 0-.536-.543M606.862 38.715h-8.63a9.085 9.085 0 0 0-1.548.146l-.236.035c-.454.1-.9.231-1.335.394l-.37.138c-.381.164-.752.35-1.111.555-.142.083-.292.17-.441.268a9.319 9.319 0 0 0-.91.678c-.158.13-.292.264-.437.394-.263.247-.51.51-.741.787a4.565 4.565 0 0 0-.394.5 7.377 7.377 0 0 0-.464.721 7.65 7.65 0 0 0-.394.752c-.111.233-.208.47-.292.713-.11.293-.202.591-.275.895-.032.118-.071.228-.091.346a42.593 42.593 0 0 0-24.814-7.483h-.196a40.786 40.786 0 0 0-29.446 12.178 39.781 39.781 0 0 0-12.399 29.442c0 .263 0 .52.024.787.024.268-.024.516-.024.788a39.772 39.772 0 0 0 12.399 29.437 40.808 40.808 0 0 0 29.446 12.183h.196c4.274.025 8.53-.559 12.64-1.733a6.51 6.51 0 0 0 4.726-6.239V98.803c-.059.047-.095.099-.154.142a24.91 24.91 0 0 1-13.592 6.369 25.541 25.541 0 0 1-22.446-9.106 24.285 24.285 0 0 1 0-30.47 25.514 25.514 0 0 1 22.486-9.11 24.923 24.923 0 0 1 13.592 6.361 21.16 21.16 0 0 1 7.373 16.373s.138 32.616.205 36.236c-.001.202.024.403.075.598a9.292 9.292 0 0 0 9.023 7.051h9.083V39.275a.544.544 0 0 0-.544-.544M496.138 47.278a32.755 32.755 0 0 0-10.197-6.511 35.137 35.137 0 0 0-12.418-2.009h-.174a35.178 35.178 0 0 0-12.43 2.009 32.912 32.912 0 0 0-10.185 6.51l-.083.095c-.032-.031-.051-.063-.087-.094a32.77 32.77 0 0 0-10.193-6.511 35.152 35.152 0 0 0-12.423-2.009H427.779a35.171 35.171 0 0 0-12.43 2.009c-1.12.442-2.208.961-3.258 1.552a9.222 9.222 0 0 0-7.404-3.742h-9.122v84.508c0 .303.248 0 .547 0h8.63a8.938 8.938 0 0 0 1.552 0h.232c.457-.095.89.157 1.32 0 .13-.043.263.055.393 0h.473a.787.787 0 0 0 .634 0c.146-.087.288.094.437 0h.426c.161.063.331.138.488 0 .158-.138.299.138.441 0h.351c.142.075.272.157.394 0 .122-.158.252.173.37 0h.232c.083.063.158.134.237 0h.193c.07.071.138.138.201 0h.145c.055.063.099.126.138 0h.154c.039.083.086.165.122 0h.787V70.496a14.109 14.109 0 0 1 4.262-10.276 12.998 12.998 0 0 1 18.319 0 13.916 13.916 0 0 1 4.131 8.874v53.995h18.997V69.094a13.901 13.901 0 0 1 4.135-8.874 12.998 12.998 0 0 1 18.319 0 14.092 14.092 0 0 1 4.257 10.276v52.593h18.871V68.511a29.03 29.03 0 0 0-9.587-21.233M386.679 46.892a32.996 32.996 0 0 0-10.185-6.515 35.413 35.413 0 0 0-12.434-2.005h-.174a35.38 35.38 0 0 0-12.418 2.005 29.368 29.368 0 0 0-3.466 1.674 9.23 9.23 0 0 0-7.196-3.474h-9.118v85.107h18.874V70.118a14.08 14.08 0 0 1 4.254-10.268 12.996 12.996 0 0 1 18.326 0 13.283 13.283 0 0 1 3.045 4.391l13.698-13.706a41.105 41.105 0 0 0-3.206-3.632M668.041 68.909a32.235 32.235 0 0 0-8.72-1.844l28.5-28.496h-16.834a21.72 21.72 0 0 0-15.361 6.357l-12.576 12.58v-22c0-9.34-.02-16.508-.039-17.626a2.527 2.527 0 0 0-.071-.607 9.284 9.284 0 0 0-9.016-7.046h-9.122V123.14h18.26V92.592a13.495 13.495 0 0 1 3.903-5.168 13.39 13.39 0 0 1 21.785 10.292v25.424h19.059V96.66a29.038 29.038 0 0 0-9.587-21.229 33.041 33.041 0 0 0-10.197-6.514M190.475 31.984a13 13 0 0 1 18.315 0 13.175 13.175 0 0 1 3.045 4.395l13.71-13.71a41.244 41.244 0 0 0-3.206-3.628 32.854 32.854 0 0 0-10.189-6.514 35.145 35.145 0 0 0-12.427-2.001h-.142c-4.24-.089-8.462.59-12.461 2a32.873 32.873 0 0 0-10.186 6.515 28.981 28.981 0 0 0-9.594 21.234v82.81h18.874V75.163h25.522v-18.87h-25.522V42.256a14.103 14.103 0 0 1 4.261-10.268"/></svg>