<svg width="20" height="21" viewBox="0 0 20 21" fill="none" xmlns="http://www.w3.org/2000/svg"><path d="M11.7773 6.00417C11.413 4.16966 9.90938 2.95327 9.14583 2.44147C8.99285 2.33893 8.78982 2.49767 8.816 2.67996C8.91633 3.37868 8.8897 4.69291 7.71272 6.00417C6.88061 6.9312 4.89154 8.47669 4.13273 10.6009C2.99893 13.7748 4.44229 17.2382 7.69298 18.4274C10.5205 19.4619 13.8903 18.4913 15.3903 15.8327C17.2154 12.5977 15.6841 9.81081 14.9173 8.73606C14.8054 8.57932 14.5579 8.67407 14.5388 8.86568C14.4702 9.55652 14.1412 10.5692 12.7769 10.3602C11.95 10.2335 11.4011 9.39441 11.6443 8.45587C11.8351 7.71959 11.9605 6.92698 11.7773 6.00417Z" fill="#F33C45"/><path d="M10.4275 13.7552C9.22059 13.2024 9.17473 11.7435 9.26392 10.8857C9.28442 10.6885 9.03282 10.5491 8.89188 10.6886C8.41146 11.1639 7.70236 11.9171 7.40075 12.497C6.65878 13.9234 6.74422 15.3603 7.32391 16.1488C8.35948 17.5574 10.284 18.1144 11.9052 16.9454C13.5255 15.585 13.16 14.1194 12.9381 13.5689C12.89 13.4498 12.7403 13.4246 12.6353 13.4986C12.2668 13.7583 11.4185 14.2091 10.4275 13.7552Z" fill="#FFC044"/></svg>