<svg width="20" height="20" viewBox="0 0 20 20" fill="none" xmlns="http://www.w3.org/2000/svg"><path d="M15.8333 11.6615V14.9948H14.1667V11.6615H15.8333ZM5.83333 11.6615V14.9948H5C4.54167 14.9948 4.16667 14.6198 4.16667 14.1615V11.6615H5.83333ZM10 0.828125C8.01088 0.828125 6.10322 1.6183 4.6967 3.02482C3.29018 4.43135 2.5 6.339 2.5 8.32812V14.1615C2.5 15.5448 3.61667 16.6615 5 16.6615H7.5V9.99479H4.16667V8.32812C4.16667 5.10312 6.775 2.49479 10 2.49479C13.225 2.49479 15.8333 5.10312 15.8333 8.32812V9.99479H12.5V16.6615H15.8333V17.4948H10V19.1615H15C16.3833 19.1615 17.5 18.0448 17.5 16.6615V8.32812C17.5 6.339 16.7098 4.43135 15.3033 3.02482C13.8968 1.6183 11.9891 0.828125 10 0.828125Z" fill="white"/></svg>