<svg width="28" height="28" viewBox="0 0 28 28" fill="none" xmlns="http://www.w3.org/2000/svg"><path d="M14.0012 0.666504C10.3801 0.666504 9.92565 0.682333 8.5034 0.747059C7.08395 0.812057 6.11505 1.03678 5.26725 1.36652C4.39031 1.70706 3.6464 2.16262 2.90529 2.904C2.16363 3.64512 1.70805 4.389 1.36639 5.26567C1.03582 6.11373 0.810815 7.08289 0.746936 8.50178C0.683328 9.924 0.666656 10.3787 0.666656 13.9998C0.666656 17.621 0.682772 18.074 0.747207 19.4962C0.812496 20.9157 1.03722 21.8846 1.36666 22.7323C1.7075 23.6093 2.16306 24.3532 2.90445 25.0943C3.64531 25.8359 4.38919 26.2926 5.26559 26.6332C6.11392 26.9629 7.08312 27.1876 8.50229 27.2526C9.92453 27.3173 10.3787 27.3332 13.9996 27.3332C17.621 27.3332 18.0741 27.3173 19.4963 27.2526C20.9158 27.1876 21.8858 26.9629 22.7341 26.6332C23.6108 26.2926 24.3536 25.8359 25.0944 25.0943C25.8361 24.3532 26.2917 23.6093 26.6333 22.7326C26.9611 21.8846 27.1861 20.9154 27.2528 19.4965C27.3167 18.0743 27.3333 17.6209 27.3333 13.9998C27.3333 10.3787 27.3167 9.92429 27.2528 8.50206C27.1861 7.08261 26.9611 6.11373 26.6333 5.26595C26.2917 4.389 25.8361 3.64511 25.0944 2.904C24.3527 2.16233 23.6111 1.70678 22.7333 1.3665C21.8833 1.03678 20.9138 0.812057 19.4944 0.747059C18.0721 0.682333 17.6193 0.666504 13.9971 0.666504H14.0012ZM12.8051 3.06929C13.1601 3.06873 13.5562 3.06929 14.0012 3.06929C17.5613 3.06929 17.9832 3.08206 19.3891 3.14595C20.6891 3.2054 21.3946 3.42261 21.8647 3.60511C22.4869 3.84678 22.9305 4.13567 23.3969 4.60233C23.8636 5.06901 24.1524 5.51345 24.3947 6.13566C24.5772 6.60511 24.7947 7.31067 24.8538 8.61068C24.9177 10.0162 24.9316 10.4384 24.9316 13.9968C24.9316 17.5551 24.9177 17.9774 24.8538 19.3829C24.7944 20.6829 24.5772 21.3885 24.3947 21.8579C24.153 22.4801 23.8636 22.9232 23.3969 23.3896C22.9302 23.8562 22.4872 24.1451 21.8647 24.3868C21.3952 24.5701 20.6891 24.7868 19.3891 24.8462C17.9835 24.9101 17.5613 24.924 14.0012 24.924C10.4409 24.924 10.019 24.9101 8.6134 24.8462C7.3134 24.7862 6.60784 24.569 6.13755 24.3865C5.51532 24.1448 5.07086 23.8559 4.6042 23.3893C4.13753 22.9226 3.84864 22.4793 3.60641 21.8568C3.4239 21.3873 3.2064 20.6818 3.14724 19.3818C3.08335 17.9762 3.07057 17.554 3.07057 13.9934C3.07057 10.4329 3.08335 10.0129 3.14724 8.60734C3.20669 7.30733 3.4239 6.60178 3.60641 6.13179C3.84807 5.50956 4.13753 5.06512 4.6042 4.59845C5.07086 4.13178 5.51532 3.8429 6.13755 3.60068C6.60755 3.41733 7.3134 3.20068 8.6134 3.14094C9.84342 3.08539 10.3201 3.06873 12.8051 3.06594L12.8051 3.06929ZM21.1185 5.28317C20.2352 5.28317 19.5185 5.99901 19.5185 6.88261C19.5185 7.76595 20.2352 8.48262 21.1185 8.48262C22.0019 8.48262 22.7186 7.76595 22.7186 6.88261C22.7186 5.99928 22.0019 5.28263 21.1185 5.28263L21.1185 5.28317ZM14.0012 7.15261C10.2198 7.15261 7.15395 10.2184 7.15395 13.9998C7.15395 17.7812 10.2198 20.8457 14.0012 20.8457C17.7827 20.8457 20.8474 17.7812 20.8474 13.9998C20.8474 10.2184 17.7824 7.15261 14.001 7.15261H14.0012ZM14.0012 9.55539C16.4557 9.55539 18.4457 11.5451 18.4457 13.9998C18.4457 16.4543 16.4557 18.4443 14.0012 18.4443C11.5465 18.4443 9.55675 16.4543 9.55675 13.9998C9.55675 11.5451 11.5465 9.55539 14.0012 9.55539Z" fill="#FDFEFF"/></svg>