<svg width="16" height="16" viewBox="0 0 16 16" fill="none" xmlns="http://www.w3.org/2000/svg"><path d="M8.70001 5.20002C9.25697 5.20002 9.79112 5.42126 10.1849 5.81508C10.5788 6.20889 10.8 6.74303 10.8 7.29997C10.8 7.48561 10.8738 7.66366 11.0051 7.79493C11.1363 7.9262 11.3144 7.99995 11.5 7.99995C11.6857 7.99995 11.8637 7.9262 11.995 7.79493C12.1263 7.66366 12.2 7.48561 12.2 7.29997C12.2 6.37173 11.8313 5.48151 11.1749 4.82515C10.5185 4.16879 9.62828 3.80005 8.70001 3.80005C8.51435 3.80005 8.3363 3.8738 8.20503 4.00507C8.07375 4.13634 8 4.31439 8 4.50003C8 4.68568 8.07375 4.86372 8.20503 4.995C8.3363 5.12627 8.51435 5.20002 8.70001 5.20002Z" fill="white"/><path d="M8.70009 2.39997C9.99966 2.39997 11.246 2.9162 12.1649 3.83511C13.0839 4.75402 13.6001 6.00032 13.6001 7.29985C13.6001 7.4855 13.6739 7.66354 13.8052 7.79482C13.9364 7.92609 14.1145 7.99984 14.3001 7.99984C14.4858 7.99984 14.6639 7.92609 14.7951 7.79482C14.9264 7.66354 15.0002 7.4855 15.0002 7.29985C15.0002 5.62903 14.3364 4.02664 13.1549 2.84518C11.9734 1.66373 10.371 1 8.70009 1C8.51443 1 8.33638 1.07375 8.20511 1.20502C8.07383 1.33629 8.00008 1.51434 8.00008 1.69998C8.00008 1.88563 8.07383 2.06367 8.20511 2.19495C8.33638 2.32622 8.51443 2.39997 8.70009 2.39997ZM14.8252 10.7368C14.7867 10.6244 14.7202 10.5237 14.632 10.4441C14.5438 10.3645 14.4369 10.3086 14.3211 10.2818L10.1211 9.32281C10.0071 9.29696 9.88843 9.30007 9.77594 9.33186C9.66345 9.36365 9.56071 9.42311 9.47709 9.5048C9.37909 9.5958 9.37209 9.6028 8.91709 10.4708C7.40731 9.77511 6.19755 8.56042 5.50805 7.04786C6.39706 6.59987 6.40406 6.59987 6.49506 6.49487C6.57676 6.41126 6.63622 6.30853 6.66801 6.19604C6.6998 6.08355 6.70291 5.96489 6.67706 5.85089L5.71805 1.69998C5.69121 1.58427 5.63535 1.4773 5.55575 1.38913C5.47615 1.30096 5.37542 1.2345 5.26305 1.196C5.09957 1.13761 4.93076 1.09541 4.75904 1.07C4.58212 1.02898 4.40157 1.00553 4.22004 1C3.36603 1 2.547 1.33924 1.94313 1.94309C1.33925 2.54695 1 3.36595 1 4.21992C1.0037 7.07775 2.14065 9.81747 4.16152 11.8383C6.18238 13.8591 8.92219 14.996 11.7801 14.9997C12.203 14.9997 12.6217 14.9164 13.0124 14.7546C13.403 14.5928 13.758 14.3556 14.057 14.0566C14.356 13.7576 14.5932 13.4026 14.755 13.012C14.9169 12.6213 15.0002 12.2026 15.0002 11.7797C15.0004 11.6016 14.9863 11.4237 14.9582 11.2478C14.9287 11.0739 14.8842 10.9029 14.8252 10.7368ZM11.7801 13.5997C9.29293 13.5979 6.90814 12.609 5.14943 10.8504C3.39072 9.09174 2.40187 6.70703 2.40002 4.21992C2.40186 3.73781 2.5942 3.27597 2.93512 2.93506C3.27605 2.59415 3.7379 2.40181 4.22004 2.39997H4.45104L5.20005 5.64789L4.82204 5.84389C4.22004 6.15888 3.74403 6.41087 3.99603 6.95686C4.40639 8.11854 5.07039 9.17422 5.93977 10.0472C6.80915 10.9202 7.86209 11.5886 9.02209 12.0037C9.6101 12.2417 9.8411 11.8007 10.1561 11.1918L10.3591 10.8068L13.6001 11.5488V11.7797C13.5983 12.2619 13.406 12.7237 13.065 13.0646C12.7241 13.4055 12.2623 13.5979 11.7801 13.5997Z" fill="white"/></svg>