<svg width="40" height="40" viewBox="0 0 40 40" fill="none" xmlns="http://www.w3.org/2000/svg"><rect width="40" height="40" rx="20" fill="#F1F9FF"/><path d="M14.9593 32C11.7794 32 9.1875 29.4581 9.1875 26.3133V22.9557C9.1875 22.1635 9.97947 21.6315 10.7354 21.8916C11.0474 21.998 11.3594 22.069 11.6834 22.1163C11.8274 22.1399 11.9714 22.1635 12.1154 22.1635C12.2954 22.1872 12.4874 22.199 12.6674 22.199C13.9993 22.199 15.3193 21.7143 16.3632 20.8749C17.3592 21.7143 18.6431 22.199 20.0111 22.199C21.379 22.199 22.651 21.7379 23.6469 20.8867C24.6789 21.7143 25.9748 22.199 27.2948 22.199C27.4988 22.199 27.7148 22.1872 27.9068 22.1635C28.0508 22.1517 28.1707 22.1399 28.3027 22.1163C28.6627 22.069 28.9867 21.9744 29.3107 21.868C30.0547 21.6197 30.8346 22.1635 30.8346 22.932V26.3133C30.8346 29.4463 28.2547 32 25.0629 32H14.9593Z" fill="#2385C8"/><path d="M31.9749 15.9685L31.6389 12.8236C31.1589 9.39507 29.575 8 26.1911 8H23.4792H21.7753H18.2714H16.5555H13.7836C10.3997 8 8.82779 9.39507 8.33581 12.8591L8.02382 15.9803C7.90383 17.198 8.23981 18.3803 8.97178 19.3025C9.84775 20.4256 11.1917 21.064 12.6916 21.064C14.1436 21.064 15.5355 20.3429 16.4115 19.1961C17.1915 20.3429 18.5354 21.064 20.0233 21.064C21.5113 21.064 22.8192 20.3783 23.6112 19.2434C24.4992 20.3665 25.8671 21.064 27.3071 21.064C28.843 21.064 30.2229 20.3901 31.0869 19.2079C31.7829 18.2975 32.0949 17.1507 31.9749 15.9685ZM21.7993 14.9517H20.8993V15.8739C20.8993 16.3704 20.4913 16.7606 19.9993 16.7606C19.5074 16.7606 19.0994 16.3704 19.0994 15.8739V14.9517H18.1994C17.7074 14.9517 17.2995 14.5616 17.2995 14.065C17.2995 13.5803 17.7074 13.1783 18.1994 13.1783H19.0994V12.3389C19.0994 11.8542 19.5074 11.4522 19.9993 11.4522C20.4913 11.4522 20.8993 11.8542 20.8993 12.3389V13.1783H21.7993C22.2913 13.1783 22.6992 13.5803 22.6992 14.065C22.6992 14.5616 22.2913 14.9517 21.7993 14.9517Z" fill="#16547E"/></svg>