<svg width="40" height="40" viewBox="0 0 40 40" fill="none" xmlns="http://www.w3.org/2000/svg"><path d="M27.4921 29.0028H12.583C10.9262 29.0028 9.58301 27.6597 9.58301 26.0028V17.0963C9.71342 14.9921 10.1643 13.6278 11.3302 11.738C11.8492 10.8967 12.7874 10.417 13.7759 10.417H26.7132C27.7925 10.417 28.8075 10.9877 29.2828 11.9567C30.1307 13.6854 30.457 15.0234 30.4921 17.0963V26.0028C30.4921 27.6597 29.149 29.0028 27.4921 29.0028Z" fill="#2385C8" stroke="#FDFEFF" stroke-width="1.5" stroke-linecap="round" stroke-linejoin="round"/><path d="M12.411 17.9675C11.4506 17.9675 10.7567 17.6252 10.2969 17.2729C9.75977 16.8614 9.62513 16.1483 9.76581 15.4864C10.0335 14.2271 10.4832 13.0258 11.3466 11.651C11.8488 10.8513 12.7548 10.417 13.6991 10.417H14.954H20.04H24.8434H26.799C27.8333 10.417 28.8172 10.9387 29.2806 11.8635C29.9054 13.1105 30.228 14.2107 30.3883 15.3915C30.4862 16.1128 30.2595 16.8557 29.6667 17.2782C29.1752 17.6286 28.488 17.9675 27.669 17.9675C25.9737 17.9675 24.8434 16.5155 24.8434 16.5155C24.8434 16.5155 23.7132 17.9675 22.3004 17.9675C20.8877 17.9675 20.04 16.5155 20.04 16.5155C20.04 16.5155 18.9098 17.9675 17.497 17.9675C16.3668 17.9675 14.954 16.5155 14.954 16.5155C14.954 16.5155 13.8238 17.9675 12.411 17.9675Z" fill="#F77E21"/><path d="M14.954 16.5155C14.954 16.5155 13.8238 17.9675 12.411 17.9675C11.4506 17.9675 10.7567 17.6252 10.2969 17.2729C9.75977 16.8614 9.62513 16.1483 9.76581 15.4864C10.0335 14.2271 10.4832 13.0258 11.3466 11.651C11.8488 10.8513 12.7548 10.417 13.6991 10.417L14.954 10.417M14.954 16.5155C14.954 16.5155 16.3668 17.9675 17.497 17.9675C18.9098 17.9675 20.04 16.5155 20.04 16.5155M14.954 16.5155V10.417M20.04 16.5155C20.04 16.5155 20.8877 17.9675 22.3004 17.9675C23.7132 17.9675 24.8434 16.5155 24.8434 16.5155M20.04 16.5155V10.417M24.8434 16.5155C24.8434 16.5155 25.9737 17.9675 27.669 17.9675C28.488 17.9675 29.1752 17.6286 29.6667 17.2782C30.2595 16.8557 30.4862 16.1128 30.3883 15.3915C30.228 14.2107 29.9054 13.1105 29.2806 11.8635C28.8172 10.9387 27.8333 10.417 26.799 10.417L24.8434 10.417M24.8434 16.5155V10.417M14.954 10.417H20.04M20.04 10.417H24.8434" stroke="#FDFEFF" stroke-width="1.5" stroke-linecap="round" stroke-linejoin="round"/><mask id="path-5-inside-1_2516_12341" fill="white"><rect x="11.6157" y="20.2909" width="11.6162" height="6.9697" rx="1"/></mask><rect x="11.6157" y="20.2909" width="11.6162" height="6.9697" rx="1" fill="#2385C8" stroke="#FDFEFF" stroke-width="3" mask="url(#path-5-inside-1_2516_12341)"/><mask id="path-6-inside-2_2516_12341" fill="white"><rect x="24.3936" y="20.2909" width="4.06566" height="6.9697" rx="1"/></mask><rect x="24.3936" y="20.2909" width="4.06566" height="6.9697" rx="1" fill="#2385C8" stroke="#FDFEFF" stroke-width="3" mask="url(#path-6-inside-2_2516_12341)"/><rect x="0.75" y="0.75" width="38.5" height="38.5" rx="19.25" stroke="#2385C8" stroke-width="1.5"/></svg>