<svg width="48" height="40" viewBox="0 0 48 40" fill="none" xmlns="http://www.w3.org/2000/svg"><rect width="48" height="40" rx="20" fill="#F77E21"/><path d="M25.8151 20.1971L18.2831 21.4531C18.1965 21.4675 18.1152 21.5045 18.0475 21.5604C17.9797 21.6162 17.9278 21.6889 17.8971 21.7711L15.3001 28.7281C15.0521 29.3681 15.7211 29.9781 16.3351 29.6711L34.3351 20.6711C34.4598 20.6088 34.5646 20.5131 34.6379 20.3946C34.7112 20.276 34.75 20.1394 34.75 20.0001C34.75 19.8607 34.7112 19.7241 34.6379 19.6056C34.5646 19.4871 34.4598 19.3913 34.3351 19.3291L16.3351 10.3291C15.7211 10.0221 15.0521 10.6331 15.3001 11.2721L17.8981 18.2291C17.9287 18.3115 17.9805 18.3844 18.0483 18.4404C18.116 18.4964 18.1974 18.5335 18.2841 18.5481L25.8161 19.8031C25.8624 19.8112 25.9044 19.8354 25.9347 19.8714C25.965 19.9075 25.9816 19.953 25.9816 20.0001C25.9816 20.0471 25.965 20.0927 25.9347 20.1287C25.9044 20.1648 25.8624 20.189 25.8161 20.1971H25.8151Z" fill="white"/></svg>