<svg width="24" height="28" viewBox="0 0 24 28" fill="none" xmlns="http://www.w3.org/2000/svg"><path d="M18.3046 13.026C18.1911 12.9709 18.0759 12.9179 17.9591 12.8672C17.7557 9.07459 15.7083 6.90331 12.2703 6.88109C12.2548 6.88099 12.2393 6.88099 12.2237 6.88099C10.1674 6.88099 8.45713 7.76941 7.4045 9.38605L9.29526 10.6988C10.0816 9.49127 11.3157 9.23384 12.2246 9.23384C12.2351 9.23384 12.2456 9.23384 12.256 9.23393C13.388 9.24124 14.2422 9.57436 14.7951 10.224C15.1974 10.697 15.4665 11.3505 15.5997 12.1754C14.5961 12.0027 13.5107 11.9496 12.3503 12.017C9.08171 12.2075 6.98036 14.137 7.1215 16.8182C7.19311 18.1782 7.8625 19.3482 9.00628 20.1125C9.97333 20.7586 11.2188 21.0746 12.5133 21.003C14.2227 20.9082 15.5638 20.248 16.4994 19.0409C17.2099 18.1243 17.6593 16.9364 17.8577 15.4396C18.6724 15.9372 19.2761 16.5921 19.6096 17.3793C20.1766 18.7175 20.2097 20.9165 18.4369 22.7093C16.8837 24.2798 15.0167 24.9593 12.1951 24.9803C9.06517 24.9568 6.69806 23.9408 5.15903 21.9605C3.71786 20.1062 2.97305 17.4279 2.94526 13.9998C2.97305 10.5718 3.71786 7.89339 5.15903 6.0391C6.69806 4.05885 9.06513 3.04289 12.195 3.01935C15.3477 3.04307 17.756 4.06392 19.354 6.05373C20.1375 7.0295 20.7282 8.25661 21.1177 9.68738L23.3334 9.08903C22.8613 7.32792 22.1185 5.81035 21.1078 4.55178C19.0592 2.00077 16.0631 0.693608 12.2028 0.666504H12.1873C8.3348 0.693514 5.37227 2.00564 3.38205 4.56641C1.61103 6.84517 0.697479 10.0159 0.666783 13.9905L0.666687 13.9998L0.666783 14.0092C0.697479 17.9837 1.61103 21.1546 3.38205 23.4333C5.37227 25.994 8.3348 27.3062 12.1873 27.3332H12.2028C15.6279 27.3091 18.0421 26.4015 20.031 24.3903C22.6331 21.759 22.5548 18.4608 21.6971 16.4361C21.0818 14.9841 19.9087 13.8049 18.3046 13.026ZM12.3909 18.6536C10.9583 18.7353 9.47 18.0844 9.39661 16.6904C9.34222 15.6568 10.1234 14.5034 12.4788 14.3661C12.7486 14.3503 13.0133 14.3426 13.2733 14.3426C14.1289 14.3426 14.9293 14.4267 15.657 14.5878C15.3855 18.0186 13.7935 18.5757 12.3909 18.6536Z" fill="#FDFEFF"/></svg>