<svg width="24" height="28" viewBox="0 0 24 28" fill="none" xmlns="http://www.w3.org/2000/svg"><path d="M17.1266 18.8048V9.59675C19.1387 11.0617 21.2753 11.5904 23.3333 11.6382V7.06626C19.6299 7.06626 17.1124 3.88354 17.1124 0.666504H12.6355V18.0047C12.6355 21.1398 10.9524 22.7508 8.89841 22.7508C7.71767 22.7508 6.71135 22.2234 6.16416 21.649C5.81681 21.2843 5.35591 20.5703 5.1961 19.7418C5.00348 18.4534 5.20589 17.4726 5.81681 16.6379C6.44667 15.8529 7.91595 14.564 10.0177 15.2186L10.0177 10.5419C4.40717 9.89632 -0.0570399 14.4731 0.764447 20.2691C1.41985 24.8934 5.94052 27.9199 9.93068 27.2372C14.5798 26.6652 17.1266 22.7508 17.1266 18.8048Z" fill="#FDFEFF"/></svg>