<svg width="16" height="16" viewBox="0 0 16 16" fill="none" xmlns="http://www.w3.org/2000/svg"><path d="M12.9546 3.03528C12.3099 2.3875 11.5421 1.87394 10.696 1.52452C9.84989 1.1751 8.94238 0.996811 8.02635 1.00004C4.18796 1.00004 1.05977 4.11327 1.05625 7.93525C1.05625 9.15936 1.37795 10.3502 1.98531 11.4046L1 15L4.69512 14.0357C5.71735 14.5895 6.86256 14.8798 8.02635 14.8801H8.02987C11.8691 14.8801 14.9965 11.7668 15 7.94137C15.0008 7.02967 14.8205 6.1268 14.4693 5.28478C14.1181 4.44277 13.6031 3.67825 12.9538 3.03528H12.9546ZM8.02635 13.7058C6.98831 13.7062 5.96934 13.4281 5.07659 12.9008L4.86564 12.7748L2.67353 13.3471L3.25891 11.2182L3.12179 10.9986C2.54151 10.0801 2.23462 9.01676 2.23669 7.93175C2.23669 4.75902 4.83575 2.17079 8.02987 2.17079C8.79082 2.16943 9.54451 2.31802 10.2475 2.60801C10.9505 2.898 11.5888 3.32364 12.1258 3.8604C12.6646 4.39506 13.0918 5.03064 13.3826 5.73046C13.6735 6.43029 13.8223 7.18052 13.8204 7.93787C13.8169 11.122 11.2178 13.7058 8.02635 13.7058ZM11.2038 9.38861C11.0306 9.30199 10.1754 8.88287 10.0145 8.82337C9.85458 8.76649 9.73768 8.73674 9.62341 8.90999C9.50651 9.08237 9.17251 9.47524 9.07231 9.58811C8.97211 9.70449 8.86839 9.71761 8.69436 9.63186C8.5212 9.54436 7.95955 9.36236 7.29506 8.76999C6.77648 8.31062 6.4293 7.74187 6.32558 7.5695C6.22538 7.39625 6.31591 7.3035 6.40293 7.21688C6.4794 7.13988 6.57608 7.01388 6.6631 6.91413C6.75099 6.81438 6.78 6.74088 6.83713 6.62538C6.89426 6.50813 6.86701 6.40838 6.82395 6.32176C6.78 6.23513 6.43281 5.38026 6.28603 5.03552C6.14539 4.69514 6.00212 4.74239 5.89489 4.73802C5.79469 4.73189 5.67779 4.73189 5.56089 4.73189C5.47261 4.73408 5.38574 4.7544 5.30572 4.7916C5.22571 4.82879 5.15428 4.88204 5.09592 4.94802C4.93595 5.12127 4.48857 5.54039 4.48857 6.39526C4.48857 7.25013 5.11262 8.07175 5.20052 8.18812C5.28666 8.3045 6.42578 10.0536 8.17402 10.8061C8.58713 10.9855 8.91234 11.0914 9.16636 11.1719C9.58386 11.3049 9.96093 11.2847 10.2615 11.2419C10.5955 11.1911 11.2908 10.8219 11.4376 10.4167C11.5817 10.0107 11.5817 9.66424 11.5378 9.59161C11.4947 9.51811 11.3778 9.47524 11.2038 9.38861Z" fill="white"/></svg>